<?xml version="1.0" encoding="utf-8"?>
<!-- Generator: Adobe Illustrator 22.0.1, SVG Export Plug-In . SVG Version: 6.00 Build 0)  -->
<svg version="1.1" id="Layer_1" xmlns="http://www.w3.org/2000/svg" xmlns:xlink="http://www.w3.org/1999/xlink" x="0px" y="0px"
	 viewBox="0 0 579.5 157" style="enable-background:new 0 0 579.5 157;" xml:space="preserve">
<style type="text/css">
	.st0{fill:#4C4C4D;}
</style>
<g>
	<g>
		<path class="st0" d="M31.1,71.3c-1.9-5-5.4-7.5-10.7-7.5c-3.5,0-6.5,1.2-8.8,3.8c-2.3,2.5-3.5,6.2-3.5,10.9s1.2,8.4,3.5,10.9
			s5.3,3.8,8.8,3.8c5.2,0,8.8-2.5,10.7-7.5l7.2,1.8c-2,8.3-8.5,13.1-17.9,13.1c-5.7,0-10.5-2-14.5-5.9C2,90.8,0,85.4,0,78.5
			s2-12.3,5.9-16.2s8.8-5.9,14.5-5.9c9.4,0,15.8,4.7,17.9,13.1L31.1,71.3z"/>
		<path class="st0" d="M87.6,100.1l-3.1-10.2H70.7l-3.1,10.2H59l14.6-43.2h8l14.6,43.2H87.6z M77.6,67.5l-4.6,15h9.1L77.6,67.5z"/>
		<path class="st0" d="M120.6,100.1V56.9h9l10.1,26.9l10.2-26.9h9v43.2h-8V73.5l-8.3,22.7h-5.8l-8.3-22.7v26.6H120.6z"/>
		<path class="st0" d="M194.3,83.2v16.9h-8V56.9h16.3c8.8,0,13.5,5.2,13.5,13.1s-4.7,13.1-13.5,13.1h-8.3V83.2z M202.2,75.8
			c3.8,0,5.7-1.9,5.7-5.7s-1.9-5.7-5.7-5.7h-8v11.4H202.2z"/>
	</g>
	<g>
		<g>
			<g>
				<g>
					<polygon class="st0" points="375.1,136.9 375,55.5 375,49.2 334,49.2 334,61.7 341.8,61.7 341.8,136.9 333.9,136.9 
						333.9,149.4 383,149.4 383,136.9 					"/>
					<path class="st0" d="M358.6,39c9.2,0,16.7-7.5,16.7-16.7s-7.5-16.7-16.7-16.7c-9.2,0-16.7,7.5-16.7,16.7
						C341.8,31.5,349.3,39,358.6,39z"/>
				</g>
				<g>
					<path class="st0" d="M248.6,11.2c0-2.2,1.4-3.6,3.6-3.6h27.6c2.2,0,3.6,1.4,3.6,3.6v107c0,1.4,0.7,2.2,2.2,2.2H314
						c2.2,0,3.6,1.5,3.6,3.6v21.8c0,2.2-1.4,3.6-3.6,3.6h-61.8c-2.2,0-3.6-1.5-3.6-3.6V11.2z"/>
				</g>
				<g id="j3miW5_9_">
					<g>
						<path class="st0" d="M418.4,0c0.3,0,0.6,0,0.8,0c11.3,2.8,9.6,17,11.1,28.1c3.9,29,13.8,60.2,19.6,87.3
							c10.8-32.2,12-71,23.8-102.5c5.7-0.3,10.1,1.5,13.6,4.1c0,1,0,1.9,0,2.9c-13.9,42.9-15.9,94.1-31.5,135.9
							c-1.7-0.2-2.7,0.1-2.6,1.2c-0.8,0-1.7,0-2.6,0c-2.1-2.4-6.1-1.7-9.4-0.6c-16-5.8-20-23.4-24.7-39.2
							c-8.6-28.9-17.8-65.5-22.1-95.5c0-3.5,0-7,0-10.5c2-1.4,5.7-3.7,8.5-1.2c-0.1-1.5-0.2-2.8,1.7-2.9c3.9,1.1,5.1-1.3,8.5,1.2
							c0-2.3,0-4.7,0-7C413.8,0,418,1.3,418.4,0z"/>
					</g>
				</g>
				<g>
					<path class="st0" d="M524.3,67.5h46v21h-46v27.3h55.2v21h-78.6V20h78.6v21h-55.2V67.5z"/>
				</g>
			</g>
		</g>
	</g>
</g>
</svg>
