<?xml version="1.0" encoding="utf-8"?>
<!-- Generator: Adobe Illustrator 22.0.1, SVG Export Plug-In . SVG Version: 6.00 Build 0)  -->
<svg version="1.1" id="Layer_1" xmlns="http://www.w3.org/2000/svg" xmlns:xlink="http://www.w3.org/1999/xlink" x="0px" y="0px"
	 viewBox="0 0 90 90" style="enable-background:new 0 0 90 90;" xml:space="preserve">
<style type="text/css">
	.st0{fill:#F06B4B;}
</style>
<path class="st0" d="M87.1,45.3L78,36.4l3.4-12.2L69.1,21L65.9,8.7l-12.2,3.4l-8.9-9.1l-8.9,9.1L23.6,8.7L20.5,21L8.2,24.2l3.4,12.2
	l-9.1,8.9l9.1,8.9L8.2,66.5l12.3,3.2l3.2,12.3l12.2-3.4l8.9,9.1l8.9-9.1l12.2,3.4l3.2-12.3l12.3-3.2L78,54.2L87.1,45.3z M38.9,62.1
	L26.3,48.8l4.8-5.1l7.8,8.2l19.5-20.4l4.8,5.1L38.9,62.1z"/>
</svg>
