<svg id="svg" version="1.1" width="400" height="400" xmlns="http://www.w3.org/2000/svg" xmlns:xlink="http://www.w3.org/1999/xlink" style="display: block;"><g id="svgg"><path id="path0" d="M0.000 200.000 L 0.000 400.000 200.000 400.000 L 400.000 400.000 400.000 200.000 L 400.000 0.000 200.000 0.000 L 0.000 0.000 0.000 200.000 M271.551 5.180 C 272.287 6.292,273.342 7.351,275.152 8.796 C 275.839 9.343,276.400 9.975,276.400 10.201 C 276.400 10.426,276.893 10.968,277.496 11.405 C 278.098 11.842,279.175 12.830,279.888 13.600 C 280.601 14.370,281.373 15.180,281.604 15.400 C 281.835 15.620,282.741 16.520,283.616 17.400 C 284.492 18.280,285.368 19.153,285.564 19.340 C 285.760 19.527,286.640 20.400,287.520 21.280 C 288.400 22.160,289.300 23.060,289.520 23.280 C 289.740 23.500,290.640 24.400,291.520 25.280 C 292.400 26.160,293.300 27.060,293.520 27.280 C 293.740 27.500,294.640 28.400,295.520 29.280 C 296.400 30.160,297.300 31.060,297.520 31.280 C 297.740 31.500,298.640 32.400,299.520 33.280 C 300.400 34.160,301.273 35.040,301.460 35.234 C 301.647 35.429,302.430 36.209,303.200 36.967 C 303.970 37.726,304.915 38.673,305.300 39.073 C 305.685 39.473,306.702 40.493,307.560 41.340 C 308.418 42.187,309.273 43.037,309.460 43.229 C 309.647 43.420,319.385 53.123,331.100 64.790 L 352.400 86.003 352.400 225.669 C 352.400 368.220,352.386 369.556,350.928 371.015 C 350.445 371.497,348.571 371.600,340.241 371.600 L 330.139 371.600 329.170 372.631 C 328.207 373.655,328.199 373.735,328.000 384.017 C 327.769 395.980,327.989 395.353,323.800 395.993 C 320.458 396.504,50.984 396.391,49.956 395.879 C 48.103 394.954,48.200 405.076,48.200 212.439 C 48.200 42.629,48.242 31.323,48.882 30.155 C 49.781 28.513,50.531 28.410,61.628 28.404 L 70.656 28.400 71.528 27.397 C 72.366 26.433,72.402 26.037,72.447 17.297 C 72.510 5.269,72.577 5.028,76.011 4.452 C 77.303 4.236,117.690 4.109,174.551 4.143 L 270.902 4.200 271.551 5.180 M81.415 10.400 C 81.125 10.730,80.511 11.712,80.050 12.581 L 79.214 14.163 79.204 188.318 L 79.194 362.474 80.571 363.851 L 81.949 365.229 212.066 365.182 C 350.368 365.132,343.326 365.231,345.500 363.304 L 346.400 362.506 346.400 228.015 L 346.400 93.523 345.536 92.262 C 343.562 89.382,347.043 89.619,306.583 89.609 L 270.167 89.600 268.683 88.201 L 267.200 86.802 267.200 50.595 C 267.200 12.406,267.255 13.588,265.400 11.866 C 263.283 9.901,268.642 10.014,172.198 9.903 C 92.386 9.812,81.882 9.869,81.415 10.400 M273.001 16.963 L 272.000 17.964 272.000 50.112 L 272.000 82.261 272.926 83.130 L 273.852 84.000 306.103 84.000 L 338.355 84.000 339.407 83.095 L 340.459 82.191 339.529 81.318 C 339.018 80.838,337.931 79.760,337.114 78.923 C 336.297 78.085,335.345 77.130,335.000 76.800 C 332.506 74.416,331.600 73.444,331.600 73.154 C 331.600 72.971,331.059 72.541,330.398 72.199 C 329.737 71.857,328.740 70.888,328.183 70.046 C 327.626 69.204,326.734 68.316,326.201 68.073 C 325.668 67.831,324.755 66.911,324.172 66.029 C 323.588 65.147,322.761 64.315,322.333 64.179 C 321.906 64.043,321.023 63.197,320.372 62.298 C 319.721 61.400,318.677 60.353,318.052 59.973 C 317.428 59.593,316.521 58.643,316.038 57.862 C 315.555 57.081,314.799 56.327,314.358 56.187 C 313.917 56.047,313.023 55.197,312.372 54.298 C 311.721 53.400,310.677 52.353,310.052 51.973 C 309.428 51.593,308.528 50.655,308.055 49.888 C 307.581 49.121,306.700 48.289,306.096 48.038 C 305.493 47.787,304.590 46.866,304.088 45.991 C 303.586 45.116,302.945 44.400,302.663 44.400 C 302.063 44.400,300.302 42.597,299.635 41.300 C 299.380 40.805,298.942 40.400,298.661 40.400 C 298.063 40.400,296.301 38.595,295.635 37.300 C 295.380 36.805,294.942 36.400,294.661 36.400 C 294.063 36.400,292.301 34.595,291.635 33.300 C 291.380 32.805,290.942 32.400,290.661 32.400 C 290.063 32.400,288.301 30.595,287.635 29.300 C 287.380 28.805,286.942 28.400,286.661 28.400 C 286.063 28.400,284.301 26.595,283.635 25.300 C 283.380 24.805,282.927 24.400,282.627 24.400 C 282.031 24.400,279.600 21.812,279.600 21.176 C 279.600 20.958,279.156 20.611,278.613 20.405 C 278.071 20.199,277.068 19.258,276.385 18.315 C 274.673 15.952,274.201 15.763,273.001 16.963 M57.400 35.323 C 56.960 35.584,56.015 36.213,55.300 36.719 L 54.000 37.641 54.003 211.920 C 54.005 378.412,54.037 386.248,54.718 387.281 C 55.110 387.875,55.964 388.820,56.615 389.380 L 57.800 390.399 187.929 390.400 C 291.511 390.400,318.154 390.298,318.534 389.900 C 320.272 388.076,320.400 387.427,320.400 380.430 L 320.400 373.632 319.304 372.616 L 318.208 371.600 197.204 371.581 C 60.077 371.559,73.894 371.935,72.931 368.200 C 72.514 366.584,72.414 334.665,72.408 201.989 C 72.399 23.832,72.550 37.356,70.545 35.300 C 69.885 34.623,58.544 34.643,57.400 35.323 M163.073 36.428 C 165.873 37.492,165.898 38.264,163.219 41.100 L 162.369 42.000 132.084 41.997 C 94.673 41.992,98.040 42.338,96.100 38.303 C 96.021 38.140,96.408 37.555,96.960 37.003 L 97.964 36.000 129.956 36.000 C 151.704 36.000,162.308 36.137,163.073 36.428 M145.919 62.324 C 146.425 62.613,146.986 63.243,147.166 63.724 C 147.993 65.936,147.995 66.255,147.187 67.122 L 146.369 68.000 122.073 68.000 C 98.227 68.000,97.765 67.985,97.089 67.195 C 95.810 65.702,96.866 62.507,98.826 61.944 C 100.744 61.393,144.911 61.749,145.919 62.324 M134.830 113.313 C 136.259 114.418,136.796 117.700,135.738 118.869 C 134.697 120.018,98.399 119.999,97.248 118.848 C 96.355 117.955,96.817 114.189,97.928 113.300 C 98.819 112.587,133.907 112.599,134.830 113.313 M282.658 113.400 C 283.653 114.396,283.885 118.402,282.986 119.060 C 281.897 119.856,178.149 119.839,177.100 119.043 C 176.178 118.344,176.171 115.511,177.086 113.962 L 177.772 112.800 229.915 112.800 C 275.744 112.800,282.130 112.873,282.658 113.400 M175.433 141.013 L 176.369 142.226 175.422 143.413 L 174.476 144.600 136.200 144.600 L 97.924 144.600 96.998 143.439 C 95.991 142.175,96.086 141.399,97.381 140.312 C 98.145 139.671,100.780 139.630,136.349 139.712 L 174.498 139.800 175.433 141.013 M263.373 139.956 C 263.494 140.151,264.089 140.435,264.696 140.587 C 266.696 141.086,267.340 141.977,266.288 142.789 C 263.668 144.813,262.957 144.876,244.088 144.733 L 226.464 144.600 225.432 143.630 C 223.799 142.095,224.378 140.582,226.820 140.007 C 228.720 139.559,263.098 139.511,263.373 139.956 M138.971 165.029 C 139.797 165.854,139.801 169.135,138.977 170.311 L 138.355 171.200 118.677 171.172 C 107.855 171.156,98.650 171.007,98.223 170.840 C 96.877 170.313,96.233 166.445,97.301 165.300 L 98.139 164.400 118.241 164.400 C 135.982 164.400,138.417 164.474,138.971 165.029 M219.819 164.650 C 223.022 165.035,223.441 165.528,222.807 168.172 C 222.058 171.293,223.003 171.200,192.029 171.200 C 162.396 171.200,164.825 171.484,164.488 167.976 C 164.116 164.108,161.894 164.399,191.762 164.403 C 206.083 164.405,218.709 164.516,219.819 164.650 M279.015 165.072 C 279.808 165.865,279.678 169.542,278.820 170.576 C 278.083 171.464,245.970 171.528,245.235 170.642 C 244.345 169.570,244.224 166.215,245.040 165.261 C 246.066 164.064,277.830 163.887,279.015 165.072 M156.069 191.269 C 160.416 192.225,161.186 195.131,157.330 196.026 C 156.489 196.221,142.829 196.385,126.975 196.390 L 98.150 196.400 97.117 195.300 C 95.518 193.598,96.798 191.430,99.600 191.095 C 103.208 190.664,154.031 190.820,156.069 191.269 M264.151 192.077 C 266.724 193.554,267.119 194.193,265.885 194.882 C 263.187 196.389,263.212 196.388,224.158 196.394 L 186.117 196.400 185.058 195.419 C 183.759 194.215,183.758 194.142,185.014 192.293 L 186.029 190.800 223.978 190.800 L 261.928 190.800 264.151 192.077 M242.974 217.171 C 243.748 218.026,243.555 219.289,242.461 220.533 C 240.748 222.480,243.929 222.400,168.559 222.400 L 98.016 222.400 97.208 220.816 C 96.237 218.912,96.187 217.870,97.029 217.029 C 98.115 215.942,241.989 216.083,242.974 217.171 M163.874 268.836 C 165.999 269.864,166.002 270.011,163.942 272.010 L 162.285 273.618 130.374 273.509 L 98.464 273.400 97.470 272.466 C 96.018 271.101,95.883 270.080,97.008 268.956 L 97.964 268.000 130.056 268.000 C 161.787 268.000,162.167 268.009,163.874 268.836 M142.725 293.710 C 142.958 293.990,143.450 295.107,143.818 296.193 L 144.488 298.166 143.407 299.096 L 142.325 300.026 120.174 299.913 L 98.022 299.800 97.148 298.926 C 95.679 297.456,97.045 293.710,99.130 293.490 C 103.485 293.030,142.324 293.226,142.725 293.710 " stroke="none" fill="#ffffff" fill-rule="evenodd"></path><path id="path1" d="M76.011 4.452 C 72.577 5.028,72.510 5.269,72.447 17.297 C 72.402 26.037,72.366 26.433,71.528 27.397 L 70.656 28.400 61.628 28.404 C 50.531 28.410,49.781 28.513,48.882 30.155 C 48.242 31.323,48.200 42.629,48.200 212.439 C 48.200 405.076,48.103 394.954,49.956 395.879 C 50.984 396.391,320.458 396.504,323.800 395.993 C 327.989 395.353,327.769 395.980,328.000 384.017 C 328.199 373.735,328.207 373.655,329.170 372.631 L 330.139 371.600 340.241 371.600 C 348.571 371.600,350.445 371.497,350.928 371.015 C 352.386 369.556,352.400 368.220,352.400 225.669 L 352.400 86.003 331.100 64.790 C 319.385 53.123,309.647 43.420,309.460 43.229 C 309.273 43.037,308.418 42.187,307.560 41.340 C 306.702 40.493,305.685 39.473,305.300 39.073 C 304.915 38.673,303.970 37.726,303.200 36.967 C 302.430 36.209,301.647 35.429,301.460 35.234 C 301.273 35.040,300.400 34.160,299.520 33.280 C 298.640 32.400,297.740 31.500,297.520 31.280 C 297.300 31.060,296.400 30.160,295.520 29.280 C 294.640 28.400,293.740 27.500,293.520 27.280 C 293.300 27.060,292.400 26.160,291.520 25.280 C 290.640 24.400,289.740 23.500,289.520 23.280 C 289.300 23.060,288.400 22.160,287.520 21.280 C 286.640 20.400,285.760 19.527,285.564 19.340 C 285.368 19.153,284.492 18.280,283.616 17.400 C 282.741 16.520,281.835 15.620,281.604 15.400 C 281.373 15.180,280.601 14.370,279.888 13.600 C 279.175 12.830,278.098 11.842,277.496 11.405 C 276.893 10.968,276.400 10.426,276.400 10.201 C 276.400 9.975,275.839 9.343,275.152 8.796 C 273.342 7.351,272.287 6.292,271.551 5.180 L 270.902 4.200 174.551 4.143 C 117.690 4.109,77.303 4.236,76.011 4.452 M263.527 10.565 C 264.885 11.272,266.059 12.357,266.700 13.499 C 267.090 14.193,267.200 22.372,267.200 50.595 L 267.200 86.802 268.683 88.201 L 270.167 89.600 306.583 89.609 C 347.043 89.619,343.562 89.382,345.536 92.262 L 346.400 93.523 346.400 228.015 L 346.400 362.506 345.500 363.304 C 343.326 365.231,350.368 365.132,212.066 365.182 L 81.949 365.229 80.571 363.851 L 79.194 362.474 79.204 188.318 L 79.214 14.163 80.050 12.581 C 80.511 11.712,81.125 10.730,81.415 10.400 C 82.184 9.526,261.842 9.689,263.527 10.565 M276.385 18.315 C 277.068 19.258,278.071 20.199,278.613 20.405 C 279.156 20.611,279.600 20.958,279.600 21.176 C 279.600 21.812,282.031 24.400,282.627 24.400 C 282.927 24.400,283.380 24.805,283.635 25.300 C 284.301 26.595,286.063 28.400,286.661 28.400 C 286.942 28.400,287.380 28.805,287.635 29.300 C 288.301 30.595,290.063 32.400,290.661 32.400 C 290.942 32.400,291.380 32.805,291.635 33.300 C 292.301 34.595,294.063 36.400,294.661 36.400 C 294.942 36.400,295.380 36.805,295.635 37.300 C 296.301 38.595,298.063 40.400,298.661 40.400 C 298.942 40.400,299.380 40.805,299.635 41.300 C 300.302 42.597,302.063 44.400,302.663 44.400 C 302.945 44.400,303.586 45.116,304.088 45.991 C 304.590 46.866,305.493 47.787,306.096 48.038 C 306.700 48.289,307.581 49.121,308.055 49.888 C 308.528 50.655,309.428 51.593,310.052 51.973 C 310.677 52.353,311.721 53.400,312.372 54.298 C 313.023 55.197,313.917 56.047,314.358 56.187 C 314.799 56.327,315.555 57.081,316.038 57.862 C 316.521 58.643,317.428 59.593,318.052 59.973 C 318.677 60.353,319.721 61.400,320.372 62.298 C 321.023 63.197,321.906 64.043,322.333 64.179 C 322.761 64.315,323.588 65.147,324.172 66.029 C 324.755 66.911,325.668 67.831,326.201 68.073 C 326.734 68.316,327.626 69.204,328.183 70.046 C 328.740 70.888,329.737 71.857,330.398 72.199 C 331.059 72.541,331.600 72.971,331.600 73.154 C 331.600 73.444,332.506 74.416,335.000 76.800 C 335.345 77.130,336.297 78.085,337.114 78.923 C 337.931 79.760,339.018 80.838,339.529 81.318 L 340.459 82.191 339.407 83.095 L 338.355 84.000 306.103 84.000 L 273.852 84.000 272.926 83.130 L 272.000 82.261 272.000 50.112 L 272.000 17.964 273.001 16.963 C 274.201 15.763,274.673 15.952,276.385 18.315 M70.545 35.300 C 72.550 37.356,72.399 23.832,72.408 201.989 C 72.414 334.665,72.514 366.584,72.931 368.200 C 73.894 371.935,60.077 371.559,197.204 371.581 L 318.208 371.600 319.304 372.616 L 320.400 373.632 320.400 380.430 C 320.400 387.427,320.272 388.076,318.534 389.900 C 318.154 390.298,291.511 390.400,187.929 390.400 L 57.800 390.399 56.615 389.380 C 55.964 388.820,55.110 387.875,54.718 387.281 C 54.037 386.248,54.005 378.412,54.003 211.920 L 54.000 37.641 55.300 36.719 C 57.892 34.882,58.053 34.848,64.129 34.824 C 68.371 34.807,70.196 34.942,70.545 35.300 M96.960 37.003 C 96.408 37.555,96.021 38.140,96.100 38.303 C 98.040 42.338,94.673 41.992,132.084 41.997 L 162.369 42.000 163.219 41.100 C 165.308 38.888,165.643 38.163,164.889 37.481 C 163.296 36.039,162.384 36.000,129.956 36.000 L 97.964 36.000 96.960 37.003 M98.826 61.944 C 96.866 62.507,95.810 65.702,97.089 67.195 C 97.765 67.985,98.227 68.000,122.073 68.000 L 146.369 68.000 147.187 67.122 C 147.995 66.255,147.993 65.936,147.166 63.724 C 146.448 61.805,146.440 61.804,122.400 61.732 C 109.970 61.695,99.362 61.790,98.826 61.944 M97.928 113.300 C 96.817 114.189,96.355 117.955,97.248 118.848 C 98.399 119.999,134.697 120.018,135.738 118.869 C 136.796 117.700,136.259 114.418,134.830 113.313 C 133.907 112.599,98.819 112.587,97.928 113.300 M177.086 113.962 C 176.171 115.511,176.178 118.344,177.100 119.043 C 178.149 119.839,281.897 119.856,282.986 119.060 C 283.608 118.605,283.688 118.164,283.491 116.260 C 283.096 112.434,288.756 112.800,229.915 112.800 L 177.772 112.800 177.086 113.962 M97.381 140.312 C 96.086 141.399,95.991 142.175,96.998 143.439 L 97.924 144.600 136.200 144.600 L 174.476 144.600 175.422 143.413 L 176.369 142.226 175.433 141.013 L 174.498 139.800 136.349 139.712 C 100.780 139.630,98.145 139.671,97.381 140.312 M226.820 140.007 C 224.378 140.582,223.799 142.095,225.432 143.630 L 226.464 144.600 244.088 144.733 C 262.957 144.876,263.668 144.813,266.288 142.789 C 267.340 141.977,266.696 141.086,264.696 140.587 C 264.089 140.435,263.494 140.151,263.373 139.956 C 263.098 139.511,228.720 139.559,226.820 140.007 M97.301 165.300 C 96.233 166.445,96.877 170.313,98.223 170.840 C 98.650 171.007,107.855 171.156,118.677 171.172 L 138.355 171.200 138.977 170.311 C 139.801 169.135,139.797 165.854,138.971 165.029 C 138.417 164.474,135.982 164.400,118.241 164.400 L 98.139 164.400 97.301 165.300 M165.010 165.189 C 164.189 166.096,164.302 169.518,165.189 170.587 C 165.818 171.345,216.852 171.524,220.321 170.780 C 222.684 170.273,224.225 166.637,222.585 165.438 C 220.653 164.026,166.276 163.791,165.010 165.189 M245.040 165.261 C 244.224 166.215,244.345 169.570,245.235 170.642 C 245.970 171.528,278.083 171.464,278.820 170.576 C 279.678 169.542,279.808 165.865,279.015 165.072 C 277.830 163.887,246.066 164.064,245.040 165.261 M99.600 191.095 C 96.798 191.430,95.518 193.598,97.117 195.300 L 98.150 196.400 126.975 196.390 C 142.829 196.385,156.489 196.221,157.330 196.026 C 161.186 195.131,160.416 192.225,156.069 191.269 C 154.031 190.820,103.208 190.664,99.600 191.095 M185.014 192.293 C 183.758 194.142,183.759 194.215,185.058 195.419 L 186.117 196.400 224.158 196.394 C 263.212 196.388,263.187 196.389,265.885 194.882 C 267.119 194.193,266.724 193.554,264.151 192.077 L 261.928 190.800 223.978 190.800 L 186.029 190.800 185.014 192.293 M97.029 217.029 C 96.187 217.870,96.237 218.912,97.208 220.816 L 98.016 222.400 168.559 222.400 C 243.929 222.400,240.748 222.480,242.461 220.533 C 243.555 219.289,243.748 218.026,242.974 217.171 C 241.989 216.083,98.115 215.942,97.029 217.029 M97.008 268.956 C 95.883 270.080,96.018 271.101,97.470 272.466 L 98.464 273.400 130.374 273.509 L 162.285 273.618 163.942 272.010 C 166.002 270.011,165.999 269.864,163.874 268.836 C 162.167 268.009,161.787 268.000,130.056 268.000 L 97.964 268.000 97.008 268.956 M99.130 293.490 C 97.045 293.710,95.679 297.456,97.148 298.926 L 98.022 299.800 120.174 299.913 L 142.325 300.026 143.407 299.096 L 144.488 298.166 143.818 296.193 C 143.450 295.107,142.958 293.990,142.725 293.710 C 142.324 293.226,103.485 293.030,99.130 293.490 " stroke="none" fill="#ff5c43" fill-rule="evenodd"></path></g></svg>
