<?xml version="1.0" encoding="UTF-8" standalone="no"?>
<svg
   xmlns:dc="http://purl.org/dc/elements/1.1/"
   xmlns:cc="http://creativecommons.org/ns#"
   xmlns:rdf="http://www.w3.org/1999/02/22-rdf-syntax-ns#"
   xmlns:svg="http://www.w3.org/2000/svg"
   xmlns="http://www.w3.org/2000/svg"
   xmlns:sodipodi="http://sodipodi.sourceforge.net/DTD/sodipodi-0.dtd"
   xmlns:inkscape="http://www.inkscape.org/namespaces/inkscape"
   id="svg"
   version="1.1"
   width="400"
   height="400"
   style="display:block"
   inkscape:version="0.91 r13725"
   sodipodi:docname="form.svg">
  <metadata
     id="metadata3407">
    <rdf:RDF>
      <cc:Work
         rdf:about="">
        <dc:format>image/svg+xml</dc:format>
        <dc:type
           rdf:resource="http://purl.org/dc/dcmitype/StillImage" />
        <dc:title></dc:title>
      </cc:Work>
    </rdf:RDF>
  </metadata>
  <defs
     id="defs3405" />
  <sodipodi:namedview
     pagecolor="#ffffff"
     bordercolor="#666666"
     borderopacity="1"
     objecttolerance="10"
     gridtolerance="10"
     guidetolerance="10"
     inkscape:pageopacity="0"
     inkscape:pageshadow="2"
     inkscape:window-width="1600"
     inkscape:window-height="837"
     id="namedview3403"
     showgrid="false"
     fit-margin-top="0"
     fit-margin-left="0"
     fit-margin-right="0"
     fit-margin-bottom="0"
     inkscape:zoom="1.66"
     inkscape:cx="181.92771"
     inkscape:cy="74.918405"
     inkscape:window-x="0"
     inkscape:window-y="30"
     inkscape:window-maximized="1"
     inkscape:current-layer="svg" />
  <g
     id="svgg">
    <path
       id="path1"
       d="m 76.011,4.452 c -3.434,0.576 -3.501,0.817 -3.564,12.845 -0.045,8.74 -0.081,9.136 -0.919,10.1 L 70.656,28.4 61.628,28.404 C 50.531,28.41 49.781,28.513 48.882,30.155 48.242,31.323 48.2,42.629 48.2,212.439 c 0,192.637 -0.097,182.515 1.756,183.44 1.028,0.512 270.502,0.625 273.844,0.114 4.189,-0.64 3.969,-0.013 4.2,-11.976 0.199,-10.282 0.207,-10.362 1.17,-11.386 l 0.969,-1.031 10.102,0 c 8.33,0 10.204,-0.103 10.687,-0.585 1.458,-1.459 1.472,-2.795 1.472,-145.346 L 352.4,86.003 331.1,64.79 C 319.385,53.123 309.647,43.42 309.46,43.229 c -0.187,-0.192 -1.042,-1.042 -1.9,-1.889 -0.858,-0.847 -1.875,-1.867 -2.26,-2.267 -0.385,-0.4 -1.33,-1.347 -2.1,-2.106 -0.77,-0.758 -1.553,-1.538 -1.74,-1.733 -0.187,-0.194 -1.06,-1.074 -1.94,-1.954 -0.88,-0.88 -1.78,-1.78 -2,-2 -0.22,-0.22 -1.12,-1.12 -2,-2 -0.88,-0.88 -1.78,-1.78 -2,-2 -0.22,-0.22 -1.12,-1.12 -2,-2 -0.88,-0.88 -1.78,-1.78 -2,-2 -0.22,-0.22 -1.12,-1.12 -2,-2 -0.88,-0.88 -1.76,-1.753 -1.956,-1.94 -0.196,-0.187 -1.072,-1.06 -1.948,-1.94 -0.875,-0.88 -1.781,-1.78 -2.012,-2 -0.231,-0.22 -1.003,-1.03 -1.716,-1.8 -0.713,-0.77 -1.79,-1.758 -2.392,-2.195 -0.603,-0.437 -1.096,-0.979 -1.096,-1.204 0,-0.226 -0.561,-0.858 -1.248,-1.405 -1.81,-1.445 -2.865,-2.504 -3.601,-3.616 L 270.902,4.2 174.551,4.143 C 117.69,4.109 77.303,4.236 76.011,4.452 m 187.516,6.113 c 1.358,0.707 2.532,1.792 3.173,2.934 0.39,0.694 0.5,8.873 0.5,37.096 l 0,36.207 1.483,1.399 1.484,1.399 36.416,0.009 c 40.46,0.01 36.979,-0.227 38.953,2.653 l 0.864,1.261 0,134.492 0,134.491 -0.9,0.798 c -2.174,1.927 4.868,1.828 -133.434,1.878 l -130.117,0.047 -1.378,-1.378 -1.377,-1.377 0.01,-174.156 0.01,-174.155 0.836,-1.582 c 0.461,-0.869 1.075,-1.851 1.365,-2.181 0.769,-0.874 180.427,-0.711 182.112,0.165 m 12.858,7.75 c 0.683,0.943 1.686,1.884 2.228,2.09 0.543,0.206 0.987,0.553 0.987,0.771 0,0.636 2.431,3.224 3.027,3.224 0.3,0 0.753,0.405 1.008,0.9 0.666,1.295 2.428,3.1 3.026,3.1 0.281,0 0.719,0.405 0.974,0.9 0.666,1.295 2.428,3.1 3.026,3.1 0.281,0 0.719,0.405 0.974,0.9 0.666,1.295 2.428,3.1 3.026,3.1 0.281,0 0.719,0.405 0.974,0.9 0.666,1.295 2.428,3.1 3.026,3.1 0.281,0 0.719,0.405 0.974,0.9 0.667,1.297 2.428,3.1 3.028,3.1 0.282,0 0.923,0.716 1.425,1.591 0.502,0.875 1.405,1.796 2.008,2.047 0.604,0.251 1.485,1.083 1.959,1.85 0.473,0.767 1.373,1.705 1.997,2.085 0.625,0.38 1.669,1.427 2.32,2.325 0.651,0.899 1.545,1.749 1.986,1.889 0.441,0.14 1.197,0.894 1.68,1.675 0.483,0.781 1.39,1.731 2.014,2.111 0.625,0.38 1.669,1.427 2.32,2.325 0.651,0.899 1.534,1.745 1.961,1.881 0.428,0.136 1.255,0.968 1.839,1.85 0.583,0.882 1.496,1.802 2.029,2.044 0.533,0.243 1.425,1.131 1.982,1.973 0.557,0.842 1.554,1.811 2.215,2.153 0.661,0.342 1.202,0.772 1.202,0.955 0,0.29 0.906,1.262 3.4,3.646 0.345,0.33 1.297,1.285 2.114,2.123 0.817,0.837 1.904,1.915 2.415,2.395 l 0.93,0.873 -1.052,0.904 -1.052,0.905 -32.252,0 -32.251,0 -0.926,-0.87 -0.926,-0.869 0,-32.149 0,-32.148 1.001,-1.001 c 1.2,-1.2 1.672,-1.011 3.384,1.352 M 70.545,35.3 c 2.005,2.056 1.854,-11.468 1.863,166.689 0.006,132.676 0.106,164.595 0.523,166.211 0.963,3.735 -12.854,3.359 124.273,3.381 l 121.004,0.019 1.096,1.016 1.096,1.016 0,6.798 c 0,6.997 -0.128,7.646 -1.866,9.47 -0.38,0.398 -27.023,0.5 -130.605,0.5 L 57.8,390.399 56.615,389.38 c -0.651,-0.56 -1.505,-1.505 -1.897,-2.099 -0.681,-1.033 -0.713,-8.869 -0.715,-175.361 L 54,37.641 55.3,36.719 c 2.592,-1.837 2.753,-1.871 8.829,-1.895 4.242,-0.017 6.067,0.118 6.416,0.476 m 26.415,1.703 c -0.552,0.552 -0.939,1.137 -0.86,1.3 1.94,4.035 -1.427,3.689 35.984,3.694 l 30.285,0.003 0.85,-0.9 c 2.089,-2.212 2.424,-2.937 1.67,-3.619 C 163.296,36.039 162.384,36 129.956,36 l -31.992,0 -1.004,1.003 m 1.866,24.941 c -1.96,0.563 -3.016,3.758 -1.737,5.251 0.676,0.79 1.138,0.805 24.984,0.805 l 24.296,0 0.818,-0.878 c 0.808,-0.867 0.806,-1.186 -0.021,-3.398 -0.718,-1.919 -0.726,-1.92 -24.766,-1.992 -12.43,-0.037 -23.038,0.058 -23.574,0.212 M 97.928,113.3 c -1.111,0.889 -1.573,4.655 -0.68,5.548 1.151,1.151 37.449,1.17 38.49,0.021 1.058,-1.169 0.521,-4.451 -0.908,-5.556 -0.923,-0.714 -36.011,-0.726 -36.902,-0.013 m 79.158,0.662 c -0.915,1.549 -0.908,4.382 0.014,5.081 1.049,0.796 104.797,0.813 105.886,0.017 0.622,-0.455 0.702,-0.896 0.505,-2.8 -0.395,-3.826 5.265,-3.46 -53.576,-3.46 l -52.143,0 -0.686,1.162 m -79.705,26.35 c -1.295,1.087 -1.39,1.863 -0.383,3.127 l 0.926,1.161 38.276,0 38.276,0 0.946,-1.187 0.947,-1.187 -0.936,-1.213 -0.935,-1.213 -38.149,-0.088 c -35.569,-0.082 -38.204,-0.041 -38.968,0.6 m 129.439,-0.305 c -2.442,0.575 -3.021,2.088 -1.388,3.623 l 1.032,0.97 17.624,0.133 c 18.869,0.143 19.58,0.08 22.2,-1.944 1.052,-0.812 0.408,-1.703 -1.592,-2.202 -0.607,-0.152 -1.202,-0.436 -1.323,-0.631 -0.275,-0.445 -34.653,-0.397 -36.553,0.051 M 97.301,165.3 c -1.068,1.145 -0.424,5.013 0.922,5.54 0.427,0.167 9.632,0.316 20.454,0.332 l 19.678,0.028 0.622,-0.889 c 0.824,-1.176 0.82,-4.457 -0.006,-5.282 -0.554,-0.555 -2.989,-0.629 -20.73,-0.629 l -20.102,0 -0.838,0.9 m 67.709,-0.111 c -0.821,0.907 -0.708,4.329 0.179,5.398 0.629,0.758 51.663,0.937 55.132,0.193 2.363,-0.507 3.904,-4.143 2.264,-5.342 -1.932,-1.412 -56.309,-1.647 -57.575,-0.249 m 80.03,0.072 c -0.816,0.954 -0.695,4.309 0.195,5.381 0.735,0.886 32.848,0.822 33.585,-0.066 0.858,-1.034 0.988,-4.711 0.195,-5.504 -1.185,-1.185 -32.949,-1.008 -33.975,0.189 M 99.6,191.095 c -2.802,0.335 -4.082,2.503 -2.483,4.205 l 1.033,1.1 28.825,-0.01 c 15.854,-0.005 29.514,-0.169 30.355,-0.364 3.856,-0.895 3.086,-3.801 -1.261,-4.757 -2.038,-0.449 -52.861,-0.605 -56.469,-0.174 m 85.414,1.198 c -1.256,1.849 -1.255,1.922 0.044,3.126 l 1.059,0.981 38.041,-0.006 c 39.054,-0.006 39.029,-0.005 41.727,-1.512 1.234,-0.689 0.839,-1.328 -1.734,-2.805 l -2.223,-1.277 -37.95,0 -37.949,0 -1.015,1.493 m -87.985,24.736 c -0.842,0.841 -0.792,1.883 0.179,3.787 l 0.808,1.584 70.543,0 c 75.37,0 72.189,0.08 73.902,-1.867 1.094,-1.244 1.287,-2.507 0.513,-3.362 -0.985,-1.088 -144.859,-1.229 -145.945,-0.142 m -0.021,51.927 c -1.125,1.124 -0.99,2.145 0.462,3.51 l 0.994,0.934 31.91,0.109 31.911,0.109 1.657,-1.608 c 2.06,-1.999 2.057,-2.146 -0.068,-3.174 C 162.167,268.009 161.787,268 130.056,268 l -32.092,0 -0.956,0.956 m 2.122,24.534 c -2.085,0.22 -3.451,3.966 -1.982,5.436 l 0.874,0.874 22.152,0.113 22.151,0.113 1.082,-0.93 1.081,-0.93 -0.67,-1.973 c -0.368,-1.086 -0.86,-2.203 -1.093,-2.483 -0.401,-0.484 -39.24,-0.68 -43.595,-0.22"
       inkscape:connector-curvature="0"
       style="fill:#ff5c43;fill-rule:evenodd;stroke:none" />
  </g>
</svg>
