<svg id="svg" version="1.1" width="400" height="400" xmlns="http://www.w3.org/2000/svg" xmlns:xlink="http://www.w3.org/1999/xlink" style="display: block;"><g id="svgg"><path id="path0" d="M0.000 200.000 L 0.000 400.000 200.000 400.000 L 400.000 400.000 400.000 200.000 L 400.000 0.000 200.000 0.000 L 0.000 0.000 0.000 200.000 M311.785 45.415 L 352.400 86.030 352.400 228.553 C 352.400 363.808,352.364 371.105,351.700 371.638 C 349.823 373.145,349.363 373.200,338.605 373.200 L 328.000 373.200 327.999 383.900 C 327.997 393.861,327.942 394.690,327.204 395.900 L 326.412 397.200 188.268 397.200 C 54.911 397.200,50.101 397.175,49.462 396.468 C 48.847 395.789,48.806 382.623,48.900 213.184 L 49.000 30.632 50.359 29.716 C 51.690 28.819,51.936 28.800,62.259 28.800 L 72.800 28.800 72.800 18.897 C 72.800 8.914,73.018 6.906,74.250 5.545 C 74.904 4.822,77.852 4.800,173.047 4.800 L 271.169 4.800 311.785 45.415 M80.400 188.400 L 80.400 365.600 213.000 365.600 L 345.600 365.600 345.600 228.400 L 345.600 91.200 306.855 91.200 L 268.109 91.200 267.103 90.194 C 265.579 88.670,265.600 89.256,265.600 48.950 L 265.600 11.200 173.000 11.200 L 80.400 11.200 80.400 188.400 M273.200 50.600 L 273.200 84.000 306.600 84.000 C 324.970 84.000,340.000 83.886,340.000 83.747 C 340.000 83.391,273.866 17.219,273.500 17.208 C 273.335 17.204,273.200 32.230,273.200 50.600 M55.300 213.500 L 55.400 390.600 188.100 390.701 L 320.800 390.801 320.800 382.001 L 320.800 373.200 198.849 373.200 C 64.134 373.200,74.825 373.420,73.489 370.618 C 72.840 369.257,72.800 359.442,72.800 202.786 L 72.800 36.400 64.000 36.400 L 55.199 36.400 55.300 213.500 M166.195 37.900 C 166.412 38.395,166.727 38.800,166.895 38.800 C 167.515 38.800,167.174 40.913,166.373 42.038 L 165.546 43.200 131.600 43.200 L 97.654 43.200 96.827 42.038 C 95.780 40.567,95.780 39.432,96.829 37.960 L 97.658 36.796 131.729 36.898 L 165.800 37.000 166.195 37.900 M148.529 63.271 C 149.577 64.320,149.437 67.474,148.300 68.423 C 147.441 69.139,146.265 69.174,122.755 69.187 L 98.109 69.200 97.055 68.145 C 95.305 66.395,95.970 63.219,98.200 62.678 C 100.738 62.062,147.876 62.618,148.529 63.271 M137.211 114.282 C 139.475 115.842,139.834 117.751,138.197 119.517 L 137.193 120.600 118.595 120.715 C 106.693 120.789,99.446 120.682,98.464 120.417 C 95.824 119.706,95.200 116.956,97.203 114.859 L 98.407 113.600 117.314 113.600 C 134.474 113.600,136.313 113.663,137.211 114.282 M283.976 114.249 C 286.612 115.806,286.190 119.737,283.307 120.484 C 282.606 120.666,258.255 120.766,229.193 120.707 L 176.354 120.600 175.586 119.600 C 174.364 118.009,174.555 115.877,176.031 114.636 L 177.261 113.600 230.069 113.600 C 278.073 113.600,282.977 113.659,283.976 114.249 M176.439 140.434 C 177.677 141.507,177.785 144.291,176.638 145.558 L 175.876 146.400 136.919 146.400 L 97.962 146.400 96.981 145.342 C 95.678 143.936,95.692 142.124,97.016 140.696 L 98.032 139.600 136.755 139.600 C 175.424 139.600,175.479 139.601,176.439 140.434 M266.134 140.797 C 267.276 142.079,267.510 143.663,266.700 144.631 C 265.135 146.499,266.291 146.400,246.025 146.400 C 227.290 146.400,226.887 146.383,225.854 145.571 C 224.351 144.389,224.355 141.808,225.862 140.513 L 226.924 139.600 245.996 139.600 L 265.068 139.600 266.134 140.797 M141.402 166.562 C 142.764 168.148,142.688 169.651,141.169 171.169 L 139.938 172.400 119.130 172.400 L 98.321 172.400 97.160 171.158 C 95.324 169.191,95.848 166.310,98.167 165.623 C 98.854 165.420,108.472 165.289,119.902 165.329 L 140.403 165.400 141.402 166.562 M223.368 166.370 C 224.863 167.775,224.779 169.725,223.158 171.240 L 221.915 172.400 193.588 172.400 L 165.262 172.400 164.031 171.169 C 162.088 169.227,162.819 165.971,165.308 165.476 C 165.799 165.378,178.831 165.321,194.268 165.349 L 222.336 165.400 223.368 166.370 M279.191 165.458 C 281.895 165.999,282.749 169.172,280.724 171.153 L 279.448 172.400 262.178 172.400 C 245.312 172.400,244.883 172.381,243.854 171.571 C 241.824 169.974,242.557 166.083,245.000 165.488 C 246.220 165.191,277.717 165.163,279.191 165.458 M158.851 191.494 C 160.928 192.721,161.101 195.841,159.171 197.282 C 157.928 198.210,99.630 198.470,97.912 197.555 C 95.622 196.335,95.326 193.935,97.231 192.031 L 98.462 190.800 128.069 190.800 C 155.449 190.800,157.765 190.852,158.851 191.494 M265.969 192.031 C 267.647 193.708,267.633 195.342,265.928 196.864 L 264.656 198.000 225.508 198.000 C 180.633 198.000,183.587 198.263,183.606 194.267 C 183.624 190.622,180.912 190.845,225.469 190.821 L 264.738 190.800 265.969 192.031 M243.364 218.031 C 245.174 220.181,244.427 222.555,241.634 223.528 C 239.784 224.173,101.386 224.208,99.000 223.564 C 96.005 222.755,95.113 220.189,97.066 217.997 L 98.132 216.800 170.231 216.800 L 242.329 216.800 243.364 218.031 M164.661 268.632 C 167.065 269.113,167.820 271.961,166.064 273.928 L 164.929 275.200 131.519 275.200 L 98.109 275.200 97.055 274.145 C 95.304 272.395,95.972 269.210,98.200 268.682 C 99.367 268.406,163.288 268.358,164.661 268.632 M145.238 294.827 C 147.179 296.209,146.911 299.112,144.714 300.509 C 143.375 301.361,99.908 301.589,98.274 300.753 C 96.472 299.832,94.962 296.000,96.400 296.000 C 96.620 296.000,96.800 295.730,96.800 295.400 C 96.800 295.070,97.070 294.800,97.400 294.800 C 97.730 294.800,98.000 294.620,98.000 294.400 C 98.000 293.481,143.931 293.896,145.238 294.827 " stroke="none" fill="#ffffff" fill-rule="evenodd"></path><path id="path1" d="M75.300 6.088 L 74.400 6.522 74.400 17.981 C 74.400 26.360,74.271 29.569,73.920 29.920 C 73.569 30.271,70.361 30.400,61.984 30.400 L 50.528 30.400 50.064 31.419 C 49.714 32.187,49.600 76.981,49.600 213.638 L 49.600 394.838 50.658 395.819 L 51.717 396.800 188.097 396.800 L 324.477 396.800 325.638 395.973 L 326.800 395.146 326.800 383.616 C 326.800 373.471,326.876 372.056,327.433 371.843 C 327.781 371.709,333.081 371.600,339.210 371.600 C 350.273 371.600,350.359 371.593,350.977 370.711 C 351.538 369.910,351.600 355.744,351.600 228.332 L 351.600 86.842 310.990 46.221 L 270.381 5.600 173.290 5.627 C 104.357 5.646,75.939 5.780,75.300 6.088 M266.300 10.652 L 267.200 10.893 267.206 49.747 C 267.210 73.528,267.359 88.833,267.591 89.200 C 267.923 89.724,272.899 89.825,307.085 90.000 L 346.200 90.200 346.200 228.600 L 346.200 367.000 213.043 367.102 C 114.443 367.177,79.745 367.086,79.341 366.751 C 78.392 365.964,78.554 11.383,79.504 10.830 C 80.260 10.390,264.666 10.214,266.300 10.652 M307.671 49.634 C 328.890 70.860,342.348 84.612,342.124 84.836 C 341.904 85.056,327.708 85.163,306.778 85.102 L 271.800 85.000 271.690 50.800 C 271.581 16.907,271.624 14.800,272.432 14.800 C 272.661 14.800,288.519 30.475,307.671 49.634 M73.920 35.280 C 74.292 35.652,74.400 73.482,74.400 203.109 C 74.400 347.611,74.478 370.535,74.971 371.029 C 75.464 371.521,92.450 371.600,198.343 371.600 C 309.446 371.600,321.203 371.660,321.771 372.229 C 322.588 373.045,322.723 390.317,321.920 391.120 C 321.221 391.819,55.579 391.819,54.880 391.120 C 54.240 390.480,54.174 36.769,54.814 35.574 C 55.322 34.625,72.993 34.353,73.920 35.280 M98.100 38.270 C 96.903 39.105,96.897 40.942,98.089 41.777 C 99.242 42.585,162.823 42.737,164.581 41.936 C 165.404 41.561,165.600 41.189,165.600 40.000 C 165.600 38.811,165.404 38.439,164.581 38.064 C 162.816 37.260,99.266 37.456,98.100 38.270 M98.300 63.903 C 97.155 64.613,96.851 66.028,97.591 67.200 C 98.065 67.950,145.826 68.335,147.200 67.600 C 148.802 66.743,148.950 65.688,147.651 64.389 L 146.462 63.200 122.931 63.211 C 101.465 63.220,99.303 63.281,98.300 63.903 M97.614 115.974 C 96.997 117.127,97.111 118.196,97.931 118.938 C 98.964 119.872,136.099 119.958,137.029 119.029 C 137.818 118.239,137.775 115.753,136.967 115.443 C 135.033 114.700,98.028 115.200,97.614 115.974 M176.196 116.416 C 176.016 117.239,176.138 117.951,176.574 118.616 L 177.218 119.600 230.205 119.600 C 288.306 119.600,284.800 119.743,284.800 117.373 C 284.800 115.061,288.304 115.200,229.900 115.200 L 176.464 115.200 176.196 116.416 M98.491 140.892 C 97.502 141.369,96.991 142.718,97.363 143.871 C 97.922 145.601,97.906 145.600,137.225 145.600 L 174.691 145.600 175.745 144.545 C 177.062 143.229,177.060 142.915,175.725 141.522 L 174.650 140.400 137.025 140.427 C 110.641 140.446,99.129 140.585,98.491 140.892 M227.158 140.914 C 225.620 142.086,225.766 144.383,227.427 145.139 C 228.925 145.822,263.040 145.786,264.517 145.100 C 266.067 144.380,266.109 141.561,264.581 140.864 C 263.091 140.185,228.054 140.232,227.158 140.914 M97.862 167.131 C 97.074 168.002,97.010 169.189,97.700 170.128 C 98.162 170.757,99.825 170.801,119.400 170.705 L 140.600 170.600 140.724 169.096 C 140.958 166.269,142.006 166.400,119.091 166.400 C 99.674 166.400,98.487 166.441,97.862 167.131 M164.876 167.022 C 164.584 167.354,164.407 168.277,164.476 169.108 L 164.600 170.600 193.571 170.600 L 222.542 170.600 222.827 169.537 C 222.989 168.931,222.910 168.072,222.644 167.537 L 222.176 166.600 193.788 166.513 C 169.087 166.438,165.332 166.504,164.876 167.022 M244.223 167.289 C 241.839 170.693,242.388 170.800,262.173 170.800 C 281.057 170.800,280.800 170.829,280.800 168.691 C 280.800 166.385,280.922 166.400,262.091 166.400 L 244.845 166.400 244.223 167.289 M111.000 192.302 C 97.132 192.413,97.200 192.402,97.200 194.614 C 97.200 196.885,95.975 196.800,128.587 196.800 C 161.496 196.800,159.553 196.946,159.587 194.471 C 159.617 192.279,152.683 191.969,111.000 192.302 M184.896 193.195 C 184.220 194.277,184.273 195.042,185.089 195.995 C 185.933 196.981,264.142 197.298,265.120 196.320 C 265.632 195.808,265.757 194.075,265.357 193.033 C 264.932 191.924,185.590 192.083,184.896 193.195 M98.600 218.293 C 97.015 218.689,96.661 220.960,98.005 222.111 C 99.295 223.216,241.137 223.174,242.138 222.069 C 243.350 220.729,243.013 218.543,241.550 218.250 C 240.082 217.956,99.779 217.998,98.600 218.293 M98.300 269.903 C 97.155 270.613,96.851 272.028,97.591 273.200 C 98.067 273.953,163.427 274.335,164.814 273.593 C 165.951 272.984,165.888 270.647,164.711 269.823 C 163.289 268.827,99.912 268.904,98.300 269.903 M97.862 295.931 C 97.049 296.830,97.007 298.264,97.771 299.029 C 98.737 299.995,144.306 299.871,145.043 298.900 C 145.773 297.939,145.728 296.959,144.911 296.005 C 143.883 294.804,98.946 294.734,97.862 295.931 " stroke="none" fill="#ff5c44" fill-rule="evenodd"></path><path id="path2" d="M74.905 5.909 C 74.020 6.593,74.009 6.722,73.905 18.200 L 73.800 29.800 62.200 29.905 C 50.722 30.009,50.593 30.020,49.909 30.905 C 49.256 31.750,49.217 41.959,49.209 213.430 L 49.200 395.061 50.126 395.930 C 50.635 396.409,51.201 396.800,51.384 396.800 C 51.567 396.800,51.241 396.359,50.658 395.819 L 49.600 394.838 49.600 213.638 C 49.600 76.981,49.714 32.187,50.064 31.419 L 50.528 30.400 61.984 30.400 C 70.361 30.400,73.569 30.271,73.920 29.920 C 74.271 29.569,74.400 26.361,74.400 17.984 L 74.400 6.528 75.419 6.064 C 76.183 5.716,100.672 5.600,173.409 5.600 L 270.381 5.600 310.990 46.221 L 351.600 86.842 351.600 228.332 C 351.600 355.744,351.538 369.910,350.977 370.711 C 350.359 371.593,350.273 371.600,339.210 371.600 C 333.081 371.600,327.781 371.709,327.433 371.843 C 326.873 372.058,326.810 373.411,326.891 383.543 L 326.981 395.000 327.191 383.600 L 327.400 372.200 338.941 372.094 C 350.334 371.989,350.491 371.976,351.228 371.094 C 351.952 370.225,351.974 366.167,351.987 228.399 L 352.000 86.599 311.299 45.899 L 270.599 5.200 173.199 5.209 C 81.535 5.217,75.747 5.258,74.905 5.909 M79.504 10.830 C 78.554 11.383,78.392 365.964,79.341 366.751 C 80.493 367.707,346.165 367.159,346.309 366.200 C 346.418 365.476,346.389 365.466,346.000 366.091 C 345.345 367.145,81.097 367.193,79.932 366.139 C 79.037 365.329,78.764 12.408,79.657 11.331 C 80.275 10.586,265.576 10.536,266.320 11.280 C 266.687 11.647,266.800 20.853,266.800 50.280 C 266.800 88.267,266.811 88.811,267.600 89.600 C 268.389 90.389,268.933 90.400,306.920 90.400 C 337.187 90.400,345.554 90.507,345.970 90.900 C 346.398 91.304,346.465 91.284,346.317 90.800 C 346.156 90.274,341.326 90.175,307.052 90.000 C 272.895 89.825,267.923 89.724,267.591 89.200 C 267.359 88.833,267.210 73.528,267.206 49.747 L 267.200 10.893 266.300 10.652 C 264.666 10.214,80.260 10.390,79.504 10.830 M271.798 15.700 C 271.052 18.784,271.817 84.992,272.600 85.130 C 273.349 85.263,273.355 85.237,272.696 84.736 C 272.033 84.231,271.999 82.239,272.096 50.033 C 272.203 14.796,272.210 14.667,273.754 16.211 C 274.109 16.566,274.400 16.704,274.400 16.517 C 274.400 15.194,272.095 14.470,271.798 15.700 M281.893 24.400 C 282.270 24.840,282.716 25.200,282.885 25.200 C 283.054 25.200,282.884 24.840,282.507 24.400 C 282.130 23.960,281.684 23.600,281.515 23.600 C 281.346 23.600,281.516 23.960,281.893 24.400 M311.440 53.963 C 345.100 87.626,341.935 84.344,341.190 84.815 C 340.690 85.131,340.703 85.189,341.276 85.194 C 341.648 85.197,342.062 85.024,342.195 84.808 C 342.425 84.436,283.966 25.600,283.366 25.600 C 283.209 25.600,295.842 38.363,311.440 53.963 M54.814 35.574 C 54.174 36.769,54.240 390.480,54.880 391.120 C 55.579 391.819,321.221 391.819,321.920 391.120 C 322.723 390.317,322.588 373.045,321.771 372.229 C 321.203 371.660,309.446 371.600,198.343 371.600 C 92.450 371.600,75.464 371.521,74.971 371.029 C 74.478 370.535,74.400 347.611,74.400 203.109 C 74.400 73.482,74.292 35.652,73.920 35.280 C 72.993 34.353,55.322 34.625,54.814 35.574 M73.226 35.614 C 73.989 36.022,74.000 38.332,74.000 203.283 C 74.000 358.353,74.048 370.590,74.662 371.269 C 75.301 371.974,79.662 372.000,198.013 372.000 C 301.664 372.000,320.773 372.085,321.159 372.550 C 321.479 372.936,321.583 375.785,321.508 382.050 L 321.400 391.000 188.200 391.000 L 55.000 391.000 54.900 213.642 C 54.825 82.855,54.917 36.141,55.249 35.742 C 55.810 35.065,71.985 34.950,73.226 35.614 M97.900 37.757 C 96.829 38.570,97.068 38.979,98.186 38.246 C 99.451 37.417,162.781 37.244,164.581 38.064 C 166.058 38.737,166.058 41.263,164.581 41.936 C 162.823 42.737,99.242 42.585,98.089 41.777 C 97.044 41.046,96.874 41.465,97.900 42.243 C 99.164 43.203,164.465 43.033,165.338 42.069 C 166.233 41.080,166.193 38.699,165.269 37.862 C 164.271 36.959,99.085 36.857,97.900 37.757 M97.600 63.800 C 96.966 64.563,97.561 64.556,98.576 63.787 C 99.198 63.317,99.228 63.200,98.725 63.200 C 98.380 63.200,97.874 63.470,97.600 63.800 M147.526 64.300 C 148.116 64.905,148.663 65.255,148.741 65.077 C 148.938 64.627,147.586 63.200,146.964 63.200 C 146.682 63.200,146.935 63.695,147.526 64.300 M147.705 67.089 L 146.810 68.018 122.390 67.909 C 101.200 67.814,97.920 67.721,97.591 67.200 C 97.320 66.770,97.211 66.748,97.206 67.120 C 97.188 68.672,99.116 68.800,122.441 68.800 C 145.798 68.800,147.372 68.698,148.358 67.119 C 149.054 66.004,148.763 65.990,147.705 67.089 M98.342 114.845 C 97.346 115.215,96.789 116.230,96.828 117.600 C 96.837 117.930,97.060 117.570,97.323 116.800 L 97.800 115.400 116.800 115.289 C 138.471 115.163,137.600 115.089,137.600 117.036 C 137.600 119.708,138.444 119.600,117.560 119.600 C 100.146 119.600,98.598 119.545,97.831 118.900 C 97.001 118.201,97.001 118.201,97.762 119.100 L 98.524 120.000 117.600 120.000 C 136.209 120.000,136.694 119.980,137.405 119.195 C 138.321 118.182,138.346 116.174,137.453 115.281 C 136.653 114.481,100.405 114.077,98.342 114.845 M177.200 114.800 C 176.811 115.051,195.365 115.190,229.969 115.194 C 279.062 115.200,283.396 115.253,284.069 115.862 C 284.488 116.242,284.800 116.331,284.800 116.072 C 284.800 114.386,285.237 114.400,230.120 114.406 C 197.032 114.410,177.579 114.555,177.200 114.800 M175.664 116.219 C 175.132 117.386,175.870 119.311,177.018 119.752 C 179.098 120.550,283.480 119.996,284.216 119.183 C 284.864 118.467,284.871 118.398,284.278 118.626 C 283.905 118.769,283.600 119.046,283.600 119.243 C 283.600 119.451,261.355 119.600,230.409 119.600 L 177.218 119.600 176.574 118.616 C 176.138 117.951,176.016 117.239,176.196 116.416 C 176.522 114.933,176.289 114.847,175.664 116.219 M118.330 140.300 C 128.742 140.359,145.662 140.359,155.930 140.300 C 166.199 140.240,157.680 140.192,137.000 140.192 C 116.320 140.192,107.919 140.241,118.330 140.300 M237.100 140.300 C 241.995 140.363,250.005 140.363,254.900 140.300 C 259.795 140.236,255.790 140.184,246.000 140.184 C 236.210 140.184,232.205 140.236,237.100 140.300 M97.680 140.880 C 97.416 141.144,97.203 141.549,97.206 141.780 C 97.210 142.061,97.310 142.056,97.506 141.766 C 97.668 141.527,98.160 141.127,98.600 140.878 C 99.193 140.542,99.240 140.421,98.780 140.412 C 98.439 140.405,97.944 140.616,97.680 140.880 M175.599 141.398 C 176.114 141.948,176.625 142.309,176.732 142.201 C 176.998 141.935,175.579 140.400,175.068 140.400 C 174.844 140.400,175.083 140.849,175.599 141.398 M226.027 141.562 C 224.956 143.066,224.978 143.278,226.360 144.758 L 227.521 146.000 245.580 146.000 C 265.154 146.000,265.624 145.951,266.154 143.842 C 266.567 142.197,264.997 139.670,264.113 140.554 C 264.018 140.649,264.313 140.846,264.770 140.990 C 266.135 141.424,265.950 144.435,264.517 145.100 C 263.040 145.786,228.925 145.822,227.427 145.139 C 225.766 144.383,225.620 142.086,227.158 140.914 C 227.534 140.628,227.604 140.420,227.327 140.413 C 227.067 140.406,226.482 140.923,226.027 141.562 M175.658 144.607 L 174.716 145.600 137.153 145.600 C 98.958 145.600,98.616 145.588,97.470 144.200 C 97.272 143.961,97.204 144.042,97.301 144.400 C 97.726 145.975,98.059 145.988,136.938 145.994 C 177.072 146.000,176.800 146.013,176.800 144.114 C 176.800 143.432,176.753 143.452,175.658 144.607 M97.829 166.609 C 97.405 166.929,97.155 167.288,97.272 167.406 C 97.390 167.523,97.714 167.345,97.992 167.010 C 98.433 166.478,101.128 166.400,119.078 166.400 C 142.163 166.400,141.013 166.249,140.728 169.237 C 140.595 170.628,140.645 170.754,141.087 170.149 C 141.815 169.153,141.725 168.267,140.771 167.054 L 139.942 166.000 119.271 166.013 C 101.795 166.023,98.481 166.116,97.829 166.609 M164.595 166.805 C 163.822 167.660,163.614 169.774,164.243 170.403 C 164.478 170.638,164.563 170.187,164.469 169.202 C 164.182 166.198,162.183 166.382,193.862 166.497 L 222.176 166.600 222.644 167.537 C 222.910 168.072,222.989 168.931,222.827 169.537 L 222.543 170.600 193.771 170.800 C 177.947 170.910,165.330 171.135,165.733 171.300 C 166.136 171.465,178.879 171.600,194.051 171.600 L 221.636 171.600 222.618 170.618 C 223.920 169.316,223.745 167.311,222.240 166.306 C 221.020 165.492,165.348 165.974,164.595 166.805 M244.016 166.875 C 242.865 168.111,242.966 169.758,244.254 170.771 C 245.485 171.739,276.886 172.086,279.540 171.161 C 280.725 170.748,281.279 170.000,280.400 170.000 C 280.180 170.000,280.000 170.180,280.000 170.400 C 280.000 170.661,273.823 170.800,262.268 170.800 L 244.535 170.800 243.983 169.769 C 243.509 168.882,243.515 168.587,244.031 167.669 L 244.630 166.600 261.979 166.496 C 278.048 166.399,279.389 166.443,280.164 167.096 C 281.000 167.800,281.000 167.800,280.238 166.900 L 279.476 166.000 262.154 166.000 C 244.849 166.000,244.830 166.001,244.016 166.875 M96.828 168.400 C 96.791 169.711,97.315 170.724,98.253 171.151 C 99.383 171.666,138.231 171.806,139.467 171.300 C 139.870 171.135,130.660 170.910,119.000 170.800 L 97.800 170.600 97.323 169.200 C 97.060 168.430,96.837 168.070,96.828 168.400 M110.600 191.898 C 97.010 192.006,96.731 192.060,96.836 194.544 C 96.862 195.163,96.975 195.045,97.242 194.120 C 97.446 193.416,97.778 192.737,97.980 192.613 C 98.909 192.038,158.442 192.385,159.025 192.968 C 159.684 193.627,159.795 195.432,159.200 195.800 C 158.980 195.936,158.800 196.251,158.800 196.500 C 158.800 196.749,159.064 196.604,159.387 196.176 C 160.189 195.117,160.147 193.457,159.300 192.692 C 158.543 192.008,138.308 191.678,110.600 191.898 M224.978 192.299 C 256.348 192.381,265.023 192.511,265.271 192.902 C 265.754 193.661,265.660 195.780,265.120 196.320 C 264.794 196.646,264.781 196.800,265.081 196.800 C 265.901 196.800,266.447 194.408,265.892 193.249 L 265.389 192.200 225.195 192.197 L 185.000 192.194 224.978 192.299 M111.800 197.187 C 119.060 197.304,132.470 197.305,141.600 197.189 C 154.339 197.028,151.268 196.978,128.400 196.976 C 109.804 196.975,103.563 197.054,111.800 197.187 M205.500 197.100 C 216.335 197.159,234.065 197.159,244.900 197.100 C 255.735 197.041,246.870 196.992,225.200 196.992 C 203.530 196.992,194.665 197.041,205.500 197.100 M97.900 218.032 C 97.515 218.256,97.203 218.656,97.206 218.920 C 97.210 219.212,97.361 219.165,97.592 218.800 C 97.926 218.270,106.450 218.200,170.371 218.200 C 210.190 218.200,242.462 218.078,242.085 217.928 C 240.925 217.468,98.693 217.570,97.900 218.032 M242.827 219.969 C 242.812 220.721,242.485 221.692,242.100 222.127 C 241.549 222.748,241.528 222.877,242.000 222.729 C 242.989 222.419,243.752 220.454,243.269 219.458 C 242.894 218.683,242.852 218.732,242.827 219.969 M97.600 269.800 C 96.966 270.563,97.561 270.556,98.576 269.787 C 99.198 269.317,99.228 269.200,98.725 269.200 C 98.380 269.200,97.874 269.470,97.600 269.800 M164.711 269.823 C 165.888 270.647,165.951 272.984,164.814 273.593 C 163.427 274.335,98.067 273.953,97.591 273.200 C 97.320 272.770,97.211 272.747,97.206 273.120 C 97.185 274.907,160.431 275.916,164.551 274.195 C 166.690 273.301,166.516 269.200,164.340 269.200 C 164.055 269.200,164.222 269.480,164.711 269.823 M97.900 295.232 C 97.515 295.456,97.200 295.839,97.200 296.082 C 97.200 296.325,97.527 296.228,97.928 295.865 C 98.583 295.273,100.940 295.196,121.428 295.100 L 144.200 294.993 121.400 294.909 C 106.483 294.854,98.358 294.965,97.900 295.232 M144.626 295.722 C 144.769 296.095,145.046 296.400,145.243 296.400 C 145.783 296.400,145.647 298.105,145.043 298.900 C 144.421 299.719,98.000 300.015,98.000 299.200 C 98.000 298.980,97.798 298.800,97.551 298.800 C 97.241 298.800,97.256 298.985,97.600 299.400 C 98.497 300.481,144.379 300.284,145.311 299.195 C 146.235 298.117,146.181 296.688,145.183 295.784 C 144.467 295.136,144.398 295.129,144.626 295.722 M325.594 396.018 C 325.047 396.439,324.780 396.780,325.000 396.778 C 325.529 396.773,326.991 395.658,326.765 395.431 C 326.668 395.334,326.141 395.598,325.594 396.018 " stroke="none" fill="#ff7e6c" fill-rule="evenodd"></path><path id="path3" d="M74.744 5.643 L 73.800 6.487 74.886 5.843 C 75.876 5.257,84.579 5.200,173.285 5.200 L 270.599 5.200 311.383 45.900 C 333.814 68.285,352.033 86.420,351.869 86.200 C 351.704 85.980,333.352 67.575,311.085 45.300 L 270.600 4.801 173.144 4.800 L 75.689 4.800 74.744 5.643 M73.687 17.800 C 73.632 23.740,73.447 28.822,73.274 29.093 C 73.041 29.460,70.147 29.616,61.980 29.700 L 51.000 29.813 62.313 29.907 C 71.130 29.979,73.668 29.888,73.819 29.494 C 73.926 29.216,73.962 24.041,73.900 17.994 L 73.787 7.000 73.687 17.800 M79.657 11.331 C 78.764 12.408,79.037 365.329,79.932 366.139 C 80.802 366.926,345.320 367.176,345.806 366.391 C 345.963 366.137,299.460 366.000,213.024 366.000 L 80.000 366.000 80.000 188.600 L 80.000 11.200 173.000 11.200 L 266.000 11.200 266.000 49.213 C 266.000 88.959,266.009 89.187,267.659 90.251 C 267.957 90.443,285.660 90.690,307.000 90.800 L 345.800 91.000 346.001 228.400 L 346.202 365.800 346.301 228.580 C 346.378 122.276,346.292 91.252,345.920 90.880 C 345.553 90.513,336.347 90.400,306.920 90.400 C 268.933 90.400,268.389 90.389,267.600 89.600 C 266.811 88.811,266.800 88.267,266.800 50.280 C 266.800 20.853,266.687 11.647,266.320 11.280 C 265.576 10.536,80.275 10.586,79.657 11.331 M272.267 15.867 C 271.491 16.643,271.989 84.366,272.774 84.786 C 273.778 85.323,340.341 85.352,341.190 84.815 C 341.690 84.499,341.646 84.300,340.898 83.505 C 337.253 79.624,273.088 15.600,272.845 15.600 C 272.673 15.600,272.413 15.720,272.267 15.867 M307.018 50.003 C 325.488 68.485,340.658 83.875,340.729 84.203 C 340.903 85.005,273.681 85.121,272.880 84.320 C 272.149 83.589,272.187 16.400,272.918 16.400 C 273.203 16.400,288.548 31.521,307.018 50.003 M48.998 213.400 C 48.998 313.280,49.044 354.080,49.100 304.067 C 49.156 254.054,49.156 172.334,49.100 122.467 C 49.044 72.600,48.998 113.520,48.998 213.400 M55.249 35.742 C 54.917 36.141,54.825 82.855,54.900 213.642 L 55.000 391.000 188.200 391.000 L 321.400 391.000 321.508 382.050 C 321.583 375.785,321.479 372.936,321.159 372.550 C 320.773 372.085,301.758 372.015,198.051 372.099 L 75.400 372.198 198.200 372.399 L 321.000 372.600 321.108 381.700 L 321.215 390.800 188.208 390.800 L 55.200 390.800 55.200 213.392 L 55.200 35.985 64.300 36.092 L 73.400 36.200 73.601 203.200 L 73.801 370.200 73.901 203.114 C 73.999 38.278,73.990 36.023,73.226 35.614 C 71.985 34.950,55.810 35.065,55.249 35.742 M97.949 37.500 C 97.463 38.120,97.473 38.143,98.038 37.702 C 98.533 37.317,106.091 37.181,131.638 37.100 L 164.600 36.995 131.549 36.898 C 100.480 36.806,98.465 36.842,97.949 37.500 M165.315 37.831 C 165.692 38.289,166.000 39.265,166.000 40.000 C 166.000 40.735,165.692 41.711,165.315 42.169 C 164.702 42.912,164.730 42.907,165.582 42.122 C 166.192 41.559,166.533 40.798,166.533 40.000 C 166.533 39.202,166.192 38.441,165.582 37.878 C 164.730 37.093,164.702 37.088,165.315 37.831 M96.572 39.371 C 96.437 39.905,96.483 40.620,96.673 40.959 C 96.912 41.386,97.018 41.088,97.018 39.988 C 97.018 38.155,96.913 38.010,96.572 39.371 M115.100 43.100 C 124.175 43.160,139.025 43.160,148.100 43.100 C 157.175 43.040,149.750 42.991,131.600 42.991 C 113.450 42.991,106.025 43.040,115.100 43.100 M97.229 63.854 C 95.769 65.709,96.942 68.831,99.082 68.784 C 99.531 68.775,99.333 68.565,98.554 68.226 C 97.060 67.576,96.544 66.043,97.293 64.481 L 97.811 63.400 122.570 63.297 C 145.184 63.203,147.394 63.252,148.065 63.859 C 149.547 65.200,148.783 67.515,146.600 68.304 C 145.548 68.683,145.514 68.741,146.318 68.768 C 148.706 68.851,150.052 65.340,148.274 63.670 L 147.348 62.800 122.703 62.800 L 98.058 62.800 97.229 63.854 M98.000 114.631 L 97.000 115.233 98.000 114.917 C 100.247 114.205,136.713 114.542,137.452 115.281 C 138.346 116.174,138.321 118.182,137.405 119.195 C 136.982 119.662,136.873 120.000,137.144 120.000 C 139.113 120.000,138.954 115.363,136.954 114.452 C 135.283 113.690,99.286 113.856,98.000 114.631 M176.600 114.667 L 175.800 115.308 176.600 114.954 C 177.892 114.382,281.956 114.290,283.336 114.859 C 283.961 115.116,284.625 115.704,284.811 116.164 C 285.071 116.806,285.155 116.844,285.175 116.327 C 285.189 115.957,284.677 115.282,284.038 114.827 C 282.428 113.680,178.026 113.524,176.600 114.667 M96.575 116.557 C 96.319 117.577,97.337 120.000,98.022 120.000 C 98.243 120.000,98.035 119.474,97.561 118.832 C 96.950 118.007,96.773 117.362,96.956 116.632 C 97.099 116.064,97.125 115.600,97.015 115.600 C 96.905 115.600,96.707 116.031,96.575 116.557 M175.216 118.038 C 175.197 118.786,176.683 120.250,177.069 119.864 C 177.214 119.719,177.129 119.600,176.879 119.600 C 176.630 119.600,176.157 119.105,175.829 118.500 C 175.462 117.825,175.226 117.646,175.216 118.038 M284.832 117.969 C 284.814 118.281,284.492 118.911,284.115 119.369 C 283.469 120.153,283.483 120.151,284.362 119.342 C 284.875 118.870,285.197 118.240,285.079 117.942 C 284.904 117.503,284.857 117.508,284.832 117.969 M108.300 120.300 C 113.415 120.363,121.785 120.363,126.900 120.300 C 132.015 120.236,127.830 120.185,117.600 120.185 C 107.370 120.185,103.185 120.236,108.300 120.300 M203.669 120.300 C 218.117 120.358,241.877 120.358,256.469 120.300 C 271.061 120.242,259.240 120.194,230.200 120.194 C 201.160 120.194,189.221 120.242,203.669 120.300 M97.229 141.054 C 95.853 142.803,96.827 146.011,98.729 145.994 C 99.201 145.990,99.112 145.841,98.432 145.494 C 96.351 144.433,96.600 140.966,98.800 140.357 C 99.710 140.105,99.722 140.076,98.929 140.040 C 98.431 140.017,97.703 140.451,97.229 141.054 M175.014 140.381 C 176.244 140.879,176.724 141.648,176.903 143.405 L 177.066 145.000 177.133 143.316 C 177.204 141.530,176.112 139.973,174.825 140.025 C 174.392 140.043,174.450 140.152,175.014 140.381 M226.001 140.998 C 225.486 141.548,225.160 142.093,225.278 142.211 C 225.395 142.329,225.782 141.982,226.136 141.442 C 226.490 140.901,227.190 140.380,227.690 140.284 C 228.518 140.125,228.525 140.104,227.770 140.054 C 227.313 140.025,226.517 140.449,226.001 140.998 M266.160 143.047 C 266.160 144.252,266.224 144.366,266.523 143.695 C 266.740 143.209,266.740 142.622,266.523 142.234 C 266.254 141.753,266.160 141.962,266.160 143.047 M225.200 143.880 C 225.200 144.309,227.137 146.229,227.306 145.968 C 227.367 145.876,226.917 145.282,226.308 144.650 C 225.699 144.017,225.200 143.671,225.200 143.880 M264.800 145.400 C 264.112 145.793,264.003 145.976,264.451 145.986 C 264.809 145.994,265.326 145.730,265.600 145.400 C 266.209 144.666,266.084 144.666,264.800 145.400 M109.300 165.900 C 114.745 165.963,123.655 165.963,129.100 165.900 C 134.545 165.837,130.090 165.785,119.200 165.785 C 108.310 165.785,103.855 165.837,109.300 165.900 M179.900 165.900 C 187.435 165.961,199.765 165.961,207.300 165.900 C 214.835 165.839,208.670 165.789,193.600 165.789 C 178.530 165.789,172.365 165.839,179.900 165.900 M254.300 165.900 C 258.755 165.964,266.045 165.964,270.500 165.900 C 274.955 165.835,271.310 165.782,262.400 165.782 C 253.490 165.782,249.845 165.835,254.300 165.900 M140.842 167.171 C 141.367 167.882,141.623 168.669,141.491 169.172 C 141.372 169.628,141.438 169.900,141.637 169.777 C 142.408 169.301,141.307 166.000,140.378 166.000 C 140.157 166.000,140.366 166.527,140.842 167.171 M163.810 167.180 C 162.931 168.880,163.044 169.534,164.442 170.840 L 165.685 172.000 193.612 172.000 L 221.539 172.000 222.769 170.964 C 224.436 169.562,224.064 165.982,222.254 166.006 C 221.928 166.011,221.924 166.095,222.240 166.306 C 223.745 167.311,223.920 169.316,222.618 170.618 L 221.636 171.600 193.998 171.600 C 170.007 171.600,166.205 171.519,165.180 170.990 C 163.637 170.192,163.392 168.135,164.671 166.721 C 165.049 166.304,165.134 166.000,164.872 166.000 C 164.624 166.000,164.146 166.531,163.810 167.180 M280.196 166.843 C 280.633 167.370,281.038 167.875,281.096 167.967 C 281.153 168.058,281.200 167.877,281.200 167.563 C 281.200 167.249,280.795 166.744,280.300 166.440 L 279.400 165.887 280.196 166.843 M96.572 168.171 C 96.437 168.705,96.483 169.420,96.673 169.759 C 96.912 170.186,97.018 169.888,97.018 168.788 C 97.018 166.955,96.913 166.810,96.572 168.171 M244.122 170.961 L 245.245 172.000 262.146 172.000 C 276.588 172.000,279.160 171.912,279.824 171.398 C 280.548 170.836,280.524 170.822,279.474 171.198 C 276.960 172.096,245.454 171.706,244.154 170.761 L 243.000 169.922 244.122 170.961 M139.911 171.023 C 138.665 171.699,99.325 171.720,97.800 171.046 L 97.000 170.692 97.800 171.333 C 99.163 172.426,138.993 172.301,140.400 171.200 C 141.586 170.272,141.411 170.209,139.911 171.023 M110.400 191.602 C 103.235 191.720,110.664 191.818,128.400 191.838 C 145.010 191.858,158.150 191.819,157.600 191.751 C 155.624 191.510,122.347 191.404,110.400 191.602 M205.300 191.900 C 216.245 191.959,234.155 191.959,245.100 191.900 C 256.045 191.841,247.090 191.792,225.200 191.792 C 203.310 191.792,194.355 191.841,205.300 191.900 M96.808 193.180 C 96.165 194.733,96.730 196.440,98.111 197.113 C 98.937 197.516,105.425 197.624,128.414 197.619 C 158.733 197.612,159.490 197.573,159.896 196.000 C 160.027 195.490,159.972 195.493,159.525 196.025 C 159.236 196.368,158.665 196.775,158.256 196.929 C 157.085 197.369,99.454 197.277,98.287 196.833 C 96.945 196.323,96.478 194.352,97.374 192.984 C 97.728 192.443,97.856 192.000,97.658 192.000 C 97.459 192.000,97.077 192.531,96.808 193.180 M184.473 192.487 C 184.213 192.747,184.000 193.234,184.000 193.569 C 184.000 193.987,184.201 193.891,184.641 193.263 C 185.343 192.261,185.228 191.732,184.473 192.487 M265.827 193.134 C 266.328 194.138,266.164 195.816,265.461 196.893 C 265.427 196.944,247.580 197.082,225.800 197.198 L 186.200 197.410 225.074 197.505 C 247.898 197.561,264.346 197.449,264.911 197.234 C 266.702 196.553,267.200 193.189,265.652 192.232 C 265.433 192.097,265.512 192.503,265.827 193.134 M184.000 195.552 C 184.000 195.942,185.555 197.398,185.723 197.164 C 185.787 197.074,185.426 196.601,184.920 196.114 C 184.414 195.627,184.000 195.374,184.000 195.552 M98.262 217.500 C 98.160 217.665,130.532 217.800,170.200 217.800 C 209.868 217.800,242.240 217.665,242.138 217.500 C 242.036 217.335,209.664 217.200,170.200 217.200 C 130.736 217.200,98.364 217.335,98.262 217.500 M96.814 218.774 C 96.186 219.947,96.313 220.982,97.229 222.146 L 98.058 223.200 170.129 223.102 L 242.200 223.003 170.005 222.802 L 97.811 222.600 97.274 221.479 C 96.875 220.647,96.842 220.054,97.147 219.179 C 97.614 217.840,97.432 217.618,96.814 218.774 M242.800 218.105 C 242.800 218.246,243.001 218.804,243.248 219.345 C 243.600 220.119,243.559 220.610,243.052 221.663 L 242.408 223.000 243.204 222.056 C 244.140 220.945,244.206 219.706,243.387 218.624 C 243.064 218.196,242.800 217.963,242.800 218.105 M97.229 269.854 C 95.769 271.709,96.942 274.831,99.082 274.784 C 99.531 274.775,99.333 274.565,98.554 274.226 C 97.060 273.576,96.544 272.043,97.293 270.481 L 97.811 269.400 131.505 269.298 C 153.896 269.230,165.200 269.330,165.200 269.598 C 165.200 269.819,165.402 270.000,165.649 270.000 C 165.959 270.000,165.944 269.815,165.600 269.400 C 165.165 268.875,160.889 268.800,131.580 268.800 L 98.058 268.800 97.229 269.854 M166.038 271.800 C 166.049 273.199,166.098 273.283,166.426 272.465 C 166.662 271.875,166.657 271.284,166.412 270.865 C 166.116 270.358,166.027 270.580,166.038 271.800 M121.458 294.794 C 140.954 294.970,144.428 295.088,145.078 295.600 C 145.497 295.930,145.415 295.795,144.897 295.300 L 143.955 294.400 121.278 294.494 L 98.600 294.587 121.458 294.794 M97.298 295.300 C 95.794 297.180,96.533 299.777,98.746 300.392 C 100.539 300.890,142.642 300.898,143.800 300.400 C 144.259 300.203,134.679 300.044,121.309 300.028 L 98.018 300.000 97.374 299.016 C 96.610 297.851,96.909 295.811,97.931 295.215 C 98.299 295.000,98.397 294.819,98.149 294.812 C 97.901 294.805,97.518 295.025,97.298 295.300 M327.467 372.267 C 327.320 372.413,327.241 377.408,327.290 383.367 L 327.380 394.200 327.590 383.400 L 327.800 372.600 339.000 372.390 L 350.200 372.181 338.967 372.090 C 332.788 372.041,327.613 372.120,327.467 372.267 M326.832 395.156 C 326.736 396.840,332.335 396.774,188.162 396.787 C 51.284 396.800,50.922 396.798,50.198 395.998 C 49.798 395.556,49.382 395.285,49.272 395.395 C 47.243 397.423,323.718 398.475,326.353 396.450 C 326.883 396.042,327.207 395.469,327.084 395.158 C 326.897 394.684,326.858 394.684,326.832 395.156 " stroke="none" fill="#ffada1" fill-rule="evenodd"></path><path id="path4" d="M74.250 5.545 C 73.018 6.906,72.800 8.914,72.800 18.897 L 72.800 28.800 62.259 28.800 C 50.823 28.800,49.202 29.117,48.903 31.414 C 48.819 32.062,48.869 32.041,49.190 31.294 C 49.843 29.772,51.185 29.600,62.426 29.600 C 68.352 29.600,73.236 29.555,73.279 29.500 C 73.322 29.445,73.457 24.209,73.579 17.864 C 73.800 6.345,73.801 6.327,74.744 5.564 C 75.264 5.144,75.517 4.800,75.306 4.800 C 75.096 4.800,74.621 5.135,74.250 5.545 M311.300 45.496 L 352.000 86.192 351.987 228.396 C 351.976 354.589,351.907 370.690,351.371 371.400 C 350.795 372.162,350.225 372.206,339.364 372.318 C 330.913 372.405,327.918 372.560,327.794 372.918 C 327.492 373.791,327.393 395.537,327.694 395.063 C 327.856 394.808,327.991 389.785,327.994 383.900 L 328.000 373.200 338.605 373.200 C 349.363 373.200,349.823 373.145,351.700 371.638 C 352.364 371.105,352.400 363.808,352.400 228.553 L 352.400 86.030 311.785 45.415 C 289.446 23.077,271.041 4.800,270.885 4.801 C 270.728 4.801,288.915 23.114,311.300 45.496 M80.100 188.500 L 80.000 366.000 213.001 366.000 L 346.001 366.000 345.901 228.500 L 345.800 91.000 307.000 90.800 C 285.660 90.690,267.957 90.443,267.659 90.251 C 266.016 89.192,266.004 88.909,265.902 49.113 L 265.804 11.000 265.686 48.400 C 265.558 89.000,265.546 88.637,267.074 90.165 L 268.109 91.200 306.855 91.200 L 345.600 91.200 345.600 228.400 L 345.600 365.600 213.000 365.600 L 80.401 365.600 80.300 188.300 L 80.199 11.000 80.100 188.500 M272.400 50.120 C 272.400 75.813,272.514 83.954,272.880 84.320 C 273.681 85.121,340.903 85.005,340.729 84.203 C 340.551 83.381,273.562 16.400,272.918 16.400 C 272.498 16.400,272.400 22.779,272.400 50.120 M306.900 50.356 C 325.105 68.582,340.000 83.608,340.000 83.747 C 340.000 83.886,324.970 84.000,306.600 84.000 L 273.200 84.000 273.200 50.600 C 273.200 32.230,273.335 17.204,273.500 17.208 C 273.665 17.213,288.695 32.129,306.900 50.356 M63.900 36.296 L 72.800 36.415 72.800 202.794 C 72.800 359.442,72.840 369.257,73.489 370.618 C 74.825 373.420,64.135 373.200,198.841 373.200 L 320.785 373.200 320.904 382.100 L 321.024 391.000 321.012 381.800 L 321.000 372.600 198.114 372.400 C 80.828 372.209,75.196 372.167,74.514 371.486 C 73.831 370.803,73.791 363.396,73.600 203.486 L 73.400 36.200 64.200 36.188 L 55.000 36.176 63.900 36.296 M96.827 37.962 C 95.484 39.848,96.463 43.248,98.327 43.173 C 98.854 43.152,98.814 43.056,98.146 42.732 C 96.293 41.835,95.980 39.761,97.436 38.031 C 98.005 37.354,98.287 36.800,98.063 36.800 C 97.838 36.800,97.282 37.323,96.827 37.962 M165.256 37.566 C 165.775 37.987,166.271 38.261,166.357 38.175 C 166.650 37.885,165.506 36.800,164.907 36.800 C 164.501 36.800,164.612 37.044,165.256 37.566 M166.533 40.063 C 166.533 40.942,166.202 41.612,165.444 42.263 C 164.738 42.871,164.564 43.200,164.950 43.200 C 165.784 43.200,167.200 41.084,167.200 39.838 C 167.200 39.267,167.050 38.800,166.867 38.800 C 166.683 38.800,166.533 39.368,166.533 40.063 M110.929 62.700 C 117.710 62.761,128.690 62.761,135.329 62.700 C 141.968 62.638,136.420 62.588,123.000 62.588 C 109.580 62.588,104.148 62.638,110.929 62.700 M96.646 63.786 C 95.679 65.262,95.835 66.926,97.055 68.145 L 98.109 69.200 122.755 69.187 C 149.060 69.172,149.200 69.162,149.200 67.254 C 149.200 67.024,148.758 67.278,148.218 67.818 L 147.236 68.800 122.800 68.800 L 98.364 68.800 97.382 67.818 C 96.182 66.618,96.129 65.252,97.229 63.854 C 97.685 63.274,97.886 62.800,97.675 62.800 C 97.464 62.800,97.001 63.244,96.646 63.786 M148.202 63.602 C 148.602 64.044,149.011 64.322,149.112 64.221 C 149.328 64.005,148.188 62.800,147.767 62.800 C 147.607 62.800,147.803 63.161,148.202 63.602 M98.100 113.865 C 97.825 113.976,97.600 114.238,97.600 114.447 C 97.600 114.677,97.907 114.664,98.374 114.414 C 99.448 113.839,135.735 113.846,136.926 114.422 C 137.770 114.830,137.774 114.823,137.024 114.222 C 136.262 113.612,99.561 113.275,98.100 113.865 M176.031 114.636 C 174.039 116.312,174.700 120.451,176.946 120.368 C 177.529 120.347,177.609 120.267,177.200 120.116 C 174.980 119.300,174.512 116.797,176.255 115.055 L 177.309 114.000 230.093 114.000 C 282.815 114.000,282.878 114.001,284.038 114.827 C 284.677 115.282,285.200 115.501,285.200 115.313 C 285.200 113.572,286.097 113.600,230.069 113.600 L 177.261 113.600 176.031 114.636 M96.485 115.613 C 95.322 117.475,96.293 119.833,98.464 120.417 C 99.446 120.682,106.693 120.789,118.595 120.715 L 137.193 120.600 138.197 119.517 C 139.347 118.276,139.485 116.588,138.533 115.400 L 137.892 114.600 138.192 115.400 C 138.839 117.132,138.847 117.549,138.252 118.700 C 137.833 119.509,137.227 119.975,136.367 120.147 C 134.704 120.479,100.481 120.476,98.816 120.143 C 97.092 119.798,96.024 117.743,96.746 116.159 C 97.329 114.880,97.161 114.529,96.485 115.613 M285.227 117.238 C 285.166 120.464,290.156 120.174,230.658 120.404 L 177.800 120.607 230.200 120.664 C 259.020 120.695,283.044 120.597,283.586 120.445 C 284.992 120.054,286.231 117.821,285.678 116.676 C 285.294 115.882,285.252 115.934,285.227 117.238 M97.016 140.696 C 95.692 142.124,95.678 143.936,96.981 145.342 L 97.962 146.400 136.919 146.400 C 175.368 146.400,175.885 146.390,176.600 145.600 C 176.998 145.160,177.138 144.800,176.911 144.800 C 176.684 144.800,176.274 145.070,176.000 145.400 C 175.564 145.926,170.712 146.000,136.780 146.000 L 98.058 146.000 97.229 144.946 C 96.773 144.366,96.400 143.491,96.400 143.000 C 96.400 142.509,96.773 141.634,97.229 141.054 L 98.058 140.000 136.749 140.000 C 166.309 140.000,175.553 140.113,175.920 140.480 C 176.241 140.801,176.400 140.815,176.400 140.523 C 176.400 139.645,174.476 139.600,136.583 139.600 L 98.032 139.600 97.016 140.696 M225.862 140.513 C 224.355 141.808,224.351 144.389,225.854 145.571 C 226.887 146.383,227.290 146.400,246.025 146.400 C 266.291 146.400,265.135 146.499,266.700 144.631 C 267.510 143.663,267.276 142.079,266.134 140.797 L 265.068 139.600 245.996 139.600 L 226.924 139.600 225.862 140.513 M265.641 140.848 C 266.804 142.188,266.922 143.117,266.108 144.511 L 265.355 145.800 246.208 145.904 L 227.060 146.008 226.130 145.134 C 224.939 144.016,224.913 142.157,226.070 140.926 L 226.939 140.000 245.923 140.000 C 264.763 140.000,264.912 140.006,265.641 140.848 M98.167 165.623 C 95.848 166.310,95.324 169.191,97.160 171.158 L 98.321 172.400 119.130 172.400 L 139.938 172.400 141.169 171.169 C 142.600 169.739,142.851 166.800,141.543 166.800 C 141.330 166.800,141.348 167.129,141.586 167.574 C 142.247 168.809,142.081 169.457,140.769 170.769 L 139.538 172.000 119.045 172.000 C 99.011 172.000,98.531 171.982,97.680 171.189 C 95.643 169.291,96.430 166.298,99.082 165.860 C 101.449 165.469,138.011 165.575,139.749 165.978 C 140.933 166.253,141.188 166.227,140.829 165.869 C 140.249 165.288,100.080 165.057,98.167 165.623 M165.308 165.476 C 162.819 165.971,162.088 169.227,164.031 171.169 L 165.262 172.400 193.588 172.400 L 221.915 172.400 223.158 171.240 C 224.779 169.725,224.863 167.775,223.368 166.370 L 222.336 165.400 194.268 165.349 C 178.831 165.321,165.799 165.378,165.308 165.476 M245.000 165.480 C 243.878 165.764,242.794 166.805,242.832 167.562 C 242.858 168.098,242.900 168.105,243.096 167.607 C 243.817 165.771,243.515 165.800,262.009 165.800 C 276.348 165.800,279.597 165.900,280.148 166.357 C 280.517 166.663,280.909 166.824,281.019 166.714 C 282.155 165.578,249.078 164.445,245.000 165.480 M223.214 166.800 C 224.366 168.300,224.211 169.751,222.769 170.964 L 221.539 172.000 193.612 172.000 L 165.685 172.000 164.442 170.840 C 163.049 169.538,162.932 168.878,163.796 167.207 C 164.611 165.631,163.125 165.701,194.523 165.753 L 222.446 165.800 223.214 166.800 M281.273 168.762 C 281.260 169.695,281.413 170.315,281.625 170.185 C 282.093 169.895,282.103 168.382,281.642 167.654 C 281.413 167.293,281.288 167.670,281.273 168.762 M242.800 170.202 C 242.800 172.571,277.415 173.862,280.291 171.600 C 281.449 170.689,281.012 170.514,279.824 171.413 C 279.169 171.908,276.381 172.000,262.093 172.000 L 245.138 172.000 243.969 170.831 C 243.298 170.159,242.800 169.892,242.800 170.202 M97.231 192.031 C 95.326 193.935,95.622 196.335,97.912 197.555 C 98.604 197.924,105.974 198.038,128.505 198.029 C 161.459 198.016,159.726 198.158,160.460 195.411 C 160.630 194.777,160.612 194.436,160.421 194.638 C 160.232 194.837,160.013 195.359,159.934 195.797 C 159.610 197.595,159.326 197.612,128.414 197.619 C 105.425 197.624,98.937 197.516,98.111 197.113 C 95.944 196.056,96.075 192.369,98.299 191.811 C 100.174 191.340,157.932 191.536,158.829 192.015 C 159.278 192.256,159.804 192.846,159.997 193.326 C 160.201 193.832,160.357 193.947,160.369 193.600 C 160.460 190.753,161.002 190.800,128.142 190.800 L 98.462 190.800 97.231 192.031 M185.200 191.514 C 182.886 193.070,182.901 196.211,185.229 197.415 C 186.464 198.054,264.547 198.333,264.938 197.700 C 265.040 197.535,247.250 197.400,225.404 197.400 C 186.906 197.400,185.658 197.377,184.842 196.638 C 183.655 195.564,183.682 193.068,184.889 192.223 C 186.203 191.303,264.153 191.272,265.465 192.191 C 266.668 193.033,266.940 194.563,266.162 196.103 L 265.508 197.400 266.354 196.517 C 267.593 195.224,267.445 193.507,265.969 192.031 L 264.738 190.800 225.469 190.821 C 189.371 190.840,186.119 190.896,185.200 191.514 M97.362 217.684 L 96.600 218.569 97.686 217.884 C 98.700 217.245,103.495 217.200,170.331 217.200 L 241.891 217.200 242.945 218.255 C 244.264 219.573,244.289 220.947,243.018 222.218 L 242.036 223.200 170.118 223.240 C 130.563 223.262,98.650 223.424,99.200 223.600 C 100.915 224.149,240.054 224.079,241.634 223.528 C 244.427 222.555,245.174 220.181,243.364 218.031 L 242.329 216.800 170.226 216.800 L 98.124 216.800 97.362 217.684 M96.000 220.014 C 96.000 221.263,97.008 223.200,97.658 223.200 C 97.859 223.200,97.635 222.674,97.159 222.031 C 96.596 221.269,96.364 220.502,96.492 219.831 C 96.600 219.264,96.534 218.800,96.345 218.800 C 96.155 218.800,96.000 219.346,96.000 220.014 M115.100 268.700 C 124.175 268.760,139.025 268.760,148.100 268.700 C 157.175 268.640,149.750 268.591,131.600 268.591 C 113.450 268.591,106.025 268.640,115.100 268.700 M96.646 269.786 C 95.679 271.262,95.835 272.926,97.055 274.145 L 98.109 275.200 131.519 275.200 L 164.929 275.200 166.064 273.928 C 167.458 272.367,167.077 268.816,165.513 268.803 C 165.356 268.801,165.585 269.407,166.023 270.149 C 166.673 271.250,166.741 271.704,166.394 272.616 C 165.533 274.881,167.263 274.774,131.482 274.787 L 98.364 274.800 97.382 273.818 C 96.182 272.618,96.129 271.252,97.229 269.854 C 97.685 269.274,97.886 268.800,97.675 268.800 C 97.464 268.800,97.001 269.244,96.646 269.786 M98.000 294.300 C 98.000 294.465,108.320 294.551,120.934 294.491 C 143.833 294.381,143.870 294.382,144.955 295.236 C 146.637 296.559,146.344 299.128,144.400 300.099 C 142.758 300.920,101.595 301.183,98.746 300.392 C 97.133 299.944,96.129 298.284,96.591 296.829 C 96.745 296.344,96.677 296.000,96.427 296.000 C 94.967 296.000,96.452 299.821,98.274 300.753 C 99.908 301.589,143.375 301.361,144.714 300.509 C 146.911 299.112,147.179 296.209,145.238 294.827 C 144.042 293.976,98.000 293.462,98.000 294.300 M48.832 395.238 C 48.800 395.882,49.983 397.200,50.593 397.200 C 50.774 397.200,50.563 396.885,50.124 396.500 C 49.685 396.115,49.221 395.530,49.094 395.200 C 48.897 394.689,48.858 394.695,48.832 395.238 " stroke="none" fill="#ffd0cb" fill-rule="evenodd"></path></g></svg>