<?xml version="1.0" encoding="utf-8"?>
<!-- Generator: Adobe Illustrator 22.0.1, SVG Export Plug-In . SVG Version: 6.00 Build 0)  -->
<svg version="1.1" id="Layer_1" xmlns="http://www.w3.org/2000/svg" xmlns:xlink="http://www.w3.org/1999/xlink" x="0px" y="0px"
	 viewBox="0 0 201.9 59.8" style="enable-background:new 0 0 201.9 59.8;" xml:space="preserve">
<style type="text/css">
	.st0{fill:#EF6A4C;}
</style>
<g>
	<path class="st0" d="M0,0.8h17.2v7.5H8v16.7h7.3v7.6H8v26.4H0V0.8z"/>
	<path class="st0" d="M20.5,0.8h10c6.7,0,11.8,3.9,11.8,16.3c0,8.8-2.3,11.8-3.8,13.6l4.2,28.3h-8.1L31,33.2h-2.5v25.8h-8.1V0.8z
		 M30.6,27c2,0,3.3-2.4,3.3-9.3c0-6-1-9.4-3.8-9.4h-1.6V27H30.6z"/>
	<path class="st0" d="M45.8,48.2V11.3c0-7.2,4.3-11.3,11-11.3c6.6,0,10.9,4,10.9,11v37.3c0,7.4-4.3,11.5-11.1,11.5
		C49.1,59.8,45.8,55.4,45.8,48.2z M59.6,48.6V10.8c0-1.6-0.8-2.9-2.8-2.9c-2,0-2.7,1.5-2.7,2.9v38c0,1.5,0.7,3.3,2.7,3.3
		C59.1,52,59.6,50.1,59.6,48.6z"/>
	<path class="st0" d="M71.8,0.8h8.8l7.2,33.3h0.2V0.8h7.1v58.2h-8.1l-8-37.3h-0.3v37.3h-6.9V0.8z"/>
	<path class="st0" d="M105.5,8.3h-7.1V0.8h22.1v7.5h-6.9v50.7h-8.1V8.3z"/>
	<path class="st0" d="M123.6,0.8h8v50.7h9.3v7.6h-17.3V0.8z"/>
	<path class="st0" d="M144.3,0.8h8.1v58.2h-8.1V0.8z"/>
	<path class="st0" d="M156.8,0.8h8.8l7.2,33.3h0.2V0.8h7.1v58.2H172l-8-37.3h-0.3v37.3h-6.9V0.8z"/>
	<path class="st0" d="M184.5,0.8h17.2v7.5h-9.1V25h7.4v7.7h-7.4v18.8h9.3v7.6h-17.3V0.8z"/>
</g>
</svg>
