<svg id="svg" version="1.1" width="400" height="400" xmlns="http://www.w3.org/2000/svg" xmlns:xlink="http://www.w3.org/1999/xlink" style="display: block;"><g id="svgg"><path id="path1" d="M236.411 170.184 C 236.355 170.329,236.404 175.053,236.519 180.683 C 236.780 193.374,237.023 236.061,236.840 236.793 C 236.616 237.685,235.909 237.826,230.957 237.970 C 222.526 238.215,212.571 239.005,206.156 239.939 C 180.019 243.745,159.437 258.498,147.780 281.779 C 141.716 293.891,139.818 308.224,141.340 330.415 C 141.505 332.832,141.525 332.828,137.805 330.991 C 127.248 325.776,120.627 318.758,114.553 306.348 C 102.900 282.535,103.231 256.658,115.506 232.031 C 118.384 226.256,119.662 224.458,123.844 220.298 C 146.909 197.354,178.147 196.038,208.367 216.738 C 209.693 217.646,210.830 218.337,210.894 218.273 C 211.103 218.064,211.308 201.482,211.105 201.236 C 210.656 200.694,203.292 198.254,197.937 196.873 C 157.183 186.363,119.673 196.770,97.199 224.823 C 83.355 242.102,77.358 267.990,82.426 288.592 C 89.660 317.996,110.297 337.361,140.802 343.368 C 144.068 344.011,143.898 343.888,144.832 346.289 C 147.674 353.600,151.876 359.604,160.254 368.323 C 168.880 377.300,181.774 384.442,195.410 387.794 C 218.059 393.362,249.159 389.599,263.330 379.575 L 264.844 378.504 264.844 372.737 C 264.844 368.175,264.793 366.999,264.600 367.114 C 264.465 367.194,263.696 367.716,262.891 368.274 C 254.725 373.931,243.933 377.581,229.297 379.635 C 225.793 380.127,216.121 380.119,212.793 379.622 C 194.436 376.881,181.597 367.308,172.547 349.615 C 171.638 347.839,170.755 346.190,170.582 345.951 C 170.146 345.343,170.585 345.207,173.535 345.040 C 195.405 343.797,217.638 336.868,218.919 330.896 C 219.760 326.975,219.853 286.398,219.030 282.471 L 218.938 282.031 205.258 282.031 L 191.578 282.031 191.692 283.350 C 192.402 291.537,193.432 316.712,193.329 323.340 C 193.229 329.775,193.341 329.606,187.695 331.815 C 181.516 334.232,168.680 336.931,168.069 335.941 C 165.997 332.589,166.868 305.745,169.444 293.541 C 174.903 267.688,188.198 254.908,215.234 249.525 C 223.962 247.787,236.468 246.971,236.901 248.111 C 237.217 248.941,237.563 275.478,237.433 288.867 C 237.296 302.978,237.170 306.868,236.460 319.043 L 236.426 319.629 248.817 319.679 C 255.632 319.707,261.274 319.663,261.354 319.582 C 261.434 319.500,261.246 303.485,260.937 283.991 C 260.504 256.747,260.426 248.485,260.603 248.272 C 261.084 247.692,292.184 248.710,305.225 249.732 L 306.836 249.858 306.836 243.289 L 306.836 236.719 305.127 236.720 C 304.187 236.721,299.463 236.849,294.629 237.005 C 289.795 237.161,282.280 237.379,277.930 237.489 C 273.579 237.599,268.167 237.744,265.904 237.811 C 262.212 237.919,261.754 237.898,261.460 237.604 C 260.969 237.113,260.953 180.666,261.443 180.259 C 261.866 179.908,272.601 180.303,306.868 181.933 C 312.526 182.202,317.647 182.422,318.248 182.422 L 319.341 182.422 319.290 176.221 L 319.238 170.020 277.875 169.970 C 243.332 169.929,236.495 169.964,236.411 170.184 " stroke="none" fill="#ffffff" fill-rule="evenodd"></path><path id="path2" d="M191.536 8.919 C 191.465 8.991,191.406 24.369,191.406 43.092 C 191.406 75.315,191.388 77.144,191.064 77.313 C 190.352 77.686,160.448 76.784,143.262 75.872 C 140.254 75.712,136.627 75.525,135.203 75.456 L 132.612 75.330 132.664 82.636 L 132.715 89.941 133.984 89.895 C 134.683 89.869,137.935 89.717,141.211 89.557 C 155.757 88.845,168.924 88.479,182.031 88.420 L 191.309 88.379 191.358 140.909 C 191.385 169.800,191.473 193.504,191.554 193.586 C 191.635 193.667,193.063 194.045,194.728 194.426 C 201.565 195.991,211.705 199.200,212.669 200.103 C 212.964 200.379,212.750 221.106,212.449 221.406 C 212.367 221.487,212.021 221.348,211.680 221.096 C 204.730 215.957,192.801 209.023,191.663 209.459 C 191.454 209.540,191.406 212.497,191.406 225.482 L 191.406 241.406 191.870 241.406 C 192.125 241.406,192.718 241.268,193.188 241.098 C 197.058 239.703,206.941 237.981,214.941 237.308 C 216.338 237.191,217.678 237.053,217.920 237.001 L 218.359 236.907 218.359 162.784 L 218.359 88.662 218.799 88.508 C 219.780 88.164,258.057 89.093,273.711 89.840 C 275.849 89.942,277.673 89.980,277.764 89.923 C 277.855 89.867,277.930 86.574,277.930 82.606 L 277.930 75.391 277.261 75.391 C 276.892 75.391,274.014 75.564,270.864 75.777 C 250.081 77.179,218.791 78.047,218.478 77.230 C 218.413 77.060,218.359 61.591,218.359 42.855 L 218.359 8.789 205.013 8.789 C 197.673 8.789,191.608 8.848,191.536 8.919 M236.147 169.807 C 235.972 170.018,235.968 172.574,236.130 180.598 C 236.385 193.244,236.635 235.857,236.458 236.561 C 236.264 237.337,235.597 237.460,230.859 237.590 C 196.813 238.528,178.454 244.794,162.192 261.025 C 144.572 278.612,138.528 298.303,140.951 330.225 C 141.106 332.269,141.126 332.268,137.666 330.516 C 127.605 325.425,121.373 318.919,115.542 307.422 C 104.281 285.219,103.447 261.681,113.089 238.184 C 114.471 234.814,118.087 227.676,119.193 226.133 C 123.859 219.621,134.317 211.240,142.178 207.711 C 162.831 198.441,184.719 201.428,207.485 216.622 C 209.399 217.900,211.039 218.945,211.127 218.945 C 211.600 218.945,211.831 201.330,211.363 200.919 C 210.324 200.003,199.821 196.785,193.110 195.326 C 154.518 186.935,119.766 197.199,97.851 223.461 C 83.614 240.522,77.111 266.064,81.669 287.012 C 88.241 317.211,110.375 338.307,141.309 343.853 C 143.497 344.246,143.732 344.402,144.236 345.801 C 148.453 357.504,160.465 371.267,173.242 379.036 C 189.816 389.113,209.748 392.711,233.008 389.824 C 246.731 388.120,259.955 383.585,264.795 378.924 C 265.244 378.491,265.519 366.800,265.086 366.533 C 265.005 366.483,263.776 367.217,262.356 368.166 C 248.428 377.469,225.258 381.924,208.616 378.500 C 196.310 375.968,185.787 368.970,178.140 358.233 C 174.947 353.750,170.651 345.754,171.363 345.620 C 171.591 345.577,173.623 345.402,175.879 345.231 C 196.339 343.680,216.262 337.547,218.916 331.982 C 219.838 330.049,220.215 322.085,220.042 308.203 C 219.908 297.448,219.575 283.748,219.415 282.471 L 219.312 281.641 205.371 281.641 C 197.703 281.641,191.385 281.712,191.332 281.799 C 191.278 281.886,191.446 285.643,191.704 290.148 C 193.172 315.718,193.350 327.925,192.272 329.116 C 190.668 330.889,179.955 334.239,172.363 335.343 C 168.136 335.957,168.421 336.025,168.073 334.318 C 166.071 324.487,167.782 299.810,171.301 287.776 C 177.825 265.462,190.585 254.630,216.113 249.731 C 223.672 248.281,236.314 247.434,236.589 248.359 C 237.396 251.081,237.133 302.672,236.245 315.723 C 236.094 317.951,236.063 319.570,236.167 319.775 C 236.397 320.224,261.312 320.314,261.683 319.868 C 261.829 319.691,261.725 309.201,261.328 284.174 C 261.004 263.765,260.838 248.657,260.937 248.557 C 261.347 248.143,290.443 249.103,302.208 249.920 C 304.658 250.089,306.791 250.179,306.947 250.119 C 307.190 250.026,307.224 249.017,307.180 243.218 L 307.129 236.426 303.027 236.456 C 300.771 236.472,294.268 236.626,288.574 236.797 C 267.509 237.430,262.087 237.529,261.796 237.288 C 261.563 237.094,261.530 232.839,261.572 208.813 L 261.621 180.566 265.918 180.617 C 270.114 180.667,284.601 181.269,307.624 182.350 C 313.911 182.645,319.207 182.829,319.391 182.758 C 319.819 182.594,319.915 170.189,319.492 169.766 C 319.114 169.387,236.461 169.429,236.147 169.807 M319.290 176.221 L 319.341 182.422 318.248 182.422 C 317.647 182.422,312.526 182.202,306.868 181.933 C 272.601 180.303,261.866 179.908,261.443 180.259 C 260.953 180.666,260.969 237.113,261.460 237.604 C 261.754 237.898,262.212 237.919,265.904 237.811 C 268.167 237.744,273.579 237.599,277.930 237.489 C 282.280 237.379,289.795 237.161,294.629 237.005 C 299.463 236.849,304.187 236.721,305.127 236.720 L 306.836 236.719 306.836 243.289 L 306.836 249.858 305.225 249.732 C 292.184 248.710,261.084 247.692,260.603 248.272 C 260.426 248.485,260.504 256.747,260.937 283.991 C 261.246 303.485,261.434 319.500,261.354 319.582 C 261.274 319.663,255.632 319.707,248.817 319.679 L 236.426 319.629 236.460 319.043 C 237.170 306.868,237.296 302.978,237.433 288.867 C 237.563 275.478,237.217 248.941,236.901 248.111 C 236.468 246.971,223.962 247.787,215.234 249.525 C 182.737 255.995,169.853 272.771,167.172 312.109 C 166.608 320.393,167.136 334.432,168.069 335.941 C 168.680 336.931,181.516 334.232,187.695 331.815 C 193.341 329.606,193.229 329.775,193.329 323.340 C 193.432 316.712,192.402 291.537,191.692 283.350 L 191.578 282.031 205.258 282.031 L 218.938 282.031 219.030 282.471 C 219.853 286.398,219.760 326.975,218.919 330.896 C 217.638 336.868,195.405 343.797,173.535 345.040 C 170.585 345.207,170.146 345.343,170.582 345.951 C 170.755 346.190,171.638 347.839,172.547 349.615 C 181.597 367.308,194.436 376.881,212.793 379.622 C 216.121 380.119,225.793 380.127,229.297 379.635 C 243.933 377.581,254.725 373.931,262.891 368.274 C 263.696 367.716,264.465 367.194,264.600 367.114 C 264.793 366.999,264.844 368.175,264.844 372.737 L 264.844 378.504 263.330 379.575 C 249.159 389.599,218.059 393.362,195.410 387.794 C 181.774 384.442,168.880 377.300,160.254 368.323 C 151.876 359.604,147.674 353.600,144.832 346.289 C 143.898 343.888,144.068 344.011,140.802 343.368 C 110.297 337.361,89.660 317.996,82.426 288.592 C 77.742 269.551,82.687 245.009,94.572 228.307 C 117.245 196.446,159.427 184.883,203.516 198.443 C 206.896 199.483,210.861 200.942,211.105 201.236 C 211.308 201.482,211.103 218.064,210.894 218.273 C 210.830 218.337,209.693 217.646,208.367 216.738 C 178.147 196.038,146.909 197.354,123.844 220.298 C 119.662 224.458,118.384 226.256,115.506 232.031 C 103.231 256.658,102.900 282.535,114.553 306.348 C 120.627 318.758,127.248 325.776,137.805 330.991 C 141.525 332.828,141.505 332.832,141.340 330.415 C 139.818 308.224,141.716 293.891,147.780 281.779 C 159.437 258.498,180.019 243.745,206.156 239.939 C 212.571 239.005,222.526 238.215,230.957 237.970 C 235.909 237.826,236.616 237.685,236.840 236.793 C 237.023 236.061,236.780 193.374,236.519 180.683 C 236.404 175.053,236.355 170.329,236.411 170.184 C 236.495 169.964,243.332 169.929,277.875 169.970 L 319.238 170.020 319.290 176.221 M215.234 251.158 C 206.551 252.956,197.491 256.283,192.334 259.566 L 191.406 260.157 191.406 265.507 C 191.406 270.205,191.444 270.871,191.715 270.975 C 192.181 271.154,217.833 271.112,218.117 270.932 C 218.431 270.732,218.381 250.748,218.066 250.664 C 217.959 250.635,216.685 250.857,215.234 251.158 " stroke="none" fill="#ffffff" fill-rule="evenodd"></path></g></svg>
