<svg id="svg" version="1.1" width="400" height="400" xmlns="http://www.w3.org/2000/svg" xmlns:xlink="http://www.w3.org/1999/xlink" style="display: block;"><g id="svgg"><path id="path0" d="" stroke="none" fill="#550000" fill-rule="evenodd"></path><path id="path1" d="" stroke="none" fill="#b62424" fill-rule="evenodd"></path><path id="path2" d="" stroke="none" fill="#ff0000" fill-rule="evenodd"></path><path id="path3" d="" stroke="none" fill="#ff3333" fill-rule="evenodd"></path><path id="path4" d="M323.400 78.674 C 322.080 78.984,319.920 79.502,318.600 79.824 C 317.280 80.145,314.490 80.771,312.400 81.214 C 310.310 81.657,308.240 82.181,307.800 82.379 C 306.990 82.744,301.187 84.021,299.900 84.119 C 299.515 84.148,299.200 84.313,299.200 84.486 C 299.200 84.659,298.705 84.803,298.100 84.807 C 297.495 84.811,295.650 85.171,294.000 85.608 C 292.350 86.044,289.264 86.756,287.143 87.190 C 285.022 87.623,282.862 88.151,282.343 88.364 C 281.824 88.576,279.780 89.051,277.800 89.420 C 275.820 89.788,274.020 90.216,273.800 90.371 C 273.580 90.526,271.600 90.990,269.400 91.403 C 267.200 91.816,265.310 92.269,265.200 92.410 C 265.090 92.551,263.697 92.878,262.105 93.136 C 260.513 93.394,258.443 93.863,257.505 94.178 C 256.567 94.492,254.180 95.049,252.200 95.416 C 250.220 95.782,248.420 96.198,248.200 96.341 C 247.753 96.630,241.972 97.972,235.600 99.264 C 233.290 99.733,231.310 100.247,231.200 100.406 C 231.090 100.565,229.233 100.995,227.074 101.361 C 224.914 101.727,222.844 102.184,222.474 102.377 C 221.763 102.746,216.756 103.923,210.400 105.214 C 208.310 105.638,206.240 106.156,205.800 106.364 C 205.360 106.573,203.380 107.046,201.400 107.416 C 199.420 107.787,197.620 108.224,197.400 108.389 C 197.180 108.554,195.290 108.999,193.200 109.378 C 191.110 109.758,189.130 110.175,188.800 110.306 C 187.996 110.625,181.104 112.243,176.400 113.217 C 174.310 113.650,172.240 114.170,171.800 114.373 C 171.360 114.577,169.388 115.047,167.418 115.419 C 165.448 115.791,163.558 116.243,163.218 116.423 C 162.878 116.603,160.890 117.059,158.800 117.437 C 156.710 117.815,154.910 118.243,154.800 118.388 C 154.690 118.533,152.980 118.939,151.000 119.290 C 146.476 120.093,146.244 120.147,146.000 120.445 C 145.890 120.580,144.090 121.001,142.000 121.382 C 139.910 121.762,138.020 122.214,137.800 122.386 C 137.580 122.558,135.600 123.027,133.400 123.429 C 131.200 123.831,129.310 124.275,129.200 124.414 C 129.090 124.554,127.200 125.051,125.000 125.519 C 115.877 127.458,112.579 128.213,112.200 128.449 C 111.980 128.585,110.000 129.026,107.800 129.429 C 105.600 129.831,103.710 130.287,103.600 130.441 C 103.490 130.595,102.531 130.852,101.469 131.011 C 98.487 131.458,97.054 133.921,98.389 136.305 C 98.603 136.687,99.149 138.800,99.603 141.000 C 100.057 143.200,100.783 146.710,101.216 148.800 C 101.649 150.890,102.177 152.960,102.388 153.400 C 102.600 153.840,102.974 155.362,103.219 156.781 C 103.464 158.201,103.902 160.091,104.191 160.981 C 104.481 161.872,105.026 164.220,105.404 166.200 C 105.781 168.180,106.227 169.980,106.395 170.200 C 106.563 170.420,107.010 172.310,107.388 174.400 C 107.767 176.490,108.194 178.380,108.338 178.600 C 108.602 179.003,109.700 183.860,111.278 191.600 C 111.749 193.910,112.258 195.890,112.409 196.000 C 112.560 196.110,112.901 197.460,113.168 199.000 C 113.434 200.540,113.900 202.520,114.203 203.400 C 114.507 204.280,115.060 206.710,115.432 208.800 C 115.805 210.890,116.234 212.690,116.385 212.800 C 116.537 212.910,116.986 214.890,117.385 217.200 C 117.783 219.510,118.233 221.490,118.385 221.600 C 118.537 221.710,118.985 223.510,119.379 225.600 C 119.774 227.690,120.210 229.580,120.349 229.800 C 120.596 230.194,121.637 234.723,123.292 242.600 C 123.754 244.800,124.246 246.690,124.386 246.800 C 124.525 246.910,124.958 248.800,125.347 251.000 C 125.737 253.200,126.215 255.360,126.410 255.800 C 126.606 256.240,127.121 258.220,127.556 260.200 C 127.990 262.180,128.818 265.780,129.395 268.200 C 131.813 278.333,132.483 281.212,133.352 285.200 C 133.855 287.510,134.382 289.670,134.523 290.000 C 134.664 290.330,134.974 291.497,135.212 292.594 C 135.895 295.737,138.210 297.009,140.705 295.611 C 141.087 295.397,142.840 294.964,144.600 294.648 C 148.629 293.926,148.955 293.850,149.200 293.577 C 149.310 293.454,151.290 292.950,153.600 292.456 C 162.697 290.513,165.817 289.789,166.215 289.529 C 166.444 289.380,168.227 288.958,170.178 288.593 C 172.130 288.227,174.013 287.774,174.363 287.585 C 174.713 287.397,176.620 286.953,178.600 286.599 C 180.580 286.245,182.560 285.802,183.000 285.615 C 183.440 285.428,185.330 284.977,187.200 284.613 C 189.070 284.250,190.960 283.791,191.400 283.594 C 191.840 283.398,193.910 282.882,196.000 282.448 C 207.214 280.121,209.872 279.530,210.600 279.202 C 211.040 279.004,212.660 278.569,214.200 278.237 C 221.239 276.717,226.094 275.589,226.391 275.405 C 226.569 275.295,228.489 274.853,230.658 274.423 C 232.826 273.992,235.140 273.463,235.800 273.246 C 236.460 273.030,238.530 272.554,240.400 272.189 C 242.270 271.824,244.160 271.366,244.600 271.171 C 245.040 270.976,246.660 270.541,248.200 270.204 C 252.656 269.230,258.980 267.768,264.600 266.413 C 267.460 265.723,271.510 264.804,273.600 264.369 C 275.690 263.935,277.760 263.412,278.200 263.207 C 278.640 263.003,280.620 262.552,282.600 262.206 C 284.580 261.860,286.560 261.412,287.000 261.209 C 287.440 261.007,289.060 260.569,290.600 260.236 C 294.482 259.398,301.439 257.793,303.600 257.239 C 306.441 256.509,315.162 254.515,317.800 253.991 C 319.120 253.729,320.470 253.411,320.800 253.285 C 321.554 252.997,328.197 251.436,333.200 250.370 C 335.290 249.925,337.360 249.398,337.800 249.199 C 338.240 249.000,340.310 248.478,342.400 248.039 C 351.089 246.216,353.842 245.582,354.600 245.233 C 355.040 245.030,357.110 244.554,359.200 244.176 C 361.290 243.798,363.180 243.378,363.400 243.244 C 363.620 243.110,364.430 242.811,365.200 242.581 L 366.600 242.161 366.550 239.035 C 366.522 237.315,366.333 235.794,366.130 235.654 C 365.928 235.514,365.531 234.140,365.250 232.600 C 364.968 231.060,364.410 228.630,364.010 227.200 C 363.610 225.770,363.052 223.250,362.768 221.600 C 362.485 219.950,362.132 218.510,361.982 218.400 C 361.833 218.290,361.410 216.490,361.043 214.400 C 360.675 212.310,360.127 209.880,359.823 209.000 C 359.519 208.120,358.975 205.780,358.613 203.800 C 358.252 201.820,357.795 199.840,357.599 199.400 C 357.402 198.960,357.042 197.520,356.798 196.200 C 356.554 194.880,356.178 193.341,355.962 192.780 C 355.746 192.219,355.145 189.789,354.627 187.380 C 354.108 184.971,353.229 181.020,352.672 178.600 C 352.115 176.180,351.278 172.400,350.811 170.200 C 350.343 168.000,349.799 165.840,349.601 165.400 C 349.403 164.960,348.968 163.340,348.634 161.800 C 348.300 160.260,347.474 156.660,346.797 153.800 C 346.120 150.940,345.179 146.710,344.706 144.400 C 344.233 142.090,343.737 140.110,343.605 140.000 C 343.473 139.890,343.066 138.360,342.701 136.600 C 341.600 131.302,340.158 125.088,339.684 123.600 C 339.438 122.830,338.961 120.708,338.624 118.884 C 338.287 117.059,337.856 115.259,337.668 114.884 C 337.480 114.508,336.999 112.400,336.599 110.200 C 336.199 108.000,335.751 106.110,335.603 106.000 C 335.455 105.890,335.122 104.497,334.864 102.905 C 334.606 101.313,334.140 99.243,333.830 98.305 C 333.520 97.367,332.972 95.070,332.613 93.200 C 332.255 91.330,331.809 89.440,331.624 89.000 C 331.438 88.560,330.989 86.670,330.626 84.800 C 329.309 78.022,328.626 77.443,323.400 78.674 M317.324 88.717 C 316.874 89.326,316.117 90.539,315.642 91.412 C 315.166 92.286,314.427 93.540,313.999 94.200 C 313.251 95.354,311.427 98.500,310.605 100.054 C 310.388 100.464,310.073 100.800,309.905 100.800 C 309.737 100.800,309.600 100.970,309.600 101.178 C 309.600 101.385,308.608 103.140,307.396 105.078 C 306.184 107.015,305.074 108.870,304.928 109.200 C 304.686 109.751,303.561 111.645,300.120 117.297 C 299.416 118.454,298.450 120.109,297.974 120.975 C 297.497 121.841,296.858 122.799,296.554 123.103 C 296.249 123.408,296.000 123.916,296.000 124.232 C 296.000 124.549,295.649 125.108,295.220 125.475 C 294.792 125.842,294.532 126.291,294.644 126.471 C 294.756 126.652,294.657 126.800,294.424 126.800 C 294.191 126.800,294.000 127.040,294.000 127.334 C 294.000 127.627,293.294 128.875,292.432 130.106 C 291.570 131.337,290.559 132.987,290.186 133.772 C 289.814 134.557,289.339 135.200,289.131 135.200 C 288.923 135.200,288.864 135.380,289.000 135.600 C 289.136 135.820,289.027 136.000,288.757 136.000 C 288.487 136.000,288.386 136.119,288.531 136.265 C 288.677 136.410,288.387 137.085,287.887 137.765 C 286.856 139.167,284.750 142.662,282.806 146.200 C 282.080 147.520,281.287 148.784,281.043 149.008 C 280.799 149.233,279.896 150.763,279.035 152.408 C 278.174 154.054,277.049 155.909,276.535 156.531 C 276.021 157.153,275.600 157.831,275.600 158.039 C 275.600 158.398,275.176 159.110,272.172 163.800 C 271.467 164.900,270.499 166.520,270.020 167.400 C 269.541 168.280,268.755 169.649,268.274 170.442 C 267.793 171.235,264.970 175.885,262.000 180.775 C 259.030 185.666,256.347 190.147,256.038 190.733 C 255.729 191.320,255.324 191.860,255.138 191.933 C 254.952 192.007,254.800 192.229,254.800 192.427 C 254.800 192.626,254.248 193.685,253.573 194.782 C 252.898 195.879,251.953 197.483,251.473 198.346 C 249.140 202.542,246.953 206.001,246.527 206.168 C 245.961 206.391,242.800 204.926,242.800 204.441 C 242.800 204.253,242.305 203.998,241.700 203.873 C 241.095 203.748,239.565 203.019,238.300 202.252 C 237.035 201.486,235.997 200.980,235.994 201.129 C 235.991 201.278,235.856 201.220,235.694 201.000 C 235.532 200.780,234.140 199.976,232.600 199.214 C 231.060 198.451,229.710 197.731,229.600 197.614 C 229.490 197.496,227.420 196.418,225.000 195.217 C 222.580 194.017,220.490 192.876,220.355 192.683 C 220.221 192.490,219.994 192.351,219.851 192.374 C 219.465 192.437,217.099 191.190,216.335 190.522 C 215.969 190.201,215.429 189.890,215.135 189.830 C 214.328 189.665,213.026 189.092,212.800 188.802 C 212.690 188.660,211.801 188.230,210.824 187.845 C 209.848 187.461,208.853 186.878,208.613 186.551 C 208.374 186.223,207.911 185.916,207.586 185.868 C 207.260 185.821,206.185 185.356,205.197 184.836 C 204.208 184.316,201.870 183.081,200.000 182.092 C 198.130 181.103,194.440 179.172,191.800 177.801 C 185.692 174.629,180.278 171.778,178.400 170.746 C 178.070 170.564,176.900 169.963,175.800 169.409 C 174.700 168.856,173.530 168.235,173.200 168.030 C 172.870 167.824,171.700 167.254,170.600 166.762 C 169.500 166.270,168.060 165.493,167.400 165.035 C 166.740 164.576,166.110 164.201,166.000 164.200 C 165.737 164.198,155.117 158.783,154.600 158.387 C 154.380 158.219,151.230 156.547,147.600 154.671 C 143.970 152.796,139.110 150.253,136.800 149.021 C 134.490 147.789,131.610 146.290,130.400 145.691 C 129.190 145.091,128.110 144.510,128.000 144.400 C 127.710 144.111,125.257 142.794,123.400 141.932 C 122.520 141.523,121.260 140.891,120.600 140.529 C 119.940 140.166,117.960 139.146,116.200 138.263 C 114.440 137.379,112.940 136.508,112.866 136.326 C 112.792 136.144,112.567 136.097,112.366 136.221 C 112.165 136.345,112.000 136.277,112.000 136.069 C 112.000 135.861,112.836 135.565,113.859 135.412 C 114.881 135.259,116.006 134.974,116.359 134.779 C 116.711 134.584,118.800 134.044,121.000 133.580 C 130.150 131.648,132.240 131.166,133.000 130.810 C 133.440 130.604,135.510 130.124,137.600 129.742 C 139.690 129.360,141.490 128.938,141.600 128.804 C 141.710 128.670,143.600 128.231,145.800 127.829 C 148.000 127.427,149.980 126.966,150.200 126.805 C 150.420 126.643,152.310 126.191,154.400 125.800 C 156.490 125.409,158.380 124.961,158.600 124.806 C 158.820 124.650,160.710 124.203,162.800 123.813 C 164.890 123.422,166.780 122.991,167.000 122.855 C 167.220 122.718,169.200 122.214,171.400 121.734 C 173.600 121.255,177.470 120.390,180.000 119.814 C 182.530 119.237,184.870 118.749,185.200 118.728 C 185.530 118.708,185.980 118.559,186.200 118.398 C 186.420 118.237,187.860 117.885,189.400 117.617 C 190.940 117.348,192.920 116.879,193.800 116.574 C 194.680 116.270,196.856 115.755,198.636 115.431 C 200.416 115.106,202.306 114.658,202.836 114.435 C 203.366 114.212,205.392 113.744,207.337 113.395 C 209.283 113.046,211.173 112.599,211.537 112.402 C 211.902 112.204,213.820 111.753,215.800 111.399 C 217.780 111.045,219.760 110.595,220.200 110.398 C 220.640 110.202,222.350 109.746,224.000 109.385 C 229.186 108.250,235.315 106.838,237.600 106.252 C 240.909 105.403,248.262 103.721,251.200 103.140 C 252.630 102.858,253.890 102.529,254.000 102.411 C 254.110 102.292,256.090 101.781,258.400 101.275 C 260.710 100.770,264.130 100.010,266.000 99.588 C 269.160 98.874,270.647 98.518,277.000 96.953 C 279.353 96.374,284.024 95.298,292.400 93.409 C 294.710 92.887,296.600 92.431,296.600 92.395 C 296.600 92.296,304.461 90.482,308.800 89.579 C 310.890 89.145,312.870 88.668,313.200 88.521 C 314.033 88.150,317.762 87.344,317.972 87.490 C 318.066 87.556,317.775 88.108,317.324 88.717 M325.071 92.527 C 325.337 93.667,325.830 95.770,326.167 97.200 C 326.503 98.630,326.889 100.520,327.023 101.400 C 327.158 102.280,327.416 103.180,327.597 103.400 C 327.777 103.620,328.056 104.700,328.215 105.800 C 328.374 106.900,328.831 108.880,329.229 110.200 C 329.627 111.520,330.252 114.220,330.617 116.200 C 330.983 118.180,331.398 119.980,331.541 120.200 C 331.789 120.582,332.724 124.652,334.419 132.728 C 334.849 134.778,335.358 136.758,335.549 137.128 C 335.741 137.497,336.226 139.600,336.629 141.800 C 337.031 144.000,337.480 145.890,337.626 146.000 C 337.772 146.110,338.105 147.434,338.365 148.942 C 338.625 150.450,339.079 152.430,339.375 153.342 C 339.670 154.254,340.226 156.710,340.611 158.800 C 340.996 160.890,341.444 162.780,341.607 163.000 C 341.769 163.220,342.112 164.634,342.370 166.142 C 342.627 167.650,343.086 169.630,343.388 170.542 C 343.691 171.454,344.236 173.818,344.600 175.796 C 344.964 177.774,345.399 179.574,345.567 179.796 C 345.735 180.018,346.103 181.550,346.385 183.200 C 346.667 184.850,347.130 186.830,347.414 187.600 C 347.698 188.370,348.241 190.710,348.621 192.800 C 349.001 194.890,349.422 196.780,349.556 197.000 C 349.806 197.409,350.987 202.425,352.430 209.200 C 352.875 211.290,353.402 213.360,353.601 213.800 C 353.800 214.240,354.320 216.310,354.756 218.400 C 355.469 221.811,356.178 224.903,358.153 233.200 C 359.111 237.226,359.250 237.004,355.300 237.767 C 353.375 238.138,350.990 238.693,350.000 238.999 C 349.010 239.304,346.608 239.844,344.663 240.197 C 342.717 240.551,340.827 241.000,340.463 241.195 C 340.098 241.390,338.090 241.856,336.000 242.231 C 333.910 242.605,332.020 243.043,331.800 243.204 C 331.580 243.364,330.680 243.617,329.800 243.765 C 328.920 243.914,326.940 244.374,325.400 244.789 C 323.860 245.204,321.250 245.828,319.600 246.176 C 317.950 246.525,314.350 247.355,311.600 248.022 C 308.850 248.689,304.800 249.592,302.600 250.030 C 300.400 250.467,298.313 250.984,297.963 251.177 C 297.613 251.370,295.751 251.823,293.826 252.184 C 291.901 252.545,290.027 252.995,289.663 253.184 C 289.298 253.373,287.110 253.915,284.800 254.387 C 277.593 255.861,273.423 256.796,272.800 257.076 C 272.235 257.330,270.162 257.812,260.000 260.051 C 257.690 260.560,255.710 261.074,255.600 261.193 C 255.490 261.312,253.510 261.818,251.200 262.317 C 241.500 264.416,238.567 265.079,238.000 265.305 C 237.124 265.653,230.813 267.110,226.200 268.028 C 224.000 268.466,221.840 268.990,221.400 269.193 C 220.960 269.395,219.070 269.859,217.200 270.224 C 215.330 270.588,213.620 271.000,213.400 271.139 C 213.180 271.278,211.110 271.793,208.800 272.283 C 198.778 274.409,196.188 275.005,196.000 275.228 C 195.812 275.450,192.996 276.091,183.400 278.096 C 181.200 278.556,179.310 279.051,179.200 279.196 C 179.090 279.342,177.110 279.786,174.800 280.185 C 172.490 280.583,170.510 281.033,170.400 281.185 C 170.290 281.337,168.490 281.784,166.400 282.179 C 164.310 282.573,162.420 283.026,162.200 283.184 C 161.980 283.343,160.000 283.800,157.800 284.200 C 155.600 284.601,153.710 285.043,153.600 285.184 C 153.490 285.324,151.600 285.769,149.400 286.171 C 147.200 286.573,145.211 287.051,144.980 287.233 C 143.580 288.339,141.200 288.120,141.200 286.884 C 141.200 286.215,141.050 285.607,140.867 285.533 C 140.684 285.460,140.159 283.600,139.702 281.400 C 138.050 273.460,137.212 269.794,136.823 268.806 C 136.605 268.253,136.133 266.180,135.774 264.200 C 135.415 262.220,134.984 260.420,134.816 260.200 C 134.649 259.980,134.206 258.096,133.832 256.012 C 133.458 253.929,133.012 252.039,132.840 251.812 C 132.668 251.586,132.203 249.600,131.806 247.400 C 131.410 245.200,130.954 243.220,130.794 243.000 C 130.633 242.780,130.173 240.800,129.771 238.600 C 129.369 236.400,128.919 234.510,128.771 234.400 C 128.623 234.290,128.185 232.400,127.798 230.200 C 127.410 228.000,126.951 226.018,126.778 225.796 C 126.604 225.574,126.160 223.774,125.791 221.796 C 125.423 219.818,124.983 218.020,124.814 217.800 C 124.645 217.580,124.190 215.600,123.802 213.400 C 123.415 211.200,122.977 209.310,122.829 209.200 C 122.681 209.090,122.227 207.200,121.820 205.000 C 121.413 202.800,120.940 200.730,120.769 200.400 C 120.598 200.070,120.078 197.730,119.613 195.200 C 119.148 192.670,118.614 190.240,118.426 189.800 C 118.068 188.964,115.838 179.624,115.418 177.200 C 115.284 176.430,114.919 174.900,114.607 173.800 C 113.826 171.050,111.738 161.961,111.160 158.800 C 110.899 157.370,110.555 156.020,110.395 155.800 C 110.236 155.580,109.889 154.140,109.623 152.600 C 109.358 151.060,108.974 149.440,108.770 149.000 C 108.434 148.276,106.840 140.800,107.022 140.800 C 107.557 140.800,111.082 142.650,111.320 143.055 C 111.496 143.355,111.807 143.600,112.012 143.600 C 112.514 143.600,118.097 146.344,123.000 149.000 C 125.200 150.192,127.630 151.443,128.400 151.780 C 129.170 152.116,130.070 152.572,130.400 152.792 C 131.681 153.648,135.084 155.420,136.795 156.124 C 137.783 156.530,138.702 157.041,138.837 157.260 C 138.972 157.479,140.504 158.329,142.241 159.149 C 143.979 159.969,146.030 161.035,146.800 161.518 C 147.570 162.002,148.425 162.398,148.700 162.399 C 148.975 162.399,149.200 162.610,149.200 162.867 C 149.200 163.123,149.300 163.234,149.422 163.111 C 149.544 162.989,150.330 163.274,151.169 163.745 C 155.458 166.150,157.788 167.400,157.983 167.403 C 158.584 167.412,161.200 168.888,161.200 169.219 C 161.200 169.428,161.335 169.568,161.500 169.529 C 161.665 169.489,162.790 169.952,164.000 170.556 C 170.026 173.567,171.134 174.141,172.800 175.116 C 173.790 175.695,174.797 176.201,175.037 176.240 C 175.278 176.279,176.178 176.755,177.037 177.297 C 177.897 177.839,179.005 178.412,179.500 178.569 C 179.995 178.725,180.400 179.022,180.400 179.227 C 180.400 179.432,180.535 179.565,180.700 179.521 C 180.967 179.451,186.452 182.204,188.000 183.185 C 188.330 183.394,189.500 183.990,190.600 184.509 C 192.906 185.597,195.309 186.900,195.600 187.221 C 195.710 187.342,196.520 187.761,197.400 188.150 C 199.493 189.077,202.946 190.874,203.200 191.169 C 203.388 191.387,207.169 193.298,207.600 193.394 C 207.865 193.452,211.519 195.336,215.000 197.209 C 217.597 198.607,219.468 199.578,221.370 200.515 C 224.970 202.289,229.825 204.976,229.933 205.256 C 230.007 205.445,230.249 205.600,230.473 205.600 C 231.102 205.600,233.765 206.908,234.094 207.379 C 234.256 207.611,234.391 207.643,234.394 207.451 C 234.397 207.259,234.625 207.285,234.900 207.508 C 235.175 207.732,237.110 208.810,239.200 209.905 C 241.290 211.000,243.810 212.336,244.800 212.873 C 245.790 213.410,246.870 213.821,247.200 213.786 C 247.530 213.751,248.176 213.694,248.635 213.661 C 249.629 213.588,254.682 205.994,259.143 197.866 C 259.881 196.521,261.006 194.663,261.643 193.738 C 262.279 192.813,262.800 191.885,262.800 191.677 C 262.800 191.468,263.066 191.077,263.392 190.807 C 263.976 190.322,264.168 190.006,266.118 186.319 C 266.665 185.284,267.492 183.955,267.956 183.365 C 268.420 182.775,268.800 182.108,268.800 181.884 C 268.800 181.659,269.250 180.886,269.800 180.164 C 270.350 179.443,270.800 178.746,270.800 178.615 C 270.800 178.484,271.874 176.672,273.187 174.589 C 274.500 172.505,275.458 170.800,275.317 170.800 C 275.176 170.800,275.431 170.395,275.883 169.900 C 276.335 169.405,277.136 168.190,277.662 167.200 C 278.188 166.210,278.910 164.950,279.265 164.400 C 279.620 163.850,280.376 162.590,280.945 161.600 C 282.654 158.625,283.567 157.083,284.618 155.400 C 285.167 154.520,286.009 153.035,286.488 152.100 C 286.967 151.165,287.501 150.400,287.674 150.400 C 287.848 150.400,288.269 149.731,288.610 148.914 C 288.952 148.097,289.380 147.332,289.562 147.214 C 289.744 147.096,290.322 146.213,290.846 145.252 C 291.371 144.291,292.160 142.845,292.600 142.040 C 293.040 141.234,293.805 140.061,294.300 139.434 C 294.795 138.806,295.200 138.074,295.200 137.808 C 295.200 137.542,295.560 136.998,296.000 136.600 C 296.440 136.202,296.800 135.717,296.800 135.522 C 296.800 135.198,301.938 126.462,302.400 126.000 C 302.644 125.756,303.463 124.327,304.570 122.216 C 305.026 121.345,305.715 120.310,306.100 119.916 C 306.485 119.522,306.800 118.943,306.800 118.629 C 306.800 118.314,307.034 117.819,307.320 117.529 C 307.884 116.955,309.537 114.238,310.683 112.000 C 311.077 111.230,311.528 110.542,311.684 110.472 C 311.841 110.401,312.443 109.374,313.023 108.189 C 313.603 107.004,314.330 105.824,314.639 105.568 C 314.947 105.312,315.200 104.854,315.200 104.551 C 315.200 104.248,315.377 104.000,315.592 104.000 C 315.808 104.000,316.098 103.550,316.236 103.000 C 316.374 102.450,316.608 102.000,316.756 102.000 C 316.904 102.000,317.242 101.505,317.507 100.900 C 317.772 100.295,318.520 98.990,319.169 98.000 C 319.818 97.010,321.023 95.033,321.847 93.606 C 324.268 89.413,324.339 89.389,325.071 92.527 M106.800 246.677 C 105.590 247.002,104.420 247.303,104.200 247.345 C 103.980 247.388,103.620 247.532,103.400 247.665 C 103.180 247.799,102.190 248.039,101.200 248.199 C 100.210 248.359,99.220 248.623,99.000 248.786 C 98.780 248.949,97.000 249.393,95.044 249.772 C 93.088 250.152,91.198 250.615,90.844 250.799 C 90.490 250.984,88.220 251.598,85.800 252.164 C 83.380 252.730,79.690 253.655,77.600 254.220 C 75.510 254.785,72.000 255.690,69.800 256.232 C 63.274 257.841,62.656 258.021,62.098 258.485 C 61.798 258.734,61.685 259.207,61.840 259.564 C 61.992 259.914,62.427 261.100,62.807 262.200 L 63.499 264.200 65.444 264.070 C 66.514 263.998,67.482 263.801,67.595 263.630 C 67.708 263.460,68.070 263.307,68.400 263.289 C 69.559 263.227,81.565 260.172,83.000 259.575 C 83.440 259.392,84.880 259.021,86.200 258.750 C 87.520 258.480,88.780 258.208,89.000 258.145 C 89.759 257.929,92.604 257.153,94.200 256.727 C 95.080 256.492,96.073 256.269,96.407 256.231 C 96.741 256.193,97.211 256.041,97.451 255.892 C 97.970 255.571,107.231 253.204,109.103 252.914 C 110.794 252.652,111.068 251.588,110.170 248.761 C 109.276 245.943,109.352 245.990,106.800 246.677 M115.069 269.064 C 114.954 269.179,113.362 269.622,111.530 270.047 C 106.709 271.168,106.802 271.145,106.000 271.400 C 105.299 271.622,104.500 271.812,102.510 272.226 C 102.021 272.328,101.121 272.608,100.510 272.848 C 99.453 273.263,95.203 274.345,88.200 275.985 C 86.440 276.396,84.523 276.917,83.941 277.141 C 83.358 277.366,82.104 277.665,81.154 277.807 C 80.204 277.949,79.106 278.236,78.713 278.446 C 78.321 278.656,78.000 278.727,78.000 278.604 C 78.000 278.480,77.505 278.633,76.900 278.944 C 76.295 279.254,74.379 279.800,72.642 280.157 C 70.905 280.514,69.285 281.052,69.042 281.352 C 68.799 281.652,67.610 282.103,66.400 282.355 C 64.060 282.842,63.062 283.089,62.900 283.219 C 62.845 283.264,62.665 283.337,62.500 283.383 C 61.018 283.791,60.035 284.018,59.107 284.168 C 58.505 284.265,57.822 284.463,57.588 284.607 C 57.355 284.752,56.497 284.938,55.682 285.022 C 54.867 285.106,52.400 285.593,50.200 286.105 L 46.200 287.035 46.247 288.417 C 46.273 289.178,46.511 290.588,46.776 291.550 L 47.258 293.301 49.113 293.046 C 50.134 292.907,51.966 292.458,53.184 292.051 C 54.403 291.643,56.838 290.989,58.596 290.598 C 60.355 290.206,62.065 289.731,62.396 289.542 C 62.728 289.353,64.530 288.853,66.400 288.432 C 68.270 288.011,70.520 287.482,71.400 287.256 C 72.280 287.031,73.450 286.756,74.000 286.646 C 74.550 286.536,75.585 286.269,76.300 286.051 C 77.015 285.834,77.603 285.778,77.606 285.928 C 77.609 286.078,77.744 286.011,77.906 285.780 C 78.068 285.549,79.640 285.019,81.400 284.602 C 83.160 284.186,84.780 283.723,85.000 283.574 C 85.220 283.425,87.065 282.971,89.100 282.566 C 91.135 282.160,92.800 281.687,92.800 281.514 C 92.800 281.341,93.179 281.200,93.642 281.200 C 94.106 281.200,95.591 280.904,96.942 280.542 C 98.294 280.180,99.715 279.899,100.100 279.917 C 100.485 279.935,100.800 279.819,100.800 279.658 C 100.800 279.497,101.925 279.125,103.300 278.831 C 104.675 278.537,106.790 277.986,108.000 277.606 C 109.210 277.226,111.747 276.602,113.638 276.219 C 118.564 275.223,118.409 275.461,117.043 271.000 C 116.570 269.453,115.616 268.517,115.069 269.064 M120.991 292.843 C 118.974 293.608,115.799 294.354,113.100 294.695 C 112.275 294.799,111.600 295.017,111.600 295.179 C 111.600 295.342,110.025 295.799,108.100 296.195 C 106.175 296.591,104.420 297.042,104.200 297.198 C 103.980 297.354,102.135 297.813,100.100 298.217 C 98.065 298.622,96.400 299.080,96.400 299.235 C 96.400 299.391,95.234 299.721,93.810 299.969 C 92.385 300.217,90.090 300.763,88.710 301.182 C 87.329 301.602,85.660 302.026,85.000 302.125 C 84.340 302.224,81.370 302.978,78.400 303.800 C 75.430 304.622,72.730 305.350,72.400 305.417 C 72.070 305.484,71.800 305.566,71.800 305.599 C 71.800 305.632,71.350 305.741,70.800 305.840 C 69.608 306.056,62.386 307.863,60.400 308.443 C 59.630 308.667,58.640 308.916,58.200 308.995 C 57.760 309.074,57.400 309.166,57.400 309.200 C 57.400 309.234,57.130 309.320,56.800 309.392 C 56.470 309.464,54.812 309.909,53.116 310.381 C 49.933 311.267,49.316 311.422,46.600 312.017 C 45.720 312.210,44.382 312.552,43.626 312.777 C 42.871 313.002,42.168 313.101,42.063 312.997 C 41.959 312.892,41.677 312.964,41.437 313.155 C 40.903 313.581,36.732 314.800,35.810 314.800 C 34.439 314.800,33.627 316.338,34.120 318.000 C 34.218 318.330,34.432 319.175,34.595 319.878 C 34.798 320.756,35.159 321.196,35.746 321.284 C 36.496 321.395,40.709 320.444,44.200 319.376 C 44.420 319.308,45.950 318.971,47.600 318.627 C 49.250 318.283,50.780 317.938,51.000 317.861 C 51.220 317.784,51.670 317.619,52.000 317.494 C 52.779 317.199,54.887 316.652,55.400 316.611 C 55.620 316.593,55.980 316.476,56.200 316.351 C 56.658 316.090,58.886 315.530,63.200 314.591 C 64.850 314.232,66.560 313.772,67.000 313.568 C 67.719 313.234,70.911 312.516,73.000 312.217 C 73.440 312.154,73.800 312.065,73.800 312.020 C 73.800 311.933,73.870 311.913,77.200 311.056 C 78.410 310.744,80.210 310.218,81.200 309.886 C 82.190 309.554,84.440 308.984,86.200 308.620 C 87.960 308.256,89.760 307.788,90.200 307.581 C 90.640 307.373,92.170 306.940,93.600 306.617 C 95.030 306.294,97.550 305.669,99.200 305.226 C 100.850 304.784,102.650 304.340,103.200 304.239 C 103.750 304.139,104.740 303.861,105.400 303.622 C 106.725 303.143,111.661 301.895,116.600 300.791 C 118.360 300.397,120.250 299.893,120.800 299.671 C 121.350 299.449,122.671 299.044,123.736 298.771 L 125.672 298.276 125.414 296.556 C 124.820 292.594,123.832 291.765,120.991 292.843 " stroke="none" fill="#ef694b" fill-rule="evenodd"></path></g></svg>