<svg id="svg" version="1.1" width="400" height="400" xmlns="http://www.w3.org/2000/svg" xmlns:xlink="http://www.w3.org/1999/xlink" style="display: block;"><g id="svgg"><path id="path0" d="" stroke="none" fill="#993300" fill-rule="evenodd"></path><path id="path1" d="M205.900 278.282 C 206.395 278.378,207.205 278.378,207.700 278.282 C 208.195 278.187,207.790 278.109,206.800 278.109 C 205.810 278.109,205.405 278.187,205.900 278.282 M286.500 278.276 C 286.885 278.376,287.515 278.376,287.900 278.276 C 288.285 278.175,287.970 278.093,287.200 278.093 C 286.430 278.093,286.115 278.175,286.500 278.276 M307.505 278.283 C 308.002 278.379,308.722 278.375,309.105 278.275 C 309.487 278.175,309.080 278.096,308.200 278.101 C 307.320 278.105,307.007 278.187,307.505 278.283 " stroke="none" fill="#b62424" fill-rule="evenodd"></path><path id="path2" d="M32.900 271.900 C 37.465 271.964,44.935 271.964,49.500 271.900 C 54.065 271.835,50.330 271.783,41.200 271.783 C 32.070 271.783,28.335 271.835,32.900 271.900 M65.282 271.896 C 66.758 271.973,69.278 271.973,70.882 271.897 C 72.487 271.821,71.280 271.758,68.200 271.758 C 65.120 271.757,63.807 271.819,65.282 271.896 M80.700 271.893 C 81.635 271.977,83.165 271.977,84.100 271.893 C 85.035 271.809,84.270 271.740,82.400 271.740 C 80.530 271.740,79.765 271.809,80.700 271.893 M163.300 271.900 C 202.185 271.956,265.815 271.956,304.700 271.900 C 343.585 271.844,311.770 271.798,234.000 271.798 C 156.230 271.798,124.415 271.844,163.300 271.900 " stroke="none" fill="#ff0000" fill-rule="evenodd"></path><path id="path3" d="" stroke="none" fill="#ff3333" fill-rule="evenodd"></path><path id="path4" d="M174.766 92.309 C 174.197 93.129,173.618 94.115,173.479 94.500 C 173.339 94.885,173.052 95.200,172.840 95.200 C 172.627 95.200,172.326 95.605,172.170 96.100 C 172.014 96.595,171.282 97.707,170.543 98.572 C 169.804 99.437,169.200 100.283,169.200 100.454 C 169.200 100.624,168.795 101.205,168.300 101.744 C 166.954 103.209,166.400 103.936,166.400 104.235 C 166.400 104.382,165.815 105.162,165.100 105.968 C 164.385 106.773,163.350 108.042,162.800 108.788 C 162.250 109.534,161.395 110.588,160.900 111.130 C 160.405 111.673,160.000 112.328,160.000 112.586 C 160.000 112.845,159.460 113.661,158.800 114.400 C 158.140 115.139,157.600 115.975,157.600 116.258 C 157.600 116.541,157.240 116.965,156.800 117.200 C 156.360 117.435,156.000 117.980,156.000 118.411 C 156.000 118.841,155.640 119.418,155.200 119.693 C 154.760 119.968,154.400 120.405,154.400 120.664 C 154.400 121.221,153.200 123.544,152.532 124.278 C 152.275 124.561,151.861 125.408,151.613 126.161 C 151.365 126.914,150.900 127.630,150.581 127.752 C 150.261 127.875,150.000 128.341,150.000 128.787 C 150.000 129.234,149.820 129.600,149.600 129.600 C 149.380 129.600,149.200 129.960,149.200 130.400 C 149.200 130.840,149.020 131.200,148.800 131.200 C 148.580 131.200,148.400 131.526,148.400 131.924 C 148.400 132.321,148.136 132.996,147.813 133.424 C 147.490 133.851,147.220 134.521,147.213 134.913 C 147.206 135.304,146.956 135.719,146.658 135.833 C 146.360 135.947,145.776 137.067,145.360 138.321 C 144.944 139.574,144.383 140.741,144.114 140.913 C 143.844 141.086,143.424 141.968,143.180 142.873 C 142.936 143.779,142.481 144.776,142.168 145.089 C 141.856 145.401,141.600 145.994,141.600 146.405 C 141.600 146.816,141.420 147.264,141.200 147.400 C 140.980 147.536,140.800 147.997,140.800 148.424 C 140.800 148.851,140.620 149.200,140.400 149.200 C 140.180 149.200,139.994 149.515,139.987 149.900 C 139.980 150.285,139.710 150.949,139.387 151.376 C 139.064 151.804,138.800 152.459,138.800 152.834 C 138.800 153.208,138.548 153.611,138.240 153.729 C 137.932 153.848,137.554 154.689,137.400 155.600 C 137.246 156.511,136.877 157.349,136.579 157.463 C 136.282 157.577,135.916 158.489,135.766 159.489 C 135.616 160.489,135.202 161.603,134.847 161.966 C 134.491 162.328,133.935 163.159,133.611 163.812 C 132.987 165.073,132.612 165.587,131.128 167.222 C 130.618 167.784,129.844 168.909,129.409 169.722 C 128.974 170.535,128.507 171.200,128.372 171.200 C 128.237 171.200,127.787 171.830,127.372 172.600 C 126.957 173.370,126.475 174.000,126.300 174.000 C 126.126 174.000,125.778 174.450,125.527 175.000 C 125.277 175.550,124.830 176.000,124.536 176.000 C 124.241 176.000,124.000 176.338,124.000 176.751 C 124.000 177.164,123.730 177.726,123.400 178.000 C 123.070 178.274,122.800 178.703,122.800 178.953 C 122.800 179.203,122.440 179.632,122.000 179.907 C 121.560 180.182,121.200 180.610,121.200 180.858 C 121.200 181.105,120.795 181.730,120.300 182.244 C 118.675 183.934,118.182 184.608,117.468 186.113 C 117.080 186.931,116.593 187.600,116.387 187.600 C 116.180 187.600,115.762 188.185,115.457 188.900 C 115.152 189.615,114.430 190.636,113.852 191.170 C 113.273 191.703,112.800 192.378,112.800 192.670 C 112.800 192.961,112.648 193.200,112.463 193.200 C 112.278 193.200,111.787 193.830,111.372 194.600 C 110.957 195.370,110.487 196.000,110.328 196.000 C 110.168 196.000,109.722 196.675,109.337 197.500 C 108.952 198.325,108.313 199.235,107.918 199.523 C 107.523 199.810,107.200 200.299,107.200 200.609 C 107.200 200.918,106.840 201.365,106.400 201.600 C 105.960 201.835,105.600 202.292,105.600 202.614 C 105.600 202.936,105.265 203.535,104.855 203.945 C 104.446 204.354,103.771 205.299,103.355 206.045 C 102.940 206.790,102.285 207.635,101.900 207.923 C 101.515 208.210,101.200 208.696,101.200 209.003 C 101.200 209.309,100.973 209.704,100.696 209.880 C 100.419 210.056,99.834 210.920,99.396 211.800 C 98.958 212.680,98.375 213.544,98.100 213.720 C 97.825 213.896,97.600 214.261,97.600 214.532 C 97.600 214.802,97.240 215.283,96.800 215.600 C 96.360 215.917,96.000 216.394,96.000 216.659 C 96.000 216.925,95.593 217.470,95.096 217.871 C 94.598 218.272,93.851 219.365,93.435 220.300 C 93.019 221.235,92.526 222.000,92.339 222.000 C 92.153 222.000,92.000 222.188,92.000 222.417 C 92.000 222.826,89.280 226.646,87.900 228.175 C 87.515 228.602,87.200 229.098,87.200 229.279 C 87.200 229.576,85.749 231.749,84.181 233.800 C 82.940 235.424,81.603 237.428,81.113 238.400 C 80.836 238.950,80.381 239.580,80.102 239.800 C 79.822 240.020,79.280 240.770,78.897 241.466 C 78.514 242.163,77.435 243.730,76.500 244.949 C 75.565 246.168,74.800 247.334,74.800 247.540 C 74.800 247.746,74.530 248.018,74.200 248.145 C 73.870 248.271,73.600 248.640,73.600 248.965 C 73.600 249.289,73.284 249.790,72.898 250.077 C 72.512 250.365,71.841 251.275,71.407 252.100 C 70.973 252.925,70.484 253.600,70.319 253.600 C 70.155 253.600,69.722 254.185,69.356 254.900 C 68.991 255.615,68.446 256.344,68.146 256.520 C 67.846 256.696,67.600 257.075,67.600 257.361 C 67.600 257.648,67.145 258.404,66.589 259.042 C 65.047 260.808,64.919 260.996,64.622 261.931 C 64.470 262.409,64.219 262.800,64.064 262.800 C 63.909 262.800,63.426 263.465,62.991 264.278 C 62.556 265.091,61.782 266.216,61.272 266.778 C 60.762 267.340,60.087 268.085,59.772 268.434 C 59.457 268.782,59.200 269.275,59.200 269.530 C 59.200 269.785,58.840 270.218,58.400 270.493 C 57.960 270.768,57.600 271.219,57.600 271.496 C 57.600 271.893,54.119 272.000,41.200 272.000 L 24.800 272.000 24.800 275.100 L 24.800 278.200 38.955 278.178 L 53.109 278.156 52.655 278.978 C 52.405 279.430,51.975 279.944,51.700 280.120 C 51.425 280.296,51.200 280.701,51.200 281.020 C 51.200 281.339,51.020 281.600,50.800 281.600 C 50.580 281.600,50.400 281.870,50.400 282.200 C 50.400 282.530,50.262 282.800,50.094 282.800 C 49.926 282.800,49.477 283.520,49.096 284.400 C 48.714 285.280,48.222 286.000,48.001 286.000 C 47.781 286.000,47.600 286.287,47.600 286.638 C 47.600 287.338,46.499 289.466,45.687 290.334 C 45.406 290.635,44.963 291.674,44.705 292.641 C 44.446 293.608,44.111 294.400,43.961 294.400 C 43.811 294.400,43.449 295.210,43.157 296.200 C 42.865 297.190,42.440 298.000,42.213 298.000 C 41.986 298.000,41.455 299.080,41.033 300.400 C 40.602 301.749,40.033 302.800,39.733 302.800 C 39.320 302.800,39.200 303.834,39.200 307.400 L 39.200 312.000 42.017 312.000 C 43.672 312.000,45.090 311.794,45.456 311.500 C 47.150 310.138,52.000 305.187,52.000 304.819 C 52.000 304.589,52.270 304.400,52.600 304.400 C 52.930 304.400,53.200 304.121,53.200 303.781 C 53.200 303.441,54.035 302.316,55.056 301.281 C 56.076 300.246,57.198 298.950,57.549 298.400 C 57.899 297.850,58.504 297.165,58.893 296.877 C 59.282 296.590,59.600 296.116,59.600 295.823 C 59.600 295.531,60.050 294.997,60.600 294.637 C 61.150 294.276,61.600 293.785,61.600 293.544 C 61.600 293.303,62.320 292.408,63.200 291.554 C 64.080 290.700,64.800 289.821,64.800 289.600 C 64.800 289.380,64.968 289.200,65.173 289.200 C 65.378 289.200,65.665 288.826,65.810 288.369 C 65.955 287.912,66.867 286.792,67.837 285.879 C 68.807 284.967,69.600 283.997,69.600 283.724 C 69.600 283.451,69.960 283.035,70.400 282.800 C 70.840 282.565,71.200 282.118,71.200 281.809 C 71.200 281.499,71.517 281.010,71.905 280.723 C 72.292 280.435,72.899 279.750,73.253 279.200 C 73.879 278.228,74.032 278.199,78.714 278.165 L 83.531 278.130 83.140 279.157 C 82.926 279.722,82.623 280.277,82.468 280.392 C 81.106 281.399,80.700 290.587,82.000 291.000 C 82.641 291.204,82.800 291.605,82.800 293.027 L 82.800 294.800 85.000 294.800 L 87.200 294.800 87.200 293.003 C 87.200 291.640,87.393 291.086,88.000 290.707 C 88.941 290.120,89.232 284.800,88.324 284.800 C 88.036 284.800,88.097 284.601,88.476 284.300 C 88.853 284.000,89.210 282.840,89.367 281.405 C 89.511 280.088,89.812 278.828,90.035 278.605 C 90.307 278.333,137.174 278.191,232.720 278.174 L 375.000 278.148 375.117 275.074 L 375.234 272.000 234.017 272.000 L 92.800 272.000 92.800 271.024 C 92.800 270.487,92.980 269.936,93.200 269.800 C 93.420 269.664,93.600 269.263,93.600 268.908 C 93.600 268.553,93.866 267.969,94.191 267.610 C 94.516 267.251,94.990 265.557,95.244 263.846 C 95.528 261.938,95.919 260.653,96.254 260.524 C 96.554 260.409,96.800 259.894,96.800 259.381 C 96.800 258.867,96.959 258.349,97.154 258.229 C 97.348 258.108,97.627 257.214,97.773 256.240 C 97.919 255.267,98.274 254.380,98.562 254.270 C 98.850 254.159,99.193 253.535,99.323 252.883 C 99.454 252.230,99.832 251.425,100.163 251.094 C 100.494 250.763,100.985 249.616,101.255 248.546 C 101.667 246.907,102.300 246.046,105.272 243.087 C 107.212 241.155,108.800 239.488,108.800 239.384 C 108.800 238.922,111.101 236.667,112.100 236.150 C 112.705 235.836,113.200 235.347,113.200 235.063 C 113.200 234.778,114.505 233.265,116.100 231.700 C 117.695 230.135,119.939 227.898,121.086 226.727 C 122.233 225.557,123.403 224.389,123.686 224.130 C 123.969 223.872,124.790 223.017,125.510 222.230 C 126.231 221.444,126.966 220.800,127.143 220.800 C 127.320 220.800,127.706 220.350,128.000 219.800 C 128.294 219.250,128.748 218.800,129.009 218.800 C 129.269 218.800,130.993 217.274,132.841 215.410 C 134.688 213.545,136.341 212.015,136.513 212.010 C 136.958 211.996,139.600 209.301,139.600 208.862 C 139.600 208.661,140.140 208.273,140.800 208.000 C 141.460 207.727,142.000 207.255,142.000 206.951 C 142.000 206.648,142.266 206.400,142.591 206.400 C 142.916 206.400,143.457 205.980,143.793 205.466 C 144.130 204.953,144.854 204.292,145.403 203.999 C 145.951 203.705,146.400 203.225,146.400 202.932 C 146.400 202.640,146.668 202.400,146.997 202.400 C 147.325 202.400,147.818 202.040,148.093 201.600 C 148.368 201.160,148.774 200.800,148.996 200.800 C 149.218 200.800,150.108 200.170,150.973 199.400 C 151.838 198.630,152.721 198.000,152.935 198.000 C 153.149 198.000,153.914 197.550,154.635 197.000 C 155.356 196.451,156.408 195.825,156.973 195.610 C 157.538 195.396,158.000 195.035,158.000 194.810 C 158.000 194.584,158.189 194.400,158.420 194.400 C 158.898 194.400,163.730 191.157,163.933 190.700 C 164.007 190.535,164.322 190.400,164.633 190.400 C 164.945 190.400,165.200 190.220,165.200 190.000 C 165.200 189.780,165.470 189.600,165.800 189.600 C 166.130 189.600,166.400 189.330,166.400 189.000 C 166.400 188.670,166.648 188.400,166.951 188.400 C 167.254 188.400,167.724 188.132,167.996 187.804 C 168.268 187.477,168.661 187.314,168.869 187.442 C 169.076 187.571,169.641 187.285,170.123 186.807 C 170.605 186.330,171.675 185.508,172.500 184.982 L 174.000 184.024 174.003 185.712 C 174.009 189.491,173.061 197.810,172.591 198.091 C 172.304 198.262,171.989 199.862,171.823 201.987 C 171.643 204.278,171.350 205.704,171.017 205.897 C 170.730 206.064,170.391 206.920,170.264 207.800 C 170.137 208.680,169.827 210.840,169.575 212.600 C 169.323 214.360,168.890 215.982,168.613 216.204 C 168.165 216.563,167.768 218.135,167.492 220.639 C 167.442 221.100,167.196 221.730,166.946 222.039 C 166.697 222.347,166.371 223.230,166.223 224.000 C 165.915 225.599,165.646 226.324,164.483 228.689 C 164.026 229.618,163.529 231.238,163.377 232.289 C 163.226 233.340,162.876 234.470,162.600 234.800 C 162.324 235.130,161.972 236.300,161.818 237.400 C 161.664 238.500,161.291 239.784,160.990 240.254 C 160.688 240.724,160.317 242.484,160.165 244.165 C 160.012 245.847,159.733 247.318,159.544 247.435 C 159.355 247.552,159.200 248.267,159.200 249.024 C 159.200 249.781,159.056 250.400,158.879 250.400 C 158.703 250.400,158.224 251.570,157.815 253.000 C 157.406 254.430,156.920 255.600,156.736 255.600 C 156.124 255.600,156.367 258.302,157.000 258.545 C 157.330 258.671,157.600 259.141,157.600 259.587 C 157.600 260.034,157.862 260.400,158.182 260.400 C 158.502 260.400,159.388 260.823,160.150 261.341 C 162.609 263.009,171.705 262.760,173.044 260.988 C 173.288 260.664,173.873 260.400,174.344 260.400 C 174.815 260.400,175.200 260.220,175.200 260.000 C 175.200 259.780,175.434 259.600,175.720 259.600 C 176.456 259.600,178.393 258.659,178.397 258.300 C 178.399 258.135,178.751 258.000,179.180 258.000 C 179.609 258.000,180.104 257.762,180.280 257.472 C 180.456 257.181,181.376 256.638,182.323 256.265 C 183.271 255.893,184.261 255.408,184.523 255.189 C 186.626 253.430,188.226 252.400,188.855 252.400 C 189.265 252.400,189.600 252.220,189.600 252.000 C 189.600 251.780,189.842 251.600,190.138 251.600 C 190.434 251.600,191.002 251.240,191.400 250.800 C 191.798 250.360,192.357 250.000,192.642 250.000 C 192.927 250.000,193.304 249.771,193.480 249.490 C 193.656 249.210,194.335 248.640,194.990 248.222 C 195.644 247.805,196.364 247.312,196.590 247.127 C 198.757 245.345,200.689 244.007,201.100 244.004 C 201.375 244.002,201.600 243.751,201.600 243.446 C 201.600 243.141,202.230 242.592,203.000 242.227 C 203.770 241.861,204.400 241.393,204.400 241.187 C 204.400 240.980,205.048 240.540,205.839 240.209 C 206.631 239.879,207.634 239.156,208.068 238.604 C 208.503 238.052,209.205 237.600,209.629 237.600 C 210.053 237.600,210.400 237.330,210.400 237.000 C 210.400 236.670,210.660 236.400,210.977 236.400 C 211.295 236.400,211.790 236.085,212.077 235.700 C 212.365 235.315,213.230 234.652,214.000 234.227 C 214.770 233.802,215.635 233.127,215.923 232.727 C 216.210 232.327,216.696 232.000,217.003 232.000 C 217.309 232.000,217.704 231.754,217.880 231.454 C 218.056 231.154,218.785 230.609,219.500 230.244 C 220.215 229.878,220.800 229.445,220.800 229.281 C 220.800 229.116,221.430 228.643,222.200 228.228 C 222.970 227.813,223.600 227.313,223.600 227.117 C 223.600 226.920,224.230 226.496,225.000 226.174 C 225.770 225.852,226.400 225.433,226.400 225.241 C 226.400 225.050,226.715 224.788,227.100 224.658 C 228.166 224.300,229.288 223.497,230.113 222.500 C 230.523 222.005,231.075 221.600,231.341 221.600 C 231.606 221.600,232.083 221.240,232.400 220.800 C 232.717 220.360,233.201 220.000,233.474 220.000 C 233.748 220.000,234.143 219.679,234.353 219.288 C 234.563 218.896,235.379 218.322,236.167 218.013 C 236.955 217.704,237.600 217.210,237.600 216.915 C 237.600 216.621,238.140 216.272,238.800 216.140 C 239.460 216.008,240.000 215.665,240.000 215.377 C 240.000 215.089,240.405 214.726,240.900 214.570 C 241.395 214.413,242.070 213.983,242.400 213.613 C 242.730 213.242,243.585 212.684,244.300 212.372 C 245.015 212.060,245.600 211.617,245.600 211.389 C 245.600 211.160,246.185 210.633,246.900 210.218 C 247.615 209.802,248.344 209.223,248.520 208.931 C 248.696 208.639,249.091 208.400,249.397 208.400 C 249.704 208.400,250.190 208.072,250.477 207.671 C 250.765 207.270,251.585 206.686,252.300 206.373 C 253.015 206.061,253.600 205.598,253.600 205.346 C 253.600 205.093,254.009 204.784,254.508 204.659 C 255.007 204.534,255.810 204.064,256.291 203.615 C 256.773 203.167,257.322 202.800,257.511 202.800 C 257.701 202.800,258.461 202.260,259.200 201.600 C 259.939 200.940,260.872 200.400,261.272 200.400 C 261.672 200.400,262.000 200.234,262.000 200.032 C 262.000 199.829,262.525 199.548,263.167 199.407 C 263.808 199.266,264.433 198.892,264.554 198.576 C 264.676 198.259,265.051 198.000,265.387 198.000 C 265.724 198.000,266.000 197.820,266.000 197.600 C 266.000 197.380,266.197 197.200,266.437 197.200 C 266.677 197.200,267.331 196.840,267.891 196.400 C 268.450 195.960,269.244 195.600,269.654 195.600 C 270.064 195.600,270.400 195.330,270.400 195.000 C 270.400 194.670,270.715 194.395,271.100 194.389 C 271.485 194.383,272.507 193.843,273.371 193.189 C 274.235 192.535,275.103 192.000,275.299 192.000 C 275.495 192.000,276.408 191.485,277.328 190.855 C 278.248 190.225,279.405 189.583,279.900 189.428 C 280.395 189.273,280.800 188.888,280.800 188.573 C 280.800 188.258,281.087 188.000,281.438 188.000 C 282.092 188.000,284.494 186.480,284.733 185.914 C 284.807 185.742,285.123 185.600,285.437 185.600 C 285.751 185.600,286.316 185.240,286.693 184.800 C 287.770 183.541,288.443 183.757,287.940 185.200 C 287.710 185.860,287.400 186.400,287.252 186.400 C 287.103 186.400,286.628 187.075,286.195 187.900 C 285.762 188.725,285.181 189.544,284.904 189.720 C 284.627 189.896,284.400 190.299,284.400 190.616 C 284.400 190.934,284.040 191.418,283.600 191.693 C 283.160 191.968,282.800 192.391,282.800 192.635 C 282.800 193.357,281.572 195.600,281.176 195.600 C 280.975 195.600,280.548 196.230,280.226 197.000 C 279.904 197.770,279.493 198.400,279.311 198.400 C 279.130 198.400,278.628 199.075,278.195 199.900 C 277.762 200.725,277.181 201.544,276.904 201.720 C 276.627 201.896,276.400 202.381,276.400 202.797 C 276.400 203.214,276.085 203.790,275.700 204.077 C 275.315 204.365,274.688 205.275,274.306 206.100 C 273.925 206.925,273.452 207.600,273.255 207.600 C 273.058 207.600,272.672 208.144,272.396 208.809 C 272.121 209.475,271.694 210.150,271.448 210.309 C 270.858 210.692,270.000 212.247,270.000 212.932 C 270.000 213.231,269.549 213.999,268.998 214.638 C 268.446 215.277,267.894 216.115,267.771 216.500 C 267.647 216.885,267.417 217.200,267.259 217.200 C 267.102 217.200,266.633 217.785,266.218 218.500 C 265.802 219.215,265.223 219.944,264.931 220.120 C 264.639 220.296,264.400 220.691,264.400 220.997 C 264.400 221.304,264.066 221.790,263.657 222.077 C 263.249 222.365,262.795 222.979,262.648 223.443 C 262.502 223.907,261.587 225.093,260.615 226.079 C 259.643 227.065,258.727 228.352,258.579 228.940 C 258.432 229.527,258.151 230.106,257.956 230.227 C 257.760 230.348,257.600 230.797,257.600 231.224 C 257.600 231.651,257.420 232.000,257.200 232.000 C 256.980 232.000,256.800 232.349,256.800 232.776 C 256.800 233.203,256.620 233.664,256.400 233.800 C 256.180 233.936,256.000 234.390,256.000 234.810 C 256.000 235.229,255.640 235.765,255.200 236.000 C 254.760 236.235,254.400 236.623,254.400 236.860 C 254.400 237.098,253.770 238.151,253.000 239.200 C 252.230 240.249,251.600 241.308,251.600 241.554 C 251.600 241.799,251.442 242.000,251.249 242.000 C 250.054 242.000,249.676 247.035,250.787 248.148 C 251.795 249.159,260.017 248.943,262.000 247.854 C 262.990 247.310,264.430 246.536,265.200 246.133 C 265.970 245.730,266.949 245.085,267.375 244.700 C 267.802 244.315,268.451 244.000,268.817 244.000 C 269.183 244.000,269.932 243.595,270.480 243.100 C 272.614 241.173,273.843 240.346,274.900 240.128 C 275.505 240.002,276.000 239.656,276.000 239.358 C 276.000 239.059,276.490 238.692,277.088 238.542 C 277.686 238.392,278.611 237.866,279.142 237.373 C 279.674 236.880,280.579 236.236,281.154 235.941 C 281.729 235.647,282.491 235.089,282.847 234.703 C 283.203 234.316,283.673 234.000,283.893 234.000 C 284.112 234.000,284.901 233.463,285.646 232.806 C 286.391 232.150,287.225 231.610,287.500 231.606 C 287.775 231.603,288.000 231.411,288.000 231.180 C 288.000 230.948,288.630 230.496,289.400 230.174 C 290.170 229.852,290.800 229.431,290.800 229.238 C 290.800 229.045,291.250 228.774,291.800 228.636 C 292.350 228.498,292.800 228.208,292.800 227.992 C 292.800 227.777,293.141 227.600,293.557 227.600 C 293.974 227.600,294.405 227.365,294.515 227.078 C 294.625 226.791,295.445 226.315,296.337 226.021 C 297.229 225.727,298.052 225.241,298.167 224.943 C 298.281 224.644,298.741 224.400,299.187 224.400 C 299.634 224.400,300.000 224.220,300.000 224.000 C 300.000 223.780,300.270 223.600,300.600 223.600 C 300.930 223.600,301.200 223.364,301.200 223.075 C 301.200 222.786,301.830 222.302,302.600 222.000 C 303.370 221.698,304.000 221.324,304.000 221.169 C 304.000 221.014,304.455 220.773,305.010 220.633 C 305.566 220.494,306.358 220.042,306.771 219.629 C 307.183 219.217,307.899 218.759,308.361 218.613 C 308.822 218.466,309.200 218.178,309.200 217.973 C 309.200 217.768,309.470 217.600,309.800 217.600 C 310.130 217.600,310.400 217.444,310.400 217.254 C 310.400 217.064,311.210 216.599,312.200 216.221 C 313.190 215.843,314.000 215.403,314.000 215.244 C 314.000 214.914,316.826 213.600,317.534 213.600 C 317.790 213.600,318.000 213.411,318.000 213.180 C 318.000 212.948,318.630 212.496,319.400 212.174 C 320.170 211.852,320.800 211.454,320.800 211.289 C 320.800 211.123,321.731 210.657,322.870 210.253 C 324.008 209.848,325.191 209.266,325.498 208.959 C 325.806 208.651,326.224 208.400,326.429 208.400 C 326.930 208.400,326.904 211.488,326.400 211.800 C 326.180 211.936,326.000 212.847,326.000 213.824 C 326.000 214.801,325.820 215.600,325.600 215.600 C 325.380 215.600,325.200 216.500,325.200 217.600 C 325.200 218.700,325.380 219.600,325.600 219.600 C 325.820 219.600,326.000 220.050,326.000 220.600 C 326.000 221.150,325.820 221.600,325.600 221.600 C 324.619 221.600,325.159 225.853,326.200 226.327 C 326.750 226.578,327.200 226.949,327.200 227.151 C 327.200 227.583,330.226 228.058,332.800 228.031 C 336.635 227.990,341.200 227.522,341.200 227.170 C 341.200 226.966,341.819 226.800,342.576 226.800 C 343.333 226.800,344.051 226.640,344.172 226.445 C 344.293 226.250,345.023 225.972,345.796 225.827 C 346.568 225.682,347.200 225.433,347.200 225.273 C 347.200 225.113,347.865 224.626,348.678 224.191 C 349.491 223.756,350.553 223.040,351.040 222.600 C 353.111 220.726,354.462 220.031,356.609 219.737 C 357.594 219.602,358.400 219.336,358.400 219.146 C 358.400 218.956,358.745 218.800,359.167 218.800 C 360.994 218.800,361.200 218.452,361.200 215.357 L 361.200 212.400 358.771 212.400 C 357.256 212.400,356.138 212.605,355.798 212.945 C 355.499 213.244,354.522 213.606,353.627 213.749 C 352.672 213.902,352.000 214.229,352.000 214.541 C 352.000 214.833,351.280 215.310,350.400 215.600 C 349.520 215.890,348.800 216.328,348.800 216.573 C 348.800 216.818,348.170 217.357,347.400 217.772 C 346.630 218.187,346.000 218.673,346.000 218.852 C 346.000 219.031,344.965 219.477,343.700 219.842 C 342.435 220.207,341.310 220.644,341.200 220.813 C 341.005 221.111,335.803 221.418,333.400 221.273 L 332.200 221.201 332.466 216.700 C 332.613 214.225,332.748 211.898,332.766 211.529 C 332.785 211.159,333.115 210.542,333.500 210.157 C 334.497 209.161,334.519 202.864,333.529 201.872 C 332.781 201.124,328.400 200.891,328.400 201.600 C 328.400 201.820,327.860 202.000,327.200 202.000 C 326.400 202.000,326.000 202.200,326.000 202.600 C 326.000 202.960,325.631 203.200,325.076 203.200 C 324.569 203.200,323.804 203.464,323.376 203.787 C 322.949 204.110,322.304 204.380,321.943 204.387 C 321.581 204.394,321.182 204.670,321.055 205.000 C 320.929 205.330,320.459 205.600,320.013 205.600 C 319.566 205.600,319.200 205.780,319.200 206.000 C 319.200 206.220,318.930 206.400,318.600 206.400 C 318.270 206.400,318.000 206.580,318.000 206.800 C 318.000 207.020,317.730 207.200,317.400 207.200 C 317.070 207.200,316.800 207.380,316.800 207.600 C 316.800 207.820,316.449 208.000,316.020 208.000 C 315.591 208.000,315.096 208.239,314.920 208.531 C 314.744 208.823,314.015 209.402,313.300 209.818 C 312.585 210.233,312.000 210.714,312.000 210.886 C 312.000 211.059,311.640 211.200,311.200 211.200 C 310.760 211.200,310.400 211.380,310.400 211.600 C 310.400 211.820,310.124 212.000,309.787 212.000 C 309.451 212.000,309.075 212.261,308.952 212.581 C 308.830 212.900,308.134 213.358,307.407 213.598 C 306.680 213.838,305.571 214.476,304.942 215.017 C 304.314 215.557,303.485 215.999,303.100 216.000 C 302.715 216.000,302.400 216.237,302.400 216.526 C 302.400 217.078,299.992 218.400,298.986 218.400 C 298.664 218.400,298.400 218.648,298.400 218.951 C 298.400 219.255,297.815 219.743,297.100 220.037 C 296.385 220.330,295.451 220.892,295.025 221.285 C 294.598 221.678,293.932 222.000,293.544 222.000 C 293.157 222.000,292.696 222.248,292.520 222.551 C 292.344 222.853,291.345 223.488,290.300 223.961 C 289.255 224.433,288.400 224.988,288.400 225.194 C 288.400 225.400,287.635 225.788,286.700 226.057 C 285.765 226.325,284.691 226.859,284.313 227.242 C 283.935 227.625,282.990 228.169,282.213 228.450 C 281.436 228.731,280.800 229.100,280.800 229.270 C 280.800 229.440,280.215 229.878,279.500 230.244 C 278.785 230.609,278.060 231.147,277.889 231.438 C 277.718 231.729,276.953 232.085,276.189 232.228 C 275.396 232.377,274.800 232.727,274.800 233.045 C 274.800 233.350,274.530 233.600,274.200 233.600 C 273.870 233.600,273.600 233.780,273.600 234.000 C 273.600 234.220,273.358 234.400,273.061 234.400 C 272.765 234.400,272.114 234.754,271.615 235.187 C 271.116 235.620,270.189 236.204,269.554 236.485 C 268.919 236.765,268.400 237.131,268.400 237.298 C 268.400 237.464,268.145 237.600,267.832 237.600 C 267.224 237.600,264.741 238.814,264.386 239.284 C 264.268 239.441,263.548 239.862,262.786 240.220 C 260.215 241.427,259.600 241.789,259.600 242.095 C 259.600 242.263,259.105 242.386,258.500 242.368 C 257.895 242.351,257.625 242.246,257.900 242.135 C 258.175 242.024,258.400 241.571,258.400 241.129 C 258.400 240.676,258.731 240.238,259.160 240.126 C 259.695 239.986,259.994 239.433,260.170 238.258 C 260.308 237.339,260.775 236.050,261.208 235.394 C 261.641 234.737,261.996 233.962,261.997 233.672 C 261.999 233.382,262.540 232.359,263.200 231.400 C 263.860 230.441,264.400 229.382,264.400 229.048 C 264.400 228.713,264.625 228.296,264.900 228.120 C 265.175 227.944,265.744 227.183,266.164 226.430 C 266.950 225.021,267.693 224.017,268.879 222.761 C 269.252 222.366,269.842 221.493,270.189 220.821 C 270.536 220.150,270.955 219.600,271.119 219.600 C 271.284 219.600,271.772 218.925,272.205 218.100 C 272.638 217.275,273.219 216.456,273.496 216.280 C 273.773 216.104,274.000 215.742,274.000 215.475 C 274.000 215.208,274.450 214.652,275.000 214.239 C 275.550 213.826,276.000 213.253,276.000 212.967 C 276.000 212.680,276.356 212.196,276.792 211.891 C 277.228 211.585,277.860 210.675,278.197 209.868 C 278.535 209.061,278.966 208.400,279.157 208.400 C 279.347 208.400,279.710 207.900,279.963 207.290 C 280.216 206.679,280.957 205.554,281.610 204.790 C 282.264 204.025,282.799 203.184,282.799 202.920 C 282.800 202.656,283.027 202.296,283.304 202.120 C 283.581 201.944,284.166 201.080,284.604 200.200 C 285.042 199.320,285.715 198.365,286.100 198.077 C 286.485 197.790,286.800 197.320,286.800 197.033 C 286.800 196.747,287.250 196.174,287.800 195.761 C 288.350 195.348,288.800 194.702,288.800 194.325 C 288.800 193.948,289.025 193.496,289.300 193.320 C 289.878 192.950,290.721 191.702,291.051 190.728 C 291.176 190.358,291.531 189.959,291.839 189.840 C 292.148 189.722,292.400 189.360,292.400 189.035 C 292.400 188.711,292.715 188.207,293.100 187.917 C 293.793 187.393,294.546 186.362,295.082 185.200 C 295.235 184.870,295.681 184.253,296.075 183.830 C 297.375 182.430,297.580 177.621,296.400 176.200 C 295.647 175.292,291.190 175.378,290.175 176.320 C 289.749 176.716,288.770 177.391,288.000 177.820 C 287.230 178.249,286.510 178.710,286.400 178.844 C 286.290 178.978,285.615 179.388,284.900 179.754 C 284.185 180.121,283.600 180.555,283.600 180.719 C 283.600 180.884,282.925 181.372,282.100 181.804 C 281.275 182.236,280.330 182.874,280.000 183.222 C 279.670 183.571,279.085 183.972,278.700 184.115 C 278.315 184.258,278.000 184.561,278.000 184.787 C 278.000 185.014,277.794 185.200,277.541 185.200 C 277.289 185.200,276.314 185.830,275.374 186.600 C 274.434 187.370,273.375 188.000,273.020 188.000 C 272.665 188.000,272.271 188.270,272.145 188.600 C 272.018 188.930,271.688 189.200,271.411 189.200 C 271.135 189.200,270.299 189.740,269.554 190.399 C 268.809 191.059,267.615 191.815,266.900 192.080 C 266.185 192.344,265.600 192.705,265.600 192.880 C 265.600 193.056,265.407 193.200,265.171 193.200 C 264.936 193.200,264.473 193.470,264.143 193.800 C 263.813 194.130,263.196 194.400,262.771 194.400 C 262.347 194.400,262.000 194.670,262.000 195.000 C 262.000 195.330,261.764 195.600,261.475 195.600 C 261.187 195.600,260.602 195.921,260.175 196.313 C 259.749 196.705,258.725 197.344,257.900 197.732 C 257.075 198.120,256.400 198.576,256.400 198.745 C 256.400 198.914,255.770 199.352,255.000 199.719 C 254.230 200.087,253.600 200.570,253.600 200.794 C 253.600 201.017,253.240 201.200,252.800 201.200 C 252.360 201.200,252.000 201.380,252.000 201.600 C 252.000 201.820,251.736 202.000,251.414 202.000 C 251.092 202.000,250.635 202.360,250.400 202.800 C 250.165 203.240,249.700 203.600,249.368 203.600 C 249.035 203.600,248.330 204.005,247.801 204.500 C 246.196 206.000,245.653 206.400,245.217 206.400 C 244.988 206.400,244.800 206.559,244.800 206.754 C 244.800 206.949,244.170 207.408,243.400 207.773 C 242.630 208.139,242.000 208.601,242.000 208.800 C 242.000 208.999,241.325 209.478,240.500 209.863 C 239.675 210.248,238.765 210.887,238.477 211.282 C 238.190 211.677,237.704 212.000,237.397 212.000 C 237.091 212.000,236.696 212.246,236.520 212.546 C 236.344 212.846,235.615 213.391,234.900 213.756 C 234.185 214.122,233.600 214.566,233.600 214.743 C 233.600 214.920,233.105 215.316,232.500 215.624 C 231.895 215.931,230.970 216.592,230.445 217.091 C 229.920 217.591,229.252 218.000,228.960 218.000 C 228.667 218.000,228.235 218.360,228.000 218.800 C 227.765 219.240,227.374 219.600,227.133 219.600 C 226.891 219.600,226.403 219.915,226.047 220.300 C 225.691 220.685,224.790 221.340,224.045 221.755 C 222.633 222.542,222.143 222.911,220.282 224.591 C 219.667 225.146,219.006 225.600,218.812 225.600 C 218.619 225.600,217.682 226.194,216.731 226.920 C 215.779 227.646,214.685 228.360,214.300 228.507 C 213.915 228.654,213.600 228.952,213.600 229.169 C 213.600 229.385,212.925 229.878,212.100 230.263 C 211.275 230.648,210.365 231.287,210.077 231.682 C 209.790 232.077,209.295 232.400,208.977 232.400 C 208.660 232.400,208.400 232.670,208.400 233.000 C 208.400 233.330,208.130 233.600,207.800 233.600 C 207.470 233.600,207.200 233.780,207.200 234.000 C 207.200 234.220,206.849 234.400,206.420 234.400 C 205.991 234.400,205.496 234.625,205.320 234.900 C 204.945 235.485,203.696 236.324,202.700 236.658 C 202.315 236.788,202.000 237.019,202.000 237.173 C 202.000 237.326,201.370 237.752,200.600 238.119 C 199.830 238.487,199.200 238.941,199.200 239.130 C 199.200 239.318,198.461 239.716,197.557 240.014 C 196.654 240.312,195.825 240.791,195.715 241.078 C 195.605 241.365,195.264 241.600,194.957 241.600 C 194.651 241.600,194.400 241.780,194.400 242.000 C 194.400 242.220,194.130 242.400,193.800 242.400 C 193.470 242.400,193.199 242.625,193.199 242.900 C 193.198 243.175,192.388 243.733,191.399 244.140 C 190.409 244.546,189.600 245.131,189.600 245.440 C 189.600 245.748,189.317 246.000,188.972 246.000 C 188.627 246.000,187.559 246.540,186.600 247.200 C 185.641 247.860,184.691 248.400,184.490 248.400 C 184.289 248.400,183.601 248.855,182.962 249.410 C 182.323 249.966,181.350 250.534,180.800 250.672 C 180.250 250.810,179.710 251.030,179.600 251.162 C 179.193 251.647,176.857 252.800,176.281 252.800 C 175.954 252.800,175.589 253.052,175.471 253.360 C 175.352 253.668,174.511 254.046,173.600 254.200 C 172.689 254.354,171.848 254.732,171.729 255.040 C 171.597 255.385,170.927 255.600,169.981 255.600 C 169.137 255.600,168.336 255.780,168.200 256.000 C 167.852 256.563,164.771 256.498,163.483 255.900 C 162.315 255.358,162.072 254.611,162.953 254.274 C 163.477 254.072,163.617 253.586,164.240 249.800 C 164.385 248.920,164.676 248.090,164.886 247.955 C 165.097 247.820,165.498 246.047,165.777 244.014 C 166.057 241.981,166.490 240.191,166.741 240.037 C 166.991 239.882,167.313 238.635,167.456 237.265 C 167.599 235.896,167.870 234.680,168.058 234.564 C 168.246 234.448,168.400 234.003,168.400 233.576 C 168.400 233.149,168.541 232.800,168.714 232.800 C 168.887 232.800,169.232 231.855,169.481 230.700 C 170.327 226.783,170.516 226.200,171.040 225.891 C 171.327 225.721,171.686 224.490,171.837 223.157 C 172.002 221.692,172.326 220.650,172.655 220.523 C 172.955 220.408,173.200 219.830,173.200 219.237 C 173.200 218.645,173.395 217.965,173.634 217.726 C 173.872 217.488,174.167 216.192,174.289 214.846 C 174.411 213.501,174.646 212.400,174.812 212.400 C 174.977 212.400,175.204 211.815,175.316 211.100 C 176.082 206.200,176.515 204.098,176.902 203.400 C 177.333 202.624,177.761 200.692,178.232 197.400 C 178.358 196.520,178.617 195.440,178.808 195.000 C 180.439 191.235,180.229 179.200,178.532 179.200 C 178.240 179.200,178.000 178.930,178.000 178.600 C 178.000 178.133,177.467 178.000,175.600 178.000 C 173.733 178.000,173.200 178.133,173.200 178.600 C 173.200 178.930,172.958 179.200,172.661 179.200 C 171.859 179.200,169.600 180.402,169.600 180.829 C 169.600 181.033,169.331 181.200,169.001 181.200 C 168.672 181.200,167.705 181.830,166.853 182.600 C 166.000 183.370,165.106 184.000,164.866 184.000 C 164.625 184.000,164.235 184.360,164.000 184.800 C 163.765 185.240,163.353 185.600,163.086 185.601 C 162.819 185.601,161.970 186.141,161.200 186.800 C 160.430 187.459,159.665 187.999,159.500 187.999 C 159.335 188.000,159.200 188.256,159.200 188.568 C 159.200 188.881,158.634 189.261,157.943 189.412 C 157.252 189.564,156.202 190.164,155.610 190.744 C 154.143 192.183,152.181 193.635,150.860 194.261 C 150.563 194.401,149.911 194.895,149.412 195.358 C 147.670 196.972,146.329 198.000,145.966 198.000 C 145.765 198.000,145.600 198.258,145.600 198.573 C 145.600 198.888,145.198 199.274,144.706 199.430 C 144.214 199.586,142.135 201.382,140.086 203.422 C 138.036 205.461,136.081 207.237,135.742 207.367 C 135.402 207.497,135.030 207.963,134.915 208.402 C 134.801 208.841,134.503 209.201,134.253 209.203 C 133.559 209.208,131.563 211.048,121.785 220.700 C 116.826 225.595,112.595 229.600,112.384 229.600 C 112.173 229.600,112.000 229.758,112.000 229.952 C 112.000 230.445,108.887 233.600,108.400 233.600 C 108.180 233.600,108.000 233.330,108.000 233.000 C 108.000 232.670,108.156 232.400,108.346 232.400 C 108.536 232.400,109.018 231.545,109.417 230.500 C 109.816 229.455,110.358 228.385,110.620 228.122 C 110.883 227.859,111.341 226.824,111.637 225.822 C 111.933 224.820,112.315 224.000,112.487 224.000 C 112.659 224.000,112.800 223.651,112.800 223.224 C 112.800 222.797,112.960 222.349,113.155 222.228 C 113.350 222.107,113.635 221.341,113.788 220.524 C 113.941 219.708,114.285 218.851,114.552 218.620 C 114.819 218.389,115.279 217.487,115.575 216.615 C 115.871 215.743,116.358 214.785,116.657 214.486 C 116.956 214.187,117.200 213.606,117.200 213.195 C 117.200 212.784,117.380 212.336,117.600 212.200 C 117.820 212.064,118.000 211.603,118.000 211.176 C 118.000 210.749,118.140 210.400,118.311 210.400 C 118.619 210.400,120.000 206.212,120.000 205.280 C 120.000 205.016,120.262 204.800,120.582 204.800 C 120.931 204.800,121.269 204.237,121.427 203.396 C 121.572 202.623,121.850 201.893,122.045 201.772 C 122.240 201.651,122.400 201.113,122.400 200.576 C 122.400 200.039,122.535 199.599,122.700 199.597 C 123.106 199.593,124.000 197.614,124.000 196.720 C 124.000 196.324,124.247 196.000,124.548 196.000 C 124.898 196.000,125.265 195.138,125.566 193.611 C 125.825 192.296,126.253 190.991,126.518 190.711 C 126.973 190.229,127.777 188.381,128.307 186.600 C 128.438 186.160,128.775 185.569,129.057 185.287 C 129.338 185.005,129.686 184.150,129.829 183.387 C 129.972 182.624,130.322 182.000,130.607 182.000 C 130.925 182.000,131.231 181.229,131.400 180.000 C 131.551 178.901,131.838 177.900,132.037 177.777 C 132.237 177.654,132.400 177.203,132.400 176.776 C 132.400 176.349,132.580 176.000,132.800 176.000 C 133.020 176.000,133.200 175.640,133.200 175.200 C 133.200 174.760,133.372 174.400,133.582 174.400 C 133.792 174.400,134.080 173.782,134.221 173.028 C 134.363 172.273,134.713 171.565,134.999 171.456 C 135.286 171.346,135.646 170.511,135.800 169.600 C 135.954 168.689,136.316 167.854,136.604 167.743 C 136.892 167.633,137.229 167.150,137.354 166.671 C 137.478 166.192,137.989 165.319,138.490 164.730 C 138.990 164.142,139.850 163.078,140.400 162.365 C 140.950 161.653,141.961 160.445,142.647 159.682 C 144.952 157.114,145.875 155.841,146.258 154.700 C 146.388 154.315,146.730 154.000,147.020 154.000 C 147.309 154.000,147.655 153.656,147.789 153.236 C 147.922 152.815,148.474 152.181,149.016 151.827 C 149.557 151.472,150.000 150.820,150.000 150.378 C 150.000 149.936,150.270 149.471,150.600 149.345 C 150.930 149.218,151.200 148.941,151.200 148.729 C 151.200 148.245,152.223 147.200,152.697 147.200 C 152.891 147.200,153.299 146.568,153.602 145.796 C 153.905 145.024,154.568 144.120,155.076 143.787 C 155.584 143.454,156.000 142.944,156.000 142.653 C 156.000 142.362,156.450 141.601,157.000 140.962 C 157.549 140.323,157.999 139.665,158.000 139.500 C 158.000 139.335,158.236 139.200,158.525 139.200 C 158.814 139.200,159.299 138.568,159.602 137.796 C 159.905 137.024,160.560 136.125,161.058 135.799 C 161.579 135.458,162.074 134.611,162.226 133.803 C 162.371 133.031,162.709 132.400,162.977 132.400 C 163.245 132.400,163.720 131.905,164.032 131.300 C 164.345 130.695,164.915 129.965,165.300 129.677 C 165.685 129.390,166.000 128.895,166.000 128.577 C 166.000 128.260,166.270 128.000,166.600 128.000 C 166.930 128.000,167.200 127.745,167.200 127.432 C 167.200 126.772,168.400 124.407,169.038 123.810 C 169.279 123.585,169.723 122.770,170.023 122.000 C 170.324 121.230,170.892 120.251,171.285 119.825 C 171.678 119.398,172.000 118.826,172.000 118.553 C 172.000 118.280,172.253 117.805,172.561 117.496 C 172.870 117.187,173.397 116.127,173.732 115.140 C 174.067 114.153,174.697 112.728,175.132 111.973 C 175.567 111.218,176.041 110.030,176.186 109.333 C 176.330 108.637,176.669 107.983,176.937 107.880 C 177.205 107.777,177.661 106.771,177.950 105.646 C 178.238 104.521,178.637 103.600,178.837 103.600 C 179.037 103.600,179.200 103.186,179.200 102.680 C 179.200 102.174,179.387 101.573,179.615 101.345 C 179.843 101.117,180.140 99.371,180.274 97.465 C 180.409 95.559,180.672 94.000,180.859 94.000 C 181.346 94.000,181.280 93.132,180.700 91.883 C 179.839 90.028,176.164 90.292,174.766 92.309 M175.200 99.388 C 175.200 99.491,174.854 100.192,174.431 100.945 C 174.008 101.698,173.538 103.143,173.386 104.157 C 173.220 105.260,172.900 106.000,172.590 106.000 C 172.294 106.000,171.952 106.701,171.795 107.628 C 171.644 108.523,171.268 109.352,170.960 109.471 C 170.652 109.589,170.400 109.909,170.400 110.181 C 170.400 110.844,169.171 113.298,168.588 113.800 C 168.333 114.020,167.881 114.830,167.585 115.600 C 167.289 116.370,166.811 117.144,166.523 117.320 C 166.236 117.496,166.000 117.981,166.000 118.397 C 166.000 118.814,165.681 119.390,165.291 119.677 C 164.901 119.965,164.244 120.965,163.830 121.900 C 163.417 122.835,162.934 123.600,162.758 123.600 C 162.582 123.600,162.120 124.275,161.732 125.100 C 161.344 125.925,160.705 126.949,160.313 127.375 C 159.921 127.802,159.600 128.393,159.600 128.688 C 159.600 128.983,159.330 129.329,159.000 129.455 C 158.670 129.582,158.400 129.923,158.400 130.214 C 158.400 130.504,157.950 131.096,157.400 131.529 C 156.850 131.961,156.400 132.495,156.400 132.715 C 156.400 132.935,155.860 133.693,155.200 134.400 C 154.540 135.107,154.000 135.926,154.000 136.220 C 154.000 136.515,153.371 137.440,152.602 138.278 C 151.833 139.115,151.203 139.933,151.202 140.095 C 151.200 140.399,150.476 141.348,148.900 143.110 C 148.405 143.664,147.999 144.316,147.998 144.558 C 147.995 145.200,146.117 147.444,145.825 147.155 C 145.495 146.829,146.252 144.891,147.002 144.141 C 147.331 143.812,147.600 143.206,147.600 142.795 C 147.600 142.384,147.780 141.936,148.000 141.800 C 148.220 141.664,148.400 141.203,148.400 140.776 C 148.400 140.349,148.580 140.000,148.800 140.000 C 149.020 140.000,149.200 139.651,149.200 139.224 C 149.200 138.797,149.380 138.336,149.600 138.200 C 149.820 138.064,150.000 137.616,150.000 137.205 C 150.000 136.794,150.225 136.212,150.500 135.913 C 151.282 135.063,152.000 133.670,152.000 133.005 C 152.000 132.672,152.234 132.400,152.521 132.400 C 152.808 132.400,153.380 131.455,153.793 130.300 C 154.206 129.145,154.753 128.020,155.010 127.800 C 155.267 127.580,155.719 126.770,156.015 126.000 C 156.311 125.230,156.789 124.456,157.077 124.280 C 157.364 124.104,157.600 123.619,157.600 123.203 C 157.600 122.786,157.917 122.210,158.304 121.923 C 158.691 121.635,159.366 120.637,159.804 119.705 C 160.242 118.772,160.730 118.007,160.890 118.005 C 161.049 118.002,161.478 117.415,161.844 116.700 C 162.209 115.985,162.754 115.256,163.054 115.080 C 163.354 114.904,163.600 114.566,163.600 114.329 C 163.600 113.929,165.367 111.710,167.217 109.786 C 167.648 109.338,168.000 108.760,168.000 108.500 C 168.000 108.240,168.360 107.835,168.800 107.600 C 169.240 107.365,169.600 106.918,169.600 106.609 C 169.600 106.299,169.950 105.801,170.377 105.501 C 171.314 104.845,173.777 101.332,174.171 100.091 C 174.410 99.339,175.200 98.799,175.200 99.388 M145.062 148.595 C 144.713 149.346,144.566 149.431,144.461 148.943 C 144.353 148.445,144.944 147.657,145.462 147.606 C 145.497 147.603,145.317 148.048,145.062 148.595 M125.756 182.300 C 125.613 182.905,125.340 183.571,125.148 183.780 C 124.957 183.989,124.800 184.574,124.800 185.080 C 124.800 185.586,124.620 186.000,124.400 186.000 C 124.180 186.000,124.000 186.264,124.000 186.586 C 124.000 187.328,122.761 190.030,122.100 190.729 C 121.825 191.019,121.600 191.694,121.600 192.229 C 121.600 192.763,121.240 193.560,120.800 194.000 C 120.360 194.440,120.000 195.001,120.000 195.246 C 120.000 195.793,118.677 199.723,118.400 200.000 C 117.922 200.478,117.280 201.924,117.019 203.113 C 116.864 203.821,116.578 204.400,116.384 204.400 C 116.191 204.400,115.815 205.165,115.550 206.100 C 115.286 207.035,114.873 207.984,114.634 208.208 C 113.888 208.909,113.265 210.245,112.983 211.751 C 112.833 212.548,112.551 213.200,112.355 213.200 C 112.160 213.200,112.000 213.470,112.000 213.800 C 112.000 214.130,111.831 214.400,111.625 214.400 C 111.418 214.400,111.128 215.210,110.979 216.200 C 110.808 217.338,110.505 218.000,110.155 218.000 C 109.850 218.000,109.600 218.349,109.600 218.776 C 109.600 219.203,109.420 219.664,109.200 219.800 C 108.980 219.936,108.800 220.397,108.800 220.824 C 108.800 221.251,108.635 221.600,108.433 221.600 C 108.231 221.600,107.743 222.455,107.348 223.500 C 106.953 224.545,106.420 225.616,106.163 225.880 C 105.907 226.145,105.569 227.045,105.413 227.880 C 105.257 228.716,104.785 229.722,104.365 230.116 C 103.944 230.509,103.600 231.174,103.600 231.592 C 103.600 232.010,103.420 232.464,103.200 232.600 C 102.980 232.736,102.800 233.197,102.800 233.624 C 102.800 234.051,102.656 234.400,102.479 234.400 C 102.302 234.400,101.834 235.300,101.439 236.400 C 101.043 237.500,100.581 238.400,100.412 238.400 C 100.242 238.400,99.873 239.255,99.591 240.300 C 99.309 241.345,98.857 242.470,98.586 242.800 C 98.316 243.130,97.958 243.850,97.792 244.400 C 97.626 244.950,96.254 246.616,94.745 248.103 C 93.235 249.589,92.000 250.913,92.000 251.044 C 92.000 251.176,90.875 252.446,89.500 253.867 C 88.125 255.288,86.945 256.604,86.878 256.791 C 86.811 256.978,85.585 258.362,84.154 259.866 C 82.723 261.369,81.023 263.159,80.376 263.843 C 79.729 264.527,79.200 265.220,79.200 265.383 C 79.200 265.546,78.300 266.561,77.200 267.638 C 76.100 268.715,75.200 269.777,75.200 269.998 C 75.200 270.219,74.951 270.400,74.647 270.400 C 74.342 270.400,73.999 270.760,73.884 271.200 C 73.688 271.951,73.338 272.000,68.232 272.000 L 62.789 272.000 63.370 270.609 C 63.690 269.845,64.320 268.823,64.771 268.339 C 65.222 267.855,65.695 267.131,65.822 266.729 C 65.950 266.328,66.222 266.000,66.428 266.000 C 66.634 266.000,67.114 265.280,67.496 264.400 C 67.877 263.520,68.322 262.800,68.484 262.800 C 68.647 262.800,69.054 262.270,69.389 261.622 C 69.724 260.973,70.449 259.957,70.999 259.363 C 71.550 258.769,72.000 258.061,72.000 257.790 C 72.000 257.518,72.720 256.555,73.600 255.648 C 74.480 254.741,75.200 253.739,75.200 253.422 C 75.200 253.105,75.534 252.610,75.943 252.323 C 76.351 252.035,76.813 251.395,76.970 250.900 C 77.126 250.405,77.422 250.000,77.627 250.000 C 77.832 250.000,78.000 249.730,78.000 249.400 C 78.000 249.070,78.159 248.800,78.354 248.800 C 78.549 248.800,79.008 248.170,79.373 247.400 C 79.739 246.630,80.201 246.000,80.400 246.000 C 80.599 246.000,81.080 245.325,81.468 244.500 C 81.856 243.675,82.495 242.651,82.887 242.225 C 83.279 241.798,83.600 241.310,83.600 241.140 C 83.600 240.970,83.925 240.509,84.323 240.116 C 85.359 239.089,88.000 235.271,88.000 234.799 C 88.000 234.580,88.184 234.400,88.410 234.400 C 88.635 234.400,88.995 233.940,89.208 233.379 C 89.567 232.435,91.222 230.131,92.900 228.238 C 93.285 227.804,93.600 227.219,93.600 226.939 C 93.600 226.658,93.928 226.253,94.328 226.039 C 94.728 225.824,95.297 224.918,95.592 224.025 C 95.887 223.131,96.357 222.400,96.637 222.400 C 96.917 222.400,97.273 221.995,97.429 221.500 C 97.584 221.005,98.091 220.199,98.556 219.710 C 100.249 217.924,100.710 217.272,101.425 215.652 C 101.826 214.743,102.291 214.000,102.458 214.000 C 102.626 214.000,103.071 213.349,103.449 212.554 C 103.826 211.758,104.735 210.525,105.468 209.813 C 106.200 209.101,106.998 207.952,107.239 207.260 C 107.481 206.567,107.826 206.000,108.007 206.000 C 108.187 206.000,108.748 205.325,109.252 204.500 C 109.757 203.675,110.406 202.758,110.694 202.462 C 110.983 202.166,111.489 201.401,111.820 200.762 C 112.150 200.123,112.552 199.600,112.713 199.600 C 112.873 199.600,113.226 199.105,113.497 198.500 C 113.767 197.895,114.396 196.922,114.894 196.337 C 115.392 195.753,116.023 194.943,116.296 194.537 C 116.568 194.132,117.513 192.779,118.396 191.531 C 119.278 190.283,120.000 189.074,120.000 188.845 C 120.000 188.616,120.360 188.235,120.800 188.000 C 121.240 187.765,121.600 187.310,121.600 186.989 C 121.600 186.669,121.960 186.182,122.400 185.907 C 122.840 185.632,123.200 185.209,123.200 184.966 C 123.200 184.723,123.581 184.181,124.046 183.762 C 124.511 183.343,125.047 182.595,125.236 182.100 C 125.718 180.841,126.068 180.975,125.756 182.300 M91.200 259.004 C 91.200 259.336,90.840 259.916,90.400 260.293 C 89.960 260.670,89.600 261.287,89.600 261.665 C 89.600 262.043,89.420 262.464,89.200 262.600 C 88.980 262.736,88.800 263.197,88.800 263.624 C 88.800 264.051,88.620 264.400,88.400 264.400 C 88.180 264.400,88.000 264.616,88.000 264.880 C 88.000 265.812,86.619 270.000,86.311 270.000 C 86.140 270.000,86.000 270.366,86.000 270.813 C 86.000 271.903,85.438 272.058,81.992 271.919 L 79.058 271.800 81.029 269.666 C 82.113 268.493,83.916 266.594,85.035 265.448 C 86.154 264.301,87.234 263.074,87.435 262.721 C 87.779 262.117,90.884 258.477,91.100 258.424 C 91.155 258.411,91.200 258.672,91.200 259.004 M67.132 278.717 C 66.840 279.090,66.195 279.724,65.700 280.126 C 65.205 280.529,64.800 281.109,64.800 281.415 C 64.800 281.721,64.440 282.165,64.000 282.400 C 63.560 282.635,63.198 283.047,63.196 283.314 C 63.193 283.581,62.563 284.410,61.796 285.156 C 61.028 285.902,60.400 286.665,60.400 286.852 C 60.400 287.039,59.590 287.955,58.600 288.886 C 57.610 289.818,56.800 290.789,56.800 291.044 C 56.800 291.299,56.350 291.803,55.800 292.163 C 55.250 292.524,54.800 293.012,54.800 293.249 C 54.800 293.486,53.900 294.561,52.800 295.638 C 51.700 296.715,50.800 297.777,50.800 297.998 C 50.800 298.219,50.551 298.400,50.247 298.400 C 49.942 298.400,49.596 298.773,49.476 299.230 C 49.357 299.686,48.886 300.157,48.430 300.276 C 47.973 300.396,47.600 300.736,47.600 301.033 C 47.600 301.493,46.449 302.400,45.864 302.400 C 45.615 302.400,46.059 300.658,46.373 300.400 C 46.815 300.037,47.600 297.977,47.600 297.181 C 47.600 296.752,47.831 296.400,48.113 296.400 C 48.395 296.400,48.867 295.580,49.163 294.578 C 49.459 293.576,49.937 292.520,50.225 292.232 C 50.513 291.945,51.060 290.740,51.442 289.555 C 51.824 288.370,52.376 287.256,52.668 287.080 C 52.961 286.904,53.200 286.409,53.200 285.980 C 53.200 285.551,53.560 284.840,54.000 284.400 C 54.440 283.960,54.800 283.435,54.800 283.232 C 54.800 282.668,56.094 280.441,57.125 279.231 C 58.300 277.853,68.212 277.344,67.132 278.717 " stroke="none" fill="#ef694b" fill-rule="evenodd"></path></g></svg>