<svg id="svg" version="1.1" width="400" height="400" xmlns="http://www.w3.org/2000/svg" xmlns:xlink="http://www.w3.org/1999/xlink" style="display: block;"><g id="svgg"><path id="path0" d="" stroke="none" fill="#ff0000" fill-rule="evenodd"></path><path id="path1" d="" stroke="none" fill="#ff3333" fill-rule="evenodd"></path><path id="path2" d="" stroke="none" fill="#ff551c" fill-rule="evenodd"></path><path id="path3" d="M84.800 123.400 L 84.800 162.000 123.400 162.000 L 162.000 162.000 162.000 123.400 L 162.000 84.800 123.400 84.800 L 84.800 84.800 84.800 123.400 M183.600 90.189 L 183.600 95.600 177.989 95.600 L 172.378 95.600 172.489 101.300 L 172.600 107.000 178.100 107.111 L 183.600 107.223 183.600 112.400 L 183.600 117.577 178.100 117.689 L 172.600 117.800 172.600 123.400 L 172.600 129.000 178.100 129.111 L 183.600 129.223 183.600 134.400 L 183.600 139.577 178.100 139.689 L 172.600 139.800 172.494 150.900 L 172.387 162.000 178.194 162.000 L 184.000 162.000 184.000 156.600 L 184.000 151.200 189.200 151.200 L 194.400 151.200 194.400 156.600 L 194.400 162.000 200.000 162.000 L 205.600 162.000 205.600 167.200 L 205.600 172.400 178.243 172.400 C 153.666 172.400,150.861 172.464,150.643 173.033 C 150.509 173.381,150.400 175.901,150.400 178.633 L 150.400 183.600 145.200 183.600 L 140.000 183.600 140.000 178.000 L 140.000 172.400 112.400 172.400 L 84.800 172.400 84.800 178.200 L 84.800 184.000 90.200 184.000 L 95.600 184.000 95.600 189.200 L 95.600 194.400 90.200 194.400 L 84.800 194.400 84.800 205.600 L 84.800 216.800 95.800 216.800 L 106.800 216.800 106.800 222.400 L 106.800 228.000 112.400 228.000 L 118.000 228.000 118.000 222.400 L 118.000 216.800 123.600 216.800 L 129.200 216.800 129.200 211.400 L 129.200 206.000 145.600 206.000 L 162.000 206.000 162.000 200.200 L 162.000 194.400 156.600 194.400 L 151.200 194.400 151.200 189.200 L 151.200 184.000 167.389 184.000 L 183.577 184.000 183.689 189.500 L 183.800 195.000 188.944 195.112 C 195.539 195.256,195.200 195.580,195.200 189.151 L 195.200 184.000 200.400 184.000 L 205.600 184.000 205.600 194.800 L 205.600 205.600 200.000 205.600 L 194.400 205.600 194.400 211.000 L 194.400 216.400 189.000 216.400 L 183.600 216.400 183.600 222.000 L 183.600 227.600 178.000 227.600 L 172.400 227.600 172.400 238.800 L 172.400 250.000 178.200 250.000 L 184.000 250.000 184.000 239.011 L 184.000 228.023 189.500 227.911 L 195.000 227.800 195.111 222.300 L 195.223 216.800 200.411 216.800 L 205.600 216.800 205.600 222.400 L 205.600 228.000 211.000 228.000 L 216.400 228.000 216.400 233.200 L 216.400 238.400 211.000 238.400 L 205.600 238.400 205.600 249.600 L 205.600 260.800 210.989 260.800 L 216.377 260.800 216.489 266.300 L 216.600 271.800 222.100 271.911 L 227.600 272.023 227.600 277.411 L 227.600 282.800 233.000 282.800 L 238.400 282.800 238.400 288.200 L 238.400 293.600 233.000 293.600 L 227.600 293.600 227.600 304.800 L 227.600 316.000 238.800 316.000 L 250.000 316.000 250.000 310.400 L 250.000 304.800 255.200 304.800 L 260.400 304.800 260.400 310.400 L 260.400 316.000 271.600 316.000 L 282.800 316.000 282.800 305.011 L 282.800 294.023 288.300 293.911 L 293.800 293.800 293.911 288.100 L 294.022 282.400 277.211 282.400 L 260.400 282.400 260.400 288.000 L 260.400 293.600 255.200 293.600 L 250.000 293.600 250.000 288.000 L 250.000 282.400 244.400 282.400 L 238.800 282.400 238.800 277.000 L 238.800 271.600 233.400 271.600 L 228.000 271.600 228.000 266.200 L 228.000 260.800 233.400 260.800 L 238.800 260.800 238.800 255.400 L 238.800 250.000 244.400 250.000 L 250.000 250.000 250.000 244.400 L 250.000 238.800 255.200 238.800 L 260.400 238.800 260.400 249.600 L 260.400 260.400 255.000 260.400 L 249.600 260.400 249.600 266.200 L 249.600 272.000 266.200 272.000 L 282.800 272.000 282.800 261.000 L 282.800 250.000 288.400 250.000 L 294.000 250.000 294.000 244.400 L 294.000 238.800 299.200 238.800 L 304.400 238.800 304.400 244.400 L 304.400 250.000 310.200 250.000 L 316.000 250.000 316.000 238.800 L 316.000 227.600 293.800 227.600 L 271.600 227.600 271.600 233.000 L 271.600 238.400 266.200 238.400 L 260.800 238.400 260.800 227.600 L 260.800 216.800 282.800 216.800 L 304.800 216.800 304.800 211.411 L 304.800 206.023 310.300 205.911 L 315.800 205.800 315.906 194.700 L 316.013 183.600 310.406 183.600 L 304.800 183.600 304.800 178.000 L 304.800 172.400 299.200 172.400 L 293.600 172.400 293.600 178.200 L 293.600 184.000 299.000 184.000 L 304.400 184.000 304.400 194.800 L 304.400 205.600 282.400 205.600 L 260.400 205.600 260.400 211.000 L 260.400 216.400 255.200 216.400 L 250.000 216.400 250.000 211.000 L 250.000 205.600 244.400 205.600 L 238.800 205.600 238.800 200.000 L 238.800 194.400 233.400 194.400 L 228.000 194.400 228.000 189.200 L 228.000 184.000 233.400 184.000 L 238.800 184.000 238.800 178.200 L 238.800 172.400 233.406 172.400 L 228.013 172.400 227.906 161.500 L 227.800 150.600 222.300 150.489 L 216.800 150.377 216.800 144.989 L 216.800 139.600 211.200 139.600 L 205.600 139.600 205.600 145.000 L 205.600 150.400 200.407 150.400 L 195.213 150.400 195.107 139.700 L 195.000 129.000 189.500 128.889 L 184.000 128.777 184.000 123.389 L 184.000 118.000 194.800 118.000 L 205.600 118.000 205.600 123.600 L 205.600 129.200 216.800 129.200 L 228.000 129.200 228.000 107.000 L 228.000 84.800 222.200 84.800 L 216.400 84.800 216.400 90.200 L 216.400 95.600 211.000 95.600 L 205.600 95.600 205.600 101.200 L 205.600 106.800 194.800 106.800 L 184.000 106.800 184.000 101.411 L 184.000 96.023 189.500 95.911 L 195.000 95.800 195.000 90.400 L 195.000 85.000 189.300 84.889 L 183.600 84.778 183.600 90.189 M238.400 123.400 L 238.400 162.000 277.200 162.000 L 316.000 162.000 316.000 123.400 L 316.000 84.800 277.200 84.800 L 238.400 84.800 238.400 123.400 M150.400 123.200 L 150.400 150.400 123.200 150.400 L 96.000 150.400 96.000 123.200 L 96.000 96.000 123.200 96.000 L 150.400 96.000 150.400 123.200 M304.400 123.200 L 304.400 150.400 277.200 150.400 L 250.000 150.400 250.000 123.200 L 250.000 96.000 277.200 96.000 L 304.400 96.000 304.400 123.200 M106.800 123.400 L 106.800 140.000 123.400 140.000 L 140.000 140.000 140.000 123.400 L 140.000 106.800 123.400 106.800 L 106.800 106.800 106.800 123.400 M260.400 123.400 L 260.400 140.000 277.200 140.000 L 294.000 140.000 294.000 123.400 L 294.000 106.800 277.200 106.800 L 260.400 106.800 260.400 123.400 M216.400 112.400 L 216.400 117.600 211.200 117.600 L 206.000 117.600 206.000 112.400 L 206.000 107.200 211.200 107.200 L 216.400 107.200 216.400 112.400 M216.400 156.400 L 216.400 161.600 211.200 161.600 L 206.000 161.600 206.000 156.400 L 206.000 151.200 211.200 151.200 L 216.400 151.200 216.400 156.400 M249.600 178.200 L 249.600 184.000 255.000 184.000 L 260.400 184.000 260.400 189.611 L 260.400 195.222 266.100 195.111 L 271.800 195.000 271.911 189.500 L 272.023 184.000 277.411 184.000 L 282.800 184.000 282.800 178.200 L 282.800 172.400 277.200 172.400 L 271.600 172.400 271.600 178.000 L 271.600 183.600 266.200 183.600 L 260.800 183.600 260.800 178.000 L 260.800 172.400 255.200 172.400 L 249.600 172.400 249.600 178.200 M227.600 178.400 L 227.600 183.600 216.800 183.600 L 206.000 183.600 206.000 178.400 L 206.000 173.200 216.800 173.200 L 227.600 173.200 227.600 178.400 M128.800 189.189 L 128.800 194.377 123.300 194.489 L 117.800 194.600 117.689 200.100 L 117.577 205.600 106.789 205.600 L 96.000 205.600 96.000 200.411 L 96.000 195.223 101.500 195.111 L 107.000 195.000 107.111 189.500 L 107.223 184.000 118.011 184.000 L 128.800 184.000 128.800 189.189 M227.600 216.800 L 227.600 227.600 222.200 227.600 L 216.800 227.600 216.800 216.800 L 216.800 206.000 222.200 206.000 L 227.600 206.000 227.600 216.800 M139.600 222.200 L 139.600 228.000 150.800 228.000 L 162.000 228.000 162.000 222.200 L 162.000 216.400 150.800 216.400 L 139.600 216.400 139.600 222.200 M249.600 233.200 L 249.600 238.400 238.800 238.400 L 228.000 238.400 228.000 233.200 L 228.000 228.000 238.800 228.000 L 249.600 228.000 249.600 233.200 M84.800 277.200 L 84.800 316.000 123.400 316.000 L 162.000 316.000 162.000 277.200 L 162.000 238.400 123.400 238.400 L 84.800 238.400 84.800 277.200 M150.400 277.200 L 150.400 304.400 123.200 304.400 L 96.000 304.400 96.000 277.200 L 96.000 250.000 123.200 250.000 L 150.400 250.000 150.400 277.200 M227.600 255.200 L 227.600 260.400 222.200 260.400 L 216.800 260.400 216.800 255.200 L 216.800 250.000 222.200 250.000 L 227.600 250.000 227.600 255.200 M106.800 277.200 L 106.800 294.000 123.400 294.000 L 140.000 294.000 140.000 277.200 L 140.000 260.400 123.400 260.400 L 106.800 260.400 106.800 277.200 M172.497 288.100 L 172.600 315.800 178.300 315.911 L 184.000 316.022 184.000 310.411 L 184.000 304.800 189.189 304.800 L 194.377 304.800 194.489 310.300 L 194.600 315.800 200.200 315.800 L 205.800 315.800 205.911 310.300 L 206.023 304.800 211.411 304.800 L 216.800 304.800 216.800 299.200 L 216.800 293.600 206.000 293.600 L 195.200 293.600 195.200 288.200 L 195.200 282.800 200.600 282.800 L 206.000 282.800 206.000 277.200 L 206.000 271.600 195.000 271.600 L 184.000 271.600 184.000 266.000 L 184.000 260.400 178.197 260.400 L 172.395 260.400 172.497 288.100 M293.600 266.206 L 293.600 272.013 304.700 271.906 L 315.800 271.800 315.911 266.100 L 316.022 260.400 304.811 260.400 L 293.600 260.400 293.600 266.206 M304.400 299.200 L 304.400 304.800 310.200 304.800 L 316.000 304.800 316.000 299.200 L 316.000 293.600 310.200 293.600 L 304.400 293.600 304.400 299.200 M271.600 299.200 L 271.600 304.400 266.200 304.400 L 260.800 304.400 260.800 299.200 L 260.800 294.000 266.200 294.000 L 271.600 294.000 271.600 299.200 " stroke="none" fill="#ef694b" fill-rule="evenodd"></path><path id="path4" d="" stroke="none" fill="#ff5c47" fill-rule="evenodd"></path></g></svg>