<svg id="svg" version="1.1" width="400" height="400" xmlns="http://www.w3.org/2000/svg" xmlns:xlink="http://www.w3.org/1999/xlink" style="display: block;"><g id="svgg"><path id="path0" d="" stroke="none" fill="#990000" fill-rule="evenodd"></path><path id="path1" d="" stroke="none" fill="#993300" fill-rule="evenodd"></path><path id="path2" d="M120.300 185.082 C 120.795 185.178,121.605 185.178,122.100 185.082 C 122.595 184.987,122.190 184.909,121.200 184.909 C 120.210 184.909,119.805 184.987,120.300 185.082 M124.500 185.087 C 125.105 185.178,126.095 185.178,126.700 185.087 C 127.305 184.995,126.810 184.920,125.600 184.920 C 124.390 184.920,123.895 184.995,124.500 185.087 M148.100 185.076 C 148.485 185.176,149.115 185.176,149.500 185.076 C 149.885 184.975,149.570 184.893,148.800 184.893 C 148.030 184.893,147.715 184.975,148.100 185.076 M194.500 185.087 C 195.105 185.178,196.095 185.178,196.700 185.087 C 197.305 184.995,196.810 184.920,195.600 184.920 C 194.390 184.920,193.895 184.995,194.500 185.087 M209.300 185.087 C 209.905 185.178,210.895 185.178,211.500 185.087 C 212.105 184.995,211.610 184.920,210.400 184.920 C 209.190 184.920,208.695 184.995,209.300 185.087 M219.105 185.083 C 219.602 185.179,220.322 185.175,220.705 185.075 C 221.087 184.975,220.680 184.896,219.800 184.901 C 218.920 184.905,218.607 184.987,219.105 185.083 M223.505 185.083 C 224.002 185.179,224.722 185.175,225.105 185.075 C 225.487 184.975,225.080 184.896,224.200 184.901 C 223.320 184.905,223.007 184.987,223.505 185.083 M227.500 185.082 C 227.995 185.178,228.805 185.178,229.300 185.082 C 229.795 184.987,229.390 184.909,228.400 184.909 C 227.410 184.909,227.005 184.987,227.500 185.082 M240.500 185.076 C 240.885 185.176,241.515 185.176,241.900 185.076 C 242.285 184.975,241.970 184.893,241.200 184.893 C 240.430 184.893,240.115 184.975,240.500 185.076 M247.505 185.083 C 248.002 185.179,248.722 185.175,249.105 185.075 C 249.487 184.975,249.080 184.896,248.200 184.901 C 247.320 184.905,247.007 184.987,247.505 185.083 M159.732 212.700 C 182.134 212.757,218.674 212.757,240.932 212.700 C 263.189 212.643,244.860 212.596,200.200 212.596 C 155.540 212.596,137.329 212.643,159.732 212.700 M159.732 291.900 C 182.134 291.957,218.674 291.957,240.932 291.900 C 263.189 291.843,244.860 291.796,200.200 291.796 C 155.540 291.796,137.329 291.843,159.732 291.900 M148.900 327.500 C 177.005 327.557,222.995 327.557,251.100 327.500 C 279.205 327.443,256.210 327.397,200.000 327.397 C 143.790 327.397,120.795 327.443,148.900 327.500 " stroke="none" fill="#e44328" fill-rule="evenodd"></path><path id="path3" d="M153.932 114.300 C 172.924 114.357,203.884 114.357,222.732 114.300 C 241.579 114.242,226.040 114.195,188.200 114.195 C 150.360 114.195,134.939 114.243,153.932 114.300 M263.100 114.299 C 266.455 114.366,271.945 114.366,275.300 114.299 C 278.655 114.232,275.910 114.178,269.200 114.178 C 262.490 114.178,259.745 114.232,263.100 114.299 " stroke="none" fill="#ff0000" fill-rule="evenodd"></path><path id="path4" d="M92.089 66.623 L 91.200 67.245 91.200 200.049 C 91.200 290.829,91.331 333.097,91.614 333.626 C 92.266 334.845,307.734 334.845,308.386 333.626 C 309.246 332.019,308.932 67.443,308.069 66.662 C 306.977 65.675,93.498 65.636,92.089 66.623 M302.000 200.400 L 302.000 327.600 200.000 327.600 L 98.000 327.600 98.000 200.400 L 98.000 73.200 200.000 73.200 L 302.000 73.200 302.000 200.400 M119.451 107.882 C 119.313 108.020,119.200 109.453,119.200 111.067 L 119.200 114.000 200.217 114.000 L 281.234 114.000 281.117 110.900 L 281.000 107.800 200.351 107.715 C 155.995 107.669,119.590 107.744,119.451 107.882 M119.200 147.200 L 119.200 150.400 200.200 150.400 L 281.200 150.400 281.200 147.200 L 281.200 144.000 200.200 144.000 L 119.200 144.000 119.200 147.200 M119.200 181.600 L 119.200 184.800 200.200 184.800 L 281.200 184.800 281.200 181.600 L 281.200 178.400 200.200 178.400 L 119.200 178.400 119.200 181.600 M119.283 215.900 L 119.400 219.000 200.200 219.000 L 281.000 219.000 281.117 215.900 L 281.234 212.800 200.200 212.800 L 119.166 212.800 119.283 215.900 M119.200 252.800 L 119.200 256.000 200.200 256.000 L 281.200 256.000 281.200 252.800 L 281.200 249.600 200.200 249.600 L 119.200 249.600 119.200 252.800 M120.300 285.527 C 119.210 285.652,119.200 285.680,119.200 288.627 L 119.200 291.600 200.200 291.600 L 281.200 291.600 281.200 288.600 C 281.200 286.026,281.101 285.594,280.500 285.558 C 278.665 285.447,121.259 285.416,120.300 285.527 " stroke="none" fill="#ef694b" fill-rule="evenodd"></path></g></svg>