<?xml version="1.0" encoding="utf-8"?>
<!-- Generator: Adobe Illustrator 22.0.1, SVG Export Plug-In . SVG Version: 6.00 Build 0)  -->
<svg version="1.1" id="Layer_1" xmlns="http://www.w3.org/2000/svg" xmlns:xlink="http://www.w3.org/1999/xlink" x="0px" y="0px"
	 viewBox="0 0 67.2 66.2" style="enable-background:new 0 0 67.2 66.2;" xml:space="preserve">
<style type="text/css">
	.st0{fill:#EF6A4C;}
</style>
<g>
	<path class="st0" d="M41.1,17.3H26.2c-4.3,0-7.9,3.5-7.9,7.9v15.9c0,4.3,3.5,7.9,7.9,7.9h14.9c4.3,0,7.9-3.5,7.9-7.9v-16
		C48.9,20.8,45.4,17.3,41.1,17.3z M40.5,40c-1.8,1.9-4.3,2.9-6.9,2.9c-5.4,0-9.9-4.4-9.9-9.9c0-2.7,1.1-5.3,3-7.1
		c1.9-1.8,4.3-2.8,6.9-2.7c3.1,0.1,5.6,1.1,7.4,3c1.7,1.8,2.5,4.2,2.4,6.9C43.4,35.7,42.4,38.2,40.5,40z M43.7,25.2
		c-1.3,0-2.3-1-2.3-2.3s1-2.3,2.3-2.3s2.3,1,2.3,2.3C46,24.2,45,25.2,43.7,25.2z"/>
	<path class="st0" d="M33.6,0.3C15.5,0.3,0.8,15,0.8,33.1s14.7,32.8,32.8,32.8s32.8-14.7,32.8-32.8S51.7,0.3,33.6,0.3z M51.7,41
		c0,5.8-4.8,10.6-10.6,10.6H26.2c-5.8,0-10.6-4.8-10.6-10.6V25.1c0-5.8,4.8-10.6,10.6-10.6h14.9c5.8,0,10.6,4.8,10.6,10.6V41z"/>
	<path class="st0" d="M33.6,26.5c-0.1,0-0.1,0-0.2,0c-1.6,0-3.1,0.6-4.3,1.8c-1.3,1.2-2,3-2,4.8c0,3.6,2.9,6.5,6.5,6.5
		s6.5-2.9,6.5-6.6c0-1.9-0.5-3.4-1.5-4.6C37.5,27.2,35.7,26.6,33.6,26.5z"/>
</g>
</svg>
