<?xml version="1.0" encoding="utf-8"?>
<!-- Generator: Adobe Illustrator 22.0.1, SVG Export Plug-In . SVG Version: 6.00 Build 0)  -->
<svg version="1.1" id="Layer_1" xmlns="http://www.w3.org/2000/svg" xmlns:xlink="http://www.w3.org/1999/xlink" x="0px" y="0px"
	 viewBox="0 0 987.6 112.8" style="enable-background:new 0 0 987.6 112.8;" xml:space="preserve">
<style type="text/css">
	.st0{fill:#FFFFFF;}
</style>
<path class="st0" d="M955.8,111.4h17.2V68.6l15.1-67h-16.8l-6.2,39.5l-6.3-39.5h-18.2l15.3,66.8V111.4z M907.7,111.4h17.1V17.5h13.3
	V1.7h-43.9v15.8h13.6L907.7,111.4L907.7,111.4z M873.3,111.4h17.1V1.7h-17.1V111.4z M821.4,111.4H836V46h0.6l14.8,65.5h16.9V1.7h-15
	V60h-0.5L839.6,1.7h-18.3L821.4,111.4L821.4,111.4z M790.1,50.8V17.3h2.5c4.3,0,6.5,4.8,6.5,16.6c0,13.4-2.7,16.8-5.8,16.8H790.1z
	 M772.9,111.4h17.1V63.7h3.8l6.2,47.7h17.1l-7.7-53c2.8-3.3,7.1-8.5,7.1-25.4c0-24.8-10.6-31.4-23.1-31.4H773L772.9,111.4
	L772.9,111.4z M734,111.4h34.7v-16H751V62.7h14V46.6h-14V17.4h17.4V1.6H734L734,111.4L734,111.4z M699.7,111.4h17.1V17.5h13.3V1.7
	h-43.9v15.8h13.6L699.7,111.4L699.7,111.4z M648.3,111.4H683v-16h-17.7V62.7h14V46.6h-14V17.4h17.4V1.6h-34.4L648.3,111.4
	L648.3,111.4z M590.8,111.4h16.9V62.8h13.9v-16h-13.9V17.5h17.4V1.7h-34.4L590.8,111.4L590.8,111.4z M564.3,96.4
	c-3.3,0-4.6-3-4.6-5.4V21.5c0-2.5,1.3-4.8,4.4-4.8c3.2,0,4.6,2.2,4.6,4.8v69.3C568.8,93.4,567.9,96.4,564.3,96.4 M564.1,112.8
	c13.6,0,22.1-8.5,22.1-22.8V22.1c0-13.9-8.5-22.1-21.9-22.1c-13.6,0-22.1,8.3-22.1,22.3V90C542.3,104.3,548.9,112.8,564.1,112.8
	 M461.6,111.7h17.1l6.6-70.2h0.6l6.5,70.2h15.8L520.6,1.6h-14.5l-5.2,65.2h-0.5l-5.7-65.2h-17.4l-5.8,65.6H471l-5.2-65.6h-16.9
	L461.6,111.7z M411.1,111.4h34.7v-16H428V62.7h14V46.6h-14V17.4h17.4V1.6h-34.4V111.4z M389.2,111.4h17.1V1.7h-17.1V111.4z
	 M352.4,111.9h20.7L385.4,1.7h-15l-6.3,71h-0.4l-6.8-71h-17.2L352.4,111.9z M270.4,111.4H285V46h0.6l14.8,65.5h16.9V1.7h-15V60h-0.5
	L288.5,1.7h-18.3v109.8H270.4z M248.4,111.4h17.1V1.7h-17.1V111.4z M203.6,112.8c13.6,0,20.8-9.3,20.8-21.9V52.3h-21.1V67h5.1v23.2
	c0,3.2-1.1,6-4.4,6c-3.1,0-4.6-2.3-4.6-5.7V22.2c0-3.1,0.8-5.7,4.4-5.7c3.2,0,4.6,2,4.6,5.4v17.1h16V20.6c0-12.5-7.7-20.5-20.5-20.5
	c-13.6,0-22.1,8.3-22.1,21.3v70.6C181.9,104.6,189.2,112.8,203.6,112.8 M130.2,111.4h14.7V46h0.6l14.8,65.5h16.9V1.7h-15V60h-0.5
	L148.4,1.7h-18.3L130.2,111.4L130.2,111.4z M108.3,111.4h17.1V1.7h-17.1V111.4z M71.5,111.9h20.7L104.5,1.7h-15l-6.3,71h-0.5L76,1.7
	H58.7L71.5,111.9z M38.2,111.4h17.1V1.7H38.2L38.2,111.4L38.2,111.4z M-0.5,111.4h34.7v-16H16.4V1.6H-0.5V111.4z"/>
</svg>
