<?xml version="1.0" encoding="utf-8"?>
<!-- Generator: Adobe Illustrator 22.0.1, SVG Export Plug-In . SVG Version: 6.00 Build 0)  -->
<svg version="1.1" id="Layer_1" xmlns="http://www.w3.org/2000/svg" xmlns:xlink="http://www.w3.org/1999/xlink" x="0px" y="0px"
	 viewBox="0 0 529.9 236.5" style="enable-background:new 0 0 529.9 236.5;" xml:space="preserve">
<style type="text/css">
	.st0{fill:#FFFFFF;}
</style>
<g>
	<polygon class="st0" points="468,163.7 461.6,123.6 442.9,123.6 458.4,191.5 458.4,235.2 475.9,235.2 475.9,191.7 491.3,123.6 
		474.2,123.6 	"/>
	<polygon class="st0" points="395.7,139.7 409.5,139.7 409.5,235.2 426.9,235.2 426.9,139.7 440.3,139.7 440.3,123.6 395.7,123.6 	
		"/>
	<rect x="374.6" y="123.6" class="st0" width="17.4" height="111.5"/>
	<polygon class="st0" points="354.3,182.9 353.9,182.9 340.4,123.6 321.8,123.6 321.8,235.2 336.7,235.2 336.7,168.7 337.3,168.7 
		352.3,235.2 369.5,235.2 369.5,123.6 354.3,123.6 	"/>
	<path class="st0" d="M316.9,155.5c0-25.2-10.8-31.9-23.5-31.9h-20.8v111.6H290v-48.5h3.9l6.3,48.5h17.4l-7.8-53.8
		C312.5,177.9,316.9,172.7,316.9,155.5z M293.1,173.5H290v-33.9h2.5c4.4,0,6.6,4.8,6.6,16.9C299.1,170.1,296.4,173.5,293.1,173.5z"
		/>
	<polygon class="st0" points="250.3,185.7 264.5,185.7 264.5,169.3 250.3,169.3 250.3,139.7 268,139.7 268,123.6 233.1,123.6 
		233.1,235.2 268.3,235.2 268.3,218.9 250.3,218.9 	"/>
	<polygon class="st0" points="184.5,139.7 198.2,139.7 198.2,235.2 215.6,235.2 215.6,139.7 229.1,139.7 229.1,123.6 184.5,123.6 	
		"/>
	<polygon class="st0" points="163.2,185.7 177.5,185.7 177.5,169.3 163.2,169.3 163.2,139.7 180.9,139.7 180.9,123.6 146,123.6 
		146,235.2 181.2,235.2 181.2,218.9 163.2,218.9 	"/>
	<polygon class="st0" points="87.7,235.2 104.9,235.2 104.9,185.7 119,185.7 119,169.4 104.9,169.4 104.9,139.7 122.5,139.7 
		122.5,123.6 87.7,123.6 	"/>
	<path class="st0" d="M60.7,122c-13.8,0-22.4,8.4-22.4,22.7v68.7c0,14.4,6.7,23.2,22.2,23.2c13.8,0,22.4-8.6,22.4-23.2v-69
		C82.9,130.3,74.3,122,60.7,122z M65.2,214.2c0,2.7-0.9,5.6-4.5,5.6c-3.4,0-4.7-3-4.7-5.5v-70.6c0-2.5,1.3-4.8,4.5-4.8
		c3.3,0,4.7,2.2,4.7,4.8V214.2z"/>
	<polygon class="st0" points="94.4,113 106.9,1 91.7,1 85.3,73.1 84.8,73.1 77.9,1 60.4,1 73.4,113 	"/>
	<rect x="39.4" y="1" class="st0" width="17.4" height="111.5"/>
	<polygon class="st0" points="290.2,46 290.8,46 305.8,112.5 323,112.5 323,1 307.8,1 307.8,60.3 307.3,60.3 293.9,1 275.3,1 
		275.3,112.5 290.2,112.5 	"/>
	<polygon class="st0" points="453.5,112.5 453.5,96.2 435.5,96.2 435.5,63 449.7,63 449.7,46.6 435.5,46.6 435.5,17 453.2,17 
		453.2,0.9 418.3,0.9 418.3,112.5 418.3,112.5 	"/>
	<rect x="396" y="1" class="st0" width="17.4" height="111.5"/>
	<path class="st0" d="M207.5,113.9c13.8,0,21.1-9.4,21.1-22.2V52.4h-21.4v15h5.2V91c0,3.3-1.1,6.1-4.5,6.1c-3.1,0-4.7-2.3-4.7-5.8
		V21.8c0-3.1,0.8-5.8,4.5-5.8c3.3,0,4.7,2,4.7,5.5v17.4h16.3V20.2c0-12.7-7.8-20.8-20.8-20.8c-13.8,0-22.4,8.4-22.4,21.6v71.7
		C185.5,105.6,192.8,113.9,207.5,113.9z"/>
	<rect x="253.1" y="1" class="st0" width="17.4" height="111.5"/>
	<polygon class="st0" points="147.9,46 148.5,46 163.5,112.5 180.7,112.5 180.7,1 165.5,1 165.5,60.3 165,60.3 151.5,1 132.9,1 
		132.9,112.5 133,112.5 147.9,112.5 	"/>
	<polygon class="st0" points="370.6,73.1 370.1,73.1 363.2,1 345.7,1 358.7,113 379.7,113 392.2,1 377,1 	"/>
	<rect x="110.7" y="1" class="st0" width="17.4" height="111.5"/>
	<polygon class="st0" points="17.3,0.9 0.1,0.9 0.1,112.5 35.3,112.5 35.3,96.2 17.3,96.2 	"/>
	<polygon class="st0" points="514.9,0.9 509.6,67.1 509.1,67.1 503.3,0.9 485.6,0.9 479.7,67.5 479.2,67.5 473.9,0.9 456.7,0.9 
		469.6,112.8 487,112.8 493.7,41.5 494.3,41.5 500.9,112.8 516.9,112.8 529.6,0.9 	"/>
</g>
</svg>
