<?xml version="1.0" encoding="utf-8"?>
<!-- Generator: Adobe Illustrator 22.0.1, SVG Export Plug-In . SVG Version: 6.00 Build 0)  -->
<svg version="1.1" id="Layer_1" xmlns="http://www.w3.org/2000/svg" xmlns:xlink="http://www.w3.org/1999/xlink" x="0px" y="0px"
	 viewBox="0 0 66.2 65.8" style="enable-background:new 0 0 66.2 65.8;" xml:space="preserve">
<style type="text/css">
	.st0{fill:#EF6A4C;}
</style>
<g>
	<path class="st0" d="M33.1,0.1C15,0.1,0.3,14.8,0.3,32.9S15,65.7,33.1,65.7S65.9,51,65.9,32.9C65.8,14.8,51.2,0.1,33.1,0.1z
		 M21.6,18.2h23c2.4,0,4.3,1.6,4.9,3.8L35,33.4c-1,0.8-2.8,0.8-3.8,0L16.6,22C17.2,19.8,19.2,18.2,21.6,18.2z M49.7,41
		c0,2.8-2.3,5.1-5.1,5.1h-23c-2.8,0-5.1-2.3-5.1-5.1V25.7l12.9,10c1.1,0.8,2.4,1.2,3.8,1.2c1.4,0,2.7-0.4,3.8-1.2l12.9-10V41H49.7z"
		/>
</g>
</svg>
