<?xml version="1.0" encoding="UTF-8" standalone="no"?>
<svg
   xmlns:dc="http://purl.org/dc/elements/1.1/"
   xmlns:cc="http://creativecommons.org/ns#"
   xmlns:rdf="http://www.w3.org/1999/02/22-rdf-syntax-ns#"
   xmlns:svg="http://www.w3.org/2000/svg"
   xmlns="http://www.w3.org/2000/svg"
   xmlns:sodipodi="http://sodipodi.sourceforge.net/DTD/sodipodi-0.dtd"
   xmlns:inkscape="http://www.inkscape.org/namespaces/inkscape"
   id="svg"
   version="1.1"
   width="400"
   height="400"
   style="display:block"
   inkscape:version="0.91 r13725"
   sodipodi:docname="mail.svg">
  <metadata
     id="metadata3461">
    <rdf:RDF>
      <cc:Work
         rdf:about="">
        <dc:format>image/svg+xml</dc:format>
        <dc:type
           rdf:resource="http://purl.org/dc/dcmitype/StillImage" />
        <dc:title></dc:title>
      </cc:Work>
    </rdf:RDF>
  </metadata>
  <defs
     id="defs3459" />
  <sodipodi:namedview
     pagecolor="#ffffff"
     bordercolor="#666666"
     borderopacity="1"
     objecttolerance="10"
     gridtolerance="10"
     guidetolerance="10"
     inkscape:pageopacity="0"
     inkscape:pageshadow="2"
     inkscape:window-width="1600"
     inkscape:window-height="837"
     id="namedview3457"
     showgrid="false"
     inkscape:zoom="0.59"
     inkscape:cx="200"
     inkscape:cy="200"
     inkscape:window-x="0"
     inkscape:window-y="30"
     inkscape:window-maximized="1"
     inkscape:current-layer="svg" />
  <g
     id="svgg">
    <path
       id="path1"
       d="m 81.4,144.483 c -1.834,1.066 -1.8,0.774 -1.8,15.456 0,7.697 -0.115,14.294 -0.255,14.659 -0.555,1.446 -2.015,1.588 -18.604,1.797 C 39.578,176.662 41.6,174.84 41.6,193.643 l 0,12.744 -1.167,1.307 -1.166,1.306 -15.734,0.22 C 6.471,209.458 6.108,209.506 4.919,211.683 4.168,213.059 3.529,379.475 4.218,394.3 l 0.265,5.7 156.159,0 c 85.887,0 156.185,-0.045 156.219,-0.1 0.033,-0.055 0.168,-6.938 0.3,-15.295 l 0.239,-15.195 1.2,-0.605 c 0.987,-0.497 4.011,-0.644 17,-0.822 21.862,-0.3 19.717,1.55 19.916,-17.183 l 0.142,-13.4 0.976,-1.279 0.975,-1.279 16.124,-0.121 c 17.702,-0.133 17.097,-0.045 17.702,-2.573 0.152,-0.631 0.434,-1.351 0.628,-1.599 0.203,-0.259 0.307,-39.689 0.245,-92.489 l -0.108,-92.038 -0.911,-0.911 -0.911,-0.911 -154.089,-0.091 C 119.774,144.04 82.005,144.131 81.4,144.483 m 294.111,6.14 c 1.766,1.236 0.515,5.773 -1.592,5.777 -0.155,0 -1.067,0.765 -2.027,1.7 -0.96,0.935 -2.869,2.69 -4.242,3.9 -1.374,1.21 -3.262,2.92 -4.196,3.8 -5.233,4.931 -9.738,8.696 -11.594,9.689 l -1.66,0.888 -114,0.006 c -90.428,0.004 -114.289,-0.099 -115.4,-0.497 -1.905,-0.683 -2.469,-1.045 -4.347,-2.786 -0.89,-0.825 -1.754,-1.5 -1.919,-1.5 -0.166,0 -1.059,-0.765 -1.984,-1.7 -0.925,-0.935 -2.708,-2.6 -3.961,-3.7 -1.254,-1.1 -3.04,-2.737 -3.969,-3.639 -0.929,-0.901 -2.234,-1.96 -2.9,-2.354 -0.667,-0.393 -1.515,-1.23 -1.887,-1.858 -0.371,-0.629 -1.07,-1.347 -1.554,-1.595 -1.849,-0.95 -3.079,-2.468 -3.079,-3.8 0,-0.713 -0.27,-1.567 -0.6,-1.897 -0.33,-0.33 -0.6,-0.703 -0.6,-0.828 0,-0.626 280.617,-0.233 281.511,0.394 m -287.019,6.449 c 0.939,0.369 2.248,1.225 2.908,1.902 0.66,0.677 1.729,1.571 2.375,1.986 0.646,0.416 1.612,1.277 2.147,1.913 0.536,0.635 1.481,1.418 2.102,1.739 0.621,0.321 1.438,1.108 1.816,1.748 0.378,0.641 1.36,1.542 2.182,2.004 0.822,0.462 1.592,1.095 1.712,1.407 0.119,0.313 1.218,1.307 2.442,2.211 2.523,1.864 2.624,2.156 1.203,3.472 -1.933,1.792 -20.608,1.264 -22.066,-0.623 -0.665,-0.86 -0.707,-15.968 -0.049,-17.412 0.547,-1.2 0.95,-1.243 3.228,-0.347 m 298.037,0.228 c 0.733,0.778 0.677,164.683 -0.057,165.457 -1.537,1.619 -5.841,1.17 -6.849,-0.714 -0.221,-0.412 -1.621,-1.234 -3.112,-1.827 -1.491,-0.593 -3.251,-1.584 -3.911,-2.203 -0.66,-0.619 -1.65,-1.255 -2.2,-1.415 -0.969,-0.282 -3.029,-1.666 -4.534,-3.047 -0.403,-0.37 -1.553,-0.879 -2.554,-1.131 -1.208,-0.305 -2.405,-1.025 -3.554,-2.14 -0.953,-0.924 -2.275,-2.13 -2.938,-2.68 l -1.206,-1 -0.007,-62.624 -0.007,-62.624 2.85,-2.776 c 1.567,-1.527 3.772,-3.622 4.9,-4.657 1.127,-1.034 3.117,-2.879 4.421,-4.1 1.304,-1.22 2.495,-2.219 2.647,-2.219 0.152,0 1.084,-0.765 2.07,-1.7 4.41,-4.181 5.901,-5.5 6.216,-5.5 0.186,0 1.049,-0.704 1.918,-1.564 1.833,-1.816 4.893,-2.611 5.907,-1.536 m -47.299,27.534 c 1.092,1.222 0.654,2.766 -0.784,2.766 -0.194,0 -1.229,0.868 -2.3,1.929 -1.07,1.062 -2.52,2.326 -3.222,2.811 -0.702,0.484 -1.377,1.197 -1.5,1.584 -0.123,0.387 -0.718,0.999 -1.323,1.36 -0.606,0.362 -1.844,1.346 -2.752,2.187 -2.428,2.248 -6.09,5.377 -7.721,6.597 -0.785,0.588 -1.878,1.496 -2.428,2.018 -1.802,1.711 -2.372,2.007 -4.901,2.547 -2.395,0.51 -225.797,0.923 -226.617,0.418 -0.155,-0.095 -1.14,-0.302 -2.189,-0.459 -1.581,-0.236 -2.171,-0.585 -3.45,-2.038 -0.849,-0.965 -1.726,-1.754 -1.949,-1.754 -0.223,0 -1.391,-0.945 -2.594,-2.1 -1.204,-1.155 -2.708,-2.501 -3.344,-2.991 -0.636,-0.489 -1.731,-1.389 -2.433,-2 -0.703,-0.61 -1.693,-1.423 -2.2,-1.807 -1.577,-1.194 -4.756,-4.009 -7.005,-6.202 -1.184,-1.155 -2.338,-2.1 -2.564,-2.1 -1.491,0 -1.89,-1.791 -0.684,-3.074 l 0.869,-0.926 139.995,0 139.995,0 1.101,1.234 M 52.34,190.3 c 1.092,1.045 2.995,2.8 4.23,3.9 1.234,1.1 3.109,2.81 4.165,3.8 2.302,2.157 5.508,4.938 6.805,5.902 0.516,0.384 1.403,1.076 1.97,1.538 l 1.03,0.839 -0.872,1.226 c -1.099,1.543 -1.665,1.628 -11.848,1.778 l -7.979,0.117 -1.021,-1.499 -1.02,-1.499 0.2,-8.16 c 0.179,-7.297 0.281,-8.249 0.962,-9.001 1.031,-1.137 1.11,-1.112 3.378,1.059 m 295.408,-0.287 c 0.925,0.859 1.026,9.225 1.005,84.076 -0.021,79.5 -0.029,80.3 -0.816,81.3 -1.241,1.578 -5.147,0.835 -7.516,-1.429 -0.668,-0.638 -1.323,-1.16 -1.457,-1.16 -0.359,0 -3.131,-1.319 -3.364,-1.6 -0.633,-0.766 -3.252,-2.361 -4.826,-2.939 -1.005,-0.369 -2.422,-1.285 -3.149,-2.035 -0.737,-0.761 -2.35,-1.749 -3.643,-2.233 -1.276,-0.477 -2.589,-1.166 -2.916,-1.53 -0.328,-0.365 -1.332,-1.435 -2.231,-2.378 l -1.635,-1.716 0.047,-61.084 c 0.026,-33.597 0.161,-61.564 0.3,-62.15 0.236,-0.993 2.133,-2.87 9.232,-9.135 1.371,-1.21 2.928,-2.468 3.46,-2.794 0.532,-0.327 1.066,-0.908 1.188,-1.29 0.121,-0.382 0.795,-1.092 1.497,-1.576 0.702,-0.485 2.152,-1.749 3.222,-2.811 1.071,-1.061 2.151,-1.93 2.4,-1.93 0.25,-10e-4 0.814,-0.547 1.254,-1.213 0.44,-0.667 1.538,-1.648 2.441,-2.181 0.902,-0.533 2.072,-1.423 2.6,-1.977 0.929,-0.976 2.002,-1.055 2.907,-0.215 m -46.807,26.354 c 2.871,0.471 3.555,1.949 1.414,3.056 -0.684,0.354 -2.106,1.484 -3.16,2.51 -2.891,2.818 -5.287,4.955 -6.801,6.067 -0.749,0.55 -2.085,1.63 -2.97,2.4 -0.884,0.77 -1.851,1.58 -2.148,1.8 -0.297,0.22 -1.47,1.253 -2.608,2.296 -1.137,1.043 -2.221,1.898 -2.408,1.9 -0.186,0.002 -1.113,0.769 -2.059,1.704 -0.946,0.935 -2.837,2.69 -4.203,3.9 -1.366,1.21 -3.229,2.936 -4.14,3.835 -0.912,0.899 -2.232,2.028 -2.934,2.51 -0.702,0.482 -1.376,1.186 -1.497,1.565 -0.122,0.38 -1.035,1.203 -2.03,1.83 -0.994,0.627 -2.051,1.487 -2.348,1.912 -0.297,0.424 -1.365,1.357 -2.372,2.073 -1.008,0.716 -2.641,2.061 -3.631,2.989 -0.989,0.927 -1.959,1.686 -2.155,1.686 -0.195,0 -1.331,0.906 -2.523,2.014 -1.192,1.108 -3.121,2.863 -4.285,3.9 -1.165,1.037 -2.997,2.696 -4.072,3.686 -1.075,0.99 -3.063,2.79 -4.416,4 -1.354,1.21 -3.138,2.889 -3.965,3.73 -0.827,0.842 -1.969,1.836 -2.538,2.209 -0.569,0.374 -1.722,1.305 -2.563,2.07 -0.841,0.765 -2.188,1.883 -2.993,2.484 -0.805,0.601 -2.135,1.726 -2.956,2.5 -0.82,0.774 -1.616,1.407 -1.768,1.407 -0.152,0 -1.252,0.906 -2.444,2.014 -1.192,1.108 -3.121,2.863 -4.285,3.9 -1.165,1.037 -2.997,2.696 -4.072,3.686 -1.075,0.99 -3.066,2.79 -4.424,4 -1.358,1.21 -3.126,2.841 -3.928,3.625 -0.803,0.783 -2.089,1.861 -2.859,2.395 -0.77,0.534 -2.191,1.738 -3.158,2.675 -0.967,0.938 -1.89,1.705 -2.052,1.705 -0.161,0 -1.237,0.9 -2.39,2 -1.153,1.1 -2.261,2 -2.461,2 -0.2,0 -1.303,0.903 -2.451,2.007 -2.056,1.977 -3.438,3.245 -8.277,7.593 -1.346,1.21 -3.412,3.127 -4.59,4.261 -1.179,1.133 -2.52,2.18 -2.982,2.327 -0.461,0.146 -0.839,0.427 -0.839,0.623 0,0.611 -1.649,1.931 -3.769,3.02 -1.117,0.573 -2.211,1.253 -2.431,1.511 -2.04,2.391 -6.643,2.627 -8.927,0.459 -0.81,-0.77 -1.833,-1.513 -2.273,-1.651 -0.44,-0.138 -1.731,-1.083 -2.869,-2.101 -3.73,-3.334 -6.21,-5.429 -7.884,-6.662 -0.906,-0.667 -2.357,-1.882 -3.225,-2.7 -0.868,-0.818 -1.768,-1.492 -2,-1.498 -0.232,-0.006 -0.872,-0.632 -1.422,-1.392 -0.55,-0.759 -1.306,-1.483 -1.681,-1.609 -0.786,-0.265 -3.519,-2.906 -3.519,-3.401 0,-0.183 -0.356,-0.446 -0.79,-0.584 -0.914,-0.29 -3.61,-2.806 -3.61,-3.369 0,-0.209 -0.339,-0.488 -0.753,-0.619 -0.887,-0.282 -3.247,-2.457 -3.247,-2.993 0,-0.204 -0.722,-0.776 -1.604,-1.272 -0.882,-0.496 -1.876,-1.318 -2.21,-1.827 -0.333,-0.509 -1.282,-1.353 -2.109,-1.874 -0.826,-0.522 -2.254,-1.646 -3.173,-2.499 -0.918,-0.852 -2.162,-1.91 -2.762,-2.35 -0.601,-0.44 -1.808,-1.475 -2.683,-2.3 -0.874,-0.825 -1.72,-1.5 -1.881,-1.5 -0.16,0 -1.191,-0.855 -2.291,-1.9 -1.101,-1.045 -2.65,-2.5 -3.444,-3.234 -0.794,-0.733 -1.443,-1.486 -1.443,-1.673 0,-0.186 -0.356,-0.452 -0.79,-0.59 -0.914,-0.29 -3.61,-2.806 -3.61,-3.369 0,-0.209 -0.339,-0.488 -0.753,-0.619 -0.746,-0.237 -3.015,-2.213 -3.3,-2.873 -0.081,-0.188 -0.932,-0.876 -1.893,-1.528 -0.96,-0.652 -1.836,-1.423 -1.948,-1.714 -0.111,-0.29 -1.036,-1.094 -2.054,-1.787 -1.019,-0.693 -2.548,-1.946 -3.399,-2.786 -0.851,-0.84 -1.698,-1.527 -1.882,-1.527 -0.184,0 -1.365,-0.99 -2.624,-2.2 -1.26,-1.21 -2.439,-2.2 -2.62,-2.2 -0.182,0 -1.209,-0.855 -2.283,-1.9 -1.073,-1.045 -2.602,-2.5 -3.398,-3.234 -0.795,-0.733 -1.446,-1.486 -1.446,-1.673 0,-0.186 -0.356,-0.452 -0.79,-0.59 -0.914,-0.29 -3.61,-2.806 -3.61,-3.369 0,-0.209 -0.342,-0.489 -0.76,-0.621 -0.418,-0.133 -1.665,-1.09 -2.77,-2.127 -3.044,-2.858 -6.348,-5.685 -8.204,-7.022 -0.916,-0.66 -1.899,-1.526 -2.184,-1.926 -0.286,-0.399 -1.29,-1.178 -2.232,-1.73 -0.942,-0.552 -1.937,-1.424 -2.213,-1.938 -0.275,-0.514 -1.071,-1.261 -1.768,-1.66 -0.698,-0.398 -2.008,-1.464 -2.91,-2.367 -0.903,-0.904 -2.298,-2.243 -3.1,-2.977 -0.803,-0.733 -1.459,-1.486 -1.459,-1.673 0,-0.186 -0.356,-0.452 -0.79,-0.59 -0.914,-0.29 -3.61,-2.806 -3.61,-3.369 0,-0.209 -0.351,-0.492 -0.781,-0.628 -0.429,-0.136 -1.69,-1.138 -2.802,-2.227 -1.111,-1.088 -2.167,-1.979 -2.345,-1.979 -0.179,0 -1.233,-0.855 -2.342,-1.9 -1.11,-1.045 -2.758,-2.35 -3.663,-2.9 -2.345,-1.425 -2.138,-2.308 0.733,-3.128 1.7,-0.486 277.996,-0.589 280.941,-0.105 m 10.036,5.322 c 0.716,1.022 0.955,163.8 0.245,166.86 -0.509,2.191 -0.901,2.42 -2.214,1.292 -0.624,-0.537 -1.759,-1.093 -2.522,-1.236 -1.338,-0.251 -3.908,-1.704 -5.415,-3.062 -0.401,-0.361 -1.566,-0.976 -2.589,-1.367 -1.023,-0.39 -2.49,-1.322 -3.261,-2.071 -0.771,-0.749 -1.905,-1.462 -2.52,-1.585 -0.615,-0.123 -1.215,-0.38 -1.333,-0.572 -0.118,-0.191 -0.488,-0.348 -0.822,-0.348 -0.334,0 -1.13,-0.523 -1.769,-1.162 -0.639,-0.638 -2.501,-1.823 -4.139,-2.632 -1.638,-0.809 -3.065,-1.699 -3.172,-1.978 -0.107,-0.278 -1.245,-0.927 -2.53,-1.441 -1.285,-0.514 -2.901,-1.523 -3.591,-2.242 -0.691,-0.719 -1.771,-1.436 -2.4,-1.592 -1.493,-0.372 -3.753,-1.635 -4.679,-2.616 -0.404,-0.428 -1.664,-1.194 -2.8,-1.704 -1.137,-0.509 -2.757,-1.483 -3.601,-2.164 -0.844,-0.68 -1.924,-1.346 -2.4,-1.478 -1.661,-0.463 -2.874,-1.189 -4.12,-2.467 -0.691,-0.707 -1.771,-1.415 -2.4,-1.571 -1.493,-0.372 -3.753,-1.635 -4.679,-2.616 -0.404,-0.428 -1.664,-1.194 -2.8,-1.704 -1.137,-0.509 -2.757,-1.483 -3.601,-2.164 -0.844,-0.68 -1.924,-1.346 -2.4,-1.478 -1.699,-0.474 -2.883,-1.193 -4.067,-2.473 -0.66,-0.714 -1.789,-1.416 -2.508,-1.56 -0.719,-0.144 -1.404,-0.418 -1.522,-0.61 -0.118,-0.191 -0.488,-0.348 -0.822,-0.348 -0.334,0 -1.158,-0.551 -1.831,-1.223 -0.673,-0.673 -2.054,-1.603 -3.069,-2.067 -1.015,-0.464 -2.566,-1.418 -3.446,-2.12 -0.88,-0.701 -2.05,-1.403 -2.6,-1.558 -1.847,-0.521 -2.992,-1.207 -4.202,-2.514 -0.66,-0.714 -1.789,-1.416 -2.508,-1.56 -0.719,-0.144 -1.404,-0.418 -1.522,-0.61 -0.118,-0.191 -0.498,-0.348 -0.844,-0.348 -0.346,0 -1.224,-0.63 -1.95,-1.4 -0.726,-0.77 -1.44,-1.4 -1.587,-1.4 -0.683,0 -3.351,-1.467 -4.86,-2.673 -0.92,-0.735 -2.21,-1.444 -2.867,-1.575 -0.657,-0.131 -1.774,-0.723 -2.483,-1.315 l -1.289,-1.076 1.101,-1.743 c 1.255,-1.988 2.149,-2.921 4.414,-4.606 0.878,-0.654 2.166,-1.734 2.86,-2.4 0.695,-0.667 2.373,-2.202 3.728,-3.412 1.356,-1.21 3.345,-3.01 4.42,-4 1.075,-0.99 2.907,-2.649 4.072,-3.686 1.164,-1.037 3.093,-2.792 4.285,-3.9 1.192,-1.108 2.292,-2.014 2.444,-2.014 0.152,0 0.948,-0.633 1.768,-1.407 0.821,-0.774 2.151,-1.899 2.956,-2.5 0.805,-0.601 2.122,-1.692 2.927,-2.423 0.805,-0.732 2.006,-1.731 2.669,-2.22 0.664,-0.489 1.948,-1.601 2.855,-2.47 2.132,-2.043 4.946,-4.626 8.042,-7.38 1.361,-1.21 3.243,-2.965 4.183,-3.9 0.94,-0.935 1.877,-1.7 2.082,-1.7 0.205,0 1.226,-0.9 2.267,-2 1.042,-1.1 2.088,-2 2.326,-2 0.238,0 1.048,-0.634 1.801,-1.409 0.753,-0.775 1.851,-1.72 2.44,-2.1 1.488,-0.959 2.345,-1.665 4.023,-3.314 0.797,-0.783 2.034,-1.767 2.75,-2.187 0.715,-0.42 1.4,-1.079 1.523,-1.466 0.123,-0.387 0.798,-1.095 1.5,-1.575 0.702,-0.479 2.03,-1.609 2.951,-2.51 0.92,-0.902 2.784,-2.629 4.14,-3.839 1.356,-1.21 3.24,-2.965 4.186,-3.9 0.946,-0.935 1.873,-1.702 2.059,-1.704 0.187,-0.002 1.271,-0.857 2.408,-1.9 1.138,-1.043 2.311,-2.076 2.608,-2.296 0.297,-0.22 1.264,-1.03 2.148,-1.8 0.885,-0.77 2.223,-1.85 2.973,-2.4 0.751,-0.55 2.077,-1.682 2.948,-2.515 0.87,-0.833 2.094,-1.817 2.719,-2.187 0.625,-0.369 1.241,-0.999 1.368,-1.4 0.128,-0.401 0.931,-1.192 1.786,-1.757 0.855,-0.566 2,-1.614 2.545,-2.329 0.546,-0.715 1.626,-1.601 2.402,-1.969 0.775,-0.368 1.911,-1.194 2.523,-1.837 1.353,-1.42 1.502,-1.441 2.289,-0.317 M 13.176,223.2 c 1.056,0 3.041,1.224 4.466,2.753 0.404,0.434 1.415,1.293 2.246,1.91 0.832,0.617 2.221,1.813 3.088,2.659 0.867,0.845 2.055,1.784 2.641,2.087 0.585,0.302 1.362,1.005 1.726,1.56 0.364,0.555 1.372,1.418 2.239,1.918 0.868,0.499 1.76,1.307 1.982,1.794 0.222,0.488 1.176,1.387 2.12,1.999 0.944,0.612 1.873,1.362 2.065,1.668 0.192,0.306 0.893,1.027 1.559,1.604 0.665,0.576 2.067,1.903 3.115,2.948 1.047,1.045 2.065,1.9 2.262,1.9 0.196,0 1.273,0.855 2.391,1.9 2.855,2.666 5.961,5.335 7.068,6.074 1.081,0.721 4.605,3.77 7.526,6.512 1.105,1.037 2.352,1.994 2.77,2.127 0.418,0.132 0.76,0.412 0.76,0.621 0,0.563 2.696,3.079 3.61,3.369 0.434,0.138 0.79,0.404 0.79,0.59 0,0.187 0.651,0.94 1.446,1.673 0.796,0.734 2.325,2.189 3.398,3.234 1.074,1.045 2.101,1.9 2.283,1.9 0.181,0 1.36,0.99 2.62,2.2 1.259,1.21 2.44,2.2 2.624,2.2 0.184,0 1.031,0.684 1.882,1.521 0.851,0.837 2.177,1.955 2.947,2.486 0.77,0.53 2.179,1.736 3.132,2.679 0.952,0.942 1.981,1.714 2.286,1.714 0.304,0 0.768,0.405 1.031,0.9 0.571,1.079 2.28,2.618 3.251,2.929 0.385,0.124 0.7,0.38 0.7,0.569 0,0.606 2.567,3.08 3.5,3.373 0.495,0.156 0.9,0.436 0.9,0.622 0,0.187 0.649,0.94 1.443,1.673 0.794,0.734 2.343,2.189 3.444,3.234 1.1,1.045 2.131,1.9 2.291,1.9 0.161,0 1.007,0.675 1.881,1.5 0.875,0.825 2.095,1.86 2.712,2.3 0.618,0.44 2.026,1.609 3.129,2.597 1.104,0.988 2.513,2.104 3.132,2.481 0.618,0.376 1.408,1.116 1.754,1.644 0.346,0.528 1.263,1.301 2.039,1.719 0.976,0.525 1.848,1.555 2.829,3.338 1.617,2.942 1.612,2.954 -1.846,4.526 -0.986,0.448 -2.336,1.407 -3,2.133 -0.813,0.887 -1.934,1.523 -3.424,1.944 -1.49,0.421 -2.636,1.072 -3.502,1.99 -0.707,0.75 -2.14,1.687 -3.184,2.082 -1.044,0.395 -2.341,1.126 -2.883,1.623 -0.542,0.497 -2.114,1.442 -3.492,2.101 -1.379,0.658 -2.915,1.668 -3.415,2.244 -0.97,1.119 -3.104,2.178 -4.388,2.178 -0.431,0 -1.444,0.688 -2.252,1.529 -0.808,0.841 -2.368,1.87 -3.468,2.286 -1.1,0.417 -2.45,1.171 -3,1.677 -0.55,0.505 -2.131,1.465 -3.514,2.132 -1.382,0.667 -2.987,1.745 -3.566,2.395 -0.579,0.649 -1.372,1.181 -1.763,1.181 -0.39,0 -0.807,0.157 -0.925,0.348 -0.118,0.192 -0.779,0.461 -1.469,0.599 -0.689,0.138 -1.818,0.856 -2.508,1.595 -0.69,0.739 -2.155,1.678 -3.255,2.087 -1.1,0.409 -2.45,1.161 -3,1.671 -0.55,0.509 -1.99,1.4 -3.2,1.978 -1.21,0.579 -2.83,1.638 -3.6,2.355 -0.77,0.717 -2.34,1.606 -3.489,1.977 -1.149,0.371 -2.719,1.269 -3.489,1.995 -0.77,0.726 -2.26,1.646 -3.311,2.044 -1.051,0.398 -2.361,1.143 -2.911,1.655 -0.55,0.513 -2.137,1.479 -3.526,2.147 -1.39,0.668 -2.97,1.713 -3.512,2.321 -0.547,0.614 -1.993,1.445 -3.247,1.867 -1.245,0.419 -2.813,1.318 -3.488,2 -0.675,0.682 -2.051,1.55 -3.058,1.928 -1.007,0.379 -2.357,1.15 -3,1.714 -0.643,0.564 -2.159,1.475 -3.369,2.025 -1.21,0.55 -2.83,1.583 -3.6,2.296 -2.411,2.232 -7.727,3.405 -9.12,2.012 -0.268,-0.268 -0.817,-165.685 -0.552,-166.321 0.07,-0.169 0.59,0.056 1.154,0.5 0.564,0.444 1.507,0.807 2.094,0.807 m 346.811,93.876 c 0.53,0.371 1.282,0.993 1.67,1.381 0.676,0.676 3.949,2.338 4.621,2.347 0.177,0.003 0.923,0.624 1.659,1.38 0.787,0.811 2.184,1.649 3.4,2.041 1.134,0.366 2.486,0.931 3.002,1.255 l 0.939,0.59 -0.939,0.665 c -1.932,1.368 -3.673,1.653 -10.139,1.658 -8.566,0.008 -8.6,-0.016 -8.6,-6.193 0,-5.495 1.446,-7.184 4.387,-5.124 M 192.09,327.599 c 0.721,0.439 1.624,0.799 2.009,0.8 0.384,0 1.391,0.626 2.237,1.39 0.845,0.765 2.601,1.789 3.901,2.276 1.456,0.547 2.908,1.464 3.783,2.391 0.941,0.996 2.053,1.674 3.292,2.005 1.029,0.275 2.46,1.021 3.18,1.658 0.719,0.637 2.118,1.521 3.108,1.965 0.99,0.445 2.34,1.312 3,1.928 0.66,0.615 2.325,1.572 3.701,2.126 1.43,0.576 3.07,1.61 3.831,2.417 0.86,0.912 1.999,1.59 3.218,1.916 1.039,0.278 2.195,0.786 2.569,1.129 1.609,1.475 3.605,2.8 4.218,2.8 0.363,0 1.345,0.618 2.182,1.374 0.837,0.756 2.496,1.759 3.687,2.228 1.191,0.47 2.919,1.549 3.84,2.398 0.922,0.85 2.458,1.775 3.415,2.058 0.956,0.282 1.94,0.7 2.186,0.928 1.944,1.803 3.851,3.014 4.746,3.014 0.333,0 1.289,0.618 2.126,1.374 0.837,0.756 2.496,1.759 3.687,2.228 1.191,0.47 2.907,1.537 3.813,2.373 0.907,0.836 2.353,1.745 3.215,2.022 1.309,0.419 3.805,1.941 4.566,2.782 0.426,0.471 2.018,1.221 2.593,1.221 0.333,0 1.28,0.607 2.106,1.349 1.35,1.214 4.723,3.051 5.601,3.051 0.189,0 0.952,0.628 1.695,1.395 0.744,0.767 2.174,1.702 3.179,2.077 1.004,0.376 2.546,1.233 3.426,1.905 2.025,1.548 3.232,2.223 3.972,2.223 1.646,0 2.737,1.754 2.439,3.921 l -0.286,2.079 -137.263,-0.047 C 83.568,394.327 22.34,394.191 23,394.051 c 1.104,-0.235 1.21,-0.407 1.321,-2.141 0.121,-1.868 1.363,-3.51 2.658,-3.51 0.935,0 4.045,-1.731 5.124,-2.853 0.607,-0.631 1.375,-1.147 1.706,-1.147 0.802,0 2.043,-0.722 3.964,-2.306 0.872,-0.718 2.272,-1.491 3.112,-1.717 0.839,-0.226 2.43,-1.213 3.534,-2.194 1.104,-0.981 2.262,-1.783 2.573,-1.783 0.882,0 4.038,-1.793 5.197,-2.953 0.576,-0.576 1.312,-1.047 1.635,-1.047 0.547,0 2.122,-0.738 2.576,-1.206 1.182,-1.221 3.14,-2.455 4.454,-2.809 0.89,-0.239 2.367,-1.125 3.282,-1.967 0.915,-0.843 2.802,-1.994 4.194,-2.559 1.391,-0.565 2.868,-1.457 3.28,-1.981 0.413,-0.525 1.615,-1.281 2.67,-1.68 1.056,-0.399 2.3,-1.129 2.765,-1.623 0.965,-1.025 2.643,-1.94 4.279,-2.332 0.618,-0.149 1.878,-0.965 2.8,-1.814 0.922,-0.849 2.828,-2.011 4.236,-2.582 1.408,-0.572 2.82,-1.411 3.138,-1.865 0.318,-0.454 1.533,-1.248 2.701,-1.764 1.167,-0.517 2.49,-1.307 2.94,-1.757 0.976,-0.976 2.622,-1.843 4.233,-2.23 0.644,-0.155 1.825,-0.956 2.625,-1.78 0.908,-0.935 2.407,-1.854 3.995,-2.448 1.398,-0.523 2.916,-1.387 3.375,-1.92 0.458,-0.533 1.76,-1.383 2.894,-1.887 1.133,-0.504 2.428,-1.285 2.878,-1.735 0.976,-0.976 2.622,-1.843 4.233,-2.23 0.644,-0.155 1.871,-1.003 2.725,-1.883 3.6,-3.71 9.108,-3.743 12.956,-0.077 0.882,0.841 2.551,2.339 3.707,3.329 1.157,0.99 2.314,1.992 2.571,2.226 0.258,0.234 0.763,0.594 1.122,0.8 0.359,0.206 1.588,1.229 2.731,2.274 1.143,1.045 2.256,1.9 2.474,1.9 0.218,0 0.969,0.603 1.669,1.339 2.033,2.139 2.52,2.261 8.998,2.261 6.663,0 7.657,-0.245 10.45,-2.579 0.935,-0.782 1.864,-1.421 2.063,-1.421 0.199,0 1.344,-0.945 2.544,-2.1 1.2,-1.155 3.289,-3.09 4.642,-4.3 1.353,-1.21 3.214,-2.965 4.135,-3.9 0.92,-0.935 1.936,-1.713 2.257,-1.729 0.321,-0.016 1.124,-0.363 1.784,-0.771 1.567,-0.968 2.304,-0.969 3.89,-0.001 m 131.11,22.988 c 0.55,0.485 1.72,1.209 2.6,1.607 0.88,0.398 2.563,1.409 3.74,2.247 1.178,0.838 2.798,1.735 3.6,1.993 2.656,0.855 3.029,1.587 1.632,3.198 -1.814,2.092 -16.463,1.194 -17.328,-1.063 -0.441,-1.148 -0.269,-8.384 0.211,-8.864 0.728,-0.728 4.38,-0.148 5.545,0.882"
       inkscape:connector-curvature="0"
       style="fill:#ff5c43;fill-rule:evenodd;stroke:none" />
  </g>
</svg>
