<svg id="svg" version="1.1" width="400" height="400" xmlns="http://www.w3.org/2000/svg" xmlns:xlink="http://www.w3.org/1999/xlink" style="display: block;"><g id="svgg"><path id="path0" d="M0.000 200.000 L 0.000 400.000 2.100 400.000 L 4.200 400.000 4.200 306.500 C 4.200 217.259,4.233 212.940,4.919 211.683 C 6.108 209.506,6.471 209.458,23.533 209.220 L 39.267 209.000 40.433 207.694 L 41.600 206.387 41.600 193.643 C 41.600 174.840,39.578 176.662,60.741 176.395 C 77.330 176.186,78.790 176.044,79.345 174.598 C 79.485 174.233,79.600 167.625,79.600 159.914 C 79.600 144.469,79.543 144.817,82.174 144.177 C 82.628 144.067,152.160 144.027,236.689 144.088 L 390.378 144.200 391.289 145.111 L 392.200 146.022 392.308 238.060 C 392.370 290.860,392.266 330.290,392.063 330.549 C 391.869 330.797,391.587 331.517,391.435 332.148 C 390.830 334.676,391.435 334.588,373.733 334.721 L 357.609 334.842 356.634 336.121 L 355.658 337.400 355.516 350.800 C 355.317 369.530,357.462 367.678,335.600 367.998 C 319.814 368.228,317.842 368.412,317.408 369.694 C 317.314 369.972,317.183 376.905,317.118 385.100 L 317.000 400.000 358.500 400.000 L 400.000 400.000 400.000 200.000 L 400.000 0.000 200.000 0.000 L 0.000 0.000 0.000 200.000 M94.000 150.229 C 94.000 150.354,94.270 150.727,94.600 151.057 C 94.930 151.387,95.200 152.241,95.200 152.954 C 95.200 154.286,96.430 155.804,98.279 156.754 C 98.763 157.002,99.462 157.720,99.833 158.349 C 100.205 158.977,101.053 159.814,101.720 160.207 C 102.386 160.601,103.691 161.660,104.620 162.561 C 105.549 163.463,107.335 165.100,108.589 166.200 C 109.842 167.300,111.625 168.965,112.550 169.900 C 113.475 170.835,114.368 171.600,114.534 171.600 C 114.699 171.600,115.563 172.275,116.453 173.100 C 118.331 174.841,118.895 175.203,120.800 175.886 C 121.911 176.284,145.772 176.387,236.200 176.383 L 350.200 176.377 351.860 175.489 C 353.716 174.496,358.221 170.731,363.454 165.800 C 364.388 164.920,366.276 163.210,367.650 162.000 C 369.023 160.790,370.932 159.035,371.892 158.100 C 372.852 157.165,373.764 156.400,373.919 156.400 C 376.026 156.396,377.277 151.859,375.511 150.623 C 374.617 149.996,94.000 149.603,94.000 150.229 M85.264 157.419 C 84.606 158.863,84.648 173.971,85.313 174.831 C 86.771 176.718,105.446 177.246,107.379 175.454 C 108.800 174.138,108.699 173.846,106.176 171.982 C 104.952 171.078,103.853 170.084,103.734 169.771 C 103.614 169.459,102.844 168.826,102.022 168.364 C 101.200 167.902,100.218 167.001,99.840 166.360 C 99.462 165.720,98.645 164.933,98.024 164.612 C 97.403 164.291,96.458 163.508,95.922 162.873 C 95.387 162.237,94.421 161.376,93.775 160.960 C 93.129 160.545,92.060 159.651,91.400 158.974 C 90.274 157.820,87.437 156.400,86.256 156.400 C 85.966 156.400,85.520 156.858,85.264 157.419 M383.401 157.096 C 382.706 157.198,381.536 157.931,380.622 158.836 C 379.753 159.696,378.890 160.400,378.704 160.400 C 378.389 160.400,376.898 161.719,372.488 165.900 C 371.502 166.835,370.570 167.600,370.418 167.600 C 370.266 167.600,369.075 168.599,367.771 169.819 C 366.467 171.040,364.477 172.885,363.350 173.919 C 362.222 174.954,360.017 177.049,358.450 178.576 L 355.600 181.352 355.607 243.976 L 355.614 306.600 356.820 307.600 C 357.483 308.150,358.805 309.356,359.758 310.280 C 360.907 311.395,362.104 312.115,363.312 312.420 C 364.313 312.672,365.463 313.181,365.866 313.551 C 367.371 314.932,369.431 316.316,370.400 316.598 C 370.950 316.758,371.940 317.394,372.600 318.013 C 373.260 318.632,375.020 319.623,376.511 320.216 C 378.002 320.809,379.402 321.631,379.623 322.043 C 380.631 323.927,384.935 324.376,386.472 322.757 C 387.206 321.983,387.262 158.078,386.529 157.300 C 386.055 156.798,385.621 156.770,383.401 157.096 M57.270 184.526 C 56.064 185.809,56.463 187.600,57.954 187.600 C 58.180 187.600,59.334 188.545,60.518 189.700 C 62.767 191.893,65.946 194.708,67.523 195.902 C 68.030 196.286,69.020 197.099,69.723 197.709 C 70.425 198.320,71.520 199.220,72.156 199.709 C 72.792 200.199,74.296 201.545,75.500 202.700 C 76.703 203.855,77.871 204.800,78.094 204.800 C 78.317 204.800,79.194 205.589,80.043 206.554 C 81.322 208.007,81.912 208.356,83.493 208.592 C 84.542 208.749,85.527 208.956,85.682 209.051 C 86.502 209.556,309.904 209.143,312.299 208.633 C 314.828 208.093,315.398 207.797,317.200 206.086 C 317.750 205.564,318.843 204.656,319.628 204.068 C 321.259 202.848,324.921 199.719,327.349 197.471 C 328.257 196.630,329.495 195.646,330.101 195.284 C 330.706 194.923,331.301 194.311,331.424 193.924 C 331.547 193.537,332.222 192.824,332.924 192.340 C 333.626 191.855,335.076 190.591,336.146 189.529 C 337.217 188.468,338.252 187.600,338.446 187.600 C 339.884 187.600,340.322 186.056,339.230 184.834 L 338.129 183.600 198.134 183.600 L 58.139 183.600 57.270 184.526 M48.962 189.241 C 48.281 189.993,48.179 190.945,48.000 198.242 L 47.800 206.402 48.820 207.901 L 49.841 209.400 57.820 209.283 C 68.003 209.133,68.569 209.048,69.668 207.505 L 70.540 206.279 69.510 205.440 C 68.943 204.978,68.056 204.286,67.540 203.902 C 66.243 202.938,63.037 200.157,60.735 198.000 C 59.679 197.010,57.804 195.300,56.570 194.200 C 55.335 193.100,53.432 191.345,52.340 190.300 C 50.072 188.129,49.993 188.104,48.962 189.241 M344.841 190.228 C 344.313 190.782,343.143 191.672,342.241 192.205 C 341.338 192.738,340.240 193.719,339.800 194.386 C 339.360 195.052,338.796 195.598,338.546 195.599 C 338.297 195.599,337.217 196.468,336.146 197.529 C 335.076 198.591,333.626 199.855,332.924 200.340 C 332.222 200.824,331.548 201.534,331.427 201.916 C 331.305 202.298,330.771 202.879,330.239 203.206 C 329.707 203.532,328.150 204.790,326.779 206.000 C 319.680 212.265,317.783 214.142,317.547 215.135 C 317.408 215.721,317.273 243.688,317.247 277.285 L 317.200 338.369 318.835 340.085 C 319.734 341.028,320.738 342.098,321.066 342.463 C 321.393 342.827,322.706 343.516,323.982 343.993 C 325.275 344.477,326.888 345.465,327.625 346.226 C 328.352 346.976,329.769 347.892,330.774 348.261 C 332.348 348.839,334.967 350.434,335.600 351.200 C 335.833 351.481,338.605 352.800,338.964 352.800 C 339.098 352.800,339.753 353.322,340.421 353.960 C 342.790 356.224,346.696 356.967,347.937 355.389 C 348.791 354.303,349.273 196.342,348.435 192.068 C 347.898 189.328,346.419 188.571,344.841 190.228 M20.000 216.472 C 17.129 217.292,16.922 218.175,19.267 219.600 C 20.172 220.150,21.820 221.455,22.930 222.500 C 24.039 223.545,25.093 224.400,25.272 224.400 C 25.450 224.400,26.506 225.291,27.617 226.379 C 28.729 227.468,29.990 228.470,30.419 228.606 C 30.849 228.742,31.200 229.025,31.200 229.234 C 31.200 229.797,33.896 232.313,34.810 232.603 C 35.244 232.741,35.600 233.007,35.600 233.193 C 35.600 233.380,36.256 234.133,37.059 234.866 C 37.861 235.600,39.256 236.939,40.159 237.843 C 41.061 238.746,42.371 239.812,43.069 240.210 C 43.766 240.609,44.562 241.356,44.837 241.870 C 45.113 242.384,46.108 243.256,47.050 243.808 C 47.992 244.360,48.996 245.139,49.282 245.538 C 49.567 245.938,50.550 246.804,51.466 247.464 C 53.322 248.801,56.626 251.628,59.670 254.486 C 60.775 255.523,62.022 256.480,62.440 256.613 C 62.858 256.745,63.200 257.025,63.200 257.234 C 63.200 257.797,65.896 260.313,66.810 260.603 C 67.244 260.741,67.600 261.007,67.600 261.193 C 67.600 261.380,68.251 262.133,69.046 262.866 C 69.842 263.600,71.371 265.055,72.444 266.100 C 73.518 267.145,74.545 268.000,74.727 268.000 C 74.908 268.000,76.087 268.990,77.347 270.200 C 78.606 271.410,79.787 272.400,79.971 272.400 C 80.155 272.400,81.002 273.087,81.853 273.927 C 82.704 274.767,84.233 276.020,85.252 276.713 C 86.270 277.406,87.195 278.210,87.306 278.500 C 87.418 278.791,88.294 279.562,89.254 280.214 C 90.215 280.866,91.066 281.554,91.147 281.742 C 91.432 282.402,93.701 284.378,94.447 284.615 C 94.861 284.746,95.200 285.025,95.200 285.234 C 95.200 285.797,97.896 288.313,98.810 288.603 C 99.244 288.741,99.600 289.007,99.600 289.193 C 99.600 289.380,100.249 290.133,101.043 290.866 C 101.837 291.600,103.386 293.055,104.487 294.100 C 105.587 295.145,106.618 296.000,106.778 296.000 C 106.939 296.000,107.785 296.675,108.659 297.500 C 109.534 298.325,110.741 299.360,111.342 299.800 C 111.942 300.240,113.186 301.298,114.104 302.150 C 115.023 303.003,116.451 304.127,117.277 304.649 C 118.104 305.170,119.053 306.014,119.386 306.523 C 119.720 307.032,120.714 307.854,121.596 308.350 C 122.478 308.846,123.200 309.418,123.200 309.622 C 123.200 310.158,125.560 312.333,126.447 312.615 C 126.861 312.746,127.200 313.025,127.200 313.234 C 127.200 313.797,129.896 316.313,130.810 316.603 C 131.244 316.741,131.600 317.004,131.600 317.187 C 131.600 317.682,134.333 320.323,135.119 320.588 C 135.494 320.714,136.250 321.438,136.800 322.197 C 137.350 322.957,137.990 323.583,138.222 323.589 C 138.454 323.595,139.354 324.269,140.222 325.087 C 141.090 325.905,142.541 327.120,143.447 327.787 C 145.121 329.020,147.601 331.115,151.331 334.449 C 152.469 335.467,153.760 336.412,154.200 336.550 C 154.640 336.688,155.663 337.431,156.473 338.201 C 158.757 340.369,163.360 340.133,165.400 337.742 C 165.620 337.484,166.714 336.804,167.831 336.231 C 169.951 335.142,171.600 333.822,171.600 333.211 C 171.600 333.015,171.978 332.734,172.439 332.588 C 172.901 332.441,174.242 331.394,175.421 330.261 C 176.599 329.127,178.665 327.210,180.011 326.000 C 184.850 321.652,186.232 320.384,188.288 318.407 C 189.436 317.303,190.539 316.400,190.739 316.400 C 190.939 316.400,192.047 315.500,193.200 314.400 C 194.353 313.300,195.429 312.400,195.590 312.400 C 195.752 312.400,196.675 311.633,197.642 310.695 C 198.609 309.758,200.030 308.554,200.800 308.020 C 201.570 307.486,202.856 306.408,203.659 305.625 C 204.461 304.841,206.229 303.210,207.587 302.000 C 208.945 300.790,210.936 298.990,212.011 298.000 C 213.086 297.010,214.918 295.351,216.083 294.314 C 217.247 293.277,219.176 291.522,220.368 290.414 C 221.560 289.306,222.660 288.400,222.812 288.400 C 222.964 288.400,223.760 287.767,224.580 286.993 C 225.401 286.219,226.731 285.094,227.536 284.493 C 228.341 283.892,229.688 282.774,230.529 282.009 C 231.370 281.244,232.523 280.313,233.092 279.939 C 233.661 279.566,234.803 278.572,235.630 277.730 C 236.457 276.889,238.241 275.210,239.595 274.000 C 240.948 272.790,242.936 270.990,244.011 270.000 C 245.086 269.010,246.918 267.351,248.083 266.314 C 249.247 265.277,251.176 263.522,252.368 262.414 C 253.560 261.306,254.696 260.400,254.891 260.400 C 255.087 260.400,256.057 259.641,257.046 258.714 C 258.036 257.786,259.669 256.441,260.677 255.725 C 261.684 255.009,262.752 254.076,263.049 253.652 C 263.346 253.227,264.403 252.367,265.397 251.740 C 266.392 251.113,267.305 250.290,267.427 249.910 C 267.548 249.531,268.222 248.827,268.924 248.345 C 269.626 247.863,270.946 246.734,271.858 245.835 C 272.769 244.936,274.632 243.210,275.998 242.000 C 277.364 240.790,279.255 239.035,280.201 238.100 C 281.147 237.165,282.074 236.398,282.260 236.396 C 282.447 236.394,283.531 235.539,284.668 234.496 C 285.806 233.453,286.979 232.420,287.276 232.200 C 287.573 231.980,288.540 231.170,289.424 230.400 C 290.309 229.630,291.645 228.550,292.394 228.000 C 293.908 226.888,296.304 224.751,299.195 221.933 C 300.249 220.907,301.671 219.777,302.355 219.423 C 304.496 218.316,303.812 216.838,300.941 216.367 C 297.996 215.883,21.700 215.986,20.000 216.472 M308.688 222.006 C 308.076 222.649,306.940 223.475,306.165 223.843 C 305.389 224.211,304.309 225.097,303.763 225.812 C 303.218 226.527,302.073 227.575,301.218 228.141 C 300.363 228.706,299.560 229.497,299.432 229.898 C 299.305 230.299,298.689 230.929,298.064 231.298 C 297.439 231.668,296.215 232.652,295.345 233.485 C 294.474 234.318,293.148 235.450,292.397 236.000 C 291.647 236.550,290.309 237.630,289.424 238.400 C 288.540 239.170,287.573 239.980,287.276 240.200 C 286.979 240.420,285.806 241.453,284.668 242.496 C 283.531 243.539,282.447 244.394,282.260 244.396 C 282.074 244.398,281.147 245.165,280.201 246.100 C 279.255 247.035,277.371 248.790,276.015 250.000 C 274.659 251.210,272.795 252.937,271.875 253.839 C 270.954 254.740,269.626 255.870,268.924 256.349 C 268.222 256.829,267.547 257.537,267.424 257.924 C 267.301 258.311,266.616 258.970,265.901 259.390 C 265.185 259.810,263.948 260.794,263.151 261.577 C 261.473 263.226,260.616 263.932,259.128 264.891 C 258.539 265.271,257.441 266.216,256.688 266.991 C 255.935 267.766,255.125 268.400,254.887 268.400 C 254.649 268.400,253.603 269.300,252.561 270.400 C 251.520 271.500,250.499 272.400,250.294 272.400 C 250.089 272.400,249.152 273.165,248.212 274.100 C 247.272 275.035,245.390 276.790,244.029 278.000 C 240.933 280.754,238.119 283.337,235.987 285.380 C 235.080 286.249,233.796 287.361,233.132 287.850 C 232.469 288.339,231.268 289.338,230.463 290.070 C 229.658 290.801,228.341 291.892,227.536 292.493 C 226.731 293.094,225.401 294.219,224.580 294.993 C 223.760 295.767,222.964 296.400,222.812 296.400 C 222.660 296.400,221.560 297.306,220.368 298.414 C 219.176 299.522,217.247 301.277,216.083 302.314 C 214.918 303.351,213.086 305.010,212.011 306.000 C 210.936 306.990,208.947 308.790,207.591 310.000 C 206.236 311.210,204.558 312.745,203.863 313.412 C 203.169 314.078,201.881 315.158,201.003 315.812 C 198.738 317.497,197.844 318.430,196.589 320.418 L 195.488 322.161 196.777 323.237 C 197.486 323.829,198.603 324.421,199.260 324.552 C 199.917 324.683,201.207 325.392,202.127 326.127 C 203.636 327.333,206.304 328.800,206.987 328.800 C 207.134 328.800,207.848 329.430,208.574 330.200 C 209.300 330.970,210.178 331.600,210.524 331.600 C 210.870 331.600,211.250 331.757,211.368 331.948 C 211.486 332.140,212.171 332.414,212.890 332.558 C 213.609 332.702,214.738 333.404,215.398 334.118 C 216.608 335.425,217.753 336.111,219.600 336.632 C 220.150 336.787,221.320 337.489,222.200 338.190 C 223.080 338.892,224.631 339.846,225.646 340.310 C 226.661 340.774,228.042 341.704,228.715 342.377 C 229.388 343.049,230.212 343.600,230.546 343.600 C 230.880 343.600,231.250 343.757,231.368 343.948 C 231.486 344.140,232.171 344.414,232.890 344.558 C 233.609 344.702,234.738 345.404,235.398 346.118 C 236.582 347.398,237.766 348.117,239.465 348.591 C 239.941 348.723,241.021 349.389,241.865 350.069 C 242.709 350.750,244.329 351.724,245.466 352.233 C 246.602 352.743,247.862 353.509,248.266 353.937 C 249.192 354.918,251.452 356.181,252.945 356.553 C 253.574 356.709,254.654 357.417,255.345 358.124 C 256.591 359.402,257.804 360.128,259.465 360.591 C 259.941 360.723,261.021 361.389,261.865 362.069 C 262.709 362.750,264.329 363.724,265.466 364.233 C 266.602 364.743,267.862 365.509,268.266 365.937 C 269.192 366.918,271.452 368.181,272.945 368.553 C 273.574 368.709,274.654 369.426,275.345 370.145 C 276.035 370.864,277.651 371.873,278.936 372.387 C 280.221 372.901,281.359 373.550,281.466 373.828 C 281.573 374.107,283.000 374.997,284.638 375.806 C 286.276 376.615,288.138 377.800,288.777 378.438 C 289.416 379.077,290.212 379.600,290.546 379.600 C 290.880 379.600,291.250 379.757,291.368 379.948 C 291.486 380.140,292.086 380.397,292.701 380.520 C 293.316 380.643,294.450 381.356,295.221 382.105 C 295.992 382.854,297.459 383.786,298.482 384.176 C 299.505 384.567,300.670 385.182,301.071 385.543 C 302.578 386.901,305.148 388.354,306.486 388.605 C 307.249 388.748,308.384 389.304,309.008 389.841 C 310.321 390.969,310.713 390.740,311.222 388.549 C 311.932 385.489,311.693 222.711,310.977 221.689 C 310.190 220.565,310.041 220.586,308.688 222.006 M9.928 221.893 C 9.663 222.529,10.212 387.946,10.480 388.214 C 11.873 389.607,17.189 388.434,19.600 386.202 C 20.370 385.489,21.990 384.456,23.200 383.906 C 24.410 383.356,25.926 382.445,26.569 381.881 C 27.212 381.317,28.562 380.546,29.569 380.167 C 30.576 379.789,31.952 378.921,32.627 378.239 C 33.302 377.557,34.870 376.658,36.115 376.239 C 37.369 375.817,38.815 374.986,39.362 374.372 C 39.904 373.764,41.484 372.719,42.874 372.051 C 44.263 371.383,45.850 370.417,46.400 369.904 C 46.950 369.392,48.260 368.647,49.311 368.249 C 50.362 367.851,51.852 366.931,52.622 366.205 C 53.392 365.479,54.962 364.581,56.111 364.210 C 57.260 363.839,58.830 362.950,59.600 362.233 C 60.370 361.516,61.990 360.457,63.200 359.878 C 64.410 359.300,65.850 358.409,66.400 357.900 C 66.950 357.390,68.300 356.638,69.400 356.229 C 70.500 355.820,71.965 354.881,72.655 354.142 C 73.345 353.403,74.474 352.685,75.163 352.547 C 75.853 352.409,76.514 352.140,76.632 351.948 C 76.750 351.757,77.167 351.600,77.557 351.600 C 77.948 351.600,78.741 351.068,79.320 350.419 C 79.899 349.769,81.504 348.691,82.886 348.024 C 84.269 347.357,85.850 346.397,86.400 345.892 C 86.950 345.386,88.300 344.632,89.400 344.215 C 90.500 343.799,92.060 342.770,92.868 341.929 C 93.676 341.088,94.689 340.400,95.120 340.400 C 96.404 340.400,98.538 339.341,99.508 338.222 C 100.008 337.646,101.544 336.636,102.923 335.978 C 104.301 335.319,105.873 334.374,106.415 333.877 C 106.957 333.380,108.254 332.649,109.298 332.254 C 110.342 331.859,111.775 330.922,112.482 330.172 C 113.348 329.254,114.494 328.603,115.984 328.182 C 117.474 327.761,118.595 327.125,119.408 326.238 C 120.072 325.512,121.422 324.553,122.408 324.105 C 125.866 322.533,125.871 322.521,124.254 319.579 C 123.273 317.796,122.401 316.766,121.425 316.241 C 120.649 315.823,119.732 315.050,119.386 314.522 C 119.040 313.994,118.250 313.254,117.632 312.878 C 117.013 312.501,115.604 311.385,114.500 310.397 C 113.397 309.409,111.989 308.240,111.371 307.800 C 110.754 307.360,109.534 306.325,108.659 305.500 C 107.785 304.675,106.939 304.000,106.778 304.000 C 106.618 304.000,105.587 303.145,104.487 302.100 C 103.386 301.055,101.837 299.600,101.043 298.866 C 100.249 298.133,99.600 297.380,99.600 297.193 C 99.600 297.007,99.195 296.727,98.700 296.571 C 97.767 296.278,95.200 293.804,95.200 293.198 C 95.200 293.009,94.885 292.753,94.500 292.629 C 93.529 292.318,91.820 290.779,91.249 289.700 C 90.986 289.205,90.522 288.800,90.218 288.800 C 89.913 288.800,88.884 288.028,87.932 287.086 C 86.979 286.143,85.570 284.937,84.800 284.407 C 84.030 283.876,82.704 282.758,81.853 281.921 C 81.002 281.084,80.155 280.400,79.971 280.400 C 79.787 280.400,78.606 279.410,77.347 278.200 C 76.087 276.990,74.908 276.000,74.727 276.000 C 74.545 276.000,73.518 275.145,72.444 274.100 C 71.371 273.055,69.842 271.600,69.046 270.866 C 68.251 270.133,67.600 269.380,67.600 269.193 C 67.600 269.007,67.244 268.741,66.810 268.603 C 65.896 268.313,63.200 265.797,63.200 265.234 C 63.200 265.025,62.858 264.745,62.440 264.613 C 62.022 264.480,60.775 263.523,59.670 262.486 C 56.749 259.744,53.225 256.695,52.144 255.974 C 51.037 255.235,47.931 252.566,45.076 249.900 C 43.958 248.855,42.881 248.000,42.685 248.000 C 42.488 248.000,41.470 247.145,40.423 246.100 C 39.375 245.055,37.973 243.728,37.308 243.152 C 36.642 242.575,35.941 241.854,35.749 241.548 C 35.557 241.242,34.628 240.492,33.684 239.880 C 32.740 239.268,31.786 238.369,31.564 237.881 C 31.342 237.394,30.450 236.586,29.582 236.087 C 28.715 235.587,27.707 234.724,27.343 234.169 C 26.979 233.614,26.202 232.911,25.617 232.609 C 25.031 232.306,23.843 231.367,22.976 230.522 C 22.109 229.676,20.720 228.480,19.888 227.863 C 19.057 227.246,18.046 226.387,17.642 225.953 C 16.217 224.424,14.232 223.200,13.176 223.200 C 12.589 223.200,11.646 222.837,11.082 222.393 C 10.518 221.949,9.998 221.724,9.928 221.893 M356.461 317.147 C 354.989 318.423,355.168 326.135,356.700 327.453 C 358.812 329.270,371.489 328.754,374.339 326.735 L 375.278 326.070 374.339 325.480 C 373.823 325.156,372.471 324.591,371.337 324.225 C 370.121 323.833,368.724 322.995,367.937 322.184 C 367.201 321.428,366.455 320.807,366.278 320.804 C 365.606 320.795,362.333 319.133,361.657 318.457 C 359.504 316.304,357.900 315.899,356.461 317.147 M188.200 327.600 C 187.540 328.008,186.737 328.355,186.416 328.371 C 186.095 328.387,185.079 329.165,184.159 330.100 C 183.238 331.035,181.377 332.790,180.024 334.000 C 178.671 335.210,176.582 337.145,175.382 338.300 C 174.182 339.455,173.037 340.400,172.838 340.400 C 172.639 340.400,171.710 341.039,170.775 341.821 C 167.982 344.155,166.988 344.400,160.325 344.400 C 153.847 344.400,153.360 344.278,151.327 342.139 C 150.627 341.403,149.876 340.800,149.658 340.800 C 149.440 340.800,148.327 339.945,147.184 338.900 C 146.041 337.855,144.812 336.832,144.453 336.626 C 144.094 336.420,143.589 336.060,143.331 335.826 C 143.074 335.592,141.917 334.590,140.760 333.600 C 139.604 332.610,137.935 331.112,137.053 330.271 C 133.205 326.605,127.697 326.638,124.097 330.348 C 123.243 331.228,122.016 332.076,121.372 332.231 C 119.761 332.618,118.115 333.485,117.139 334.461 C 116.689 334.911,115.394 335.692,114.261 336.196 C 113.127 336.700,111.825 337.550,111.367 338.083 C 110.908 338.616,109.390 339.480,107.992 340.003 C 106.404 340.597,104.905 341.516,103.997 342.451 C 103.197 343.275,102.016 344.076,101.372 344.231 C 99.761 344.618,98.115 345.485,97.139 346.461 C 96.689 346.911,95.366 347.701,94.199 348.218 C 93.031 348.734,91.816 349.528,91.498 349.982 C 91.180 350.436,89.768 351.275,88.360 351.847 C 86.952 352.418,85.046 353.580,84.124 354.429 C 83.202 355.278,81.942 356.094,81.324 356.243 C 79.688 356.635,78.010 357.550,77.045 358.575 C 76.580 359.069,75.336 359.799,74.280 360.198 C 73.225 360.597,72.023 361.353,71.610 361.878 C 71.198 362.402,69.721 363.294,68.330 363.859 C 66.938 364.424,65.051 365.575,64.136 366.418 C 63.221 367.260,61.744 368.146,60.854 368.385 C 59.540 368.739,57.582 369.973,56.400 371.194 C 55.946 371.662,54.371 372.400,53.824 372.400 C 53.501 372.400,52.765 372.871,52.189 373.447 C 51.030 374.607,47.874 376.400,46.992 376.400 C 46.681 376.400,45.523 377.202,44.419 378.183 C 43.315 379.164,41.724 380.151,40.885 380.377 C 40.045 380.603,38.645 381.376,37.773 382.094 C 35.852 383.678,34.611 384.400,33.809 384.400 C 33.478 384.400,32.710 384.916,32.103 385.547 C 31.024 386.669,27.914 388.400,26.979 388.400 C 25.684 388.400,24.442 390.042,24.321 391.910 C 24.210 393.644,24.104 393.816,23.000 394.051 C 22.340 394.191,83.568 394.327,159.062 394.353 L 296.325 394.400 296.611 392.321 C 296.909 390.154,295.818 388.400,294.172 388.400 C 293.432 388.400,292.225 387.725,290.200 386.177 C 289.320 385.505,287.778 384.648,286.774 384.272 C 285.769 383.897,284.339 382.962,283.595 382.195 C 282.852 381.428,282.089 380.800,281.900 380.800 C 281.022 380.800,277.649 378.963,276.299 377.749 C 275.473 377.007,274.526 376.400,274.193 376.400 C 273.618 376.400,272.026 375.650,271.600 375.179 C 270.839 374.338,268.343 372.816,267.034 372.397 C 266.172 372.120,264.726 371.211,263.819 370.375 C 262.913 369.539,261.197 368.472,260.006 368.002 C 258.815 367.533,257.156 366.530,256.319 365.774 C 255.482 365.018,254.526 364.400,254.193 364.400 C 253.298 364.400,251.391 363.189,249.447 361.386 C 249.201 361.158,248.217 360.740,247.261 360.458 C 246.304 360.175,244.768 359.250,243.846 358.400 C 242.925 357.551,241.197 356.472,240.006 356.002 C 238.815 355.533,237.156 354.530,236.319 353.774 C 235.482 353.018,234.500 352.400,234.137 352.400 C 233.524 352.400,231.528 351.075,229.919 349.600 C 229.545 349.257,228.389 348.749,227.350 348.471 C 226.131 348.145,224.992 347.467,224.132 346.555 C 223.371 345.748,221.731 344.714,220.301 344.138 C 218.925 343.584,217.260 342.627,216.600 342.012 C 215.940 341.396,214.590 340.529,213.600 340.084 C 212.610 339.640,211.211 338.756,210.492 338.119 C 209.772 337.482,208.341 336.736,207.312 336.461 C 206.073 336.130,204.961 335.452,204.020 334.456 C 203.145 333.529,201.693 332.612,200.237 332.065 C 198.937 331.578,197.181 330.554,196.336 329.789 C 195.490 329.025,194.483 328.399,194.099 328.399 C 193.714 328.398,192.811 328.038,192.090 327.599 C 190.504 326.631,189.767 326.632,188.200 327.600 M317.655 349.705 C 317.175 350.185,317.003 357.421,317.444 358.569 C 318.309 360.826,332.958 361.724,334.772 359.632 C 336.169 358.021,335.796 357.289,333.140 356.434 C 332.338 356.176,330.718 355.279,329.540 354.441 C 328.363 353.603,326.680 352.592,325.800 352.194 C 324.920 351.796,323.750 351.072,323.200 350.587 C 322.035 349.557,318.383 348.977,317.655 349.705 " stroke="none" fill="#ffffff" fill-rule="evenodd"></path><path id="path1" d="M81.400 144.483 C 79.566 145.549,79.600 145.257,79.600 159.939 C 79.600 167.636,79.485 174.233,79.345 174.598 C 78.790 176.044,77.330 176.186,60.741 176.395 C 39.578 176.662,41.600 174.840,41.600 193.643 L 41.600 206.387 40.433 207.694 L 39.267 209.000 23.533 209.220 C 6.471 209.458,6.108 209.506,4.919 211.683 C 4.168 213.059,3.529 379.475,4.218 394.300 L 4.483 400.000 160.642 400.000 C 246.529 400.000,316.827 399.955,316.861 399.900 C 316.894 399.845,317.029 392.962,317.161 384.605 L 317.400 369.410 318.600 368.805 C 319.587 368.308,322.611 368.161,335.600 367.983 C 357.462 367.683,355.317 369.533,355.516 350.800 L 355.658 337.400 356.634 336.121 L 357.609 334.842 373.733 334.721 C 391.435 334.588,390.830 334.676,391.435 332.148 C 391.587 331.517,391.869 330.797,392.063 330.549 C 392.266 330.290,392.370 290.860,392.308 238.060 L 392.200 146.022 391.289 145.111 L 390.378 144.200 236.289 144.109 C 119.774 144.040,82.005 144.131,81.400 144.483 M375.511 150.623 C 377.277 151.859,376.026 156.396,373.919 156.400 C 373.764 156.400,372.852 157.165,371.892 158.100 C 370.932 159.035,369.023 160.790,367.650 162.000 C 366.276 163.210,364.388 164.920,363.454 165.800 C 358.221 170.731,353.716 174.496,351.860 175.489 L 350.200 176.377 236.200 176.383 C 145.772 176.387,121.911 176.284,120.800 175.886 C 118.895 175.203,118.331 174.841,116.453 173.100 C 115.563 172.275,114.699 171.600,114.534 171.600 C 114.368 171.600,113.475 170.835,112.550 169.900 C 111.625 168.965,109.842 167.300,108.589 166.200 C 107.335 165.100,105.549 163.463,104.620 162.561 C 103.691 161.660,102.386 160.601,101.720 160.207 C 101.053 159.814,100.205 158.977,99.833 158.349 C 99.462 157.720,98.763 157.002,98.279 156.754 C 96.430 155.804,95.200 154.286,95.200 152.954 C 95.200 152.241,94.930 151.387,94.600 151.057 C 94.270 150.727,94.000 150.354,94.000 150.229 C 94.000 149.603,374.617 149.996,375.511 150.623 M88.492 157.072 C 89.431 157.441,90.740 158.297,91.400 158.974 C 92.060 159.651,93.129 160.545,93.775 160.960 C 94.421 161.376,95.387 162.237,95.922 162.873 C 96.458 163.508,97.403 164.291,98.024 164.612 C 98.645 164.933,99.462 165.720,99.840 166.360 C 100.218 167.001,101.200 167.902,102.022 168.364 C 102.844 168.826,103.614 169.459,103.734 169.771 C 103.853 170.084,104.952 171.078,106.176 171.982 C 108.699 173.846,108.800 174.138,107.379 175.454 C 105.446 177.246,86.771 176.718,85.313 174.831 C 84.648 173.971,84.606 158.863,85.264 157.419 C 85.811 156.219,86.214 156.176,88.492 157.072 M386.529 157.300 C 387.262 158.078,387.206 321.983,386.472 322.757 C 384.935 324.376,380.631 323.927,379.623 322.043 C 379.402 321.631,378.002 320.809,376.511 320.216 C 375.020 319.623,373.260 318.632,372.600 318.013 C 371.940 317.394,370.950 316.758,370.400 316.598 C 369.431 316.316,367.371 314.932,365.866 313.551 C 365.463 313.181,364.313 312.672,363.312 312.420 C 362.104 312.115,360.907 311.395,359.758 310.280 C 358.805 309.356,357.483 308.150,356.820 307.600 L 355.614 306.600 355.607 243.976 L 355.600 181.352 358.450 178.576 C 360.017 177.049,362.222 174.954,363.350 173.919 C 364.477 172.885,366.467 171.040,367.771 169.819 C 369.075 168.599,370.266 167.600,370.418 167.600 C 370.570 167.600,371.502 166.835,372.488 165.900 C 376.898 161.719,378.389 160.400,378.704 160.400 C 378.890 160.400,379.753 159.696,380.622 158.836 C 382.455 157.020,385.515 156.225,386.529 157.300 M339.230 184.834 C 340.322 186.056,339.884 187.600,338.446 187.600 C 338.252 187.600,337.217 188.468,336.146 189.529 C 335.076 190.591,333.626 191.855,332.924 192.340 C 332.222 192.824,331.547 193.537,331.424 193.924 C 331.301 194.311,330.706 194.923,330.101 195.284 C 329.495 195.646,328.257 196.630,327.349 197.471 C 324.921 199.719,321.259 202.848,319.628 204.068 C 318.843 204.656,317.750 205.564,317.200 206.086 C 315.398 207.797,314.828 208.093,312.299 208.633 C 309.904 209.143,86.502 209.556,85.682 209.051 C 85.527 208.956,84.542 208.749,83.493 208.592 C 81.912 208.356,81.322 208.007,80.043 206.554 C 79.194 205.589,78.317 204.800,78.094 204.800 C 77.871 204.800,76.703 203.855,75.500 202.700 C 74.296 201.545,72.792 200.199,72.156 199.709 C 71.520 199.220,70.425 198.320,69.723 197.709 C 69.020 197.099,68.030 196.286,67.523 195.902 C 65.946 194.708,62.767 191.893,60.518 189.700 C 59.334 188.545,58.180 187.600,57.954 187.600 C 56.463 187.600,56.064 185.809,57.270 184.526 L 58.139 183.600 198.134 183.600 L 338.129 183.600 339.230 184.834 M52.340 190.300 C 53.432 191.345,55.335 193.100,56.570 194.200 C 57.804 195.300,59.679 197.010,60.735 198.000 C 63.037 200.157,66.243 202.938,67.540 203.902 C 68.056 204.286,68.943 204.978,69.510 205.440 L 70.540 206.279 69.668 207.505 C 68.569 209.048,68.003 209.133,57.820 209.283 L 49.841 209.400 48.820 207.901 L 47.800 206.402 48.000 198.242 C 48.179 190.945,48.281 189.993,48.962 189.241 C 49.993 188.104,50.072 188.129,52.340 190.300 M347.748 190.013 C 348.673 190.872,348.774 199.238,348.753 274.089 C 348.732 353.589,348.724 354.389,347.937 355.389 C 346.696 356.967,342.790 356.224,340.421 353.960 C 339.753 353.322,339.098 352.800,338.964 352.800 C 338.605 352.800,335.833 351.481,335.600 351.200 C 334.967 350.434,332.348 348.839,330.774 348.261 C 329.769 347.892,328.352 346.976,327.625 346.226 C 326.888 345.465,325.275 344.477,323.982 343.993 C 322.706 343.516,321.393 342.827,321.066 342.463 C 320.738 342.098,319.734 341.028,318.835 340.085 L 317.200 338.369 317.247 277.285 C 317.273 243.688,317.408 215.721,317.547 215.135 C 317.783 214.142,319.680 212.265,326.779 206.000 C 328.150 204.790,329.707 203.532,330.239 203.206 C 330.771 202.879,331.305 202.298,331.427 201.916 C 331.548 201.534,332.222 200.824,332.924 200.340 C 333.626 199.855,335.076 198.591,336.146 197.529 C 337.217 196.468,338.297 195.599,338.546 195.599 C 338.796 195.598,339.360 195.052,339.800 194.386 C 340.240 193.719,341.338 192.738,342.241 192.205 C 343.143 191.672,344.313 190.782,344.841 190.228 C 345.770 189.252,346.843 189.173,347.748 190.013 M300.941 216.367 C 303.812 216.838,304.496 218.316,302.355 219.423 C 301.671 219.777,300.249 220.907,299.195 221.933 C 296.304 224.751,293.908 226.888,292.394 228.000 C 291.645 228.550,290.309 229.630,289.424 230.400 C 288.540 231.170,287.573 231.980,287.276 232.200 C 286.979 232.420,285.806 233.453,284.668 234.496 C 283.531 235.539,282.447 236.394,282.260 236.396 C 282.074 236.398,281.147 237.165,280.201 238.100 C 279.255 239.035,277.364 240.790,275.998 242.000 C 274.632 243.210,272.769 244.936,271.858 245.835 C 270.946 246.734,269.626 247.863,268.924 248.345 C 268.222 248.827,267.548 249.531,267.427 249.910 C 267.305 250.290,266.392 251.113,265.397 251.740 C 264.403 252.367,263.346 253.227,263.049 253.652 C 262.752 254.076,261.684 255.009,260.677 255.725 C 259.669 256.441,258.036 257.786,257.046 258.714 C 256.057 259.641,255.087 260.400,254.891 260.400 C 254.696 260.400,253.560 261.306,252.368 262.414 C 251.176 263.522,249.247 265.277,248.083 266.314 C 246.918 267.351,245.086 269.010,244.011 270.000 C 242.936 270.990,240.948 272.790,239.595 274.000 C 238.241 275.210,236.457 276.889,235.630 277.730 C 234.803 278.572,233.661 279.566,233.092 279.939 C 232.523 280.313,231.370 281.244,230.529 282.009 C 229.688 282.774,228.341 283.892,227.536 284.493 C 226.731 285.094,225.401 286.219,224.580 286.993 C 223.760 287.767,222.964 288.400,222.812 288.400 C 222.660 288.400,221.560 289.306,220.368 290.414 C 219.176 291.522,217.247 293.277,216.083 294.314 C 214.918 295.351,213.086 297.010,212.011 298.000 C 210.936 298.990,208.945 300.790,207.587 302.000 C 206.229 303.210,204.461 304.841,203.659 305.625 C 202.856 306.408,201.570 307.486,200.800 308.020 C 200.030 308.554,198.609 309.758,197.642 310.695 C 196.675 311.633,195.752 312.400,195.590 312.400 C 195.429 312.400,194.353 313.300,193.200 314.400 C 192.047 315.500,190.939 316.400,190.739 316.400 C 190.539 316.400,189.436 317.303,188.288 318.407 C 186.232 320.384,184.850 321.652,180.011 326.000 C 178.665 327.210,176.599 329.127,175.421 330.261 C 174.242 331.394,172.901 332.441,172.439 332.588 C 171.978 332.734,171.600 333.015,171.600 333.211 C 171.600 333.822,169.951 335.142,167.831 336.231 C 166.714 336.804,165.620 337.484,165.400 337.742 C 163.360 340.133,158.757 340.369,156.473 338.201 C 155.663 337.431,154.640 336.688,154.200 336.550 C 153.760 336.412,152.469 335.467,151.331 334.449 C 147.601 331.115,145.121 329.020,143.447 327.787 C 142.541 327.120,141.090 325.905,140.222 325.087 C 139.354 324.269,138.454 323.595,138.222 323.589 C 137.990 323.583,137.350 322.957,136.800 322.197 C 136.250 321.438,135.494 320.714,135.119 320.588 C 134.333 320.323,131.600 317.682,131.600 317.187 C 131.600 317.004,131.244 316.741,130.810 316.603 C 129.896 316.313,127.200 313.797,127.200 313.234 C 127.200 313.025,126.861 312.746,126.447 312.615 C 125.560 312.333,123.200 310.158,123.200 309.622 C 123.200 309.418,122.478 308.846,121.596 308.350 C 120.714 307.854,119.720 307.032,119.386 306.523 C 119.053 306.014,118.104 305.170,117.277 304.649 C 116.451 304.127,115.023 303.003,114.104 302.150 C 113.186 301.298,111.942 300.240,111.342 299.800 C 110.741 299.360,109.534 298.325,108.659 297.500 C 107.785 296.675,106.939 296.000,106.778 296.000 C 106.618 296.000,105.587 295.145,104.487 294.100 C 103.386 293.055,101.837 291.600,101.043 290.866 C 100.249 290.133,99.600 289.380,99.600 289.193 C 99.600 289.007,99.244 288.741,98.810 288.603 C 97.896 288.313,95.200 285.797,95.200 285.234 C 95.200 285.025,94.861 284.746,94.447 284.615 C 93.701 284.378,91.432 282.402,91.147 281.742 C 91.066 281.554,90.215 280.866,89.254 280.214 C 88.294 279.562,87.418 278.791,87.306 278.500 C 87.195 278.210,86.270 277.406,85.252 276.713 C 84.233 276.020,82.704 274.767,81.853 273.927 C 81.002 273.087,80.155 272.400,79.971 272.400 C 79.787 272.400,78.606 271.410,77.347 270.200 C 76.087 268.990,74.908 268.000,74.727 268.000 C 74.545 268.000,73.518 267.145,72.444 266.100 C 71.371 265.055,69.842 263.600,69.046 262.866 C 68.251 262.133,67.600 261.380,67.600 261.193 C 67.600 261.007,67.244 260.741,66.810 260.603 C 65.896 260.313,63.200 257.797,63.200 257.234 C 63.200 257.025,62.858 256.745,62.440 256.613 C 62.022 256.480,60.775 255.523,59.670 254.486 C 56.626 251.628,53.322 248.801,51.466 247.464 C 50.550 246.804,49.567 245.938,49.282 245.538 C 48.996 245.139,47.992 244.360,47.050 243.808 C 46.108 243.256,45.113 242.384,44.837 241.870 C 44.562 241.356,43.766 240.609,43.069 240.210 C 42.371 239.812,41.061 238.746,40.159 237.843 C 39.256 236.939,37.861 235.600,37.059 234.866 C 36.256 234.133,35.600 233.380,35.600 233.193 C 35.600 233.007,35.244 232.741,34.810 232.603 C 33.896 232.313,31.200 229.797,31.200 229.234 C 31.200 229.025,30.849 228.742,30.419 228.606 C 29.990 228.470,28.729 227.468,27.617 226.379 C 26.506 225.291,25.450 224.400,25.272 224.400 C 25.093 224.400,24.039 223.545,22.930 222.500 C 21.820 221.455,20.172 220.150,19.267 219.600 C 16.922 218.175,17.129 217.292,20.000 216.472 C 21.700 215.986,297.996 215.883,300.941 216.367 M310.977 221.689 C 311.693 222.711,311.932 385.489,311.222 388.549 C 310.713 390.740,310.321 390.969,309.008 389.841 C 308.384 389.304,307.249 388.748,306.486 388.605 C 305.148 388.354,302.578 386.901,301.071 385.543 C 300.670 385.182,299.505 384.567,298.482 384.176 C 297.459 383.786,295.992 382.854,295.221 382.105 C 294.450 381.356,293.316 380.643,292.701 380.520 C 292.086 380.397,291.486 380.140,291.368 379.948 C 291.250 379.757,290.880 379.600,290.546 379.600 C 290.212 379.600,289.416 379.077,288.777 378.438 C 288.138 377.800,286.276 376.615,284.638 375.806 C 283.000 374.997,281.573 374.107,281.466 373.828 C 281.359 373.550,280.221 372.901,278.936 372.387 C 277.651 371.873,276.035 370.864,275.345 370.145 C 274.654 369.426,273.574 368.709,272.945 368.553 C 271.452 368.181,269.192 366.918,268.266 365.937 C 267.862 365.509,266.602 364.743,265.466 364.233 C 264.329 363.724,262.709 362.750,261.865 362.069 C 261.021 361.389,259.941 360.723,259.465 360.591 C 257.804 360.128,256.591 359.402,255.345 358.124 C 254.654 357.417,253.574 356.709,252.945 356.553 C 251.452 356.181,249.192 354.918,248.266 353.937 C 247.862 353.509,246.602 352.743,245.466 352.233 C 244.329 351.724,242.709 350.750,241.865 350.069 C 241.021 349.389,239.941 348.723,239.465 348.591 C 237.766 348.117,236.582 347.398,235.398 346.118 C 234.738 345.404,233.609 344.702,232.890 344.558 C 232.171 344.414,231.486 344.140,231.368 343.948 C 231.250 343.757,230.880 343.600,230.546 343.600 C 230.212 343.600,229.388 343.049,228.715 342.377 C 228.042 341.704,226.661 340.774,225.646 340.310 C 224.631 339.846,223.080 338.892,222.200 338.190 C 221.320 337.489,220.150 336.787,219.600 336.632 C 217.753 336.111,216.608 335.425,215.398 334.118 C 214.738 333.404,213.609 332.702,212.890 332.558 C 212.171 332.414,211.486 332.140,211.368 331.948 C 211.250 331.757,210.870 331.600,210.524 331.600 C 210.178 331.600,209.300 330.970,208.574 330.200 C 207.848 329.430,207.134 328.800,206.987 328.800 C 206.304 328.800,203.636 327.333,202.127 326.127 C 201.207 325.392,199.917 324.683,199.260 324.552 C 198.603 324.421,197.486 323.829,196.777 323.237 L 195.488 322.161 196.589 320.418 C 197.844 318.430,198.738 317.497,201.003 315.812 C 201.881 315.158,203.169 314.078,203.863 313.412 C 204.558 312.745,206.236 311.210,207.591 310.000 C 208.947 308.790,210.936 306.990,212.011 306.000 C 213.086 305.010,214.918 303.351,216.083 302.314 C 217.247 301.277,219.176 299.522,220.368 298.414 C 221.560 297.306,222.660 296.400,222.812 296.400 C 222.964 296.400,223.760 295.767,224.580 294.993 C 225.401 294.219,226.731 293.094,227.536 292.493 C 228.341 291.892,229.658 290.801,230.463 290.070 C 231.268 289.338,232.469 288.339,233.132 287.850 C 233.796 287.361,235.080 286.249,235.987 285.380 C 238.119 283.337,240.933 280.754,244.029 278.000 C 245.390 276.790,247.272 275.035,248.212 274.100 C 249.152 273.165,250.089 272.400,250.294 272.400 C 250.499 272.400,251.520 271.500,252.561 270.400 C 253.603 269.300,254.649 268.400,254.887 268.400 C 255.125 268.400,255.935 267.766,256.688 266.991 C 257.441 266.216,258.539 265.271,259.128 264.891 C 260.616 263.932,261.473 263.226,263.151 261.577 C 263.948 260.794,265.185 259.810,265.901 259.390 C 266.616 258.970,267.301 258.311,267.424 257.924 C 267.547 257.537,268.222 256.829,268.924 256.349 C 269.626 255.870,270.954 254.740,271.875 253.839 C 272.795 252.937,274.659 251.210,276.015 250.000 C 277.371 248.790,279.255 247.035,280.201 246.100 C 281.147 245.165,282.074 244.398,282.260 244.396 C 282.447 244.394,283.531 243.539,284.668 242.496 C 285.806 241.453,286.979 240.420,287.276 240.200 C 287.573 239.980,288.540 239.170,289.424 238.400 C 290.309 237.630,291.647 236.550,292.397 236.000 C 293.148 235.450,294.474 234.318,295.345 233.485 C 296.215 232.652,297.439 231.668,298.064 231.298 C 298.689 230.929,299.305 230.299,299.432 229.898 C 299.560 229.497,300.363 228.706,301.218 228.141 C 302.073 227.575,303.218 226.527,303.763 225.812 C 304.309 225.097,305.389 224.211,306.165 223.843 C 306.940 223.475,308.076 222.649,308.688 222.006 C 310.041 220.586,310.190 220.565,310.977 221.689 M13.176 223.200 C 14.232 223.200,16.217 224.424,17.642 225.953 C 18.046 226.387,19.057 227.246,19.888 227.863 C 20.720 228.480,22.109 229.676,22.976 230.522 C 23.843 231.367,25.031 232.306,25.617 232.609 C 26.202 232.911,26.979 233.614,27.343 234.169 C 27.707 234.724,28.715 235.587,29.582 236.087 C 30.450 236.586,31.342 237.394,31.564 237.881 C 31.786 238.369,32.740 239.268,33.684 239.880 C 34.628 240.492,35.557 241.242,35.749 241.548 C 35.941 241.854,36.642 242.575,37.308 243.152 C 37.973 243.728,39.375 245.055,40.423 246.100 C 41.470 247.145,42.488 248.000,42.685 248.000 C 42.881 248.000,43.958 248.855,45.076 249.900 C 47.931 252.566,51.037 255.235,52.144 255.974 C 53.225 256.695,56.749 259.744,59.670 262.486 C 60.775 263.523,62.022 264.480,62.440 264.613 C 62.858 264.745,63.200 265.025,63.200 265.234 C 63.200 265.797,65.896 268.313,66.810 268.603 C 67.244 268.741,67.600 269.007,67.600 269.193 C 67.600 269.380,68.251 270.133,69.046 270.866 C 69.842 271.600,71.371 273.055,72.444 274.100 C 73.518 275.145,74.545 276.000,74.727 276.000 C 74.908 276.000,76.087 276.990,77.347 278.200 C 78.606 279.410,79.787 280.400,79.971 280.400 C 80.155 280.400,81.002 281.084,81.853 281.921 C 82.704 282.758,84.030 283.876,84.800 284.407 C 85.570 284.937,86.979 286.143,87.932 287.086 C 88.884 288.028,89.913 288.800,90.218 288.800 C 90.522 288.800,90.986 289.205,91.249 289.700 C 91.820 290.779,93.529 292.318,94.500 292.629 C 94.885 292.753,95.200 293.009,95.200 293.198 C 95.200 293.804,97.767 296.278,98.700 296.571 C 99.195 296.727,99.600 297.007,99.600 297.193 C 99.600 297.380,100.249 298.133,101.043 298.866 C 101.837 299.600,103.386 301.055,104.487 302.100 C 105.587 303.145,106.618 304.000,106.778 304.000 C 106.939 304.000,107.785 304.675,108.659 305.500 C 109.534 306.325,110.754 307.360,111.371 307.800 C 111.989 308.240,113.397 309.409,114.500 310.397 C 115.604 311.385,117.013 312.501,117.632 312.878 C 118.250 313.254,119.040 313.994,119.386 314.522 C 119.732 315.050,120.649 315.823,121.425 316.241 C 122.401 316.766,123.273 317.796,124.254 319.579 C 125.871 322.521,125.866 322.533,122.408 324.105 C 121.422 324.553,120.072 325.512,119.408 326.238 C 118.595 327.125,117.474 327.761,115.984 328.182 C 114.494 328.603,113.348 329.254,112.482 330.172 C 111.775 330.922,110.342 331.859,109.298 332.254 C 108.254 332.649,106.957 333.380,106.415 333.877 C 105.873 334.374,104.301 335.319,102.923 335.978 C 101.544 336.636,100.008 337.646,99.508 338.222 C 98.538 339.341,96.404 340.400,95.120 340.400 C 94.689 340.400,93.676 341.088,92.868 341.929 C 92.060 342.770,90.500 343.799,89.400 344.215 C 88.300 344.632,86.950 345.386,86.400 345.892 C 85.850 346.397,84.269 347.357,82.886 348.024 C 81.504 348.691,79.899 349.769,79.320 350.419 C 78.741 351.068,77.948 351.600,77.557 351.600 C 77.167 351.600,76.750 351.757,76.632 351.948 C 76.514 352.140,75.853 352.409,75.163 352.547 C 74.474 352.685,73.345 353.403,72.655 354.142 C 71.965 354.881,70.500 355.820,69.400 356.229 C 68.300 356.638,66.950 357.390,66.400 357.900 C 65.850 358.409,64.410 359.300,63.200 359.878 C 61.990 360.457,60.370 361.516,59.600 362.233 C 58.830 362.950,57.260 363.839,56.111 364.210 C 54.962 364.581,53.392 365.479,52.622 366.205 C 51.852 366.931,50.362 367.851,49.311 368.249 C 48.260 368.647,46.950 369.392,46.400 369.904 C 45.850 370.417,44.263 371.383,42.874 372.051 C 41.484 372.719,39.904 373.764,39.362 374.372 C 38.815 374.986,37.369 375.817,36.115 376.239 C 34.870 376.658,33.302 377.557,32.627 378.239 C 31.952 378.921,30.576 379.789,29.569 380.167 C 28.562 380.546,27.212 381.317,26.569 381.881 C 25.926 382.445,24.410 383.356,23.200 383.906 C 21.990 384.456,20.370 385.489,19.600 386.202 C 17.189 388.434,11.873 389.607,10.480 388.214 C 10.212 387.946,9.663 222.529,9.928 221.893 C 9.998 221.724,10.518 221.949,11.082 222.393 C 11.646 222.837,12.589 223.200,13.176 223.200 M359.987 317.076 C 360.517 317.447,361.269 318.069,361.657 318.457 C 362.333 319.133,365.606 320.795,366.278 320.804 C 366.455 320.807,367.201 321.428,367.937 322.184 C 368.724 322.995,370.121 323.833,371.337 324.225 C 372.471 324.591,373.823 325.156,374.339 325.480 L 375.278 326.070 374.339 326.735 C 372.407 328.103,370.666 328.388,364.200 328.393 C 355.634 328.401,355.600 328.377,355.600 322.200 C 355.600 316.705,357.046 315.016,359.987 317.076 M192.090 327.599 C 192.811 328.038,193.714 328.398,194.099 328.399 C 194.483 328.399,195.490 329.025,196.336 329.789 C 197.181 330.554,198.937 331.578,200.237 332.065 C 201.693 332.612,203.145 333.529,204.020 334.456 C 204.961 335.452,206.073 336.130,207.312 336.461 C 208.341 336.736,209.772 337.482,210.492 338.119 C 211.211 338.756,212.610 339.640,213.600 340.084 C 214.590 340.529,215.940 341.396,216.600 342.012 C 217.260 342.627,218.925 343.584,220.301 344.138 C 221.731 344.714,223.371 345.748,224.132 346.555 C 224.992 347.467,226.131 348.145,227.350 348.471 C 228.389 348.749,229.545 349.257,229.919 349.600 C 231.528 351.075,233.524 352.400,234.137 352.400 C 234.500 352.400,235.482 353.018,236.319 353.774 C 237.156 354.530,238.815 355.533,240.006 356.002 C 241.197 356.472,242.925 357.551,243.846 358.400 C 244.768 359.250,246.304 360.175,247.261 360.458 C 248.217 360.740,249.201 361.158,249.447 361.386 C 251.391 363.189,253.298 364.400,254.193 364.400 C 254.526 364.400,255.482 365.018,256.319 365.774 C 257.156 366.530,258.815 367.533,260.006 368.002 C 261.197 368.472,262.913 369.539,263.819 370.375 C 264.726 371.211,266.172 372.120,267.034 372.397 C 268.343 372.816,270.839 374.338,271.600 375.179 C 272.026 375.650,273.618 376.400,274.193 376.400 C 274.526 376.400,275.473 377.007,276.299 377.749 C 277.649 378.963,281.022 380.800,281.900 380.800 C 282.089 380.800,282.852 381.428,283.595 382.195 C 284.339 382.962,285.769 383.897,286.774 384.272 C 287.778 384.648,289.320 385.505,290.200 386.177 C 292.225 387.725,293.432 388.400,294.172 388.400 C 295.818 388.400,296.909 390.154,296.611 392.321 L 296.325 394.400 159.062 394.353 C 83.568 394.327,22.340 394.191,23.000 394.051 C 24.104 393.816,24.210 393.644,24.321 391.910 C 24.442 390.042,25.684 388.400,26.979 388.400 C 27.914 388.400,31.024 386.669,32.103 385.547 C 32.710 384.916,33.478 384.400,33.809 384.400 C 34.611 384.400,35.852 383.678,37.773 382.094 C 38.645 381.376,40.045 380.603,40.885 380.377 C 41.724 380.151,43.315 379.164,44.419 378.183 C 45.523 377.202,46.681 376.400,46.992 376.400 C 47.874 376.400,51.030 374.607,52.189 373.447 C 52.765 372.871,53.501 372.400,53.824 372.400 C 54.371 372.400,55.946 371.662,56.400 371.194 C 57.582 369.973,59.540 368.739,60.854 368.385 C 61.744 368.146,63.221 367.260,64.136 366.418 C 65.051 365.575,66.938 364.424,68.330 363.859 C 69.721 363.294,71.198 362.402,71.610 361.878 C 72.023 361.353,73.225 360.597,74.280 360.198 C 75.336 359.799,76.580 359.069,77.045 358.575 C 78.010 357.550,79.688 356.635,81.324 356.243 C 81.942 356.094,83.202 355.278,84.124 354.429 C 85.046 353.580,86.952 352.418,88.360 351.847 C 89.768 351.275,91.180 350.436,91.498 349.982 C 91.816 349.528,93.031 348.734,94.199 348.218 C 95.366 347.701,96.689 346.911,97.139 346.461 C 98.115 345.485,99.761 344.618,101.372 344.231 C 102.016 344.076,103.197 343.275,103.997 342.451 C 104.905 341.516,106.404 340.597,107.992 340.003 C 109.390 339.480,110.908 338.616,111.367 338.083 C 111.825 337.550,113.127 336.700,114.261 336.196 C 115.394 335.692,116.689 334.911,117.139 334.461 C 118.115 333.485,119.761 332.618,121.372 332.231 C 122.016 332.076,123.243 331.228,124.097 330.348 C 127.697 326.638,133.205 326.605,137.053 330.271 C 137.935 331.112,139.604 332.610,140.760 333.600 C 141.917 334.590,143.074 335.592,143.331 335.826 C 143.589 336.060,144.094 336.420,144.453 336.626 C 144.812 336.832,146.041 337.855,147.184 338.900 C 148.327 339.945,149.440 340.800,149.658 340.800 C 149.876 340.800,150.627 341.403,151.327 342.139 C 153.360 344.278,153.847 344.400,160.325 344.400 C 166.988 344.400,167.982 344.155,170.775 341.821 C 171.710 341.039,172.639 340.400,172.838 340.400 C 173.037 340.400,174.182 339.455,175.382 338.300 C 176.582 337.145,178.671 335.210,180.024 334.000 C 181.377 332.790,183.238 331.035,184.159 330.100 C 185.079 329.165,186.095 328.387,186.416 328.371 C 186.737 328.355,187.540 328.008,188.200 327.600 C 189.767 326.632,190.504 326.631,192.090 327.599 M323.200 350.587 C 323.750 351.072,324.920 351.796,325.800 352.194 C 326.680 352.592,328.363 353.603,329.540 354.441 C 330.718 355.279,332.338 356.176,333.140 356.434 C 335.796 357.289,336.169 358.021,334.772 359.632 C 332.958 361.724,318.309 360.826,317.444 358.569 C 317.003 357.421,317.175 350.185,317.655 349.705 C 318.383 348.977,322.035 349.557,323.200 350.587 " stroke="none" fill="#ff5c43" fill-rule="evenodd"></path></g></svg>
