<svg id="svg" version="1.1" width="400" height="400" xmlns="http://www.w3.org/2000/svg" xmlns:xlink="http://www.w3.org/1999/xlink" style="display: block;"><g id="svgg"><path id="path0" d="M0.000 200.000 L 0.000 400.000 200.000 400.000 L 400.000 400.000 400.000 200.000 L 400.000 0.000 200.000 0.000 L 0.000 0.000 0.000 200.000 M141.600 83.400 L 141.600 141.600 83.400 141.600 L 25.200 141.600 25.200 83.667 C 25.200 51.803,25.320 25.613,25.467 25.467 C 25.613 25.320,51.803 25.200,83.667 25.200 L 141.600 25.200 141.600 83.400 M208.305 41.764 C 208.377 53.033,208.547 58.296,208.854 58.664 C 209.197 59.078,211.062 59.200,217.049 59.200 L 224.800 59.200 224.800 67.005 L 224.800 74.809 208.900 74.705 L 193.000 74.600 192.896 50.400 C 192.839 37.090,192.880 25.971,192.987 25.691 C 193.137 25.299,194.902 25.207,200.691 25.291 L 208.200 25.400 208.305 41.764 M241.600 41.400 L 241.600 57.600 234.000 57.600 L 226.400 57.600 226.400 41.400 L 226.400 25.200 234.000 25.200 L 241.600 25.200 241.600 41.400 M375.600 83.400 L 375.600 141.600 317.400 141.600 L 259.200 141.600 259.200 83.667 C 259.200 51.803,259.320 25.613,259.467 25.467 C 259.613 25.320,285.803 25.200,317.667 25.200 L 375.600 25.200 375.600 83.400 M41.600 41.600 C 40.399 42.801,40.332 124.253,41.531 125.338 C 42.481 126.197,124.665 126.375,125.520 125.520 C 126.436 124.604,126.189 42.295,125.269 41.462 C 124.012 40.325,42.741 40.459,41.600 41.600 M275.423 41.689 C 274.658 42.781,274.456 123.809,275.214 125.226 C 275.727 126.185,358.567 126.473,359.520 125.520 C 360.473 124.567,360.185 41.727,359.226 41.214 C 358.707 40.936,344.887 40.800,317.249 40.800 L 276.045 40.800 275.423 41.689 M174.800 58.600 L 174.800 74.800 167.000 74.800 L 159.200 74.800 159.200 58.600 L 159.200 42.400 167.000 42.400 L 174.800 42.400 174.800 58.600 M107.800 83.600 L 107.800 107.800 83.600 107.800 L 59.400 107.800 59.297 83.497 L 59.194 59.194 83.497 59.297 L 107.800 59.400 107.800 83.600 M341.800 83.600 L 341.800 107.800 317.600 107.800 L 293.400 107.800 293.297 83.497 L 293.194 59.194 317.497 59.297 L 341.800 59.400 341.800 83.600 M240.700 75.852 L 241.600 76.093 241.600 92.047 L 241.600 108.000 225.243 108.000 C 210.696 108.000,208.859 108.070,208.643 108.633 C 208.509 108.981,208.400 116.541,208.400 125.433 L 208.400 141.600 200.600 141.600 L 192.800 141.600 192.794 133.700 C 192.791 129.355,192.643 125.571,192.465 125.292 C 192.217 124.901,190.161 124.809,183.571 124.892 L 175.000 125.000 174.896 141.509 L 174.791 158.017 167.096 157.909 L 159.400 157.800 159.298 125.100 L 159.195 92.400 192.318 92.400 C 217.546 92.400,225.554 92.286,225.920 91.920 C 226.260 91.580,226.400 89.198,226.400 83.749 C 226.400 76.761,226.464 76.042,227.100 75.876 C 228.165 75.597,239.675 75.577,240.700 75.852 M241.600 133.800 L 241.600 141.600 234.000 141.600 L 226.400 141.600 226.400 133.800 L 226.400 126.000 234.000 126.000 L 241.600 126.000 241.600 133.800 M57.600 175.400 L 57.600 191.600 41.400 191.600 L 25.200 191.600 25.200 175.667 C 25.200 166.903,25.320 159.613,25.467 159.467 C 25.613 159.320,32.903 159.200,41.667 159.200 L 57.600 159.200 57.600 175.400 M91.109 167.100 L 91.217 174.800 83.655 174.800 C 76.151 174.800,76.091 174.793,75.852 173.900 C 75.532 172.705,75.532 162.042,75.852 160.441 L 76.103 159.183 83.552 159.291 L 91.000 159.400 91.109 167.100 M158.000 167.468 C 158.110 171.905,158.350 175.685,158.532 175.868 C 158.715 176.050,162.450 176.255,166.832 176.323 L 174.800 176.447 174.800 184.209 C 174.800 191.475,174.850 191.998,175.574 192.386 C 176.801 193.043,191.791 192.934,192.346 192.265 C 192.652 191.896,192.823 186.685,192.895 175.565 L 193.000 159.400 217.300 159.297 L 241.600 159.194 241.600 166.583 C 241.600 175.577,242.422 174.800,232.906 174.800 C 227.881 174.800,225.618 174.942,225.280 175.280 C 224.923 175.637,224.800 179.722,224.800 191.191 C 224.800 204.510,224.715 206.744,224.177 207.511 L 223.555 208.400 207.820 208.400 C 193.841 208.400,192.058 208.471,191.843 209.033 C 191.709 209.381,191.600 213.071,191.600 217.233 L 191.600 224.800 184.480 224.800 C 175.647 224.800,176.400 225.536,176.400 216.894 C 176.400 207.627,177.125 208.400,168.440 208.400 C 161.830 208.400,161.231 208.339,160.254 207.571 L 159.200 206.742 159.200 199.414 C 159.200 190.689,160.176 191.600,150.829 191.600 C 141.694 191.600,142.451 192.401,142.309 182.579 L 142.200 175.000 134.800 174.899 C 125.313 174.769,126.000 175.431,126.000 166.422 C 126.000 162.743,126.122 159.611,126.271 159.462 C 126.420 159.313,133.575 159.238,142.171 159.295 L 157.800 159.400 158.000 167.468 M308.800 174.669 C 308.800 188.501,308.730 190.214,308.138 190.869 C 307.518 191.553,306.475 191.600,291.838 191.606 C 282.703 191.610,275.950 191.770,275.600 191.991 C 274.957 192.396,274.470 205.118,274.991 207.894 L 275.236 209.200 292.195 209.200 C 304.985 209.200,309.226 209.082,309.450 208.718 C 309.614 208.453,309.703 205.192,309.648 201.472 C 309.552 194.948,309.580 194.672,310.444 193.753 L 311.339 192.800 326.047 192.800 L 340.755 192.800 341.377 193.689 C 342.154 194.798,342.286 205.510,341.540 206.926 C 340.796 208.339,340.522 208.387,333.180 208.394 C 324.420 208.402,325.200 207.553,325.200 217.080 L 325.200 224.800 300.609 224.800 L 276.018 224.800 275.400 225.744 C 274.482 227.145,274.674 275.423,275.600 276.009 C 275.930 276.217,279.449 276.391,283.420 276.394 C 292.378 276.401,291.600 275.633,291.600 284.480 L 291.600 291.600 284.076 291.600 C 278.215 291.600,276.381 291.725,275.776 292.167 C 274.781 292.894,274.343 307.649,275.279 308.890 C 275.813 309.598,341.657 310.107,342.781 309.412 C 343.671 308.862,343.327 275.696,342.426 275.214 C 341.918 274.942,333.501 274.800,317.875 274.800 C 298.140 274.800,294.020 274.706,293.640 274.248 C 293.323 273.866,293.215 271.480,293.291 266.548 L 293.400 259.400 309.800 259.200 L 326.200 259.000 326.308 251.091 L 326.417 243.183 334.108 243.291 L 341.800 243.400 341.908 251.300 L 342.017 259.200 350.405 259.200 L 358.794 259.200 358.897 284.300 L 359.000 309.400 367.200 309.637 C 371.710 309.768,375.445 309.903,375.500 309.937 C 375.555 309.972,375.600 317.204,375.600 326.009 L 375.600 342.017 367.900 341.909 L 360.200 341.800 360.095 334.000 C 359.965 324.323,360.872 325.200,351.000 325.200 C 341.128 325.200,342.035 324.323,341.905 334.000 L 341.800 341.800 334.100 341.909 L 326.400 342.017 326.400 334.089 C 326.400 324.272,327.322 325.200,317.569 325.200 C 307.934 325.200,308.845 324.292,308.709 334.030 L 308.600 341.800 301.000 341.800 L 293.400 341.800 293.295 334.000 C 293.165 324.324,294.070 325.200,284.213 325.200 C 273.939 325.200,274.800 324.374,274.800 334.227 L 274.800 342.009 259.100 341.905 L 243.400 341.800 243.200 325.400 L 243.000 309.000 234.700 308.892 L 226.400 308.784 226.400 300.996 L 226.400 293.209 242.700 293.104 L 259.000 293.000 259.104 275.900 L 259.209 258.800 251.669 258.800 L 244.128 258.800 243.664 257.781 C 243.370 257.136,243.200 254.277,243.200 249.990 L 243.200 243.217 251.100 243.108 L 259.000 243.000 259.000 234.000 L 259.000 225.000 243.235 224.895 C 232.411 224.823,227.303 224.651,226.935 224.346 C 226.064 223.623,226.175 210.911,227.062 209.931 C 227.682 209.246,228.724 209.200,243.470 209.200 L 259.216 209.200 259.108 200.500 L 259.000 191.800 251.100 191.692 L 243.200 191.583 243.200 184.472 C 243.200 175.652,242.473 176.400,251.047 176.400 C 260.173 176.400,259.200 177.423,259.200 167.824 C 259.200 163.374,259.320 159.613,259.467 159.467 C 259.613 159.320,270.773 159.200,284.267 159.200 L 308.800 159.200 308.800 174.669 M358.800 167.410 L 358.800 175.620 359.826 176.010 C 360.390 176.224,364.170 176.400,368.226 176.400 L 375.600 176.400 375.600 200.600 L 375.600 224.800 359.400 224.800 L 343.200 224.800 343.200 217.876 C 343.200 208.669,342.402 209.450,352.067 209.200 L 359.800 209.000 359.908 200.549 L 360.016 192.097 359.108 191.854 C 358.609 191.720,355.024 191.608,351.143 191.605 C 342.630 191.599,343.470 192.551,343.203 182.600 L 343.000 175.000 334.700 174.892 L 326.400 174.784 326.400 166.992 L 326.400 159.200 342.600 159.200 L 358.800 159.200 358.800 167.410 M124.320 176.880 C 125.030 177.590,124.962 189.953,124.243 190.900 C 123.753 191.546,122.497 191.600,108.056 191.600 L 92.400 191.600 92.400 184.000 L 92.400 176.400 108.120 176.400 C 119.813 176.400,123.963 176.523,124.320 176.880 M140.614 193.446 C 141.595 194.089,141.600 194.127,141.600 200.560 L 141.600 207.028 140.438 207.714 C 138.987 208.571,127.304 208.744,126.480 207.920 C 125.698 207.138,125.821 194.833,126.623 193.689 C 127.451 192.507,138.878 192.308,140.614 193.446 M74.800 225.400 L 74.800 241.600 67.000 241.600 L 59.200 241.600 59.200 233.680 C 59.200 228.053,59.061 225.621,58.720 225.280 C 58.378 224.938,55.907 224.800,50.143 224.800 C 39.930 224.800,40.800 223.935,40.800 234.089 L 40.800 241.600 33.000 241.600 L 25.200 241.600 25.200 225.667 C 25.200 216.903,25.320 209.613,25.467 209.467 C 25.613 209.320,36.773 209.200,50.267 209.200 L 74.800 209.200 74.800 225.400 M157.251 209.860 C 158.014 210.778,158.275 222.539,157.562 223.872 C 157.070 224.791,156.993 224.800,149.732 224.800 L 142.400 224.800 142.400 217.764 C 142.400 208.674,141.875 209.232,150.451 209.213 C 155.783 209.202,156.783 209.297,157.251 209.860 M141.600 234.000 L 141.600 241.600 133.800 241.600 L 126.000 241.600 126.000 234.000 L 126.000 226.400 133.800 226.400 L 141.600 226.400 141.600 234.000 M174.320 226.880 C 174.659 227.219,174.800 229.561,174.800 234.866 C 174.800 241.877,174.851 242.399,175.574 242.786 C 176.069 243.051,181.886 243.200,191.712 243.200 C 210.409 243.200,208.343 242.138,208.490 251.821 L 208.600 259.000 224.533 259.200 C 243.727 259.441,241.600 258.360,241.600 267.876 L 241.600 274.800 225.414 274.800 C 206.155 274.800,208.400 273.590,208.400 283.974 L 208.400 291.600 192.400 291.600 L 176.400 291.600 176.400 284.480 C 176.400 275.627,175.609 276.400,184.666 276.400 C 193.643 276.400,192.851 277.334,192.708 266.910 L 192.600 259.000 183.800 259.000 L 175.000 259.000 174.891 266.370 C 174.754 275.618,175.563 274.800,166.551 274.800 L 159.200 274.800 159.200 251.229 C 159.200 230.333,159.271 227.586,159.829 227.029 C 160.639 226.218,173.526 226.086,174.320 226.880 M224.320 226.880 C 224.657 227.217,224.800 229.476,224.800 234.480 L 224.800 241.600 217.623 241.600 C 208.538 241.600,209.200 242.267,209.200 233.111 L 209.200 226.400 216.520 226.400 C 221.680 226.400,223.982 226.542,224.320 226.880 M141.600 317.400 L 141.600 375.600 83.400 375.600 L 25.200 375.600 25.200 317.667 C 25.200 285.803,25.320 259.613,25.467 259.467 C 25.613 259.320,51.803 259.200,83.667 259.200 L 141.600 259.200 141.600 317.400 M41.600 275.600 C 40.399 276.801,40.332 358.253,41.531 359.338 C 42.481 360.197,124.665 360.375,125.520 359.520 C 126.436 358.604,126.189 276.295,125.269 275.462 C 124.012 274.325,42.741 274.459,41.600 275.600 M107.800 317.600 L 107.800 341.800 83.600 341.800 L 59.400 341.800 59.297 317.497 L 59.194 293.194 83.497 293.297 L 107.800 293.400 107.800 317.600 M173.900 309.852 C 174.793 310.091,174.800 310.151,174.800 317.655 L 174.800 325.217 167.100 325.109 L 159.400 325.000 159.291 317.529 L 159.183 310.058 160.091 309.883 C 161.518 309.609,172.898 309.584,173.900 309.852 M207.900 310.124 C 208.901 310.771,208.577 323.160,207.530 324.274 C 206.375 325.504,194.839 325.721,193.531 324.538 C 192.444 323.553,192.416 310.660,193.500 310.039 C 194.326 309.566,207.155 309.641,207.900 310.124 M190.971 327.029 C 191.929 327.986,191.901 340.452,190.940 341.251 C 190.450 341.658,188.484 341.833,183.340 341.926 L 176.400 342.052 176.400 334.226 L 176.400 326.400 183.371 326.400 C 189.176 326.400,190.448 326.505,190.971 327.029 M224.800 334.320 C 224.800 344.129,223.871 343.200,233.680 343.200 L 241.600 343.200 241.600 350.996 L 241.600 358.791 225.100 358.896 L 208.600 359.000 208.492 367.300 L 208.384 375.600 200.592 375.600 L 192.800 375.600 192.800 360.023 L 192.800 344.445 193.689 343.823 C 194.415 343.314,195.917 343.200,201.865 343.200 L 209.152 343.200 209.276 335.460 C 209.435 325.543,208.643 326.400,217.649 326.400 L 224.800 326.400 224.800 334.320 M174.800 359.400 L 174.800 375.600 167.000 375.600 L 159.200 375.600 159.200 359.667 C 159.200 350.903,159.320 343.613,159.467 343.467 C 159.613 343.320,163.123 343.200,167.267 343.200 L 174.800 343.200 174.800 359.400 M258.709 367.900 L 258.817 375.600 251.009 375.600 L 243.200 375.600 243.200 368.067 C 243.200 363.923,243.324 360.409,243.475 360.258 C 243.627 360.107,247.092 360.032,251.175 360.091 L 258.600 360.200 258.709 367.900 M291.600 367.800 L 291.600 375.600 284.000 375.600 L 276.400 375.600 276.400 367.800 L 276.400 360.000 284.000 360.000 L 291.600 360.000 291.600 367.800 M325.109 367.900 L 325.217 375.600 317.661 375.600 L 310.105 375.600 309.857 374.100 C 309.462 371.709,309.561 362.154,309.994 361.017 L 310.387 359.982 317.694 360.091 L 325.000 360.200 325.109 367.900 M358.709 367.900 L 358.817 375.600 351.009 375.600 L 343.200 375.600 343.200 368.067 C 343.200 363.923,343.324 360.409,343.475 360.258 C 343.627 360.107,347.092 360.032,351.175 360.091 L 358.600 360.200 358.709 367.900 " stroke="none" fill="#ffffff" fill-rule="evenodd"></path><path id="path1" d="M25.467 25.467 C 25.320 25.613,25.200 51.803,25.200 83.667 L 25.200 141.600 83.400 141.600 L 141.600 141.600 141.600 83.400 L 141.600 25.200 83.667 25.200 C 51.803 25.200,25.613 25.320,25.467 25.467 M192.987 25.691 C 192.880 25.971,192.839 37.090,192.896 50.400 L 193.000 74.600 208.900 74.705 L 224.800 74.809 224.800 67.005 L 224.800 59.200 217.049 59.200 C 211.062 59.200,209.197 59.078,208.854 58.664 C 208.547 58.296,208.377 53.033,208.305 41.764 L 208.200 25.400 200.691 25.291 C 194.902 25.207,193.137 25.299,192.987 25.691 M226.400 41.400 L 226.400 57.600 234.000 57.600 L 241.600 57.600 241.600 41.400 L 241.600 25.200 234.000 25.200 L 226.400 25.200 226.400 41.400 M259.467 25.467 C 259.320 25.613,259.200 51.803,259.200 83.667 L 259.200 141.600 317.400 141.600 L 375.600 141.600 375.600 83.400 L 375.600 25.200 317.667 25.200 C 285.803 25.200,259.613 25.320,259.467 25.467 M125.269 41.462 C 126.189 42.295,126.436 124.604,125.520 125.520 C 124.665 126.375,42.481 126.197,41.531 125.338 C 40.332 124.253,40.399 42.801,41.600 41.600 C 42.741 40.459,124.012 40.325,125.269 41.462 M359.226 41.214 C 360.185 41.727,360.473 124.567,359.520 125.520 C 358.567 126.473,275.727 126.185,275.214 125.226 C 274.456 123.809,274.658 42.781,275.423 41.689 L 276.045 40.800 317.249 40.800 C 344.887 40.800,358.707 40.936,359.226 41.214 M159.200 58.600 L 159.200 74.800 167.000 74.800 L 174.800 74.800 174.800 58.600 L 174.800 42.400 167.000 42.400 L 159.200 42.400 159.200 58.600 M59.297 83.497 L 59.400 107.800 83.600 107.800 L 107.800 107.800 107.800 83.600 L 107.800 59.400 83.497 59.297 L 59.194 59.194 59.297 83.497 M293.297 83.497 L 293.400 107.800 317.600 107.800 L 341.800 107.800 341.800 83.600 L 341.800 59.400 317.497 59.297 L 293.194 59.194 293.297 83.497 M227.100 75.876 C 226.464 76.042,226.400 76.761,226.400 83.749 C 226.400 89.198,226.260 91.580,225.920 91.920 C 225.554 92.286,217.546 92.400,192.318 92.400 L 159.195 92.400 159.298 125.100 L 159.400 157.800 167.096 157.909 L 174.791 158.017 174.896 141.509 L 175.000 125.000 183.571 124.892 C 190.161 124.809,192.217 124.901,192.465 125.292 C 192.643 125.571,192.791 129.355,192.794 133.700 L 192.800 141.600 200.600 141.600 L 208.400 141.600 208.400 125.433 C 208.400 116.541,208.509 108.981,208.643 108.633 C 208.859 108.070,210.696 108.000,225.243 108.000 L 241.600 108.000 241.600 92.047 L 241.600 76.093 240.700 75.852 C 239.675 75.577,228.165 75.597,227.100 75.876 M226.400 133.800 L 226.400 141.600 234.000 141.600 L 241.600 141.600 241.600 133.800 L 241.600 126.000 234.000 126.000 L 226.400 126.000 226.400 133.800 M25.467 159.467 C 25.320 159.613,25.200 166.903,25.200 175.667 L 25.200 191.600 41.400 191.600 L 57.600 191.600 57.600 175.400 L 57.600 159.200 41.667 159.200 C 32.903 159.200,25.613 159.320,25.467 159.467 M75.852 160.441 C 75.532 162.042,75.532 172.705,75.852 173.900 C 76.091 174.793,76.151 174.800,83.655 174.800 L 91.217 174.800 91.109 167.100 L 91.000 159.400 83.552 159.291 L 76.103 159.183 75.852 160.441 M126.271 159.462 C 126.122 159.611,126.000 162.743,126.000 166.422 C 126.000 175.431,125.313 174.769,134.800 174.899 L 142.200 175.000 142.309 182.579 C 142.451 192.401,141.694 191.600,150.829 191.600 C 160.176 191.600,159.200 190.689,159.200 199.414 L 159.200 206.742 160.254 207.571 C 161.231 208.339,161.830 208.400,168.440 208.400 C 177.125 208.400,176.400 207.627,176.400 216.894 C 176.400 225.536,175.647 224.800,184.480 224.800 L 191.600 224.800 191.600 217.233 C 191.600 213.071,191.709 209.381,191.843 209.033 C 192.058 208.471,193.841 208.400,207.820 208.400 L 223.555 208.400 224.177 207.511 C 224.715 206.744,224.800 204.510,224.800 191.191 C 224.800 179.722,224.923 175.637,225.280 175.280 C 225.618 174.942,227.881 174.800,232.906 174.800 C 242.422 174.800,241.600 175.577,241.600 166.583 L 241.600 159.194 217.300 159.297 L 193.000 159.400 192.895 175.565 C 192.823 186.685,192.652 191.896,192.346 192.265 C 191.791 192.934,176.801 193.043,175.574 192.386 C 174.850 191.998,174.800 191.475,174.800 184.209 L 174.800 176.447 166.832 176.323 C 162.450 176.255,158.715 176.050,158.532 175.868 C 158.350 175.685,158.110 171.905,158.000 167.468 L 157.800 159.400 142.171 159.295 C 133.575 159.238,126.420 159.313,126.271 159.462 M259.467 159.467 C 259.320 159.613,259.200 163.374,259.200 167.824 C 259.200 177.423,260.173 176.400,251.047 176.400 C 242.473 176.400,243.200 175.652,243.200 184.472 L 243.200 191.583 251.100 191.692 L 259.000 191.800 259.108 200.500 L 259.216 209.200 243.470 209.200 C 228.724 209.200,227.682 209.246,227.062 209.931 C 226.175 210.911,226.064 223.623,226.935 224.346 C 227.303 224.651,232.411 224.823,243.235 224.895 L 259.000 225.000 259.000 234.000 L 259.000 243.000 251.100 243.108 L 243.200 243.217 243.200 249.990 C 243.200 254.277,243.370 257.136,243.664 257.781 L 244.128 258.800 251.669 258.800 L 259.209 258.800 259.104 275.900 L 259.000 293.000 242.700 293.104 L 226.400 293.209 226.400 300.996 L 226.400 308.784 234.700 308.892 L 243.000 309.000 243.200 325.400 L 243.400 341.800 259.100 341.905 L 274.800 342.009 274.800 334.227 C 274.800 324.374,273.939 325.200,284.213 325.200 C 294.070 325.200,293.165 324.324,293.295 334.000 L 293.400 341.800 301.000 341.800 L 308.600 341.800 308.709 334.030 C 308.845 324.292,307.934 325.200,317.569 325.200 C 327.322 325.200,326.400 324.272,326.400 334.089 L 326.400 342.017 334.100 341.909 L 341.800 341.800 341.905 334.000 C 342.035 324.323,341.128 325.200,351.000 325.200 C 360.872 325.200,359.965 324.323,360.095 334.000 L 360.200 341.800 367.900 341.909 L 375.600 342.017 375.600 326.009 C 375.600 317.204,375.555 309.972,375.500 309.937 C 375.445 309.903,371.710 309.768,367.200 309.637 L 359.000 309.400 358.897 284.300 L 358.794 259.200 350.405 259.200 L 342.017 259.200 341.908 251.300 L 341.800 243.400 334.108 243.291 L 326.417 243.183 326.308 251.091 L 326.200 259.000 309.800 259.200 L 293.400 259.400 293.291 266.548 C 293.215 271.480,293.323 273.866,293.640 274.248 C 294.020 274.706,298.140 274.800,317.875 274.800 C 333.501 274.800,341.918 274.942,342.426 275.214 C 343.327 275.696,343.671 308.862,342.781 309.412 C 341.657 310.107,275.813 309.598,275.279 308.890 C 274.343 307.649,274.781 292.894,275.776 292.167 C 276.381 291.725,278.215 291.600,284.076 291.600 L 291.600 291.600 291.600 284.480 C 291.600 275.633,292.378 276.401,283.420 276.394 C 279.449 276.391,275.930 276.217,275.600 276.009 C 274.674 275.423,274.482 227.145,275.400 225.744 L 276.018 224.800 300.609 224.800 L 325.200 224.800 325.200 217.080 C 325.200 207.553,324.420 208.402,333.180 208.394 C 340.522 208.387,340.796 208.339,341.540 206.926 C 342.286 205.510,342.154 194.798,341.377 193.689 L 340.755 192.800 326.047 192.800 L 311.339 192.800 310.444 193.753 C 309.580 194.672,309.552 194.948,309.648 201.472 C 309.703 205.192,309.614 208.453,309.450 208.718 C 309.226 209.082,304.985 209.200,292.195 209.200 L 275.236 209.200 274.991 207.894 C 274.470 205.118,274.957 192.396,275.600 191.991 C 275.950 191.770,282.703 191.610,291.838 191.606 C 306.475 191.600,307.518 191.553,308.138 190.869 C 308.730 190.214,308.800 188.501,308.800 174.669 L 308.800 159.200 284.267 159.200 C 270.773 159.200,259.613 159.320,259.467 159.467 M326.400 166.992 L 326.400 174.784 334.700 174.892 L 343.000 175.000 343.203 182.600 C 343.470 192.551,342.630 191.599,351.143 191.605 C 355.024 191.608,358.609 191.720,359.108 191.854 L 360.016 192.097 359.908 200.549 L 359.800 209.000 352.067 209.200 C 342.402 209.450,343.200 208.669,343.200 217.876 L 343.200 224.800 359.400 224.800 L 375.600 224.800 375.600 200.600 L 375.600 176.400 368.226 176.400 C 364.170 176.400,360.390 176.224,359.826 176.010 L 358.800 175.620 358.800 167.410 L 358.800 159.200 342.600 159.200 L 326.400 159.200 326.400 166.992 M92.400 184.000 L 92.400 191.600 108.056 191.600 C 122.497 191.600,123.753 191.546,124.243 190.900 C 124.962 189.953,125.030 177.590,124.320 176.880 C 123.963 176.523,119.813 176.400,108.120 176.400 L 92.400 176.400 92.400 184.000 M126.623 193.689 C 125.821 194.833,125.698 207.138,126.480 207.920 C 127.304 208.744,138.987 208.571,140.438 207.714 L 141.600 207.028 141.600 200.560 C 141.600 192.330,142.095 192.800,133.437 192.800 C 127.492 192.800,127.221 192.835,126.623 193.689 M25.467 209.467 C 25.320 209.613,25.200 216.903,25.200 225.667 L 25.200 241.600 33.000 241.600 L 40.800 241.600 40.800 234.089 C 40.800 223.935,39.930 224.800,50.143 224.800 C 55.907 224.800,58.378 224.938,58.720 225.280 C 59.061 225.621,59.200 228.053,59.200 233.680 L 59.200 241.600 67.000 241.600 L 74.800 241.600 74.800 225.400 L 74.800 209.200 50.267 209.200 C 36.773 209.200,25.613 209.320,25.467 209.467 M143.300 209.977 C 142.429 210.704,142.400 210.957,142.400 217.764 L 142.400 224.800 149.732 224.800 C 156.993 224.800,157.070 224.791,157.562 223.872 C 158.275 222.539,158.014 210.778,157.251 209.860 C 156.378 208.810,144.580 208.910,143.300 209.977 M126.000 234.000 L 126.000 241.600 133.800 241.600 L 141.600 241.600 141.600 234.000 L 141.600 226.400 133.800 226.400 L 126.000 226.400 126.000 234.000 M159.829 227.029 C 159.271 227.586,159.200 230.333,159.200 251.229 L 159.200 274.800 166.551 274.800 C 175.563 274.800,174.754 275.618,174.891 266.370 L 175.000 259.000 183.800 259.000 L 192.600 259.000 192.708 266.910 C 192.851 277.334,193.643 276.400,184.666 276.400 C 175.609 276.400,176.400 275.627,176.400 284.480 L 176.400 291.600 192.400 291.600 L 208.400 291.600 208.400 283.974 C 208.400 273.590,206.155 274.800,225.414 274.800 L 241.600 274.800 241.600 267.876 C 241.600 258.360,243.727 259.441,224.533 259.200 L 208.600 259.000 208.490 251.821 C 208.343 242.138,210.409 243.200,191.712 243.200 C 181.886 243.200,176.069 243.051,175.574 242.786 C 174.851 242.399,174.800 241.877,174.800 234.866 C 174.800 229.561,174.659 227.219,174.320 226.880 C 173.526 226.086,160.639 226.218,159.829 227.029 M209.200 233.111 C 209.200 242.267,208.538 241.600,217.623 241.600 L 224.800 241.600 224.800 234.480 C 224.800 225.626,225.593 226.400,216.520 226.400 L 209.200 226.400 209.200 233.111 M25.467 259.467 C 25.320 259.613,25.200 285.803,25.200 317.667 L 25.200 375.600 83.400 375.600 L 141.600 375.600 141.600 317.400 L 141.600 259.200 83.667 259.200 C 51.803 259.200,25.613 259.320,25.467 259.467 M125.269 275.462 C 126.189 276.295,126.436 358.604,125.520 359.520 C 124.665 360.375,42.481 360.197,41.531 359.338 C 40.332 358.253,40.399 276.801,41.600 275.600 C 42.741 274.459,124.012 274.325,125.269 275.462 M59.297 317.497 L 59.400 341.800 83.600 341.800 L 107.800 341.800 107.800 317.600 L 107.800 293.400 83.497 293.297 L 59.194 293.194 59.297 317.497 M160.091 309.883 L 159.183 310.058 159.291 317.529 L 159.400 325.000 167.100 325.109 L 174.800 325.217 174.800 317.655 C 174.800 310.151,174.793 310.091,173.900 309.852 C 172.898 309.584,161.518 309.609,160.091 309.883 M193.500 310.039 C 192.416 310.660,192.444 323.553,193.531 324.538 C 194.839 325.721,206.375 325.504,207.530 324.274 C 208.577 323.160,208.901 310.771,207.900 310.124 C 207.155 309.641,194.326 309.566,193.500 310.039 M176.400 334.226 L 176.400 342.052 183.340 341.926 C 192.286 341.764,191.600 342.407,191.600 334.180 C 191.600 325.759,192.278 326.400,183.371 326.400 L 176.400 326.400 176.400 334.226 M209.949 327.060 C 209.536 327.557,209.369 329.634,209.276 335.460 L 209.152 343.200 201.865 343.200 C 195.917 343.200,194.415 343.314,193.689 343.823 L 192.800 344.445 192.800 360.023 L 192.800 375.600 200.592 375.600 L 208.384 375.600 208.492 367.300 L 208.600 359.000 225.100 358.896 L 241.600 358.791 241.600 350.996 L 241.600 343.200 233.680 343.200 C 223.871 343.200,224.800 344.129,224.800 334.320 L 224.800 326.400 217.649 326.400 C 211.491 326.400,210.422 326.492,209.949 327.060 M159.467 343.467 C 159.320 343.613,159.200 350.903,159.200 359.667 L 159.200 375.600 167.000 375.600 L 174.800 375.600 174.800 359.400 L 174.800 343.200 167.267 343.200 C 163.123 343.200,159.613 343.320,159.467 343.467 M243.475 360.258 C 243.324 360.409,243.200 363.923,243.200 368.067 L 243.200 375.600 251.009 375.600 L 258.817 375.600 258.709 367.900 L 258.600 360.200 251.175 360.091 C 247.092 360.032,243.627 360.107,243.475 360.258 M276.400 367.800 L 276.400 375.600 284.000 375.600 L 291.600 375.600 291.600 367.800 L 291.600 360.000 284.000 360.000 L 276.400 360.000 276.400 367.800 M309.994 361.017 C 309.561 362.154,309.462 371.709,309.857 374.100 L 310.105 375.600 317.661 375.600 L 325.217 375.600 325.109 367.900 L 325.000 360.200 317.694 360.091 L 310.387 359.982 309.994 361.017 M343.475 360.258 C 343.324 360.409,343.200 363.923,343.200 368.067 L 343.200 375.600 351.009 375.600 L 358.817 375.600 358.709 367.900 L 358.600 360.200 351.175 360.091 C 347.092 360.032,343.627 360.107,343.475 360.258 " stroke="none" fill="#ff5c43" fill-rule="evenodd"></path></g></svg>