<?xml version="1.0" encoding="UTF-8" standalone="no"?>
<svg
   xmlns:dc="http://purl.org/dc/elements/1.1/"
   xmlns:cc="http://creativecommons.org/ns#"
   xmlns:rdf="http://www.w3.org/1999/02/22-rdf-syntax-ns#"
   xmlns:svg="http://www.w3.org/2000/svg"
   xmlns="http://www.w3.org/2000/svg"
   xmlns:sodipodi="http://sodipodi.sourceforge.net/DTD/sodipodi-0.dtd"
   xmlns:inkscape="http://www.inkscape.org/namespaces/inkscape"
   id="svg"
   version="1.1"
   width="100"
   height="100"
   style="display:block"
   inkscape:version="0.91 r13725"
   sodipodi:docname="qr.svg">
  <metadata
     id="metadata3388">
    <rdf:RDF>
      <cc:Work
         rdf:about="">
        <dc:format>image/svg+xml</dc:format>
        <dc:type
           rdf:resource="http://purl.org/dc/dcmitype/StillImage" />
        <dc:title></dc:title>
      </cc:Work>
    </rdf:RDF>
  </metadata>
  <defs
     id="defs3386" />
  <sodipodi:namedview
     pagecolor="#ffffff"
     bordercolor="#666666"
     borderopacity="1"
     objecttolerance="10"
     gridtolerance="10"
     guidetolerance="10"
     inkscape:pageopacity="0"
     inkscape:pageshadow="2"
     inkscape:window-width="1600"
     inkscape:window-height="837"
     id="namedview3384"
     showgrid="false"
     inkscape:zoom="1.66"
     inkscape:cx="200"
     inkscape:cy="200"
     inkscape:window-x="0"
     inkscape:window-y="30"
     inkscape:window-maximized="1"
     inkscape:current-layer="svg" />
  <g
     id="svgg"
     transform="scale(0.25,0.25)">
    <path
       id="path1"
       d="M 25.467,25.467 C 25.32,25.613 25.2,51.803 25.2,83.667 l 0,57.933 58.2,0 58.2,0 0,-58.2 0,-58.2 -57.933,0 c -31.864,0 -58.054,0.12 -58.2,0.267 m 167.52,0.224 c -0.107,0.28 -0.148,11.399 -0.091,24.709 l 0.104,24.2 15.9,0.105 15.9,0.104 0,-7.804 0,-7.805 -7.751,0 c -5.987,0 -7.852,-0.122 -8.195,-0.536 -0.307,-0.368 -0.477,-5.631 -0.549,-16.9 L 208.2,25.4 200.691,25.291 c -5.789,-0.084 -7.554,0.008 -7.704,0.4 M 226.4,41.4 l 0,16.2 7.6,0 7.6,0 0,-16.2 0,-16.2 -7.6,0 -7.6,0 0,16.2 m 33.067,-15.933 c -0.147,0.146 -0.267,26.336 -0.267,58.2 l 0,57.933 58.2,0 58.2,0 0,-58.2 0,-58.2 -57.933,0 c -31.864,0 -58.054,0.12 -58.2,0.267 M 125.269,41.462 c 0.92,0.833 1.167,83.142 0.251,84.058 -0.855,0.855 -83.039,0.677 -83.989,-0.182 -1.199,-1.085 -1.132,-82.537 0.069,-83.738 1.141,-1.141 82.412,-1.275 83.669,-0.138 m 233.957,-0.248 c 0.959,0.513 1.247,83.353 0.294,84.306 -0.953,0.953 -83.793,0.665 -84.306,-0.294 -0.758,-1.417 -0.556,-82.445 0.209,-83.537 l 0.622,-0.889 41.204,0 c 27.638,0 41.458,0.136 41.977,0.414 M 159.2,58.6 l 0,16.2 7.8,0 7.8,0 0,-16.2 0,-16.2 -7.8,0 -7.8,0 0,16.2 M 59.297,83.497 59.4,107.8 l 24.2,0 24.2,0 0,-24.2 0,-24.2 -24.303,-0.103 -24.303,-0.103 0.103,24.303 m 234,0 0.103,24.303 24.2,0 24.2,0 0,-24.2 0,-24.2 -24.303,-0.103 -24.303,-0.103 0.103,24.303 M 227.1,75.876 c -0.636,0.166 -0.7,0.885 -0.7,7.873 0,5.449 -0.14,7.831 -0.48,8.171 -0.366,0.366 -8.374,0.48 -33.602,0.48 l -33.123,0 0.103,32.7 0.102,32.7 7.696,0.109 7.695,0.108 0.105,-16.508 L 175,125 l 8.571,-0.108 c 6.59,-0.083 8.646,0.009 8.894,0.4 0.178,0.279 0.326,4.063 0.329,8.408 l 0.006,7.9 7.8,0 7.8,0 0,-16.167 c 0,-8.892 0.109,-16.452 0.243,-16.8 0.216,-0.563 2.053,-0.633 16.6,-0.633 l 16.357,0 0,-15.953 0,-15.954 -0.9,-0.241 c -1.025,-0.275 -12.535,-0.255 -13.6,0.024 m -0.7,57.924 0,7.8 7.6,0 7.6,0 0,-7.8 0,-7.8 -7.6,0 -7.6,0 0,7.8 M 25.467,159.467 c -0.147,0.146 -0.267,7.436 -0.267,16.2 l 0,15.933 16.2,0 16.2,0 0,-16.2 0,-16.2 -15.933,0 c -8.764,0 -16.054,0.12 -16.2,0.267 m 50.385,0.974 c -0.32,1.601 -0.32,12.264 0,13.459 0.239,0.893 0.299,0.9 7.803,0.9 l 7.562,0 -0.108,-7.7 -0.109,-7.7 -7.448,-0.109 -7.449,-0.108 -0.251,1.258 m 50.419,-0.979 c -0.149,0.149 -0.271,3.281 -0.271,6.96 0,9.009 -0.687,8.347 8.8,8.477 l 7.4,0.101 0.109,7.579 c 0.142,9.822 -0.615,9.021 8.52,9.021 9.347,0 8.371,-0.911 8.371,7.814 l 0,7.328 1.054,0.829 c 0.977,0.768 1.576,0.829 8.186,0.829 8.685,0 7.96,-0.773 7.96,8.494 0,8.642 -0.753,7.906 8.08,7.906 l 7.12,0 0,-7.567 c 0,-4.162 0.109,-7.852 0.243,-8.2 0.215,-0.562 1.998,-0.633 15.977,-0.633 l 15.735,0 0.622,-0.889 c 0.538,-0.767 0.623,-3.001 0.623,-16.32 0,-11.469 0.123,-15.554 0.48,-15.911 0.338,-0.338 2.601,-0.48 7.626,-0.48 9.516,0 8.694,0.777 8.694,-8.217 l 0,-7.389 -24.3,0.103 -24.3,0.103 -0.105,16.165 c -0.072,11.12 -0.243,16.331 -0.549,16.7 -0.555,0.669 -15.545,0.778 -16.772,0.121 -0.724,-0.388 -0.774,-0.911 -0.774,-8.177 l 0,-7.762 -7.968,-0.124 c -4.382,-0.068 -8.117,-0.273 -8.3,-0.455 -0.182,-0.183 -0.422,-3.963 -0.532,-8.4 l -0.2,-8.068 -15.629,-0.105 c -8.596,-0.057 -15.751,0.018 -15.9,0.167 m 133.196,0.005 c -0.147,0.146 -0.267,3.907 -0.267,8.357 0,9.599 0.973,8.576 -8.153,8.576 -8.574,0 -7.847,-0.748 -7.847,8.072 l 0,7.111 7.9,0.109 7.9,0.108 0.108,8.7 0.108,8.7 -15.746,0 c -14.746,0 -15.788,0.046 -16.408,0.731 -0.887,0.98 -0.998,13.692 -0.127,14.415 0.368,0.305 5.476,0.477 16.3,0.549 L 259,225 l 0,9 0,9 -7.9,0.108 -7.9,0.109 0,6.773 c 0,4.287 0.17,7.146 0.464,7.791 l 0.464,1.019 7.541,0 7.54,0 -0.105,17.1 -0.104,17.1 -16.3,0.104 -16.3,0.105 0,7.787 0,7.788 8.3,0.108 8.3,0.108 0.2,16.4 0.2,16.4 15.7,0.105 15.7,0.104 0,-7.782 c 0,-9.853 -0.861,-9.027 9.413,-9.027 9.857,0 8.952,-0.876 9.082,8.8 l 0.105,7.8 7.6,0 7.6,0 0.109,-7.77 c 0.136,-9.738 -0.775,-8.83 8.86,-8.83 9.753,0 8.831,-0.928 8.831,8.889 l 0,7.928 7.7,-0.108 7.7,-0.109 0.105,-7.8 c 0.13,-9.677 -0.777,-8.8 9.095,-8.8 9.872,0 8.965,-0.877 9.095,8.8 l 0.105,7.8 7.7,0.109 7.7,0.108 0,-16.008 c 0,-8.805 -0.045,-16.037 -0.1,-16.072 -0.055,-0.034 -3.79,-0.169 -8.3,-0.3 l -8.2,-0.237 -0.103,-25.1 -0.103,-25.1 -8.389,0 -8.388,0 -0.109,-7.9 -0.108,-7.9 -7.692,-0.109 -7.691,-0.108 -0.109,7.908 -0.108,7.909 -16.4,0.2 -16.4,0.2 -0.109,7.148 c -0.076,4.932 0.032,7.318 0.349,7.7 0.38,0.458 4.5,0.552 24.235,0.552 15.626,0 24.043,0.142 24.551,0.414 0.901,0.482 1.245,33.648 0.355,34.198 -1.124,0.695 -66.968,0.186 -67.502,-0.522 -0.936,-1.241 -0.498,-15.996 0.497,-16.723 0.605,-0.442 2.439,-0.567 8.3,-0.567 l 7.524,0 0,-7.12 c 0,-8.847 0.778,-8.079 -8.18,-8.086 -3.971,-0.003 -7.49,-0.177 -7.82,-0.385 -0.926,-0.586 -1.118,-48.864 -0.2,-50.265 l 0.618,-0.944 24.591,0 24.591,0 0,-7.72 c 0,-9.527 -0.78,-8.678 7.98,-8.686 7.342,-0.007 7.616,-0.055 8.36,-1.468 0.746,-1.416 0.614,-12.128 -0.163,-13.237 l -0.622,-0.889 -14.708,0 -14.708,0 -0.895,0.953 c -0.864,0.919 -0.892,1.195 -0.796,7.719 0.055,3.72 -0.034,6.981 -0.198,7.246 -0.224,0.364 -4.465,0.482 -17.255,0.482 l -16.959,0 -0.245,-1.306 c -0.521,-2.776 -0.034,-15.498 0.609,-15.903 0.35,-0.221 7.103,-0.381 16.238,-0.385 14.637,-0.006 15.68,-0.053 16.3,-0.737 0.592,-0.655 0.662,-2.368 0.662,-16.2 l 0,-15.469 -24.533,0 c -13.494,0 -24.654,0.12 -24.8,0.267 m 66.933,7.525 0,7.792 8.3,0.108 8.3,0.108 0.203,7.6 c 0.267,9.951 -0.573,8.999 7.94,9.005 3.881,0.003 7.466,0.115 7.965,0.249 l 0.908,0.243 -0.108,8.452 -0.108,8.451 -7.733,0.2 c -9.665,0.25 -8.867,-0.531 -8.867,8.676 l 0,6.924 16.2,0 16.2,0 0,-24.2 0,-24.2 -7.374,0 c -4.056,0 -7.836,-0.176 -8.4,-0.39 l -1.026,-0.39 0,-8.21 0,-8.21 -16.2,0 -16.2,0 0,7.792 M 92.4,184 l 0,7.6 15.656,0 c 14.441,0 15.697,-0.054 16.187,-0.7 0.719,-0.947 0.787,-13.31 0.077,-14.02 -0.357,-0.357 -4.507,-0.48 -16.2,-0.48 l -15.72,0 0,7.6 m 34.223,9.689 c -0.802,1.144 -0.925,13.449 -0.143,14.231 0.824,0.824 12.507,0.651 13.958,-0.206 l 1.162,-0.686 0,-6.468 c 0,-8.23 0.495,-7.76 -8.163,-7.76 -5.945,0 -6.216,0.035 -6.814,0.889 M 25.467,209.467 c -0.147,0.146 -0.267,7.436 -0.267,16.2 l 0,15.933 7.8,0 7.8,0 0,-7.511 c 0,-10.154 -0.87,-9.289 9.343,-9.289 5.764,0 8.235,0.138 8.577,0.48 0.341,0.341 0.48,2.773 0.48,8.4 l 0,7.92 7.8,0 7.8,0 0,-16.2 0,-16.2 -24.533,0 c -13.494,0 -24.654,0.12 -24.8,0.267 m 117.833,0.51 c -0.871,0.727 -0.9,0.98 -0.9,7.787 l 0,7.036 7.332,0 c 7.261,0 7.338,-0.009 7.83,-0.928 0.713,-1.333 0.452,-13.094 -0.311,-14.012 -0.873,-1.05 -12.671,-0.95 -13.951,0.117 M 126,234 l 0,7.6 7.8,0 7.8,0 0,-7.6 0,-7.6 -7.8,0 -7.8,0 0,7.6 m 33.829,-6.971 c -0.558,0.557 -0.629,3.304 -0.629,24.2 l 0,23.571 7.351,0 c 9.012,0 8.203,0.818 8.34,-8.43 L 175,259 l 8.8,0 8.8,0 0.108,7.91 c 0.143,10.424 0.935,9.49 -8.042,9.49 -9.057,0 -8.266,-0.773 -8.266,8.08 l 0,7.12 16,0 16,0 0,-7.626 c 0,-10.384 -2.245,-9.174 17.014,-9.174 l 16.186,0 0,-6.924 c 0,-9.516 2.127,-8.435 -17.067,-8.676 L 208.6,259 l -0.11,-7.179 c -0.147,-9.683 1.919,-8.621 -16.778,-8.621 -9.826,0 -15.643,-0.149 -16.138,-0.414 -0.723,-0.387 -0.774,-0.909 -0.774,-7.92 0,-5.305 -0.141,-7.647 -0.48,-7.986 -0.794,-0.794 -13.681,-0.662 -14.491,0.149 m 49.371,6.082 c 0,9.156 -0.662,8.489 8.423,8.489 l 7.177,0 0,-7.12 c 0,-8.854 0.793,-8.08 -8.28,-8.08 l -7.32,0 0,6.711 M 25.467,259.467 c -0.147,0.146 -0.267,26.336 -0.267,58.2 l 0,57.933 58.2,0 58.2,0 0,-58.2 0,-58.2 -57.933,0 c -31.864,0 -58.054,0.12 -58.2,0.267 m 99.802,15.995 c 0.92,0.833 1.167,83.142 0.251,84.058 -0.855,0.855 -83.039,0.677 -83.989,-0.182 -1.199,-1.085 -1.132,-82.537 0.069,-83.738 1.141,-1.141 82.412,-1.275 83.669,-0.138 m -65.972,42.035 0.103,24.303 24.2,0 24.2,0 0,-24.2 0,-24.2 -24.303,-0.103 -24.303,-0.103 0.103,24.303 m 100.794,-7.614 -0.908,0.175 0.108,7.471 0.109,7.471 7.7,0.109 7.7,0.108 0,-7.562 c 0,-7.504 -0.007,-7.564 -0.9,-7.803 -1.002,-0.268 -12.382,-0.243 -13.809,0.031 m 33.409,0.156 c -1.084,0.621 -1.056,13.514 0.031,14.499 1.308,1.183 12.844,0.966 13.999,-0.264 1.047,-1.114 1.371,-13.503 0.37,-14.15 -0.745,-0.483 -13.574,-0.558 -14.4,-0.085 m -17.1,24.187 0,7.826 6.94,-0.126 c 8.946,-0.162 8.26,0.481 8.26,-7.746 0,-8.421 0.678,-7.78 -8.229,-7.78 l -6.971,0 0,7.826 m 33.549,-7.166 c -0.413,0.497 -0.58,2.574 -0.673,8.4 l -0.124,7.74 -7.287,0 c -5.948,0 -7.45,0.114 -8.176,0.623 l -0.889,0.622 0,15.578 0,15.577 7.792,0 7.792,0 0.108,-8.3 0.108,-8.3 16.5,-0.104 16.5,-0.105 0,-7.795 0,-7.796 -7.92,0 c -9.809,0 -8.88,0.929 -8.88,-8.88 l 0,-7.92 -7.151,0 c -6.158,0 -7.227,0.092 -7.7,0.66 m -50.482,16.407 c -0.147,0.146 -0.267,7.436 -0.267,16.2 l 0,15.933 7.8,0 7.8,0 0,-16.2 0,-16.2 -7.533,0 c -4.144,0 -7.654,0.12 -7.8,0.267 m 84.008,16.791 c -0.151,0.151 -0.275,3.665 -0.275,7.809 l 0,7.533 7.809,0 7.808,0 -0.108,-7.7 -0.109,-7.7 -7.425,-0.109 c -4.083,-0.059 -7.548,0.016 -7.7,0.167 m 32.925,7.542 0,7.8 7.6,0 7.6,0 0,-7.8 0,-7.8 -7.6,0 -7.6,0 0,7.8 m 33.594,-6.783 c -0.433,1.137 -0.532,10.692 -0.137,13.083 l 0.248,1.5 7.556,0 7.556,0 -0.108,-7.7 -0.109,-7.7 -7.306,-0.109 -7.307,-0.109 -0.393,1.035 m 33.481,-0.759 c -0.151,0.151 -0.275,3.665 -0.275,7.809 l 0,7.533 7.809,0 7.808,0 -0.108,-7.7 -0.109,-7.7 -7.425,-0.109 c -4.083,-0.059 -7.548,0.016 -7.7,0.167"
       inkscape:connector-curvature="0"
       style="fill:#ff5c43;fill-rule:evenodd;stroke:none" />
  </g>
</svg>
