<svg id="svg" version="1.1" width="400" height="400" xmlns="http://www.w3.org/2000/svg" xmlns:xlink="http://www.w3.org/1999/xlink" style="display: block;"><g id="svgg"><path id="path0" d="M0.000 200.000 L 0.000 400.000 200.000 400.000 L 400.000 400.000 400.000 200.000 L 400.000 0.000 200.000 0.000 L 0.000 0.000 0.000 200.000 M376.633 12.056 C 378.008 12.321,379.419 12.890,380.000 13.412 C 380.550 13.907,381.773 14.700,382.718 15.173 C 385.209 16.422,387.395 18.550,388.408 20.712 C 388.895 21.750,389.992 23.247,390.846 24.039 L 392.400 25.477 392.400 32.450 C 392.400 39.681,392.320 40.082,390.513 41.932 C 390.228 42.224,389.433 43.626,388.748 45.047 C 387.968 46.663,387.107 47.835,386.447 48.176 C 385.866 48.476,384.976 49.461,384.468 50.365 C 383.960 51.269,383.041 52.269,382.426 52.587 C 381.811 52.905,381.012 53.788,380.651 54.549 C 380.289 55.311,379.500 56.354,378.897 56.867 C 378.294 57.380,377.462 58.340,377.048 59.000 C 376.635 59.660,375.842 60.688,375.287 61.286 C 374.548 62.081,374.390 62.509,374.696 62.886 C 375.838 64.292,376.400 68.554,376.400 75.817 L 376.400 83.170 374.868 84.685 C 374.025 85.518,372.870 87.010,372.300 88.000 C 370.170 91.700,278.462 183.098,276.179 183.795 L 274.200 184.400 272.367 182.500 C 271.359 181.455,270.136 180.330,269.650 180.000 C 269.164 179.670,268.369 178.818,267.883 178.106 C 266.705 176.381,264.400 176.405,264.400 178.144 C 264.400 178.604,262.662 180.400,262.217 180.400 C 261.801 180.400,260.400 181.790,260.400 182.202 C 260.400 182.633,258.622 184.400,258.188 184.400 C 257.930 184.400,257.288 184.976,256.760 185.680 C 256.232 186.384,255.479 187.239,255.086 187.580 C 254.694 187.921,253.761 188.830,253.013 189.600 C 252.266 190.370,251.366 191.270,251.013 191.600 C 250.661 191.930,249.761 192.830,249.013 193.600 C 248.266 194.370,247.366 195.270,247.013 195.600 C 246.661 195.930,245.761 196.830,245.013 197.600 C 244.266 198.370,243.366 199.270,243.013 199.600 C 242.661 199.930,241.761 200.830,241.013 201.600 C 240.266 202.370,239.360 203.270,239.000 203.600 C 238.640 203.930,237.726 204.830,236.967 205.600 C 236.209 206.370,235.429 207.153,235.234 207.340 C 234.771 207.785,231.778 210.778,231.340 211.235 C 230.236 212.387,214.336 227.946,213.551 228.644 C 213.028 229.108,212.126 230.008,211.546 230.644 C 210.967 231.280,209.977 232.254,209.346 232.809 C 208.716 233.363,207.840 234.213,207.400 234.696 C 205.926 236.315,203.723 238.478,199.731 242.224 C 198.229 243.633,196.730 245.099,196.400 245.482 C 196.070 245.865,195.208 246.723,194.485 247.389 C 193.761 248.055,190.765 250.940,187.827 253.800 C 184.889 256.660,180.189 261.160,177.382 263.800 C 174.576 266.440,171.332 269.500,170.172 270.600 C 169.013 271.700,166.857 273.680,165.382 275.000 C 162.241 277.810,160.400 279.672,160.400 280.041 C 160.400 280.185,159.890 280.514,159.268 280.772 C 158.645 281.030,157.466 282.042,156.648 283.021 C 155.830 283.999,154.911 284.800,154.607 284.800 C 154.303 284.800,153.646 285.385,153.146 286.100 C 152.042 287.681,150.833 288.800,150.230 288.800 C 149.983 288.800,149.456 289.405,149.058 290.145 C 148.659 290.885,147.645 291.877,146.803 292.350 C 145.962 292.823,144.901 293.841,144.446 294.611 C 143.992 295.382,143.178 296.180,142.638 296.386 C 142.098 296.591,141.059 297.571,140.328 298.564 C 139.598 299.557,138.803 300.376,138.561 300.384 C 138.016 300.404,136.400 301.777,136.400 302.221 C 136.400 302.736,134.712 304.400,134.190 304.400 C 133.931 304.400,133.288 304.976,132.760 305.680 C 132.232 306.384,131.473 307.239,131.073 307.580 C 130.673 307.921,129.729 308.830,128.975 309.600 C 128.222 310.370,127.297 311.270,126.920 311.600 C 125.337 312.986,121.772 316.313,120.277 317.800 C 119.392 318.680,118.270 319.670,117.784 320.000 C 117.298 320.330,115.878 321.545,114.628 322.700 C 113.378 323.855,112.214 324.800,112.040 324.800 C 111.867 324.800,110.786 325.700,109.639 326.800 C 108.492 327.900,107.326 328.800,107.048 328.800 C 106.771 328.800,105.837 329.585,104.972 330.544 C 104.107 331.503,103.000 332.414,102.510 332.568 C 102.021 332.721,101.217 333.422,100.724 334.124 C 99.569 335.767,98.947 336.400,98.490 336.400 C 98.056 336.400,96.400 337.782,96.400 338.144 C 96.400 338.627,94.651 340.400,94.174 340.400 C 93.910 340.400,93.048 341.114,92.260 341.987 C 91.471 342.860,90.068 344.052,89.141 344.637 C 88.215 345.222,86.994 346.146,86.428 346.691 C 85.863 347.236,84.725 347.994,83.901 348.376 C 83.076 348.758,81.667 349.820,80.770 350.736 C 79.873 351.651,78.910 352.400,78.630 352.400 C 78.092 352.400,76.400 353.722,76.400 354.142 C 76.400 354.703,74.922 356.092,73.800 356.584 C 73.140 356.874,71.837 357.835,70.905 358.719 C 69.739 359.826,68.703 360.414,67.583 360.603 C 66.327 360.815,65.756 361.187,65.078 362.234 C 64.595 362.981,63.570 363.884,62.800 364.242 C 62.030 364.599,60.646 365.664,59.724 366.607 C 58.463 367.896,57.620 368.393,56.324 368.607 C 54.297 368.943,53.200 369.456,53.200 370.068 C 53.200 370.745,51.153 372.347,49.950 372.611 C 49.358 372.741,48.272 373.423,47.537 374.126 C 45.998 375.598,44.389 376.400,42.975 376.400 C 42.309 376.400,41.397 377.034,40.173 378.346 C 38.512 380.127,38.165 380.312,36.086 380.527 C 34.030 380.739,33.663 380.930,32.207 382.544 C 30.733 384.180,30.402 384.348,28.202 384.579 C 26.010 384.808,25.665 384.982,24.166 386.615 C 21.419 389.608,14.944 388.689,15.757 385.422 C 15.870 384.970,16.078 383.871,16.219 382.980 C 16.377 381.987,16.990 380.766,17.804 379.824 C 18.535 378.979,19.245 377.687,19.382 376.954 C 19.755 374.964,20.621 373.158,21.910 371.678 C 22.544 370.951,23.373 369.315,23.754 368.044 C 24.211 366.518,24.902 365.303,25.785 364.470 C 26.621 363.681,27.382 362.385,27.812 361.016 C 28.191 359.811,29.074 358.145,29.773 357.313 C 30.473 356.481,31.364 354.947,31.754 353.904 C 32.144 352.862,32.964 351.602,33.576 351.104 C 34.188 350.607,35.148 349.177,35.710 347.928 C 36.271 346.678,37.212 345.238,37.800 344.728 C 38.388 344.217,39.327 342.833,39.886 341.652 C 40.494 340.368,41.365 339.241,42.049 338.852 C 42.679 338.493,43.196 337.958,43.197 337.662 C 43.201 336.873,44.436 334.795,45.724 333.409 C 46.341 332.744,47.208 331.509,47.650 330.665 C 48.091 329.821,49.056 328.600,49.793 327.952 C 50.531 327.304,51.479 326.105,51.899 325.287 C 52.320 324.469,53.227 323.440,53.916 323.000 C 54.605 322.560,55.176 321.969,55.185 321.686 C 55.204 321.023,56.366 319.224,57.435 318.200 C 57.895 317.760,58.615 316.860,59.035 316.200 C 59.930 314.796,60.476 314.125,62.475 311.974 C 63.287 311.100,64.051 310.074,64.173 309.693 C 64.295 309.312,64.949 308.640,65.626 308.200 C 66.303 307.760,67.137 306.860,67.479 306.200 C 68.085 305.032,69.352 303.600,69.779 303.600 C 70.267 303.600,71.600 302.179,71.600 301.658 C 71.600 301.071,74.211 298.400,74.785 298.400 C 74.966 298.400,75.221 297.970,75.353 297.445 C 75.485 296.919,76.179 295.969,76.896 295.332 C 77.613 294.696,78.711 293.497,79.336 292.667 C 79.961 291.837,81.131 290.470,81.936 289.629 C 82.741 288.787,83.850 287.518,84.400 286.808 C 85.791 285.011,86.401 284.400,86.802 284.400 C 86.991 284.400,87.263 284.030,87.407 283.579 C 87.550 283.127,88.519 281.912,89.561 280.879 C 90.603 279.845,91.832 278.454,92.294 277.786 C 92.755 277.118,93.581 276.331,94.129 276.038 C 94.677 275.745,95.430 274.939,95.802 274.248 C 96.174 273.557,97.181 272.487,98.039 271.870 C 98.898 271.253,99.600 270.501,99.600 270.198 C 99.600 269.895,100.496 268.892,101.590 267.969 C 102.685 267.046,103.676 265.989,103.794 265.620 C 103.911 265.251,104.815 264.380,105.803 263.683 C 106.791 262.986,107.600 262.175,107.600 261.880 C 107.600 261.384,109.336 259.600,109.820 259.600 C 110.207 259.600,111.467 258.213,111.721 257.507 C 111.858 257.126,112.695 256.316,113.582 255.707 C 114.468 255.098,115.296 254.230,115.421 253.777 C 115.546 253.324,116.128 252.604,116.716 252.177 C 117.303 251.750,118.147 250.990,118.592 250.490 C 120.853 247.944,122.442 246.400,122.800 246.400 C 123.020 246.400,123.200 246.158,123.200 245.861 C 123.200 245.174,124.244 244.011,125.900 242.854 C 126.615 242.354,127.200 241.752,127.200 241.516 C 127.200 240.990,129.443 238.800,129.982 238.800 C 130.197 238.800,130.575 238.395,130.824 237.900 C 131.234 237.082,132.795 235.362,136.475 231.670 C 137.204 230.939,138.070 230.048,138.400 229.691 C 140.611 227.299,143.906 223.838,147.000 220.659 C 148.980 218.625,153.030 214.380,156.000 211.227 C 158.970 208.073,161.635 205.292,161.922 205.047 C 162.209 204.801,163.019 203.987,163.722 203.238 C 165.088 201.783,171.398 195.278,175.206 191.400 C 175.422 191.180,178.573 187.940,182.209 184.200 C 185.845 180.460,189.006 177.220,189.235 177.000 C 189.464 176.780,190.224 175.987,190.925 175.237 C 191.626 174.487,192.566 173.483,193.014 173.005 C 193.461 172.527,194.096 171.971,194.424 171.768 C 194.753 171.566,195.609 170.645,196.327 169.722 C 197.045 168.799,197.959 167.940,198.358 167.813 C 198.757 167.687,199.416 166.966,199.822 166.211 C 200.228 165.457,201.146 164.524,201.861 164.139 C 202.576 163.754,203.469 162.867,203.846 162.167 C 204.222 161.468,205.048 160.590,205.681 160.216 C 206.313 159.842,207.271 158.872,207.809 158.058 C 208.347 157.245,209.324 156.263,209.979 155.876 C 210.635 155.488,211.465 154.675,211.824 154.067 C 212.182 153.460,213.095 152.539,213.851 152.021 C 214.608 151.503,215.535 150.554,215.913 149.912 C 216.291 149.270,217.183 148.384,217.895 147.943 C 218.607 147.502,219.507 146.602,219.895 145.943 C 220.283 145.284,221.183 144.384,221.895 143.943 C 222.607 143.502,223.507 142.602,223.895 141.943 C 224.283 141.284,225.183 140.384,225.895 139.943 C 226.607 139.502,227.507 138.602,227.895 137.943 C 228.283 137.284,229.183 136.384,229.895 135.943 C 230.607 135.502,231.507 134.602,231.895 133.943 C 232.283 133.284,233.183 132.384,233.895 131.943 C 234.607 131.502,235.507 130.602,235.895 129.943 C 236.283 129.284,237.176 128.388,237.880 127.952 C 238.584 127.516,239.523 126.572,239.966 125.855 C 240.410 125.137,241.251 124.294,241.836 123.981 C 242.421 123.668,243.297 122.826,243.783 122.110 C 244.270 121.394,245.402 120.277,246.300 119.626 C 247.198 118.976,248.043 118.119,248.179 117.722 C 248.315 117.325,249.144 116.503,250.023 115.897 C 250.901 115.290,251.817 114.362,252.057 113.834 C 252.297 113.307,253.094 112.552,253.827 112.157 C 254.561 111.762,255.476 110.854,255.861 110.139 C 256.246 109.424,257.122 108.537,257.808 108.168 C 258.495 107.798,259.476 106.883,259.989 106.135 C 260.502 105.386,261.397 104.492,261.979 104.149 C 262.561 103.805,263.450 102.921,263.955 102.184 C 264.460 101.447,265.314 100.555,265.853 100.202 C 266.393 99.848,269.432 97.003,272.607 93.880 C 279.575 87.024,286.527 80.434,293.789 73.800 C 297.226 70.661,298.540 69.439,302.852 65.376 C 304.033 64.263,305.481 63.053,306.070 62.687 C 306.658 62.321,307.242 61.702,307.367 61.311 C 307.492 60.920,308.397 60.094,309.378 59.475 C 310.359 58.857,311.269 58.013,311.400 57.600 C 311.531 57.187,312.439 56.343,313.418 55.725 C 314.398 55.106,315.199 54.463,315.199 54.296 C 315.200 53.821,317.321 51.766,318.108 51.478 C 318.497 51.336,319.165 50.630,319.591 49.910 C 320.018 49.189,321.073 48.166,321.935 47.635 C 322.798 47.105,323.806 46.160,324.175 45.535 C 324.543 44.911,325.013 44.400,325.217 44.400 C 325.567 44.400,327.966 42.241,332.438 37.900 C 333.515 36.855,334.532 36.000,334.698 36.000 C 334.864 35.999,335.903 35.144,337.007 34.100 C 338.110 33.055,339.527 31.840,340.156 31.400 C 340.785 30.960,342.077 29.880,343.027 29.000 C 343.978 28.120,345.493 26.718,346.394 25.884 C 347.294 25.051,348.519 24.153,349.116 23.889 C 350.400 23.321,351.245 22.557,351.797 21.467 C 352.019 21.030,352.901 20.310,353.759 19.866 C 354.616 19.423,355.606 18.556,355.959 17.940 C 356.316 17.315,357.631 16.279,358.931 15.597 C 360.213 14.924,361.635 14.026,362.091 13.601 C 363.911 11.905,371.608 11.087,376.633 12.056 M369.415 19.176 C 369.271 19.409,368.868 19.600,368.520 19.600 C 366.375 19.600,362.322 21.319,360.936 22.817 C 360.131 23.688,359.237 24.400,358.951 24.400 C 358.236 24.400,356.845 25.945,356.213 27.443 C 355.924 28.127,355.274 29.072,354.769 29.543 C 354.263 30.015,354.056 30.400,354.308 30.400 C 354.561 30.400,355.450 31.107,356.284 31.972 C 357.118 32.837,357.980 33.732,358.200 33.960 C 358.420 34.189,359.320 35.089,360.200 35.960 C 361.080 36.832,361.980 37.732,362.200 37.960 C 362.420 38.189,363.320 39.089,364.200 39.960 C 365.080 40.832,365.980 41.732,366.200 41.960 C 366.420 42.189,367.320 43.089,368.200 43.960 C 369.080 44.832,369.980 45.732,370.200 45.960 C 370.420 46.189,371.365 47.095,372.300 47.972 C 373.235 48.850,374.000 49.795,374.000 50.073 C 374.000 50.351,374.287 50.168,374.638 49.667 C 374.989 49.166,376.109 48.361,377.126 47.878 C 378.144 47.394,379.201 46.549,379.475 46.000 C 380.025 44.894,382.339 42.400,382.815 42.400 C 382.982 42.400,383.327 41.198,383.583 39.730 C 383.839 38.261,384.331 36.416,384.678 35.630 C 386.603 31.258,382.276 21.485,378.000 20.550 C 377.450 20.430,376.370 20.100,375.600 19.817 C 373.539 19.060,369.731 18.665,369.415 19.176 M343.328 38.194 C 342.047 39.401,340.873 40.391,340.717 40.394 C 340.561 40.397,339.481 41.291,338.317 42.381 C 337.153 43.471,335.651 44.662,334.980 45.029 C 334.309 45.396,333.458 46.222,333.089 46.865 C 332.720 47.507,331.810 48.287,331.068 48.598 C 330.325 48.908,329.388 49.665,328.985 50.281 C 327.991 51.801,327.509 52.248,326.526 52.560 C 326.066 52.706,325.208 53.553,324.619 54.442 C 324.031 55.332,323.066 56.230,322.475 56.438 C 321.884 56.647,320.997 57.438,320.504 58.197 C 320.011 58.955,319.111 59.890,318.504 60.273 C 317.897 60.656,317.040 61.413,316.600 61.955 C 316.160 62.497,315.530 63.178,315.200 63.469 C 314.870 63.760,312.875 65.675,310.766 67.724 C 308.658 69.774,306.368 71.853,305.678 72.345 C 304.987 72.836,304.126 73.740,303.764 74.354 C 303.401 74.967,302.496 75.797,301.752 76.198 C 301.009 76.598,300.400 77.054,300.400 77.211 C 300.400 77.513,299.861 78.042,293.208 84.274 C 290.903 86.433,287.987 89.190,286.729 90.400 C 285.471 91.610,282.321 94.580,279.730 97.000 C 277.139 99.420,274.187 102.210,273.170 103.200 C 272.153 104.190,270.889 105.398,270.361 105.885 C 269.832 106.372,268.777 107.407,268.017 108.185 C 267.256 108.963,266.514 109.600,266.368 109.600 C 266.222 109.600,265.688 110.207,265.180 110.948 C 264.672 111.689,263.680 112.606,262.975 112.985 C 262.271 113.365,261.497 114.107,261.257 114.634 C 261.017 115.162,260.113 116.090,259.248 116.697 C 258.383 117.303,257.377 118.296,257.014 118.902 C 256.650 119.508,255.822 120.278,255.174 120.613 C 254.527 120.948,253.523 121.937,252.945 122.811 C 252.367 123.685,251.725 124.400,251.520 124.400 C 251.314 124.400,249.313 126.267,247.073 128.548 C 244.833 130.829,242.595 132.906,242.100 133.162 C 241.605 133.418,241.200 133.858,241.200 134.139 C 241.200 134.737,239.395 136.499,238.100 137.165 C 237.605 137.420,237.200 137.800,237.200 138.011 C 237.200 138.635,235.484 140.432,234.300 141.048 C 233.695 141.363,233.200 141.867,233.200 142.169 C 233.200 142.673,231.394 144.441,229.900 145.400 C 229.521 145.644,229.174 146.688,229.014 148.069 L 228.750 150.337 230.560 151.669 C 231.555 152.401,232.376 153.222,232.384 153.494 C 232.393 153.766,233.290 154.666,234.377 155.494 C 235.465 156.322,236.365 157.222,236.377 157.494 C 236.390 157.766,237.290 158.666,238.377 159.494 C 239.465 160.322,240.365 161.222,240.377 161.494 C 240.390 161.766,241.290 162.666,242.377 163.494 C 243.465 164.322,244.365 165.222,244.377 165.494 C 244.390 165.766,245.290 166.666,246.377 167.494 C 247.465 168.322,248.371 169.180,248.391 169.400 C 248.439 169.938,249.843 171.597,250.264 171.613 C 250.739 171.632,252.397 173.060,252.413 173.464 C 252.521 176.176,257.719 176.263,259.412 173.581 C 259.953 172.724,260.934 171.745,261.591 171.405 C 262.249 171.065,263.055 170.267,263.384 169.632 C 263.712 168.997,264.619 168.082,265.400 167.600 C 266.181 167.118,267.081 166.218,267.400 165.600 C 267.719 164.982,268.601 164.094,269.358 163.626 C 270.116 163.157,271.098 162.161,271.540 161.412 C 271.982 160.663,272.893 159.765,273.565 159.418 C 274.237 159.071,275.071 158.237,275.418 157.565 C 275.765 156.893,276.675 155.975,277.439 155.524 C 278.204 155.073,279.104 154.173,279.439 153.524 C 279.775 152.875,280.675 151.975,281.439 151.524 C 282.204 151.073,283.098 150.185,283.426 149.550 C 283.754 148.916,284.737 147.923,285.611 147.345 C 286.485 146.767,287.200 146.117,287.200 145.900 C 287.200 145.443,290.251 142.400,290.709 142.400 C 290.879 142.400,291.347 141.788,291.750 141.041 C 292.153 140.293,293.093 139.353,293.841 138.950 C 294.588 138.547,295.200 138.017,295.200 137.770 C 295.200 137.167,296.319 135.958,297.900 134.854 C 298.615 134.354,299.200 133.715,299.200 133.433 C 299.200 133.150,299.776 132.488,300.480 131.960 C 301.184 131.432,301.989 130.730,302.271 130.400 C 302.731 129.860,308.095 124.143,312.800 119.179 C 313.790 118.134,316.040 115.702,317.800 113.773 C 319.560 111.844,321.859 109.351,322.910 108.233 C 323.960 107.115,325.580 105.344,326.510 104.298 C 327.439 103.252,329.947 100.585,332.081 98.372 C 334.216 96.158,336.064 94.028,336.188 93.638 C 336.312 93.247,336.891 92.674,337.474 92.364 C 338.058 92.054,339.047 91.095,339.672 90.234 C 340.297 89.373,341.437 88.241,342.204 87.719 C 342.972 87.198,343.599 86.553,343.597 86.286 C 343.595 86.019,344.540 84.881,345.697 83.757 C 346.854 82.634,348.160 81.241,348.600 80.661 C 349.040 80.082,349.543 79.606,349.717 79.604 C 350.193 79.598,351.438 78.295,351.721 77.507 C 351.858 77.126,352.690 76.316,353.570 75.707 C 354.450 75.098,355.176 74.381,355.185 74.114 C 355.207 73.398,357.526 70.877,358.425 70.592 C 358.851 70.457,359.200 70.019,359.200 69.620 C 359.200 69.220,359.886 68.273,360.725 67.516 C 361.563 66.758,362.635 65.514,363.107 64.751 C 363.578 63.988,364.332 62.940,364.782 62.421 C 365.232 61.902,365.600 61.337,365.600 61.166 C 365.600 60.994,365.915 60.752,366.300 60.628 C 368.626 59.877,369.211 54.433,367.141 52.796 C 366.449 52.248,365.414 51.281,364.841 50.646 C 364.268 50.011,363.375 49.111,362.856 48.646 C 362.337 48.181,361.437 47.281,360.856 46.646 C 360.275 46.011,359.377 45.111,358.860 44.646 C 358.342 44.181,357.622 43.457,357.260 43.037 C 356.897 42.617,355.970 41.671,355.200 40.934 C 354.430 40.197,353.661 39.461,353.492 39.297 C 353.323 39.134,352.570 38.325,351.819 37.500 C 349.528 34.983,346.468 35.233,343.328 38.194 M365.015 73.292 C 363.213 75.494,362.952 75.766,361.655 76.796 C 360.965 77.343,360.400 77.987,360.400 78.226 C 360.400 78.764,358.697 80.400,358.137 80.400 C 357.910 80.400,357.118 81.289,356.377 82.376 C 355.635 83.462,354.723 84.432,354.349 84.529 C 353.975 84.627,353.197 85.455,352.620 86.369 C 352.043 87.283,351.157 88.219,350.651 88.449 C 350.146 88.680,349.396 89.438,348.986 90.134 C 348.063 91.700,347.204 92.599,346.330 92.912 C 345.962 93.044,345.348 93.810,344.967 94.614 C 344.585 95.418,343.672 96.464,342.938 96.938 C 342.204 97.412,341.496 98.129,341.365 98.532 C 341.233 98.935,340.287 100.142,339.263 101.214 C 338.238 102.287,336.551 104.117,335.514 105.282 C 334.477 106.447,333.146 107.940,332.558 108.600 C 330.093 111.365,320.024 122.140,318.849 123.270 C 318.546 123.562,317.611 124.520,316.771 125.400 C 315.932 126.280,314.930 127.270,314.545 127.600 C 314.160 127.930,313.385 128.710,312.823 129.333 C 311.995 130.249,308.761 133.540,305.145 137.144 C 304.845 137.443,303.520 138.828,302.200 140.222 C 300.880 141.616,299.620 142.938,299.400 143.159 C 299.180 143.379,298.235 144.334,297.300 145.280 C 296.365 146.226,295.318 147.270,294.973 147.600 C 294.628 147.930,293.734 148.830,292.987 149.600 C 292.239 150.370,291.345 151.270,291.000 151.600 C 290.655 151.930,289.761 152.830,289.013 153.600 C 288.266 154.370,287.366 155.270,287.013 155.600 C 286.661 155.930,285.761 156.830,285.013 157.600 C 284.266 158.370,283.369 159.270,283.020 159.600 C 281.527 161.014,280.142 162.393,279.341 163.265 C 278.868 163.779,278.015 164.560,277.445 165.000 C 276.875 165.440,276.406 165.934,276.404 166.097 C 276.397 166.620,274.673 168.400,274.174 168.400 C 272.989 168.400,272.459 170.154,272.965 172.399 C 273.549 174.992,273.970 175.191,276.011 173.840 C 276.876 173.268,277.694 172.800,277.830 172.800 C 278.759 172.800,366.961 83.689,367.666 82.039 C 368.098 81.027,368.878 79.750,369.400 79.200 C 370.520 78.020,371.200 76.376,371.200 74.850 C 371.200 72.090,366.887 71.003,365.015 73.292 M221.032 154.992 C 220.620 155.757,219.994 156.482,219.642 156.602 C 217.541 157.320,217.418 157.860,218.951 159.652 C 219.748 160.582,220.400 161.580,220.400 161.869 C 220.400 162.159,221.150 162.939,222.068 163.603 C 222.985 164.268,224.047 165.323,224.427 165.948 C 224.807 166.572,225.757 167.479,226.538 167.962 C 227.319 168.445,228.073 169.201,228.213 169.642 C 228.353 170.083,229.203 170.977,230.102 171.628 C 231.000 172.279,232.047 173.323,232.427 173.948 C 232.807 174.572,233.757 175.479,234.538 175.962 C 235.319 176.445,236.073 177.201,236.213 177.642 C 236.353 178.083,237.203 178.977,238.102 179.628 C 239.000 180.279,240.057 181.340,240.450 181.986 C 240.843 182.632,241.722 183.449,242.403 183.802 C 243.084 184.154,244.246 185.083,244.986 185.868 L 246.331 187.293 247.363 185.658 C 247.931 184.759,248.925 183.749,249.572 183.414 C 251.544 182.395,251.508 181.677,249.429 180.518 C 249.004 180.282,248.269 179.393,247.795 178.544 C 247.321 177.695,246.534 176.799,246.045 176.552 C 245.080 176.066,244.053 175.004,243.361 173.778 C 243.119 173.350,242.525 172.799,242.039 172.552 C 241.079 172.065,240.050 171.000,239.361 169.778 C 239.119 169.350,238.525 168.799,238.039 168.552 C 237.079 168.065,236.050 167.000,235.361 165.778 C 235.119 165.350,234.525 164.799,234.039 164.552 C 232.974 164.012,231.600 162.589,231.600 162.026 C 231.600 161.802,231.105 161.312,230.500 160.937 C 229.168 160.112,227.600 158.567,227.600 158.079 C 227.600 157.519,226.202 156.400,225.501 156.400 C 225.151 156.400,224.271 155.770,223.544 155.000 C 221.925 153.283,221.952 153.283,221.032 154.992 M211.136 165.273 C 209.850 165.615,209.594 165.899,209.036 167.606 C 208.186 170.203,208.220 170.479,209.496 171.405 C 210.098 171.842,211.175 172.830,211.888 173.600 C 212.601 174.370,213.373 175.180,213.604 175.400 C 213.835 175.620,214.741 176.520,215.616 177.400 C 216.492 178.280,217.368 179.153,217.564 179.340 C 217.760 179.527,218.640 180.400,219.520 181.280 C 220.400 182.160,221.300 183.060,221.520 183.280 C 221.740 183.500,222.613 184.373,223.460 185.220 C 224.307 186.067,225.180 186.940,225.400 187.160 C 225.620 187.380,226.574 188.334,227.520 189.280 C 228.466 190.226,229.425 191.180,229.651 191.400 C 229.877 191.620,230.921 192.655,231.971 193.700 C 234.083 195.801,235.290 196.074,237.813 195.020 C 240.064 194.080,239.938 190.076,237.611 188.607 C 236.738 188.056,235.754 187.085,235.426 186.450 C 235.098 185.816,234.204 184.927,233.439 184.476 C 232.675 184.025,231.775 183.125,231.439 182.476 C 231.104 181.827,230.204 180.927,229.439 180.476 C 228.675 180.025,227.765 179.107,227.418 178.435 C 227.071 177.763,226.237 176.929,225.565 176.582 C 224.893 176.235,223.985 175.343,223.547 174.600 C 223.109 173.857,222.143 172.891,221.400 172.453 C 220.657 172.015,219.765 171.107,219.418 170.435 C 219.071 169.763,218.249 168.935,217.591 168.595 C 216.934 168.255,215.944 167.262,215.393 166.389 C 214.318 164.686,213.824 164.557,211.136 165.273 M200.980 175.862 C 200.331 176.389,199.583 176.995,199.317 177.210 C 199.051 177.424,198.653 177.600,198.431 177.600 C 198.209 177.600,197.822 177.984,197.571 178.454 C 197.320 178.924,195.378 181.059,193.257 183.199 C 191.136 185.339,186.700 189.908,183.400 193.353 C 180.100 196.798,175.330 201.744,172.800 204.345 C 167.987 209.293,154.852 222.887,147.500 230.530 C 145.136 232.989,142.893 235.270,142.516 235.600 C 142.140 235.930,141.374 236.698,140.816 237.306 C 139.895 238.309,132.115 246.441,131.159 247.400 C 130.939 247.620,130.049 248.520,129.180 249.400 C 127.419 251.183,126.879 251.720,125.293 253.265 C 124.692 253.850,123.813 254.750,123.341 255.265 C 122.868 255.779,122.015 256.560,121.445 257.000 C 120.875 257.440,120.406 257.994,120.404 258.230 C 120.399 258.767,118.693 260.400,118.137 260.400 C 117.910 260.400,117.133 261.268,116.410 262.328 C 115.686 263.388,114.718 264.423,114.260 264.628 C 113.801 264.833,112.953 265.700,112.375 266.556 C 111.798 267.412,110.885 268.343,110.347 268.625 C 109.809 268.906,109.108 269.646,108.790 270.269 C 108.472 270.891,107.862 271.670,107.434 272.000 C 107.006 272.330,106.194 273.116,105.628 273.747 C 105.063 274.378,103.770 275.733,102.755 276.758 C 101.741 277.782,100.797 278.976,100.658 279.410 C 100.519 279.845,99.851 280.560,99.174 281.000 C 98.497 281.440,97.698 282.250,97.399 282.800 C 97.100 283.350,96.078 284.640,95.128 285.668 C 91.762 289.306,88.592 292.917,88.000 293.787 C 87.670 294.272,86.680 295.381,85.800 296.251 C 82.916 299.104,80.137 302.197,79.664 303.080 C 79.409 303.556,78.854 304.056,78.431 304.190 C 78.008 304.325,77.107 305.298,76.430 306.353 C 75.753 307.409,74.777 308.464,74.263 308.699 C 73.748 308.933,73.024 309.763,72.655 310.542 C 72.285 311.321,71.450 312.337,70.800 312.800 C 70.150 313.263,69.315 314.280,68.944 315.061 C 68.574 315.841,67.694 317.091,66.990 317.839 C 66.285 318.586,65.205 319.963,64.589 320.899 C 63.974 321.834,62.779 323.275,61.935 324.100 C 59.290 326.683,59.704 330.032,62.928 332.123 C 63.541 332.521,64.155 333.137,64.291 333.493 C 64.602 334.304,65.493 335.192,66.928 336.123 C 67.541 336.521,68.155 337.137,68.291 337.493 C 68.602 338.304,69.493 339.192,70.928 340.123 C 71.541 340.521,72.159 341.151,72.301 341.523 C 73.382 344.353,77.685 344.701,80.385 342.176 C 81.429 341.199,82.489 340.400,82.741 340.400 C 82.994 340.400,83.200 340.220,83.200 340.000 C 83.200 339.780,83.470 339.600,83.800 339.600 C 84.130 339.600,84.400 339.420,84.400 339.200 C 84.400 338.980,84.649 338.800,84.953 338.800 C 85.257 338.800,86.202 338.105,87.053 337.257 C 87.904 336.408,89.010 335.584,89.511 335.426 C 90.012 335.268,90.729 334.658,91.105 334.070 C 91.932 332.777,92.700 332.098,93.910 331.592 C 94.410 331.383,95.173 330.614,95.604 329.883 C 96.035 329.152,97.111 328.148,97.994 327.651 C 98.877 327.155,99.600 326.602,99.600 326.422 C 99.600 326.013,102.043 323.600,102.457 323.600 C 102.625 323.600,103.560 322.835,104.534 321.900 C 106.725 319.796,109.757 317.117,111.570 315.684 C 112.323 315.088,113.590 313.970,114.385 313.200 C 115.180 312.430,116.364 311.452,117.015 311.026 C 117.667 310.600,118.529 309.834,118.930 309.324 C 119.332 308.814,120.445 307.857,121.404 307.197 C 122.362 306.538,123.251 305.671,123.378 305.270 C 123.505 304.870,124.329 304.138,125.209 303.643 C 126.088 303.149,127.062 302.262,127.371 301.672 C 127.681 301.082,128.670 300.151,129.571 299.603 C 130.471 299.055,131.319 298.255,131.455 297.826 C 131.702 297.050,133.130 295.639,133.695 295.613 C 134.219 295.590,135.600 294.237,135.600 293.749 C 135.600 293.488,136.484 292.640,137.565 291.863 C 138.645 291.087,139.641 290.100,139.778 289.671 C 139.914 289.241,140.726 288.426,141.581 287.860 C 142.437 287.294,143.450 286.301,143.832 285.653 C 144.215 285.005,145.219 284.087,146.064 283.612 C 146.909 283.137,147.600 282.573,147.600 282.358 C 147.600 281.862,148.593 280.870,150.473 279.485 C 151.283 278.889,152.052 278.067,152.181 277.659 C 152.311 277.251,153.011 276.597,153.736 276.206 C 154.462 275.815,155.465 274.899,155.964 274.170 C 156.464 273.441,157.318 272.552,157.863 272.195 C 159.196 271.322,160.206 270.283,160.521 269.460 C 160.665 269.087,161.098 268.661,161.484 268.512 C 161.871 268.364,163.968 266.523,166.144 264.421 C 168.321 262.320,171.034 259.700,172.172 258.600 C 173.311 257.500,174.953 255.933,175.821 255.119 C 176.690 254.304,177.608 253.404,177.863 253.119 C 178.117 252.833,180.351 250.710,182.826 248.400 C 185.302 246.090,189.501 242.084,192.157 239.497 C 194.813 236.911,197.296 234.697,197.673 234.577 C 198.050 234.457,198.467 234.019,198.599 233.604 C 198.730 233.189,199.505 232.296,200.319 231.620 C 201.134 230.944,202.070 230.083,202.400 229.706 C 202.730 229.330,203.599 228.477,204.332 227.811 C 205.065 227.145,207.438 224.845,209.607 222.700 C 211.775 220.555,213.736 218.800,213.965 218.800 C 214.193 218.800,214.659 218.259,215.001 217.598 C 215.343 216.937,216.332 215.927,217.198 215.354 C 218.065 214.780,218.875 213.994,218.998 213.607 C 219.121 213.220,219.797 212.475,220.501 211.952 C 222.037 210.809,223.199 209.654,223.970 208.502 C 224.284 208.034,225.139 207.328,225.870 206.934 C 226.602 206.540,227.200 205.920,227.200 205.556 C 227.200 205.191,227.882 204.277,228.716 203.523 L 230.232 202.154 229.085 201.177 C 228.453 200.640,227.702 199.642,227.414 198.961 C 227.127 198.280,226.237 197.317,225.436 196.822 C 224.636 196.328,223.719 195.418,223.400 194.800 C 223.081 194.182,222.181 193.282,221.400 192.800 C 220.619 192.318,219.719 191.418,219.400 190.800 C 219.081 190.182,218.181 189.282,217.400 188.800 C 216.619 188.318,215.719 187.418,215.400 186.800 C 215.081 186.182,214.181 185.282,213.400 184.800 C 212.619 184.318,211.719 183.418,211.400 182.800 C 211.081 182.182,210.181 181.282,209.400 180.800 C 208.619 180.318,207.705 179.389,207.368 178.737 C 206.991 178.008,206.099 177.271,205.052 176.822 C 204.116 176.421,203.082 175.825,202.755 175.498 C 202.229 174.972,202.025 175.014,200.980 175.862 M53.685 334.475 C 53.418 334.742,53.200 335.111,53.200 335.296 C 53.200 335.744,51.611 337.957,50.555 338.981 C 50.090 339.431,49.127 340.748,48.416 341.906 C 47.705 343.065,46.764 344.205,46.325 344.440 C 45.885 344.675,45.078 345.887,44.531 347.134 C 43.983 348.380,43.115 349.850,42.600 350.400 C 42.085 350.950,41.125 352.445,40.467 353.722 C 39.808 354.999,38.784 356.494,38.190 357.045 L 37.109 358.046 38.755 359.454 C 39.660 360.229,40.406 361.073,40.413 361.331 C 40.430 361.918,41.809 363.600,42.273 363.600 C 42.688 363.600,44.115 364.995,45.235 366.496 L 46.052 367.593 47.966 365.596 C 49.019 364.498,50.180 363.600,50.546 363.600 C 51.362 363.600,52.674 362.887,54.000 361.721 C 54.550 361.238,55.832 360.475,56.850 360.025 C 57.867 359.575,59.149 358.620,59.698 357.903 C 60.247 357.187,61.654 356.086,62.824 355.457 C 63.994 354.829,65.291 353.884,65.705 353.357 C 66.119 352.831,66.715 352.400,67.029 352.400 C 67.343 352.400,67.600 352.262,67.600 352.094 C 67.600 351.926,68.355 351.462,69.277 351.062 L 70.953 350.336 69.446 348.914 C 68.617 348.132,67.780 347.073,67.585 346.560 C 67.390 346.047,66.624 345.230,65.884 344.745 C 65.144 344.259,64.155 343.278,63.687 342.564 C 63.219 341.851,62.330 340.968,61.712 340.603 C 61.094 340.237,60.175 339.309,59.670 338.539 C 59.166 337.769,58.142 336.884,57.395 336.572 C 56.648 336.260,55.616 335.551,55.103 334.998 C 54.372 334.209,54.064 334.096,53.685 334.475 M33.038 365.667 C 32.687 366.168,32.400 366.780,32.400 367.028 C 32.400 367.730,31.250 369.861,30.562 370.431 C 30.221 370.715,29.579 371.658,29.135 372.527 L 28.329 374.107 29.158 374.936 C 30.162 375.939,32.155 375.423,34.222 373.625 C 34.894 373.040,36.064 372.316,36.822 372.015 C 39.377 371.001,40.359 368.800,38.256 368.800 C 37.641 368.800,36.072 367.198,35.434 365.919 C 34.815 364.676,33.806 364.570,33.038 365.667 " stroke="none" fill="#ffffff" fill-rule="evenodd"></path><path id="path1" d="M365.360 12.250 C 364.018 12.568,362.547 13.176,362.091 13.601 C 361.635 14.026,360.213 14.924,358.931 15.597 C 357.631 16.279,356.316 17.315,355.959 17.940 C 355.606 18.556,354.616 19.423,353.759 19.866 C 352.901 20.310,352.019 21.030,351.797 21.467 C 351.245 22.557,350.400 23.321,349.116 23.889 C 348.519 24.153,347.294 25.051,346.394 25.884 C 345.493 26.718,343.978 28.120,343.027 29.000 C 342.077 29.880,340.785 30.960,340.156 31.400 C 339.527 31.840,338.110 33.055,337.007 34.100 C 335.903 35.144,334.864 35.999,334.698 36.000 C 334.532 36.000,333.515 36.855,332.438 37.900 C 327.966 42.241,325.567 44.400,325.217 44.400 C 325.013 44.400,324.543 44.911,324.175 45.535 C 323.806 46.160,322.798 47.105,321.935 47.635 C 321.073 48.166,320.018 49.189,319.591 49.910 C 319.165 50.630,318.497 51.336,318.108 51.478 C 317.321 51.766,315.200 53.821,315.199 54.296 C 315.199 54.463,314.398 55.106,313.418 55.725 C 312.439 56.343,311.531 57.187,311.400 57.600 C 311.269 58.013,310.359 58.857,309.378 59.475 C 308.397 60.094,307.492 60.920,307.367 61.311 C 307.242 61.702,306.658 62.321,306.070 62.687 C 305.481 63.053,304.033 64.263,302.852 65.376 C 298.540 69.439,297.226 70.661,293.789 73.800 C 286.527 80.434,279.575 87.024,272.607 93.880 C 269.432 97.003,266.393 99.848,265.853 100.202 C 265.314 100.555,264.460 101.447,263.955 102.184 C 263.450 102.921,262.561 103.805,261.979 104.149 C 261.397 104.492,260.502 105.386,259.989 106.135 C 259.476 106.883,258.495 107.798,257.808 108.168 C 257.122 108.537,256.246 109.424,255.861 110.139 C 255.476 110.854,254.561 111.762,253.827 112.157 C 253.094 112.552,252.297 113.307,252.057 113.834 C 251.817 114.362,250.901 115.290,250.023 115.897 C 249.144 116.503,248.315 117.325,248.179 117.722 C 248.043 118.119,247.198 118.976,246.300 119.626 C 245.402 120.277,244.270 121.394,243.783 122.110 C 243.297 122.826,242.421 123.668,241.836 123.981 C 241.251 124.294,240.410 125.137,239.966 125.855 C 239.523 126.572,238.584 127.516,237.880 127.952 C 237.176 128.388,236.283 129.284,235.895 129.943 C 235.507 130.602,234.607 131.502,233.895 131.943 C 233.183 132.384,232.283 133.284,231.895 133.943 C 231.507 134.602,230.607 135.502,229.895 135.943 C 229.183 136.384,228.283 137.284,227.895 137.943 C 227.507 138.602,226.607 139.502,225.895 139.943 C 225.183 140.384,224.283 141.284,223.895 141.943 C 223.507 142.602,222.607 143.502,221.895 143.943 C 221.183 144.384,220.283 145.284,219.895 145.943 C 219.507 146.602,218.607 147.502,217.895 147.943 C 217.183 148.384,216.291 149.270,215.913 149.912 C 215.535 150.554,214.608 151.503,213.851 152.021 C 213.095 152.539,212.182 153.460,211.824 154.067 C 211.465 154.675,210.635 155.488,209.979 155.876 C 209.324 156.263,208.347 157.245,207.809 158.058 C 207.271 158.872,206.313 159.842,205.681 160.216 C 205.048 160.590,204.222 161.468,203.846 162.167 C 203.469 162.867,202.576 163.754,201.861 164.139 C 201.146 164.524,200.228 165.457,199.822 166.211 C 199.416 166.966,198.757 167.687,198.358 167.813 C 197.959 167.940,197.045 168.799,196.327 169.722 C 195.609 170.645,194.753 171.566,194.424 171.768 C 194.096 171.971,193.461 172.527,193.014 173.005 C 192.566 173.483,191.626 174.487,190.925 175.237 C 190.224 175.987,189.464 176.780,189.235 177.000 C 189.006 177.220,185.845 180.460,182.209 184.200 C 178.573 187.940,175.422 191.180,175.206 191.400 C 171.398 195.278,165.088 201.783,163.722 203.238 C 163.019 203.987,162.209 204.801,161.922 205.047 C 161.635 205.292,158.970 208.073,156.000 211.227 C 153.030 214.380,148.980 218.625,147.000 220.659 C 143.906 223.838,140.611 227.299,138.400 229.691 C 138.070 230.048,137.204 230.939,136.475 231.670 C 132.795 235.362,131.234 237.082,130.824 237.900 C 130.575 238.395,130.197 238.800,129.982 238.800 C 129.443 238.800,127.200 240.990,127.200 241.516 C 127.200 241.752,126.615 242.354,125.900 242.854 C 124.244 244.011,123.200 245.174,123.200 245.861 C 123.200 246.158,123.020 246.400,122.800 246.400 C 122.442 246.400,120.853 247.944,118.592 250.490 C 118.147 250.990,117.303 251.750,116.716 252.177 C 116.128 252.604,115.546 253.324,115.421 253.777 C 115.296 254.230,114.468 255.098,113.582 255.707 C 112.695 256.316,111.858 257.126,111.721 257.507 C 111.467 258.213,110.207 259.600,109.820 259.600 C 109.336 259.600,107.600 261.384,107.600 261.880 C 107.600 262.175,106.791 262.986,105.803 263.683 C 104.815 264.380,103.911 265.251,103.794 265.620 C 103.676 265.989,102.685 267.046,101.590 267.969 C 100.496 268.892,99.600 269.895,99.600 270.198 C 99.600 270.501,98.898 271.253,98.039 271.870 C 97.181 272.487,96.174 273.557,95.802 274.248 C 95.430 274.939,94.677 275.745,94.129 276.038 C 93.581 276.331,92.755 277.118,92.294 277.786 C 91.832 278.454,90.603 279.845,89.561 280.879 C 88.519 281.912,87.550 283.127,87.407 283.579 C 87.263 284.030,86.991 284.400,86.802 284.400 C 86.401 284.400,85.791 285.011,84.400 286.808 C 83.850 287.518,82.741 288.787,81.936 289.629 C 81.131 290.470,79.961 291.837,79.336 292.667 C 78.711 293.497,77.613 294.696,76.896 295.332 C 76.179 295.969,75.485 296.919,75.353 297.445 C 75.221 297.970,74.966 298.400,74.785 298.400 C 74.211 298.400,71.600 301.071,71.600 301.658 C 71.600 302.179,70.267 303.600,69.779 303.600 C 69.352 303.600,68.085 305.032,67.479 306.200 C 67.137 306.860,66.303 307.760,65.626 308.200 C 64.949 308.640,64.295 309.312,64.173 309.693 C 64.051 310.074,63.287 311.100,62.475 311.974 C 60.476 314.125,59.930 314.796,59.035 316.200 C 58.615 316.860,57.895 317.760,57.435 318.200 C 56.366 319.224,55.204 321.023,55.185 321.686 C 55.176 321.969,54.605 322.560,53.916 323.000 C 53.227 323.440,52.320 324.469,51.899 325.287 C 51.479 326.105,50.531 327.304,49.793 327.952 C 49.056 328.600,48.091 329.821,47.650 330.665 C 47.208 331.509,46.341 332.744,45.724 333.409 C 44.436 334.795,43.201 336.873,43.197 337.662 C 43.196 337.958,42.679 338.493,42.049 338.852 C 41.365 339.241,40.494 340.368,39.886 341.652 C 39.327 342.833,38.388 344.217,37.800 344.728 C 37.212 345.238,36.271 346.678,35.710 347.928 C 35.148 349.177,34.188 350.607,33.576 351.104 C 32.964 351.602,32.144 352.862,31.754 353.904 C 31.364 354.947,30.473 356.481,29.773 357.313 C 29.074 358.145,28.191 359.811,27.812 361.016 C 27.382 362.385,26.621 363.681,25.785 364.470 C 24.902 365.303,24.211 366.518,23.754 368.044 C 23.373 369.315,22.544 370.951,21.910 371.678 C 20.621 373.158,19.755 374.964,19.382 376.954 C 19.245 377.687,18.535 378.979,17.804 379.824 C 16.990 380.766,16.377 381.987,16.219 382.980 C 16.078 383.871,15.870 384.970,15.757 385.422 C 14.944 388.689,21.419 389.608,24.166 386.615 C 25.665 384.982,26.010 384.808,28.202 384.579 C 30.402 384.348,30.733 384.180,32.207 382.544 C 33.663 380.930,34.030 380.739,36.086 380.527 C 38.165 380.312,38.512 380.127,40.173 378.346 C 41.397 377.034,42.309 376.400,42.975 376.400 C 44.389 376.400,45.998 375.598,47.537 374.126 C 48.272 373.423,49.358 372.741,49.950 372.611 C 51.153 372.347,53.200 370.745,53.200 370.068 C 53.200 369.456,54.297 368.943,56.324 368.607 C 57.620 368.393,58.463 367.896,59.724 366.607 C 60.646 365.664,62.030 364.599,62.800 364.242 C 63.570 363.884,64.595 362.981,65.078 362.234 C 65.756 361.187,66.327 360.815,67.583 360.603 C 68.703 360.414,69.739 359.826,70.905 358.719 C 71.837 357.835,73.140 356.874,73.800 356.584 C 74.922 356.092,76.400 354.703,76.400 354.142 C 76.400 353.722,78.092 352.400,78.630 352.400 C 78.910 352.400,79.873 351.651,80.770 350.736 C 81.667 349.820,83.076 348.758,83.901 348.376 C 84.725 347.994,85.863 347.236,86.428 346.691 C 86.994 346.146,88.215 345.222,89.141 344.637 C 90.068 344.052,91.471 342.860,92.260 341.987 C 93.048 341.114,93.910 340.400,94.174 340.400 C 94.651 340.400,96.400 338.627,96.400 338.144 C 96.400 337.782,98.056 336.400,98.490 336.400 C 98.947 336.400,99.569 335.767,100.724 334.124 C 101.217 333.422,102.021 332.721,102.510 332.568 C 103.000 332.414,104.107 331.503,104.972 330.544 C 105.837 329.585,106.771 328.800,107.048 328.800 C 107.326 328.800,108.492 327.900,109.639 326.800 C 110.786 325.700,111.867 324.800,112.040 324.800 C 112.214 324.800,113.378 323.855,114.628 322.700 C 115.878 321.545,117.298 320.330,117.784 320.000 C 118.270 319.670,119.392 318.680,120.277 317.800 C 121.772 316.313,125.337 312.986,126.920 311.600 C 127.297 311.270,128.222 310.370,128.975 309.600 C 129.729 308.830,130.673 307.921,131.073 307.580 C 131.473 307.239,132.232 306.384,132.760 305.680 C 133.288 304.976,133.931 304.400,134.190 304.400 C 134.712 304.400,136.400 302.736,136.400 302.221 C 136.400 301.777,138.016 300.404,138.561 300.384 C 138.803 300.376,139.598 299.557,140.328 298.564 C 141.059 297.571,142.098 296.591,142.638 296.386 C 143.178 296.180,143.992 295.382,144.446 294.611 C 144.901 293.841,145.962 292.823,146.803 292.350 C 147.645 291.877,148.659 290.885,149.058 290.145 C 149.456 289.405,149.983 288.800,150.230 288.800 C 150.833 288.800,152.042 287.681,153.146 286.100 C 153.646 285.385,154.303 284.800,154.607 284.800 C 154.911 284.800,155.830 283.999,156.648 283.021 C 157.466 282.042,158.645 281.030,159.268 280.772 C 159.890 280.514,160.400 280.185,160.400 280.041 C 160.400 279.672,162.241 277.810,165.382 275.000 C 166.857 273.680,169.013 271.700,170.172 270.600 C 171.332 269.500,174.576 266.440,177.382 263.800 C 180.189 261.160,184.889 256.660,187.827 253.800 C 190.765 250.940,193.761 248.055,194.485 247.389 C 195.208 246.723,196.070 245.865,196.400 245.482 C 196.730 245.099,198.229 243.633,199.731 242.224 C 203.723 238.478,205.926 236.315,207.400 234.696 C 207.840 234.213,208.716 233.363,209.346 232.809 C 209.977 232.254,210.967 231.280,211.546 230.644 C 212.126 230.008,213.028 229.108,213.551 228.644 C 214.336 227.946,230.236 212.387,231.340 211.235 C 231.778 210.778,234.771 207.785,235.234 207.340 C 235.429 207.153,236.209 206.370,236.967 205.600 C 237.726 204.830,238.640 203.930,239.000 203.600 C 239.360 203.270,240.266 202.370,241.013 201.600 C 241.761 200.830,242.661 199.930,243.013 199.600 C 243.366 199.270,244.266 198.370,245.013 197.600 C 245.761 196.830,246.661 195.930,247.013 195.600 C 247.366 195.270,248.266 194.370,249.013 193.600 C 249.761 192.830,250.661 191.930,251.013 191.600 C 251.366 191.270,252.266 190.370,253.013 189.600 C 253.761 188.830,254.694 187.921,255.086 187.580 C 255.479 187.239,256.232 186.384,256.760 185.680 C 257.288 184.976,257.930 184.400,258.188 184.400 C 258.622 184.400,260.400 182.633,260.400 182.202 C 260.400 181.790,261.801 180.400,262.217 180.400 C 262.662 180.400,264.400 178.604,264.400 178.144 C 264.400 176.405,266.705 176.381,267.883 178.106 C 268.369 178.818,269.164 179.670,269.650 180.000 C 270.136 180.330,271.359 181.455,272.367 182.500 L 274.200 184.400 276.179 183.795 C 278.462 183.098,370.170 91.700,372.300 88.000 C 372.870 87.010,374.025 85.518,374.868 84.685 L 376.400 83.170 376.400 75.817 C 376.400 68.554,375.838 64.292,374.696 62.886 C 374.390 62.509,374.548 62.081,375.287 61.286 C 375.842 60.688,376.635 59.660,377.048 59.000 C 377.462 58.340,378.294 57.380,378.897 56.867 C 379.500 56.354,380.289 55.311,380.651 54.549 C 381.012 53.788,381.811 52.905,382.426 52.587 C 383.041 52.269,383.960 51.269,384.468 50.365 C 384.976 49.461,385.866 48.476,386.447 48.176 C 387.107 47.835,387.968 46.663,388.748 45.047 C 389.433 43.626,390.228 42.224,390.513 41.932 C 392.320 40.082,392.400 39.681,392.400 32.450 L 392.400 25.477 390.846 24.039 C 389.992 23.247,388.895 21.750,388.408 20.712 C 387.395 18.550,385.209 16.422,382.718 15.173 C 381.773 14.700,380.550 13.907,380.000 13.412 C 378.057 11.664,370.393 11.055,365.360 12.250 M375.600 19.817 C 376.370 20.100,377.450 20.430,378.000 20.550 C 382.276 21.485,386.603 31.258,384.678 35.630 C 384.331 36.416,383.839 38.261,383.583 39.730 C 383.327 41.198,382.982 42.400,382.815 42.400 C 382.339 42.400,380.025 44.894,379.475 46.000 C 379.201 46.549,378.144 47.394,377.126 47.878 C 376.109 48.361,374.989 49.166,374.638 49.667 C 374.287 50.168,374.000 50.351,374.000 50.073 C 374.000 49.795,373.235 48.850,372.300 47.972 C 371.365 47.095,370.420 46.189,370.200 45.960 C 369.980 45.732,369.080 44.832,368.200 43.960 C 367.320 43.089,366.420 42.189,366.200 41.960 C 365.980 41.732,365.080 40.832,364.200 39.960 C 363.320 39.089,362.420 38.189,362.200 37.960 C 361.980 37.732,361.080 36.832,360.200 35.960 C 359.320 35.089,358.420 34.189,358.200 33.960 C 357.980 33.732,357.118 32.837,356.284 31.972 C 355.450 31.107,354.561 30.400,354.308 30.400 C 354.056 30.400,354.263 30.015,354.769 29.543 C 355.274 29.072,355.924 28.127,356.213 27.443 C 356.845 25.945,358.236 24.400,358.951 24.400 C 359.237 24.400,360.131 23.688,360.936 22.817 C 362.322 21.319,366.375 19.600,368.520 19.600 C 368.868 19.600,369.271 19.409,369.415 19.176 C 369.731 18.665,373.539 19.060,375.600 19.817 M351.819 37.500 C 352.570 38.325,353.323 39.134,353.492 39.297 C 353.661 39.461,354.430 40.197,355.200 40.934 C 355.970 41.671,356.897 42.617,357.260 43.037 C 357.622 43.457,358.342 44.181,358.860 44.646 C 359.377 45.111,360.275 46.011,360.856 46.646 C 361.437 47.281,362.337 48.181,362.856 48.646 C 363.375 49.111,364.268 50.011,364.841 50.646 C 365.414 51.281,366.449 52.248,367.141 52.796 C 369.211 54.433,368.626 59.877,366.300 60.628 C 365.915 60.752,365.600 60.994,365.600 61.166 C 365.600 61.337,365.232 61.902,364.782 62.421 C 364.332 62.940,363.578 63.988,363.107 64.751 C 362.635 65.514,361.563 66.758,360.725 67.516 C 359.886 68.273,359.200 69.220,359.200 69.620 C 359.200 70.019,358.851 70.457,358.425 70.592 C 357.526 70.877,355.207 73.398,355.185 74.114 C 355.176 74.381,354.450 75.098,353.570 75.707 C 352.690 76.316,351.858 77.126,351.721 77.507 C 351.438 78.295,350.193 79.598,349.717 79.604 C 349.543 79.606,349.040 80.082,348.600 80.661 C 348.160 81.241,346.854 82.634,345.697 83.757 C 344.540 84.881,343.595 86.019,343.597 86.286 C 343.599 86.553,342.972 87.198,342.204 87.719 C 341.437 88.241,340.297 89.373,339.672 90.234 C 339.047 91.095,338.058 92.054,337.474 92.364 C 336.891 92.674,336.312 93.247,336.188 93.638 C 336.064 94.028,334.216 96.158,332.081 98.372 C 329.947 100.585,327.439 103.252,326.510 104.298 C 325.580 105.344,323.960 107.115,322.910 108.233 C 321.859 109.351,319.560 111.844,317.800 113.773 C 316.040 115.702,313.790 118.134,312.800 119.179 C 308.095 124.143,302.731 129.860,302.271 130.400 C 301.989 130.730,301.184 131.432,300.480 131.960 C 299.776 132.488,299.200 133.150,299.200 133.433 C 299.200 133.715,298.615 134.354,297.900 134.854 C 296.319 135.958,295.200 137.167,295.200 137.770 C 295.200 138.017,294.588 138.547,293.841 138.950 C 293.093 139.353,292.153 140.293,291.750 141.041 C 291.347 141.788,290.879 142.400,290.709 142.400 C 290.251 142.400,287.200 145.443,287.200 145.900 C 287.200 146.117,286.485 146.767,285.611 147.345 C 284.737 147.923,283.754 148.916,283.426 149.550 C 283.098 150.185,282.204 151.073,281.439 151.524 C 280.675 151.975,279.775 152.875,279.439 153.524 C 279.104 154.173,278.204 155.073,277.439 155.524 C 276.675 155.975,275.765 156.893,275.418 157.565 C 275.071 158.237,274.237 159.071,273.565 159.418 C 272.893 159.765,271.982 160.663,271.540 161.412 C 271.098 162.161,270.116 163.157,269.358 163.626 C 268.601 164.094,267.719 164.982,267.400 165.600 C 267.081 166.218,266.181 167.118,265.400 167.600 C 264.619 168.082,263.712 168.997,263.384 169.632 C 263.055 170.267,262.249 171.065,261.591 171.405 C 260.934 171.745,259.953 172.724,259.412 173.581 C 257.719 176.263,252.521 176.176,252.413 173.464 C 252.397 173.060,250.739 171.632,250.264 171.613 C 249.843 171.597,248.439 169.938,248.391 169.400 C 248.371 169.180,247.465 168.322,246.377 167.494 C 245.290 166.666,244.390 165.766,244.377 165.494 C 244.365 165.222,243.465 164.322,242.377 163.494 C 241.290 162.666,240.390 161.766,240.377 161.494 C 240.365 161.222,239.465 160.322,238.377 159.494 C 237.290 158.666,236.390 157.766,236.377 157.494 C 236.365 157.222,235.465 156.322,234.377 155.494 C 233.290 154.666,232.393 153.766,232.384 153.494 C 232.376 153.222,231.555 152.401,230.560 151.669 L 228.750 150.337 229.014 148.069 C 229.174 146.688,229.521 145.644,229.900 145.400 C 231.394 144.441,233.200 142.673,233.200 142.169 C 233.200 141.867,233.695 141.363,234.300 141.048 C 235.484 140.432,237.200 138.635,237.200 138.011 C 237.200 137.800,237.605 137.420,238.100 137.165 C 239.395 136.499,241.200 134.737,241.200 134.139 C 241.200 133.858,241.605 133.418,242.100 133.162 C 242.595 132.906,244.833 130.829,247.073 128.548 C 249.313 126.267,251.314 124.400,251.520 124.400 C 251.725 124.400,252.367 123.685,252.945 122.811 C 253.523 121.937,254.527 120.948,255.174 120.613 C 255.822 120.278,256.650 119.508,257.014 118.902 C 257.377 118.296,258.383 117.303,259.248 116.697 C 260.113 116.090,261.017 115.162,261.257 114.634 C 261.497 114.107,262.271 113.365,262.975 112.985 C 263.680 112.606,264.672 111.689,265.180 110.948 C 265.688 110.207,266.222 109.600,266.368 109.600 C 266.514 109.600,267.256 108.963,268.017 108.185 C 268.777 107.407,269.832 106.372,270.361 105.885 C 270.889 105.398,272.153 104.190,273.170 103.200 C 274.187 102.210,277.139 99.420,279.730 97.000 C 282.321 94.580,285.471 91.610,286.729 90.400 C 287.987 89.190,290.903 86.433,293.208 84.274 C 299.861 78.042,300.400 77.513,300.400 77.211 C 300.400 77.054,301.009 76.598,301.752 76.198 C 302.496 75.797,303.401 74.967,303.764 74.354 C 304.126 73.740,304.987 72.836,305.678 72.345 C 306.368 71.853,308.658 69.774,310.766 67.724 C 312.875 65.675,314.870 63.760,315.200 63.469 C 315.530 63.178,316.160 62.497,316.600 61.955 C 317.040 61.413,317.897 60.656,318.504 60.273 C 319.111 59.890,320.011 58.955,320.504 58.197 C 320.997 57.438,321.884 56.647,322.475 56.438 C 323.066 56.230,324.031 55.332,324.619 54.442 C 325.208 53.553,326.066 52.706,326.526 52.560 C 327.509 52.248,327.991 51.801,328.985 50.281 C 329.388 49.665,330.325 48.908,331.068 48.598 C 331.810 48.287,332.720 47.507,333.089 46.865 C 333.458 46.222,334.309 45.396,334.980 45.029 C 335.651 44.662,337.153 43.471,338.317 42.381 C 339.481 41.291,340.561 40.397,340.717 40.394 C 340.873 40.391,342.047 39.401,343.328 38.194 C 346.468 35.233,349.528 34.983,351.819 37.500 M370.700 73.122 C 371.737 74.430,371.100 77.408,369.400 79.200 C 368.878 79.750,368.098 81.027,367.666 82.039 C 366.961 83.689,278.759 172.800,277.830 172.800 C 277.694 172.800,276.876 173.268,276.011 173.840 C 273.970 175.191,273.549 174.992,272.965 172.399 C 272.459 170.154,272.989 168.400,274.174 168.400 C 274.673 168.400,276.397 166.620,276.404 166.097 C 276.406 165.934,276.875 165.440,277.445 165.000 C 278.015 164.560,278.868 163.779,279.341 163.265 C 280.142 162.393,281.527 161.014,283.020 159.600 C 283.369 159.270,284.266 158.370,285.013 157.600 C 285.761 156.830,286.661 155.930,287.013 155.600 C 287.366 155.270,288.266 154.370,289.013 153.600 C 289.761 152.830,290.655 151.930,291.000 151.600 C 291.345 151.270,292.239 150.370,292.987 149.600 C 293.734 148.830,294.628 147.930,294.973 147.600 C 295.318 147.270,296.365 146.226,297.300 145.280 C 298.235 144.334,299.180 143.379,299.400 143.159 C 299.620 142.938,300.880 141.616,302.200 140.222 C 303.520 138.828,304.845 137.443,305.145 137.144 C 308.761 133.540,311.995 130.249,312.823 129.333 C 313.385 128.710,314.160 127.930,314.545 127.600 C 314.930 127.270,315.932 126.280,316.771 125.400 C 317.611 124.520,318.546 123.562,318.849 123.270 C 320.024 122.140,330.093 111.365,332.558 108.600 C 333.146 107.940,334.477 106.447,335.514 105.282 C 336.551 104.117,338.238 102.287,339.263 101.214 C 340.287 100.142,341.233 98.935,341.365 98.532 C 341.496 98.129,342.204 97.412,342.938 96.938 C 343.672 96.464,344.585 95.418,344.967 94.614 C 345.348 93.810,345.962 93.044,346.330 92.912 C 347.204 92.599,348.063 91.700,348.986 90.134 C 349.396 89.438,350.146 88.680,350.651 88.449 C 351.157 88.219,352.043 87.283,352.620 86.369 C 353.197 85.455,353.975 84.627,354.349 84.529 C 354.723 84.432,355.635 83.462,356.377 82.376 C 357.118 81.289,357.910 80.400,358.137 80.400 C 358.697 80.400,360.400 78.764,360.400 78.226 C 360.400 77.987,360.965 77.343,361.655 76.796 C 362.952 75.766,363.213 75.494,365.015 73.292 C 366.206 71.835,369.599 71.734,370.700 73.122 M223.544 155.000 C 224.271 155.770,225.151 156.400,225.501 156.400 C 226.202 156.400,227.600 157.519,227.600 158.079 C 227.600 158.567,229.168 160.112,230.500 160.937 C 231.105 161.312,231.600 161.802,231.600 162.026 C 231.600 162.589,232.974 164.012,234.039 164.552 C 234.525 164.799,235.119 165.350,235.361 165.778 C 236.050 167.000,237.079 168.065,238.039 168.552 C 238.525 168.799,239.119 169.350,239.361 169.778 C 240.050 171.000,241.079 172.065,242.039 172.552 C 242.525 172.799,243.119 173.350,243.361 173.778 C 244.053 175.004,245.080 176.066,246.045 176.552 C 246.534 176.799,247.321 177.695,247.795 178.544 C 248.269 179.393,249.004 180.282,249.429 180.518 C 251.508 181.677,251.544 182.395,249.572 183.414 C 248.925 183.749,247.931 184.759,247.363 185.658 L 246.331 187.293 244.986 185.868 C 244.246 185.083,243.084 184.154,242.403 183.802 C 241.722 183.449,240.843 182.632,240.450 181.986 C 240.057 181.340,239.000 180.279,238.102 179.628 C 237.203 178.977,236.353 178.083,236.213 177.642 C 236.073 177.201,235.319 176.445,234.538 175.962 C 233.757 175.479,232.807 174.572,232.427 173.948 C 232.047 173.323,231.000 172.279,230.102 171.628 C 229.203 170.977,228.353 170.083,228.213 169.642 C 228.073 169.201,227.319 168.445,226.538 167.962 C 225.757 167.479,224.807 166.572,224.427 165.948 C 224.047 165.323,222.985 164.268,222.068 163.603 C 221.150 162.939,220.400 162.159,220.400 161.869 C 220.400 161.580,219.748 160.582,218.951 159.652 C 217.418 157.860,217.541 157.320,219.642 156.602 C 219.994 156.482,220.620 155.757,221.032 154.992 C 221.952 153.283,221.925 153.283,223.544 155.000 M215.393 166.389 C 215.944 167.262,216.934 168.255,217.591 168.595 C 218.249 168.935,219.071 169.763,219.418 170.435 C 219.765 171.107,220.657 172.015,221.400 172.453 C 222.143 172.891,223.109 173.857,223.547 174.600 C 223.985 175.343,224.893 176.235,225.565 176.582 C 226.237 176.929,227.071 177.763,227.418 178.435 C 227.765 179.107,228.675 180.025,229.439 180.476 C 230.204 180.927,231.104 181.827,231.439 182.476 C 231.775 183.125,232.675 184.025,233.439 184.476 C 234.204 184.927,235.098 185.816,235.426 186.450 C 235.754 187.085,236.738 188.056,237.611 188.607 C 239.938 190.076,240.064 194.080,237.813 195.020 C 235.290 196.074,234.083 195.801,231.971 193.700 C 230.921 192.655,229.877 191.620,229.651 191.400 C 229.425 191.180,228.466 190.226,227.520 189.280 C 226.574 188.334,225.620 187.380,225.400 187.160 C 225.180 186.940,224.307 186.067,223.460 185.220 C 222.613 184.373,221.740 183.500,221.520 183.280 C 221.300 183.060,220.400 182.160,219.520 181.280 C 218.640 180.400,217.760 179.527,217.564 179.340 C 217.368 179.153,216.492 178.280,215.616 177.400 C 214.741 176.520,213.835 175.620,213.604 175.400 C 213.373 175.180,212.601 174.370,211.888 173.600 C 211.175 172.830,210.098 171.842,209.496 171.405 C 208.220 170.479,208.186 170.203,209.036 167.606 C 209.594 165.899,209.850 165.615,211.136 165.273 C 213.824 164.557,214.318 164.686,215.393 166.389 M205.052 176.822 C 206.099 177.271,206.991 178.008,207.368 178.737 C 207.705 179.389,208.619 180.318,209.400 180.800 C 210.181 181.282,211.081 182.182,211.400 182.800 C 211.719 183.418,212.619 184.318,213.400 184.800 C 214.181 185.282,215.081 186.182,215.400 186.800 C 215.719 187.418,216.619 188.318,217.400 188.800 C 218.181 189.282,219.081 190.182,219.400 190.800 C 219.719 191.418,220.619 192.318,221.400 192.800 C 222.181 193.282,223.081 194.182,223.400 194.800 C 223.719 195.418,224.636 196.328,225.436 196.822 C 226.237 197.317,227.127 198.280,227.414 198.961 C 227.702 199.642,228.453 200.640,229.085 201.177 L 230.232 202.154 228.716 203.523 C 227.882 204.277,227.200 205.191,227.200 205.556 C 227.200 205.920,226.602 206.540,225.870 206.934 C 225.139 207.328,224.284 208.034,223.970 208.502 C 223.199 209.654,222.037 210.809,220.501 211.952 C 219.797 212.475,219.121 213.220,218.998 213.607 C 218.875 213.994,218.065 214.780,217.198 215.354 C 216.332 215.927,215.343 216.937,215.001 217.598 C 214.659 218.259,214.193 218.800,213.965 218.800 C 213.736 218.800,211.775 220.555,209.607 222.700 C 207.438 224.845,205.065 227.145,204.332 227.811 C 203.599 228.477,202.730 229.330,202.400 229.706 C 202.070 230.083,201.134 230.944,200.319 231.620 C 199.505 232.296,198.730 233.189,198.599 233.604 C 198.467 234.019,198.050 234.457,197.673 234.577 C 197.296 234.697,194.813 236.911,192.157 239.497 C 189.501 242.084,185.302 246.090,182.826 248.400 C 180.351 250.710,178.117 252.833,177.863 253.119 C 177.608 253.404,176.690 254.304,175.821 255.119 C 174.953 255.933,173.311 257.500,172.172 258.600 C 171.034 259.700,168.321 262.320,166.144 264.421 C 163.968 266.523,161.871 268.364,161.484 268.512 C 161.098 268.661,160.665 269.087,160.521 269.460 C 160.206 270.283,159.196 271.322,157.863 272.195 C 157.318 272.552,156.464 273.441,155.964 274.170 C 155.465 274.899,154.462 275.815,153.736 276.206 C 153.011 276.597,152.311 277.251,152.181 277.659 C 152.052 278.067,151.283 278.889,150.473 279.485 C 148.593 280.870,147.600 281.862,147.600 282.358 C 147.600 282.573,146.909 283.137,146.064 283.612 C 145.219 284.087,144.215 285.005,143.832 285.653 C 143.450 286.301,142.437 287.294,141.581 287.860 C 140.726 288.426,139.914 289.241,139.778 289.671 C 139.641 290.100,138.645 291.087,137.565 291.863 C 136.484 292.640,135.600 293.488,135.600 293.749 C 135.600 294.237,134.219 295.590,133.695 295.613 C 133.130 295.639,131.702 297.050,131.455 297.826 C 131.319 298.255,130.471 299.055,129.571 299.603 C 128.670 300.151,127.681 301.082,127.371 301.672 C 127.062 302.262,126.088 303.149,125.209 303.643 C 124.329 304.138,123.505 304.870,123.378 305.270 C 123.251 305.671,122.362 306.538,121.404 307.197 C 120.445 307.857,119.332 308.814,118.930 309.324 C 118.529 309.834,117.667 310.600,117.015 311.026 C 116.364 311.452,115.180 312.430,114.385 313.200 C 113.590 313.970,112.323 315.088,111.570 315.684 C 109.757 317.117,106.725 319.796,104.534 321.900 C 103.560 322.835,102.625 323.600,102.457 323.600 C 102.043 323.600,99.600 326.013,99.600 326.422 C 99.600 326.602,98.877 327.155,97.994 327.651 C 97.111 328.148,96.035 329.152,95.604 329.883 C 95.173 330.614,94.410 331.383,93.910 331.592 C 92.700 332.098,91.932 332.777,91.105 334.070 C 90.729 334.658,90.012 335.268,89.511 335.426 C 89.010 335.584,87.904 336.408,87.053 337.257 C 86.202 338.105,85.257 338.800,84.953 338.800 C 84.649 338.800,84.400 338.980,84.400 339.200 C 84.400 339.420,84.130 339.600,83.800 339.600 C 83.470 339.600,83.200 339.780,83.200 340.000 C 83.200 340.220,82.994 340.400,82.741 340.400 C 82.489 340.400,81.429 341.199,80.385 342.176 C 77.685 344.701,73.382 344.353,72.301 341.523 C 72.159 341.151,71.541 340.521,70.928 340.123 C 69.493 339.192,68.602 338.304,68.291 337.493 C 68.155 337.137,67.541 336.521,66.928 336.123 C 65.493 335.192,64.602 334.304,64.291 333.493 C 64.155 333.137,63.541 332.521,62.928 332.123 C 59.704 330.032,59.290 326.683,61.935 324.100 C 62.779 323.275,63.974 321.834,64.589 320.899 C 65.205 319.963,66.285 318.586,66.990 317.839 C 67.694 317.091,68.574 315.841,68.944 315.061 C 69.315 314.280,70.150 313.263,70.800 312.800 C 71.450 312.337,72.285 311.321,72.655 310.542 C 73.024 309.763,73.748 308.933,74.263 308.699 C 74.777 308.464,75.753 307.409,76.430 306.353 C 77.107 305.298,78.008 304.325,78.431 304.190 C 78.854 304.056,79.409 303.556,79.664 303.080 C 80.137 302.197,82.916 299.104,85.800 296.251 C 86.680 295.381,87.670 294.272,88.000 293.787 C 88.592 292.917,91.762 289.306,95.128 285.668 C 96.078 284.640,97.100 283.350,97.399 282.800 C 97.698 282.250,98.497 281.440,99.174 281.000 C 99.851 280.560,100.519 279.845,100.658 279.410 C 100.797 278.976,101.741 277.782,102.755 276.758 C 103.770 275.733,105.063 274.378,105.628 273.747 C 106.194 273.116,107.006 272.330,107.434 272.000 C 107.862 271.670,108.472 270.891,108.790 270.269 C 109.108 269.646,109.809 268.906,110.347 268.625 C 110.885 268.343,111.798 267.412,112.375 266.556 C 112.953 265.700,113.801 264.833,114.260 264.628 C 114.718 264.423,115.686 263.388,116.410 262.328 C 117.133 261.268,117.910 260.400,118.137 260.400 C 118.693 260.400,120.399 258.767,120.404 258.230 C 120.406 257.994,120.875 257.440,121.445 257.000 C 122.015 256.560,122.868 255.779,123.341 255.265 C 123.813 254.750,124.692 253.850,125.293 253.265 C 126.879 251.720,127.419 251.183,129.180 249.400 C 130.049 248.520,130.939 247.620,131.159 247.400 C 132.115 246.441,139.895 238.309,140.816 237.306 C 141.374 236.698,142.140 235.930,142.516 235.600 C 142.893 235.270,145.136 232.989,147.500 230.530 C 154.852 222.887,167.987 209.293,172.800 204.345 C 175.330 201.744,180.100 196.798,183.400 193.353 C 186.700 189.908,191.136 185.339,193.257 183.199 C 195.378 181.059,197.320 178.924,197.571 178.454 C 197.822 177.984,198.209 177.600,198.431 177.600 C 198.653 177.600,199.051 177.424,199.317 177.210 C 199.583 176.995,200.331 176.389,200.980 175.862 C 202.025 175.014,202.229 174.972,202.755 175.498 C 203.082 175.825,204.116 176.421,205.052 176.822 M57.395 336.572 C 58.142 336.884,59.166 337.769,59.670 338.539 C 60.175 339.309,61.094 340.237,61.712 340.603 C 62.330 340.968,63.219 341.851,63.687 342.564 C 64.155 343.278,65.144 344.259,65.884 344.745 C 66.624 345.230,67.390 346.047,67.585 346.560 C 67.780 347.073,68.617 348.132,69.446 348.914 L 70.953 350.336 69.277 351.062 C 68.355 351.462,67.600 351.926,67.600 352.094 C 67.600 352.262,67.343 352.400,67.029 352.400 C 66.715 352.400,66.119 352.831,65.705 353.357 C 65.291 353.884,63.994 354.829,62.824 355.457 C 61.654 356.086,60.247 357.187,59.698 357.903 C 59.149 358.620,57.867 359.575,56.850 360.025 C 55.832 360.475,54.550 361.238,54.000 361.721 C 52.674 362.887,51.362 363.600,50.546 363.600 C 50.180 363.600,49.019 364.498,47.966 365.596 L 46.052 367.593 45.235 366.496 C 44.115 364.995,42.688 363.600,42.273 363.600 C 41.809 363.600,40.430 361.918,40.413 361.331 C 40.406 361.073,39.660 360.229,38.755 359.454 L 37.109 358.046 38.190 357.045 C 38.784 356.494,39.808 354.999,40.467 353.722 C 41.125 352.445,42.085 350.950,42.600 350.400 C 43.115 349.850,43.983 348.380,44.531 347.134 C 45.078 345.887,45.885 344.675,46.325 344.440 C 46.764 344.205,47.705 343.065,48.416 341.906 C 49.127 340.748,50.090 339.431,50.555 338.981 C 51.611 337.957,53.200 335.744,53.200 335.296 C 53.200 334.195,54.211 334.036,55.103 334.998 C 55.616 335.551,56.648 336.260,57.395 336.572 M35.434 365.919 C 36.072 367.198,37.641 368.800,38.256 368.800 C 40.359 368.800,39.377 371.001,36.822 372.015 C 36.064 372.316,34.894 373.040,34.222 373.625 C 32.155 375.423,30.162 375.939,29.158 374.936 L 28.329 374.107 29.135 372.527 C 29.579 371.658,30.221 370.715,30.562 370.431 C 31.250 369.861,32.400 367.730,32.400 367.028 C 32.400 365.122,34.631 364.306,35.434 365.919 " stroke="none" fill="#ff5c43" fill-rule="evenodd"></path></g></svg>
