<?xml version="1.0" encoding="UTF-8" standalone="no"?>
<svg
   xmlns:dc="http://purl.org/dc/elements/1.1/"
   xmlns:cc="http://creativecommons.org/ns#"
   xmlns:rdf="http://www.w3.org/1999/02/22-rdf-syntax-ns#"
   xmlns:svg="http://www.w3.org/2000/svg"
   xmlns="http://www.w3.org/2000/svg"
   xmlns:sodipodi="http://sodipodi.sourceforge.net/DTD/sodipodi-0.dtd"
   xmlns:inkscape="http://www.inkscape.org/namespaces/inkscape"
   id="svg"
   version="1.1"
   width="400"
   height="400"
   style="display:block"
   inkscape:version="0.91 r13725"
   sodipodi:docname="sig.svg">
  <metadata
     id="metadata3388">
    <rdf:RDF>
      <cc:Work
         rdf:about="">
        <dc:format>image/svg+xml</dc:format>
        <dc:type
           rdf:resource="http://purl.org/dc/dcmitype/StillImage" />
        <dc:title></dc:title>
      </cc:Work>
    </rdf:RDF>
  </metadata>
  <defs
     id="defs3386" />
  <sodipodi:namedview
     pagecolor="#ffffff"
     bordercolor="#666666"
     borderopacity="1"
     objecttolerance="10"
     gridtolerance="10"
     guidetolerance="10"
     inkscape:pageopacity="0"
     inkscape:pageshadow="2"
     inkscape:window-width="1600"
     inkscape:window-height="837"
     id="namedview3384"
     showgrid="false"
     inkscape:zoom="1.66"
     inkscape:cx="200"
     inkscape:cy="200"
     inkscape:window-x="0"
     inkscape:window-y="30"
     inkscape:window-maximized="1"
     inkscape:current-layer="svg" />
  <g
     id="svgg">
    <path
       id="path1"
       d="m 365.36,12.25 c -1.342,0.318 -2.813,0.926 -3.269,1.351 -0.456,0.425 -1.878,1.323 -3.16,1.996 -1.3,0.682 -2.615,1.718 -2.972,2.343 -0.353,0.616 -1.343,1.483 -2.2,1.926 -0.858,0.444 -1.74,1.164 -1.962,1.601 -0.552,1.09 -1.397,1.854 -2.681,2.422 -0.597,0.264 -1.822,1.162 -2.722,1.995 -0.901,0.834 -2.416,2.236 -3.367,3.116 -0.95,0.88 -2.242,1.96 -2.871,2.4 -0.629,0.44 -2.046,1.655 -3.149,2.7 -1.104,1.044 -2.143,1.899 -2.309,1.9 -0.166,0 -1.183,0.855 -2.26,1.9 -4.472,4.341 -6.871,6.5 -7.221,6.5 -0.204,0 -0.674,0.511 -1.042,1.135 -0.369,0.625 -1.377,1.57 -2.24,2.1 -0.862,0.531 -1.917,1.554 -2.344,2.275 -0.426,0.72 -1.094,1.426 -1.483,1.568 -0.787,0.288 -2.908,2.343 -2.909,2.818 0,0.167 -0.801,0.81 -1.781,1.429 -0.979,0.618 -1.887,1.462 -2.018,1.875 -0.131,0.413 -1.041,1.257 -2.022,1.875 -0.981,0.619 -1.886,1.445 -2.011,1.836 -0.125,0.391 -0.709,1.01 -1.297,1.376 -0.589,0.366 -2.037,1.576 -3.218,2.689 -4.312,4.063 -5.626,5.285 -9.063,8.424 -7.262,6.634 -14.214,13.224 -21.182,20.08 -3.175,3.123 -6.214,5.968 -6.754,6.322 -0.539,0.353 -1.393,1.245 -1.898,1.982 -0.505,0.737 -1.394,1.621 -1.976,1.965 -0.582,0.343 -1.477,1.237 -1.99,1.986 -0.513,0.748 -1.494,1.663 -2.181,2.033 -0.686,0.369 -1.562,1.256 -1.947,1.971 -0.385,0.715 -1.3,1.623 -2.034,2.018 -0.733,0.395 -1.53,1.15 -1.77,1.677 -0.24,0.528 -1.156,1.456 -2.034,2.063 -0.879,0.606 -1.708,1.428 -1.844,1.825 -0.136,0.397 -0.981,1.254 -1.879,1.904 -0.898,0.651 -2.03,1.768 -2.517,2.484 -0.486,0.716 -1.362,1.558 -1.947,1.871 -0.585,0.313 -1.426,1.156 -1.87,1.874 -0.443,0.717 -1.382,1.661 -2.086,2.097 -0.704,0.436 -1.597,1.332 -1.985,1.991 -0.388,0.659 -1.288,1.559 -2,2 -0.712,0.441 -1.612,1.341 -2,2 -0.388,0.659 -1.288,1.559 -2,2 -0.712,0.441 -1.612,1.341 -2,2 -0.388,0.659 -1.288,1.559 -2,2 -0.712,0.441 -1.612,1.341 -2,2 -0.388,0.659 -1.288,1.559 -2,2 -0.712,0.441 -1.612,1.341 -2,2 -0.388,0.659 -1.288,1.559 -2,2 -0.712,0.441 -1.604,1.327 -1.982,1.969 -0.378,0.642 -1.305,1.591 -2.062,2.109 -0.756,0.518 -1.669,1.439 -2.027,2.046 -0.359,0.608 -1.189,1.421 -1.845,1.809 -0.655,0.387 -1.632,1.369 -2.17,2.182 -0.538,0.814 -1.496,1.784 -2.128,2.158 -0.633,0.374 -1.459,1.252 -1.835,1.951 -0.377,0.7 -1.27,1.587 -1.985,1.972 -0.715,0.385 -1.633,1.318 -2.039,2.072 -0.406,0.755 -1.065,1.476 -1.464,1.602 -0.399,0.127 -1.313,0.986 -2.031,1.909 -0.718,0.923 -1.574,1.844 -1.903,2.046 -0.328,0.203 -0.963,0.759 -1.41,1.237 -0.448,0.478 -1.388,1.482 -2.089,2.232 -0.701,0.75 -1.461,1.543 -1.69,1.763 -0.229,0.22 -3.39,3.46 -7.026,7.2 -3.636,3.74 -6.787,6.98 -7.003,7.2 -3.808,3.878 -10.118,10.383 -11.484,11.838 -0.703,0.749 -1.513,1.563 -1.8,1.809 -0.287,0.245 -2.952,3.026 -5.922,6.18 -2.97,3.153 -7.02,7.398 -9,9.432 -3.094,3.179 -6.389,6.64 -8.6,9.032 -0.33,0.357 -1.196,1.248 -1.925,1.979 -3.68,3.692 -5.241,5.412 -5.651,6.23 -0.249,0.495 -0.627,0.9 -0.842,0.9 -0.539,0 -2.782,2.19 -2.782,2.716 0,0.236 -0.585,0.838 -1.3,1.338 -1.656,1.157 -2.7,2.32 -2.7,3.007 0,0.297 -0.18,0.539 -0.4,0.539 -0.358,0 -1.947,1.544 -4.208,4.09 -0.445,0.5 -1.289,1.26 -1.876,1.687 -0.588,0.427 -1.17,1.147 -1.295,1.6 -0.125,0.453 -0.953,1.321 -1.839,1.93 -0.887,0.609 -1.724,1.419 -1.861,1.8 -0.254,0.706 -1.514,2.093 -1.901,2.093 -0.484,0 -2.22,1.784 -2.22,2.28 0,0.295 -0.809,1.106 -1.797,1.803 -0.988,0.697 -1.892,1.568 -2.009,1.937 -0.118,0.369 -1.109,1.426 -2.204,2.349 -1.094,0.923 -1.99,1.926 -1.99,2.229 0,0.303 -0.702,1.055 -1.561,1.672 -0.858,0.617 -1.865,1.687 -2.237,2.378 -0.372,0.691 -1.125,1.497 -1.673,1.79 -0.548,0.293 -1.374,1.08 -1.835,1.748 -0.462,0.668 -1.691,2.059 -2.733,3.093 -1.042,1.033 -2.011,2.248 -2.154,2.7 -0.144,0.451 -0.416,0.821 -0.605,0.821 -0.401,0 -1.011,0.611 -2.402,2.408 -0.55,0.71 -1.659,1.979 -2.464,2.821 -0.805,0.841 -1.975,2.208 -2.6,3.038 -0.625,0.83 -1.723,2.029 -2.44,2.665 -0.717,0.637 -1.411,1.587 -1.543,2.113 -0.132,0.525 -0.387,0.955 -0.568,0.955 -0.574,0 -3.185,2.671 -3.185,3.258 0,0.521 -1.333,1.942 -1.821,1.942 -0.427,0 -1.694,1.432 -2.3,2.6 -0.342,0.66 -1.176,1.56 -1.853,2 -0.677,0.44 -1.331,1.112 -1.453,1.493 -0.122,0.381 -0.886,1.407 -1.698,2.281 -1.999,2.151 -2.545,2.822 -3.44,4.226 -0.42,0.66 -1.14,1.56 -1.6,2 -1.069,1.024 -2.231,2.823 -2.25,3.486 -0.009,0.283 -0.58,0.874 -1.269,1.314 -0.689,0.44 -1.596,1.469 -2.017,2.287 -0.42,0.818 -1.368,2.017 -2.106,2.665 -0.737,0.648 -1.702,1.869 -2.143,2.713 -0.442,0.844 -1.309,2.079 -1.926,2.744 -1.288,1.386 -2.523,3.464 -2.527,4.253 -0.001,0.296 -0.518,0.831 -1.148,1.19 -0.684,0.389 -1.555,1.516 -2.163,2.8 -0.559,1.181 -1.498,2.565 -2.086,3.076 -0.588,0.51 -1.529,1.95 -2.09,3.2 -0.562,1.249 -1.522,2.679 -2.134,3.176 -0.612,0.498 -1.432,1.758 -1.822,2.8 -0.39,1.043 -1.281,2.577 -1.981,3.409 -0.699,0.832 -1.582,2.498 -1.961,3.703 -0.43,1.369 -1.191,2.665 -2.027,3.454 -0.883,0.833 -1.574,2.048 -2.031,3.574 -0.381,1.271 -1.21,2.907 -1.844,3.634 -1.289,1.48 -2.155,3.286 -2.528,5.276 -0.137,0.733 -0.847,2.025 -1.578,2.87 -0.814,0.942 -1.427,2.163 -1.585,3.156 -0.141,0.891 -0.349,1.99 -0.462,2.442 -0.813,3.267 5.662,4.186 8.409,1.193 1.499,-1.633 1.844,-1.807 4.036,-2.036 2.2,-0.231 2.531,-0.399 4.005,-2.035 1.456,-1.614 1.823,-1.805 3.879,-2.017 2.079,-0.215 2.426,-0.4 4.087,-2.181 1.224,-1.312 2.136,-1.946 2.802,-1.946 1.414,0 3.023,-0.802 4.562,-2.274 0.735,-0.703 1.821,-1.385 2.413,-1.515 1.203,-0.264 3.25,-1.866 3.25,-2.543 0,-0.612 1.097,-1.125 3.124,-1.461 1.296,-0.214 2.139,-0.711 3.4,-2 0.922,-0.943 2.306,-2.008 3.076,-2.365 0.77,-0.358 1.795,-1.261 2.278,-2.008 0.678,-1.047 1.249,-1.419 2.505,-1.631 1.12,-0.189 2.156,-0.777 3.322,-1.884 0.932,-0.884 2.235,-1.845 2.895,-2.135 1.122,-0.492 2.6,-1.881 2.6,-2.442 0,-0.42 1.692,-1.742 2.23,-1.742 0.28,0 1.243,-0.749 2.14,-1.664 0.897,-0.916 2.306,-1.978 3.131,-2.36 0.824,-0.382 1.962,-1.14 2.527,-1.685 0.566,-0.545 1.787,-1.469 2.713,-2.054 0.927,-0.585 2.33,-1.777 3.119,-2.65 0.788,-0.873 1.65,-1.587 1.914,-1.587 0.477,0 2.226,-1.773 2.226,-2.256 0,-0.362 1.656,-1.744 2.09,-1.744 0.457,0 1.079,-0.633 2.234,-2.276 0.493,-0.702 1.297,-1.403 1.786,-1.556 0.49,-0.154 1.597,-1.065 2.462,-2.024 0.865,-0.959 1.799,-1.744 2.076,-1.744 0.278,0 1.444,-0.9 2.591,-2 1.147,-1.1 2.228,-2 2.401,-2 0.174,0 1.338,-0.945 2.588,-2.1 1.25,-1.155 2.67,-2.37 3.156,-2.7 0.486,-0.33 1.608,-1.32 2.493,-2.2 1.495,-1.487 5.06,-4.814 6.643,-6.2 0.377,-0.33 1.302,-1.23 2.055,-2 0.754,-0.77 1.698,-1.679 2.098,-2.02 0.4,-0.341 1.159,-1.196 1.687,-1.9 0.528,-0.704 1.171,-1.28 1.43,-1.28 0.522,0 2.21,-1.664 2.21,-2.179 0,-0.444 1.616,-1.817 2.161,-1.837 0.242,-0.008 1.037,-0.827 1.767,-1.82 0.731,-0.993 1.77,-1.973 2.31,-2.178 0.54,-0.206 1.354,-1.004 1.808,-1.775 0.455,-0.77 1.516,-1.788 2.357,-2.261 0.842,-0.473 1.856,-1.465 2.255,-2.205 0.398,-0.74 0.925,-1.345 1.172,-1.345 0.603,0 1.812,-1.119 2.916,-2.7 0.5,-0.715 1.157,-1.3 1.461,-1.3 0.304,0 1.223,-0.801 2.041,-1.779 0.818,-0.979 1.997,-1.991 2.62,-2.249 0.622,-0.258 1.132,-0.587 1.132,-0.731 0,-0.369 1.841,-2.231 4.982,-5.041 1.475,-1.32 3.631,-3.3 4.79,-4.4 1.16,-1.1 4.404,-4.16 7.21,-6.8 2.807,-2.64 7.507,-7.14 10.445,-10 2.938,-2.86 5.934,-5.745 6.658,-6.411 0.723,-0.666 1.585,-1.524 1.915,-1.907 0.33,-0.383 1.829,-1.849 3.331,-3.258 3.992,-3.746 6.195,-5.909 7.669,-7.528 0.44,-0.483 1.316,-1.333 1.946,-1.887 0.631,-0.555 1.621,-1.529 2.2,-2.165 0.58,-0.636 1.482,-1.536 2.005,-2 0.785,-0.698 16.685,-16.257 17.789,-17.409 0.438,-0.457 3.431,-3.45 3.894,-3.895 0.195,-0.187 0.975,-0.97 1.733,-1.74 0.759,-0.77 1.673,-1.67 2.033,-2 0.36,-0.33 1.266,-1.23 2.013,-2 0.748,-0.77 1.648,-1.67 2,-2 0.353,-0.33 1.253,-1.23 2,-2 0.748,-0.77 1.648,-1.67 2,-2 0.353,-0.33 1.253,-1.23 2,-2 0.748,-0.77 1.648,-1.67 2,-2 0.353,-0.33 1.253,-1.23 2,-2 0.748,-0.77 1.681,-1.679 2.073,-2.02 0.393,-0.341 1.146,-1.196 1.674,-1.9 0.528,-0.704 1.17,-1.28 1.428,-1.28 0.434,0 2.212,-1.767 2.212,-2.198 0,-0.412 1.401,-1.802 1.817,-1.802 0.445,0 2.183,-1.796 2.183,-2.256 0,-1.739 2.305,-1.763 3.483,-0.038 0.486,0.712 1.281,1.564 1.767,1.894 0.486,0.33 1.709,1.455 2.717,2.5 l 1.833,1.9 1.979,-0.605 C 278.462,183.098 370.17,91.7 372.3,88 c 0.57,-0.99 1.725,-2.482 2.568,-3.315 l 1.532,-1.515 0,-7.353 c 0,-7.263 -0.562,-11.525 -1.704,-12.931 -0.306,-0.377 -0.148,-0.805 0.591,-1.6 0.555,-0.598 1.348,-1.626 1.761,-2.286 0.414,-0.66 1.246,-1.62 1.849,-2.133 0.603,-0.513 1.392,-1.556 1.754,-2.318 0.361,-0.761 1.16,-1.644 1.775,-1.962 0.615,-0.318 1.534,-1.318 2.042,-2.222 0.508,-0.904 1.398,-1.889 1.979,-2.189 0.66,-0.341 1.521,-1.513 2.301,-3.129 0.685,-1.421 1.48,-2.823 1.765,-3.115 1.807,-1.85 1.887,-2.251 1.887,-9.482 l 0,-6.973 -1.554,-1.438 c -0.854,-0.792 -1.951,-2.289 -2.438,-3.327 -1.013,-2.162 -3.199,-4.29 -5.69,-5.539 C 381.773,14.7 380.55,13.907 380,13.412 378.057,11.664 370.393,11.055 365.36,12.25 m 10.24,7.567 c 0.77,0.283 1.85,0.613 2.4,0.733 4.276,0.935 8.603,10.708 6.678,15.08 -0.347,0.786 -0.839,2.631 -1.095,4.1 -0.256,1.468 -0.601,2.67 -0.768,2.67 -0.476,0 -2.79,2.494 -3.34,3.6 -0.274,0.549 -1.331,1.394 -2.349,1.878 -1.017,0.483 -2.137,1.288 -2.488,1.789 -0.351,0.501 -0.638,0.684 -0.638,0.406 0,-0.278 -0.765,-1.223 -1.7,-2.101 -0.935,-0.877 -1.88,-1.783 -2.1,-2.012 -0.22,-0.228 -1.12,-1.128 -2,-2 -0.88,-0.871 -1.78,-1.771 -2,-2 -0.22,-0.228 -1.12,-1.128 -2,-2 -0.88,-0.871 -1.78,-1.771 -2,-2 -0.22,-0.228 -1.12,-1.128 -2,-2 -0.88,-0.871 -1.78,-1.771 -2,-2 -0.22,-0.228 -1.082,-1.123 -1.916,-1.988 -0.834,-0.865 -1.723,-1.572 -1.976,-1.572 -0.252,0 -0.045,-0.385 0.461,-0.857 0.505,-0.471 1.155,-1.416 1.444,-2.1 0.632,-1.498 2.023,-3.043 2.738,-3.043 0.286,0 1.18,-0.712 1.985,-1.583 1.386,-1.498 5.439,-3.217 7.584,-3.217 0.348,0 0.751,-0.191 0.895,-0.424 0.316,-0.511 4.124,-0.116 6.185,0.641 M 351.819,37.5 c 0.751,0.825 1.504,1.634 1.673,1.797 0.169,0.164 0.938,0.9 1.708,1.637 0.77,0.737 1.697,1.683 2.06,2.103 0.362,0.42 1.082,1.144 1.6,1.609 0.517,0.465 1.415,1.365 1.996,2 0.581,0.635 1.481,1.535 2,2 0.519,0.465 1.412,1.365 1.985,2 0.573,0.635 1.608,1.602 2.3,2.15 2.07,1.637 1.485,7.081 -0.841,7.832 -0.385,0.124 -0.7,0.366 -0.7,0.538 0,0.171 -0.368,0.736 -0.818,1.255 -0.45,0.519 -1.204,1.567 -1.675,2.33 -0.472,0.763 -1.544,2.007 -2.382,2.765 -0.839,0.757 -1.525,1.704 -1.525,2.104 0,0.399 -0.349,0.837 -0.775,0.972 -0.899,0.285 -3.218,2.806 -3.24,3.522 -0.009,0.267 -0.735,0.984 -1.615,1.593 -0.88,0.609 -1.712,1.419 -1.849,1.8 -0.283,0.788 -1.528,2.091 -2.004,2.097 -0.174,0.002 -0.677,0.478 -1.117,1.057 -0.44,0.58 -1.746,1.973 -2.903,3.096 -1.157,1.124 -2.102,2.262 -2.1,2.529 0.002,0.267 -0.625,0.912 -1.393,1.433 -0.767,0.522 -1.907,1.654 -2.532,2.515 -0.625,0.861 -1.614,1.82 -2.198,2.13 -0.583,0.31 -1.162,0.883 -1.286,1.274 -0.124,0.39 -1.972,2.52 -4.107,4.734 -2.134,2.213 -4.642,4.88 -5.571,5.926 -0.93,1.046 -2.55,2.817 -3.6,3.935 -1.051,1.118 -3.35,3.611 -5.11,5.54 -1.76,1.929 -4.01,4.361 -5,5.406 -4.705,4.964 -10.069,10.681 -10.529,11.221 -0.282,0.33 -1.087,1.032 -1.791,1.56 -0.704,0.528 -1.28,1.19 -1.28,1.473 0,0.282 -0.585,0.921 -1.3,1.421 -1.581,1.104 -2.7,2.313 -2.7,2.916 0,0.247 -0.612,0.777 -1.359,1.18 -0.748,0.403 -1.688,1.343 -2.091,2.091 -0.403,0.747 -0.871,1.359 -1.041,1.359 -0.458,0 -3.509,3.043 -3.509,3.5 0,0.217 -0.715,0.867 -1.589,1.445 -0.874,0.578 -1.857,1.571 -2.185,2.205 -0.328,0.635 -1.222,1.523 -1.987,1.974 -0.764,0.451 -1.664,1.351 -2,2 -0.335,0.649 -1.235,1.549 -2,2 -0.764,0.451 -1.674,1.369 -2.021,2.041 -0.347,0.672 -1.181,1.506 -1.853,1.853 -0.672,0.347 -1.583,1.245 -2.025,1.994 -0.442,0.749 -1.424,1.745 -2.182,2.214 -0.757,0.468 -1.639,1.356 -1.958,1.974 -0.319,0.618 -1.219,1.518 -2,2 -0.781,0.482 -1.688,1.397 -2.016,2.032 -0.329,0.635 -1.135,1.433 -1.793,1.773 -0.657,0.34 -1.638,1.319 -2.179,2.176 -1.693,2.682 -6.891,2.595 -6.999,-0.117 -0.016,-0.404 -1.674,-1.832 -2.149,-1.851 -0.421,-0.016 -1.825,-1.675 -1.873,-2.213 -0.02,-0.22 -0.926,-1.078 -2.014,-1.906 -1.087,-0.828 -1.987,-1.728 -2,-2 -0.012,-0.272 -0.912,-1.172 -2,-2 -1.087,-0.828 -1.987,-1.728 -2,-2 -0.012,-0.272 -0.912,-1.172 -2,-2 -1.087,-0.828 -1.987,-1.728 -2,-2 -0.012,-0.272 -0.912,-1.172 -2,-2 -1.087,-0.828 -1.984,-1.728 -1.993,-2 -0.008,-0.272 -0.829,-1.093 -1.824,-1.825 l -1.81,-1.332 0.264,-2.268 c 0.16,-1.381 0.507,-2.425 0.886,-2.669 1.494,-0.959 3.3,-2.727 3.3,-3.231 0,-0.302 0.495,-0.806 1.1,-1.121 1.184,-0.616 2.9,-2.413 2.9,-3.037 0,-0.211 0.405,-0.591 0.9,-0.846 1.295,-0.666 3.1,-2.428 3.1,-3.026 0,-0.281 0.405,-0.721 0.9,-0.977 0.495,-0.256 2.733,-2.333 4.973,-4.614 2.24,-2.281 4.241,-4.148 4.447,-4.148 0.205,0 0.847,-0.715 1.425,-1.589 0.578,-0.874 1.582,-1.863 2.229,-2.198 0.648,-0.335 1.476,-1.105 1.84,-1.711 0.363,-0.606 1.369,-1.599 2.234,-2.205 0.865,-0.607 1.769,-1.535 2.009,-2.063 0.24,-0.527 1.014,-1.269 1.718,-1.649 0.705,-0.379 1.697,-1.296 2.205,-2.037 0.508,-0.741 1.042,-1.348 1.188,-1.348 0.146,0 0.888,-0.637 1.649,-1.415 0.76,-0.778 1.815,-1.813 2.344,-2.3 0.528,-0.487 1.792,-1.695 2.809,-2.685 1.017,-0.99 3.969,-3.78 6.56,-6.2 2.591,-2.42 5.741,-5.39 6.999,-6.6 1.258,-1.21 4.174,-3.967 6.479,-6.126 6.653,-6.232 7.192,-6.761 7.192,-7.063 0,-0.157 0.609,-0.613 1.352,-1.013 0.744,-0.401 1.649,-1.231 2.012,-1.844 0.362,-0.614 1.223,-1.518 1.914,-2.009 0.69,-0.492 2.98,-2.571 5.088,-4.621 2.109,-2.049 4.104,-3.964 4.434,-4.255 0.33,-0.291 0.96,-0.972 1.4,-1.514 0.44,-0.542 1.297,-1.299 1.904,-1.682 0.607,-0.383 1.507,-1.318 2,-2.076 0.493,-0.759 1.38,-1.55 1.971,-1.759 0.591,-0.208 1.556,-1.106 2.144,-1.996 0.589,-0.889 1.447,-1.736 1.907,-1.882 0.983,-0.312 1.465,-0.759 2.459,-2.279 0.403,-0.616 1.34,-1.373 2.083,-1.683 0.742,-0.311 1.652,-1.091 2.021,-1.733 0.369,-0.643 1.22,-1.469 1.891,-1.836 0.671,-0.367 2.173,-1.558 3.337,-2.648 1.164,-1.09 2.244,-1.984 2.4,-1.987 0.156,-0.003 1.33,-0.993 2.611,-2.2 3.14,-2.961 6.2,-3.211 8.491,-0.694 M 370.7,73.122 c 1.037,1.308 0.4,4.286 -1.3,6.078 -0.522,0.55 -1.302,1.827 -1.734,2.839 -0.705,1.65 -88.907,90.761 -89.836,90.761 -0.136,0 -0.954,0.468 -1.819,1.04 -2.041,1.351 -2.462,1.152 -3.046,-1.441 -0.506,-2.245 0.024,-3.999 1.209,-3.999 0.499,0 2.223,-1.78 2.23,-2.303 0.002,-0.163 0.471,-0.657 1.041,-1.097 0.57,-0.44 1.423,-1.221 1.896,-1.735 0.801,-0.872 2.186,-2.251 3.679,-3.665 0.349,-0.33 1.246,-1.23 1.993,-2 0.748,-0.77 1.648,-1.67 2,-2 0.353,-0.33 1.253,-1.23 2,-2 0.748,-0.77 1.642,-1.67 1.987,-2 0.345,-0.33 1.239,-1.23 1.987,-2 0.747,-0.77 1.641,-1.67 1.986,-2 0.345,-0.33 1.392,-1.374 2.327,-2.32 0.935,-0.946 1.88,-1.901 2.1,-2.121 0.22,-0.221 1.48,-1.543 2.8,-2.937 1.32,-1.394 2.645,-2.779 2.945,-3.078 3.616,-3.604 6.85,-6.895 7.678,-7.811 0.562,-0.623 1.337,-1.403 1.722,-1.733 0.385,-0.33 1.387,-1.32 2.226,-2.2 0.84,-0.88 1.775,-1.838 2.078,-2.13 1.175,-1.13 11.244,-11.905 13.709,-14.67 0.588,-0.66 1.919,-2.153 2.956,-3.318 1.037,-1.165 2.724,-2.995 3.749,-4.068 1.024,-1.072 1.97,-2.279 2.102,-2.682 0.131,-0.403 0.839,-1.12 1.573,-1.594 0.734,-0.474 1.647,-1.52 2.029,-2.324 0.381,-0.804 0.995,-1.57 1.363,-1.702 0.874,-0.313 1.733,-1.212 2.656,-2.778 0.41,-0.696 1.16,-1.454 1.665,-1.685 0.506,-0.23 1.392,-1.166 1.969,-2.08 0.577,-0.914 1.355,-1.742 1.729,-1.84 0.374,-0.097 1.286,-1.067 2.028,-2.153 0.741,-1.087 1.533,-1.976 1.76,-1.976 0.56,0 2.263,-1.636 2.263,-2.174 0,-0.239 0.565,-0.883 1.255,-1.43 1.297,-1.03 1.558,-1.302 3.36,-3.504 1.191,-1.457 4.584,-1.558 5.685,-0.17 M 223.544,155 c 0.727,0.77 1.607,1.4 1.957,1.4 0.701,0 2.099,1.119 2.099,1.679 0,0.488 1.568,2.033 2.9,2.858 0.605,0.375 1.1,0.865 1.1,1.089 0,0.563 1.374,1.986 2.439,2.526 0.486,0.247 1.08,0.798 1.322,1.226 0.689,1.222 1.718,2.287 2.678,2.774 0.486,0.247 1.08,0.798 1.322,1.226 0.689,1.222 1.718,2.287 2.678,2.774 0.486,0.247 1.08,0.798 1.322,1.226 0.692,1.226 1.719,2.288 2.684,2.774 0.489,0.247 1.276,1.143 1.75,1.992 0.474,0.849 1.209,1.738 1.634,1.974 2.079,1.159 2.115,1.877 0.143,2.896 -0.647,0.335 -1.641,1.345 -2.209,2.244 l -1.032,1.635 -1.345,-1.425 c -0.74,-0.785 -1.902,-1.714 -2.583,-2.066 -0.681,-0.353 -1.56,-1.17 -1.953,-1.816 -0.393,-0.646 -1.45,-1.707 -2.348,-2.358 -0.899,-0.651 -1.749,-1.545 -1.889,-1.986 -0.14,-0.441 -0.894,-1.197 -1.675,-1.68 -0.781,-0.483 -1.731,-1.39 -2.111,-2.014 -0.38,-0.625 -1.427,-1.669 -2.325,-2.32 -0.899,-0.651 -1.749,-1.545 -1.889,-1.986 -0.14,-0.441 -0.894,-1.197 -1.675,-1.68 -0.781,-0.483 -1.731,-1.39 -2.111,-2.014 -0.38,-0.625 -1.442,-1.68 -2.359,-2.345 -0.918,-0.664 -1.668,-1.444 -1.668,-1.734 0,-0.289 -0.652,-1.287 -1.449,-2.217 -1.533,-1.792 -1.41,-2.332 0.691,-3.05 0.352,-0.12 0.978,-0.845 1.39,-1.61 0.92,-1.709 0.893,-1.709 2.512,0.008 m -8.151,11.389 c 0.551,0.873 1.541,1.866 2.198,2.206 0.658,0.34 1.48,1.168 1.827,1.84 0.347,0.672 1.239,1.58 1.982,2.018 0.743,0.438 1.709,1.404 2.147,2.147 0.438,0.743 1.346,1.635 2.018,1.982 0.672,0.347 1.506,1.181 1.853,1.853 0.347,0.672 1.257,1.59 2.021,2.041 0.765,0.451 1.665,1.351 2,2 0.336,0.649 1.236,1.549 2,2 0.765,0.451 1.659,1.34 1.987,1.974 0.328,0.635 1.312,1.606 2.185,2.157 2.327,1.469 2.453,5.473 0.202,6.413 -2.523,1.054 -3.73,0.781 -5.842,-1.32 -1.05,-1.045 -2.094,-2.08 -2.32,-2.3 -0.226,-0.22 -1.185,-1.174 -2.131,-2.12 -0.946,-0.946 -1.9,-1.9 -2.12,-2.12 -0.22,-0.22 -1.093,-1.093 -1.94,-1.94 -0.847,-0.847 -1.72,-1.72 -1.94,-1.94 -0.22,-0.22 -1.12,-1.12 -2,-2 -0.88,-0.88 -1.76,-1.753 -1.956,-1.94 -0.196,-0.187 -1.072,-1.06 -1.948,-1.94 -0.875,-0.88 -1.781,-1.78 -2.012,-2 -0.231,-0.22 -1.003,-1.03 -1.716,-1.8 -0.713,-0.77 -1.79,-1.758 -2.392,-2.195 -1.276,-0.926 -1.31,-1.202 -0.46,-3.799 0.558,-1.707 0.814,-1.991 2.1,-2.333 2.688,-0.716 3.182,-0.587 4.257,1.116 m -10.341,10.433 c 1.047,0.449 1.939,1.186 2.316,1.915 0.337,0.652 1.251,1.581 2.032,2.063 0.781,0.482 1.681,1.382 2,2 0.319,0.618 1.219,1.518 2,2 0.781,0.482 1.681,1.382 2,2 0.319,0.618 1.219,1.518 2,2 0.781,0.482 1.681,1.382 2,2 0.319,0.618 1.219,1.518 2,2 0.781,0.482 1.681,1.382 2,2 0.319,0.618 1.236,1.528 2.036,2.022 0.801,0.495 1.691,1.458 1.978,2.139 0.288,0.681 1.039,1.679 1.671,2.216 l 1.147,0.977 -1.516,1.369 c -0.834,0.754 -1.516,1.668 -1.516,2.033 0,0.364 -0.598,0.984 -1.33,1.378 -0.731,0.394 -1.586,1.1 -1.9,1.568 -0.771,1.152 -1.933,2.307 -3.469,3.45 -0.704,0.523 -1.38,1.268 -1.503,1.655 -0.123,0.387 -0.933,1.173 -1.8,1.747 -0.866,0.573 -1.855,1.583 -2.197,2.244 -0.342,0.661 -0.808,1.202 -1.036,1.202 -0.229,0 -2.19,1.755 -4.358,3.9 -2.169,2.145 -4.542,4.445 -5.275,5.111 -0.733,0.666 -1.602,1.519 -1.932,1.895 -0.33,0.377 -1.266,1.238 -2.081,1.914 -0.814,0.676 -1.589,1.569 -1.72,1.984 -0.132,0.415 -0.549,0.853 -0.926,0.973 -0.377,0.12 -2.86,2.334 -5.516,4.92 -2.656,2.587 -6.855,6.593 -9.331,8.903 -2.475,2.31 -4.709,4.433 -4.963,4.719 -0.255,0.285 -1.173,1.185 -2.042,2 -0.868,0.814 -2.51,2.381 -3.649,3.481 -1.138,1.1 -3.851,3.72 -6.028,5.821 -2.176,2.102 -4.273,3.943 -4.66,4.091 -0.386,0.149 -0.819,0.575 -0.963,0.948 -0.315,0.823 -1.325,1.862 -2.658,2.735 -0.545,0.357 -1.399,1.246 -1.899,1.975 -0.499,0.729 -1.502,1.645 -2.228,2.036 -0.725,0.391 -1.425,1.045 -1.555,1.453 -0.129,0.408 -0.898,1.23 -1.708,1.826 -1.88,1.385 -2.873,2.377 -2.873,2.873 0,0.215 -0.691,0.779 -1.536,1.254 -0.845,0.475 -1.849,1.393 -2.232,2.041 -0.382,0.648 -1.395,1.641 -2.251,2.207 -0.855,0.566 -1.667,1.381 -1.803,1.811 -0.137,0.429 -1.133,1.416 -2.213,2.192 -1.081,0.777 -1.965,1.625 -1.965,1.886 0,0.488 -1.381,1.841 -1.905,1.864 -0.565,0.026 -1.993,1.437 -2.24,2.213 -0.136,0.429 -0.984,1.229 -1.884,1.777 -0.901,0.548 -1.89,1.479 -2.2,2.069 -0.309,0.59 -1.283,1.477 -2.162,1.971 -0.88,0.495 -1.704,1.227 -1.831,1.627 -0.127,0.401 -1.016,1.268 -1.974,1.927 -0.959,0.66 -2.072,1.617 -2.474,2.127 -0.401,0.51 -1.263,1.276 -1.915,1.702 -0.651,0.426 -1.835,1.404 -2.63,2.174 -0.795,0.77 -2.062,1.888 -2.815,2.484 -1.813,1.433 -4.845,4.112 -7.036,6.216 -0.974,0.935 -1.909,1.7 -2.077,1.7 -0.414,0 -2.857,2.413 -2.857,2.822 0,0.18 -0.723,0.733 -1.606,1.229 -0.883,0.497 -1.959,1.501 -2.39,2.232 -0.431,0.731 -1.194,1.5 -1.694,1.709 -1.21,0.506 -1.978,1.185 -2.805,2.478 -0.376,0.588 -1.093,1.198 -1.594,1.356 -0.501,0.158 -1.607,0.982 -2.458,1.831 -0.851,0.848 -1.796,1.543 -2.1,1.543 -0.304,0 -0.553,0.18 -0.553,0.4 0,0.22 -0.27,0.4 -0.6,0.4 -0.33,0 -0.6,0.18 -0.6,0.4 0,0.22 -0.206,0.4 -0.459,0.4 -0.252,0 -1.312,0.799 -2.356,1.776 -2.7,2.525 -7.003,2.177 -8.084,-0.653 -0.142,-0.372 -0.76,-1.002 -1.373,-1.4 -1.435,-0.931 -2.326,-1.819 -2.637,-2.63 -0.136,-0.356 -0.75,-0.972 -1.363,-1.37 -1.435,-0.931 -2.326,-1.819 -2.637,-2.63 -0.136,-0.356 -0.75,-0.972 -1.363,-1.37 -3.224,-2.091 -3.638,-5.44 -0.993,-8.023 0.844,-0.825 2.039,-2.266 2.654,-3.201 0.616,-0.936 1.696,-2.313 2.401,-3.06 0.704,-0.748 1.584,-1.998 1.954,-2.778 0.371,-0.781 1.206,-1.798 1.856,-2.261 0.65,-0.463 1.485,-1.479 1.855,-2.258 0.369,-0.779 1.093,-1.609 1.608,-1.843 0.514,-0.235 1.49,-1.29 2.167,-2.346 0.677,-1.055 1.578,-2.028 2.001,-2.163 0.423,-0.134 0.978,-0.634 1.233,-1.11 0.473,-0.883 3.252,-3.976 6.136,-6.829 0.88,-0.87 1.87,-1.979 2.2,-2.464 0.592,-0.87 3.762,-4.481 7.128,-8.119 0.95,-1.028 1.972,-2.318 2.271,-2.868 0.299,-0.55 1.098,-1.36 1.775,-1.8 0.677,-0.44 1.345,-1.155 1.484,-1.59 0.139,-0.434 1.083,-1.628 2.097,-2.652 1.015,-1.025 2.308,-2.38 2.873,-3.011 0.566,-0.631 1.378,-1.417 1.806,-1.747 0.428,-0.33 1.038,-1.109 1.356,-1.731 0.318,-0.623 1.019,-1.363 1.557,-1.644 0.538,-0.282 1.451,-1.213 2.028,-2.069 0.578,-0.856 1.426,-1.723 1.885,-1.928 0.458,-0.205 1.426,-1.24 2.15,-2.3 0.723,-1.06 1.5,-1.928 1.727,-1.928 0.556,0 2.262,-1.633 2.267,-2.17 0.002,-0.236 0.471,-0.79 1.041,-1.23 0.57,-0.44 1.423,-1.221 1.896,-1.735 0.472,-0.515 1.351,-1.415 1.952,-2 1.586,-1.545 2.126,-2.082 3.887,-3.865 0.869,-0.88 1.759,-1.78 1.979,-2 0.956,-0.959 8.736,-9.091 9.657,-10.094 0.558,-0.608 1.324,-1.376 1.7,-1.706 0.377,-0.33 2.62,-2.611 4.984,-5.07 7.352,-7.643 20.487,-21.237 25.3,-26.185 2.53,-2.601 7.3,-7.547 10.6,-10.992 3.3,-3.445 7.736,-8.014 9.857,-10.154 2.121,-2.14 4.063,-4.275 4.314,-4.745 0.251,-0.47 0.638,-0.854 0.86,-0.854 0.222,0 0.62,-0.176 0.886,-0.39 0.266,-0.215 1.014,-0.821 1.663,-1.348 1.045,-0.848 1.249,-0.89 1.775,-0.364 0.327,0.327 1.361,0.923 2.297,1.324 M 57.395,336.572 c 0.747,0.312 1.771,1.197 2.275,1.967 0.505,0.77 1.424,1.698 2.042,2.064 0.618,0.365 1.507,1.248 1.975,1.961 0.468,0.714 1.457,1.695 2.197,2.181 0.74,0.485 1.506,1.302 1.701,1.815 0.195,0.513 1.032,1.572 1.861,2.354 l 1.507,1.422 -1.676,0.726 c -0.922,0.4 -1.677,0.864 -1.677,1.032 0,0.168 -0.257,0.306 -0.571,0.306 -0.314,0 -0.91,0.431 -1.324,0.957 -0.414,0.527 -1.711,1.472 -2.881,2.1 -1.17,0.629 -2.577,1.73 -3.126,2.446 -0.549,0.717 -1.831,1.672 -2.848,2.122 -1.018,0.45 -2.3,1.213 -2.85,1.696 -1.326,1.166 -2.638,1.879 -3.454,1.879 -0.366,0 -1.527,0.898 -2.58,1.996 l -1.914,1.997 -0.817,-1.097 c -1.12,-1.501 -2.547,-2.896 -2.962,-2.896 -0.464,0 -1.843,-1.682 -1.86,-2.269 -0.007,-0.258 -0.753,-1.102 -1.658,-1.877 l -1.646,-1.408 1.081,-1.001 c 0.594,-0.551 1.618,-2.046 2.277,-3.323 0.658,-1.277 1.618,-2.772 2.133,-3.322 0.515,-0.55 1.383,-2.02 1.931,-3.266 0.547,-1.247 1.354,-2.459 1.794,-2.694 0.439,-0.235 1.38,-1.375 2.091,-2.534 0.711,-1.158 1.674,-2.475 2.139,-2.925 1.056,-1.024 2.645,-3.237 2.645,-3.685 0,-1.101 1.011,-1.26 1.903,-0.298 0.513,0.553 1.545,1.262 2.292,1.574 m -21.961,29.347 c 0.638,1.279 2.207,2.881 2.822,2.881 2.103,0 1.121,2.201 -1.434,3.215 -0.758,0.301 -1.928,1.025 -2.6,1.61 -2.067,1.798 -4.06,2.314 -5.064,1.311 l -0.829,-0.829 0.806,-1.58 c 0.444,-0.869 1.086,-1.812 1.427,-2.096 0.688,-0.57 1.838,-2.701 1.838,-3.403 0,-1.906 2.231,-2.722 3.034,-1.109"
       inkscape:connector-curvature="0"
       style="fill:#ff5c43;fill-rule:evenodd;stroke:none" />
  </g>
</svg>
