<?xml version="1.0" encoding="utf-8"?>
<!-- Generator: Adobe Illustrator 22.0.1, SVG Export Plug-In . SVG Version: 6.00 Build 0)  -->
<svg version="1.1" id="Layer_1" xmlns="http://www.w3.org/2000/svg" xmlns:xlink="http://www.w3.org/1999/xlink" x="0px" y="0px"
	 viewBox="0 0 190.6 60.4" style="enable-background:new 0 0 190.6 60.4;" xml:space="preserve">
<style type="text/css">
	.st0{fill:#EF6A4C;}
</style>
<path class="st0" d="M179.3,60.1c7.6,0,10.9-6,10.9-12.5c0-6.5-3.1-12.9-5.7-17.8l-3.1-5.7c-1.4-2.7-4.4-8.6-4.4-12.3
	c0-2.2,0.3-3.8,2.1-3.8c1.9,0,2.3,4.2,2.5,8.8h8.3c0.1-11.6-2.8-16.5-10.6-16.5c-8,0-11,5.8-11,12.4c0,6.2,2.7,12.1,5.2,16.8
	l4.1,7.7c2.7,4.9,3.9,8.4,3.9,11.2c0,2.2-0.4,3.7-2,3.7c-2.1,0-2.9-2.7-2.9-9.6H168C167.4,55.4,172.3,60.1,179.3,60.1 M151.6,28.8
	V9.4h1.5c2.5,0,3.1,2,3.1,8.9c0,7.6-0.8,10.4-3,10.4h-1.6V28.8z M142.5,59.4h9.1V37h2.7c7.6,0,10.9-5.7,10.9-18.6S161.4,1,154.5,1
	h-12.1V59.4z M127.2,60.1c7,0,11.5-4.4,11.5-11.8V1H130v47.2c0,1.6-0.5,3.1-2.3,3.1c-1.4,0-2.2-1.1-2.2-3V1h-9.2v47.6
	C116.1,56.3,120.2,60.1,127.2,60.1 M101,51.3c-1.8,0-2.5-1.5-2.5-2.9V11.7c0-1.3,0.6-2.6,2.3-2.6c1.7,0,2.5,1.1,2.5,2.6v36.8
	C103.5,49.8,103,51.3,101,51.3 M101,60.1c7.2,0,11.6-4.5,11.6-12.1V12c0-7.4-4.5-11.6-11.6-11.6c-7.2,0-11.6,4.4-11.6,11.8V48
	C89.4,55.5,92.8,60.1,101,60.1 M72,27.2V9.4h1.3c2.2,0,3.5,2.6,3.5,8.8c0,7.2-1.4,8.9-3.1,8.9H72V27.2z M63,59.4h9.1V34h2l3.3,25.3
	h9.1l-4.1-28.1c1.4-1.8,3.7-4.5,3.7-13.5c0-13.2-5.6-16.7-12.3-16.7H63V59.4z M48.2,60.1c7.2,0,11-4.9,11-11.6V28H48v7.9h2.7v12.4
	c0,1.7-0.6,3.2-2.3,3.2c-1.6,0-2.5-1.2-2.5-3.1V12.1c0-1.6,0.4-3.1,2.3-3.1c1.7,0,2.5,1,2.5,2.9V21h8.5v-9.8
	c0-6.6-4.1-10.8-10.8-10.8c-7.2,0-11.6,4.4-11.6,11.2V49C36.7,55.8,40.5,60.1,48.2,60.1 M8.4,59.4h9.2V36.6l8-35.5h-8.9L13.4,22
	L10,1H0.3l8.1,35.5V59.4z"/>
</svg>
