<?xml version="1.0" encoding="utf-8"?>
<!-- Generator: Adobe Illustrator 22.0.1, SVG Export Plug-In . SVG Version: 6.00 Build 0)  -->
<svg version="1.1" id="Layer_1" xmlns="http://www.w3.org/2000/svg" xmlns:xlink="http://www.w3.org/1999/xlink" x="0px" y="0px"
	 viewBox="0 0 294 59.6" style="enable-background:new 0 0 294 59.6;" xml:space="preserve">
<style type="text/css">
	.st0{fill:#EF6A4C;}
</style>
<path class="st0" d="M275.8,58.7H294v-8.4h-9.3V33.1h7.4v-8.5h-7.4V9.3h9.1V1h-18V58.7z M261.3,59.4c7.1,0,10.9-4.9,10.9-11.5v-9.6
	h-8.4v9.3c0,1.7-0.6,3.1-2.3,3.1c-1.6,0-2.4-1.4-2.4-3.1V11.7c0-1.7,0.4-2.9,2.3-2.9c1.7,0,2.4,1.2,2.4,3v9.6h8.4V10.9
	c0-6.6-3.8-10.7-10.7-10.7c-7.1,0-11.6,4.3-11.6,11.1v37C249.9,55.1,253.8,59.4,261.3,59.4 M237.3,58.7h9V1h-9V58.7z M217.2,58.9
	H228l6.5-57.9h-7.9l-3.3,37.3H223l-3.5-37.3h-9.1L217.2,58.9z M195,26.8V9.2h1.3c2.2,0,3.4,2.5,3.4,8.7c0,7.1-1.4,8.8-3,8.8H195
	V26.8z M186,58.7h9V33.6h2l3.2,25.1h9l-4-27.8c1.4-1.8,3.7-4.4,3.7-13.3c0-13-5.6-16.5-12.1-16.5H186V58.7z M164.4,58.7h18.2v-8.4
	h-9.3V33.1h7.4v-8.5h-7.4V9.3h9.1V1h-18C164.4,1,164.4,58.7,164.4,58.7z M150,59.4c7.5,0,10.8-6,10.8-12.3c0-6.5-3-12.7-5.7-17.6
	l-3-5.7c-1.4-2.6-4.3-8.5-4.3-12.1c0-2.2,0.3-3.7,2.1-3.7c1.9,0,2.3,4.1,2.4,8.7h8.2c0.1-11.5-2.7-16.4-10.5-16.4
	c-7.9,0-10.9,5.8-10.9,12.2c0,6.2,2.6,11.9,5.2,16.6l4,7.6c2.6,4.9,3.8,8.3,3.8,11.1c0,2.2-0.4,3.6-2,3.6c-2.1,0-2.8-2.6-2.8-9.5
	h-8.4C138.3,54.7,143.2,59.4,150,59.4 M103.8,58.7h9V34h4.8v24.7h8.9V1h-8.9v24.5h-4.8V0.9h-9C103.8,0.9,103.8,58.7,103.8,58.7z
	 M84.9,58.7h9V9.3h7V1H77.8v8.3h7.1V58.7z M63.7,59.4c7,0,11.4-4.3,11.4-11.7V0.9h-8.6v46.7c0,1.6-0.5,3-2.3,3
	c-1.4,0-2.2-1.1-2.2-2.9V0.9h-9.1V48C52.8,55.6,56.8,59.4,63.7,59.4 M37.8,50.7c-1.8,0-2.4-1.5-2.4-2.8V11.5c0-1.3,0.6-2.5,2.3-2.5
	c1.7,0,2.4,1.1,2.4,2.5v36.4C40.2,49.2,39.7,50.7,37.8,50.7 M37.8,59.4c7.1,0,11.5-4.4,11.5-11.9V11.8c0-7.3-4.4-11.5-11.5-11.5
	S26.3,4.6,26.3,12v35.5C26.3,54.8,29.7,59.4,37.8,59.4 M8,58.7h9.1V36.1L25,0.9h-8.8l-3.2,20.7L9.6,0.9H0L8,36V58.7z"/>
</svg>
