<?xml version="1.0" encoding="utf-8"?>
<!-- Generator: Adobe Illustrator 22.0.1, SVG Export Plug-In . SVG Version: 6.00 Build 0)  -->
<svg version="1.1" id="Layer_1" xmlns="http://www.w3.org/2000/svg" xmlns:xlink="http://www.w3.org/1999/xlink" x="0px" y="0px"
	 viewBox="0 0 473.2 124.8" style="enable-background:new 0 0 473.2 124.8;" xml:space="preserve">
<style type="text/css">
	.st0{fill:#4E4D4D;}
</style>
<g>
	<polygon class="st0" points="313.2,39.7 281.2,39.7 281.2,49.5 287.2,49.5 287.2,108.3 281.1,108.3 281.1,118.2 319.5,118.2 
		319.5,108.3 313.3,108.3 313.2,44.7 	"/>
	<path class="st0" d="M300.3,5.6c-7.2,0-13.1,5.8-13.1,13.1s5.8,13.1,13.1,13.1c7.2,0,13.1-5.8,13.1-13.1S307.6,5.6,300.3,5.6"/>
	<path class="st0" d="M238.8,7.1h-21.5c-1.7,0-2.8,1.1-2.8,2.8v105.3c0,1.7,1.1,2.8,2.8,2.8h48.3c1.7,0,2.8-1.1,2.8-2.8v-17
		c0-1.7-1.1-2.8-2.8-2.8h-22.3c-1.1,0-1.7-0.6-1.7-1.7V9.9C241.6,8.2,240.5,7.1,238.8,7.1"/>
	<path class="st0" d="M347.9,1.3h-0.7c-0.1,0.4-0.8,0.5-1.6,0.5c-0.1,0-0.3,0-0.4,0c-0.1,0-0.3,0-0.4,0c-0.7,0-1.3,0.1-1.5,0.4v5.5
		c-1-0.7-1.8-0.9-2.5-0.9c-0.4,0-0.8,0.1-1.2,0.1C339.1,7,338.7,7,338.2,7s-1-0.1-1.6-0.2c-1.4,0.1-1.4,1.1-1.3,2.3
		c-0.7-0.6-1.5-0.9-2.3-0.9c-1.6,0-3.3,1.1-4.4,1.8v8.3c3.3,23.5,10.6,52.1,17.3,74.7c3.7,12.4,6.8,26.2,19.3,30.7
		c1.3-0.4,2.7-0.8,4.1-0.8c1.3,0,2.4,0.3,3.2,1.2h2c-0.1-0.7,0.4-1,1.3-1c0.2,0,0.4,0,0.7,0c12.2-32.7,13.8-72.7,24.6-106.3v-2.3
		c-2.5-1.9-5.7-3.2-9.7-3.2c-0.3,0-0.6,0-1,0c-9.3,24.7-10.2,55-18.6,80.1c-4.5-21.1-12.3-45.6-15.3-68.3
		C355.3,14.6,356.6,3.5,347.9,1.3"/>
	<polygon class="st0" points="411.7,16.9 411.7,108.4 473.2,108.4 473.2,91.9 430,91.9 430,70.6 466.1,70.6 466.1,54.1 430,54.1 
		430,33.4 473.2,33.4 473.2,16.9 	"/>
	<polygon class="st0" points="19.8,45.5 13.6,58.8 7.3,45.5 0.4,45.5 10.4,65.2 10.4,79.8 16.7,79.8 16.7,65.2 26.7,45.5 	"/>
	<path class="st0" d="M53.5,45.1c-3,0-5.6,0.6-8.1,1.9c-4.7,2.4-8.2,8.1-8.2,15.7c0,3.8,0.7,7.1,2.2,9.9c3.1,5.4,8.1,7.8,14,7.8
		c3,0,5.6-0.6,8.1-1.8c4.7-2.5,8.2-8.2,8.2-15.8c0-3.8-0.8-7.1-2.3-9.9C64.4,47.4,59.4,45.1,53.5,45.1 M53.5,74.4
		c-2.8,0-5.1-1-6.9-2.9c-1.8-2-2.7-4.8-2.7-8.8s0.9-6.7,2.7-8.8c1.9-2,4.2-2.9,6.9-2.9c2.8,0,5.1,1,6.9,2.9c1.9,2,2.8,4.8,2.8,8.8
		s-0.9,6.7-2.8,8.8C58.6,73.4,56.3,74.4,53.5,74.4"/>
	<path class="st0" d="M110.3,45.5H104v21.4c0,4.9-2.1,7.5-6.4,7.5c-4.2,0-6.4-2.5-6.4-7.5V45.5h-6.3v21.3c0,8.9,4.9,13.5,12.8,13.5
		s12.8-4.5,12.8-13.5V45.5z"/>
	<polygon class="st0" points="151.3,45.5 125.8,45.5 125.8,51.3 135.4,51.3 135.4,79.8 141.8,79.8 141.8,51.3 151.3,51.3 	"/>
	<polygon class="st0" points="193.2,45.5 186.8,45.5 186.8,58.6 173.1,58.6 173.1,45.5 166.6,45.5 166.6,79.8 173.1,79.8 
		173.1,64.4 186.8,64.4 186.8,79.8 193.2,79.8 	"/>
</g>
</svg>
